G75*
%MOIN*%
%OFA0B0*%
%FSLAX25Y25*%
%IPPOS*%
%LPD*%
%AMOC8*
5,1,8,0,0,1.08239X$1,22.5*
%
%ADD10C,0.00100*%
%ADD11C,0.00500*%
%ADD12C,0.01000*%
%ADD13C,0.00394*%
%ADD14C,0.00600*%
%ADD15C,0.00400*%
D10*
X0046600Y0085980D02*
X0046600Y0087063D01*
X0047433Y0087063D02*
X0047433Y0085980D01*
X0047434Y0085980D02*
X0047432Y0085940D01*
X0047426Y0085901D01*
X0047417Y0085863D01*
X0047404Y0085825D01*
X0047388Y0085789D01*
X0047368Y0085755D01*
X0047345Y0085722D01*
X0047319Y0085692D01*
X0047290Y0085665D01*
X0047259Y0085640D01*
X0047226Y0085619D01*
X0047190Y0085601D01*
X0047153Y0085586D01*
X0047115Y0085575D01*
X0047076Y0085567D01*
X0047037Y0085563D01*
X0046997Y0085563D01*
X0046958Y0085567D01*
X0046919Y0085575D01*
X0046881Y0085586D01*
X0046844Y0085601D01*
X0046809Y0085619D01*
X0046775Y0085640D01*
X0046744Y0085665D01*
X0046715Y0085692D01*
X0046689Y0085722D01*
X0046666Y0085755D01*
X0046646Y0085789D01*
X0046630Y0085825D01*
X0046617Y0085863D01*
X0046608Y0085901D01*
X0046602Y0085940D01*
X0046600Y0085980D01*
X0048248Y0086438D02*
X0048707Y0086188D01*
X0048540Y0085563D02*
X0048490Y0085565D01*
X0048439Y0085570D01*
X0048390Y0085579D01*
X0048341Y0085592D01*
X0048293Y0085608D01*
X0048246Y0085627D01*
X0048201Y0085650D01*
X0048158Y0085676D01*
X0048116Y0085705D01*
X0048077Y0085737D01*
X0048040Y0085771D01*
X0048707Y0086188D02*
X0048736Y0086169D01*
X0048764Y0086146D01*
X0048788Y0086121D01*
X0048810Y0086094D01*
X0048829Y0086064D01*
X0048845Y0086033D01*
X0048858Y0086000D01*
X0048867Y0085966D01*
X0048872Y0085931D01*
X0048874Y0085896D01*
X0048873Y0085896D02*
X0048871Y0085861D01*
X0048866Y0085827D01*
X0048857Y0085793D01*
X0048844Y0085761D01*
X0048828Y0085730D01*
X0048809Y0085700D01*
X0048787Y0085673D01*
X0048763Y0085649D01*
X0048736Y0085627D01*
X0048707Y0085608D01*
X0048675Y0085592D01*
X0048643Y0085579D01*
X0048609Y0085570D01*
X0048575Y0085565D01*
X0048540Y0085563D01*
X0048790Y0086938D02*
X0048753Y0086964D01*
X0048715Y0086986D01*
X0048675Y0087006D01*
X0048634Y0087023D01*
X0048591Y0087038D01*
X0048548Y0087049D01*
X0048504Y0087057D01*
X0048460Y0087061D01*
X0048415Y0087063D01*
X0048380Y0087061D01*
X0048346Y0087056D01*
X0048312Y0087047D01*
X0048280Y0087034D01*
X0048249Y0087018D01*
X0048219Y0086999D01*
X0048192Y0086977D01*
X0048168Y0086953D01*
X0048146Y0086926D01*
X0048127Y0086897D01*
X0048111Y0086865D01*
X0048098Y0086833D01*
X0048089Y0086799D01*
X0048084Y0086765D01*
X0048082Y0086730D01*
X0048081Y0086730D02*
X0048083Y0086695D01*
X0048088Y0086660D01*
X0048097Y0086626D01*
X0048110Y0086593D01*
X0048126Y0086562D01*
X0048145Y0086532D01*
X0048167Y0086505D01*
X0048191Y0086480D01*
X0048219Y0086457D01*
X0048248Y0086438D01*
X0049499Y0086396D02*
X0049916Y0086396D01*
X0049916Y0086397D02*
X0049951Y0086399D01*
X0049985Y0086404D01*
X0050019Y0086413D01*
X0050051Y0086426D01*
X0050083Y0086442D01*
X0050112Y0086461D01*
X0050139Y0086483D01*
X0050163Y0086507D01*
X0050185Y0086534D01*
X0050204Y0086564D01*
X0050220Y0086595D01*
X0050233Y0086627D01*
X0050242Y0086661D01*
X0050247Y0086695D01*
X0050249Y0086730D01*
X0050247Y0086765D01*
X0050242Y0086799D01*
X0050233Y0086833D01*
X0050220Y0086865D01*
X0050204Y0086897D01*
X0050185Y0086926D01*
X0050163Y0086953D01*
X0050139Y0086977D01*
X0050112Y0086999D01*
X0050083Y0087018D01*
X0050051Y0087034D01*
X0050019Y0087047D01*
X0049985Y0087056D01*
X0049951Y0087061D01*
X0049916Y0087063D01*
X0049499Y0087063D01*
X0049499Y0085563D01*
X0049916Y0085563D01*
X0049956Y0085565D01*
X0049995Y0085571D01*
X0050033Y0085580D01*
X0050071Y0085593D01*
X0050107Y0085609D01*
X0050141Y0085629D01*
X0050174Y0085652D01*
X0050204Y0085678D01*
X0050231Y0085707D01*
X0050256Y0085738D01*
X0050277Y0085772D01*
X0050295Y0085807D01*
X0050310Y0085844D01*
X0050321Y0085882D01*
X0050329Y0085921D01*
X0050333Y0085960D01*
X0050333Y0086000D01*
X0050329Y0086039D01*
X0050321Y0086078D01*
X0050310Y0086116D01*
X0050295Y0086153D01*
X0050277Y0086189D01*
X0050256Y0086222D01*
X0050231Y0086253D01*
X0050204Y0086282D01*
X0050174Y0086308D01*
X0050141Y0086331D01*
X0050107Y0086351D01*
X0050071Y0086367D01*
X0050033Y0086380D01*
X0049995Y0086389D01*
X0049956Y0086395D01*
X0049916Y0086397D01*
X0050872Y0086730D02*
X0051289Y0087063D01*
X0051289Y0085563D01*
X0051705Y0085563D02*
X0050872Y0085563D01*
X0061400Y0178963D02*
X0062067Y0178963D01*
X0062648Y0178963D02*
X0062648Y0180463D01*
X0063315Y0180463D01*
X0063893Y0180463D02*
X0063893Y0178963D01*
X0064310Y0178963D01*
X0064348Y0178965D01*
X0064387Y0178970D01*
X0064424Y0178979D01*
X0064461Y0178991D01*
X0064496Y0179007D01*
X0064530Y0179025D01*
X0064561Y0179047D01*
X0064591Y0179072D01*
X0064618Y0179099D01*
X0064643Y0179129D01*
X0064665Y0179160D01*
X0064683Y0179194D01*
X0064699Y0179229D01*
X0064711Y0179266D01*
X0064720Y0179303D01*
X0064725Y0179342D01*
X0064727Y0179380D01*
X0064727Y0180046D01*
X0064725Y0180084D01*
X0064720Y0180123D01*
X0064711Y0180160D01*
X0064699Y0180197D01*
X0064683Y0180232D01*
X0064665Y0180266D01*
X0064643Y0180297D01*
X0064618Y0180327D01*
X0064591Y0180354D01*
X0064561Y0180379D01*
X0064530Y0180401D01*
X0064496Y0180419D01*
X0064461Y0180435D01*
X0064424Y0180447D01*
X0064387Y0180456D01*
X0064348Y0180461D01*
X0064310Y0180463D01*
X0063893Y0180463D01*
X0063148Y0179796D02*
X0062648Y0179796D01*
X0062648Y0178963D02*
X0063315Y0178963D01*
X0061400Y0178963D02*
X0061400Y0180463D01*
X0065381Y0180130D02*
X0065798Y0180463D01*
X0065798Y0178963D01*
X0065381Y0178963D02*
X0066215Y0178963D01*
D11*
X0016693Y0063108D02*
X0016693Y0001388D01*
X0016815Y0001250D02*
X0063815Y0001250D01*
X0063937Y0001388D02*
X0063937Y0063722D01*
X0063819Y0059250D02*
X0016811Y0059250D01*
X0022315Y0075250D02*
X0058815Y0075250D01*
X0057315Y0068750D02*
X0024315Y0068750D01*
X0015150Y0095213D02*
X0014150Y0096213D01*
X0016150Y0096213D01*
X0015150Y0095213D01*
X0013256Y0097807D02*
X0009444Y0097807D01*
X0009444Y0109619D02*
X0013256Y0109619D01*
X0015350Y0112467D02*
X0005350Y0112467D01*
X0005350Y0162467D01*
X0015350Y0162467D01*
X0015350Y0112467D01*
X0016956Y0115519D02*
X0016563Y0115913D01*
X0015775Y0115913D01*
X0016956Y0115519D02*
X0017744Y0116307D01*
X0018137Y0115913D01*
X0018925Y0115913D01*
X0026570Y0121108D02*
X0028539Y0119140D01*
X0052161Y0119140D01*
X0054130Y0121108D01*
X0054130Y0144730D01*
X0052161Y0146699D01*
X0028539Y0146699D01*
X0026570Y0144730D01*
X0026570Y0121108D01*
X0040401Y0158530D02*
X0044338Y0158530D01*
X0044338Y0169553D02*
X0040401Y0169553D01*
X0034889Y0165616D02*
X0034889Y0162467D01*
X0049850Y0162467D02*
X0049850Y0165616D01*
X0053250Y0148667D02*
X0053252Y0148726D01*
X0053258Y0148784D01*
X0053268Y0148842D01*
X0053281Y0148899D01*
X0053299Y0148956D01*
X0053320Y0149011D01*
X0053345Y0149064D01*
X0053373Y0149115D01*
X0053404Y0149165D01*
X0053439Y0149212D01*
X0053477Y0149257D01*
X0053518Y0149300D01*
X0053562Y0149339D01*
X0053608Y0149375D01*
X0053656Y0149409D01*
X0053707Y0149439D01*
X0053760Y0149465D01*
X0053814Y0149488D01*
X0053869Y0149507D01*
X0053926Y0149523D01*
X0053984Y0149535D01*
X0054042Y0149543D01*
X0054101Y0149547D01*
X0054159Y0149547D01*
X0054218Y0149543D01*
X0054276Y0149535D01*
X0054334Y0149523D01*
X0054391Y0149507D01*
X0054446Y0149488D01*
X0054500Y0149465D01*
X0054553Y0149439D01*
X0054604Y0149409D01*
X0054652Y0149375D01*
X0054698Y0149339D01*
X0054742Y0149300D01*
X0054783Y0149257D01*
X0054821Y0149212D01*
X0054856Y0149165D01*
X0054887Y0149115D01*
X0054915Y0149064D01*
X0054940Y0149011D01*
X0054961Y0148956D01*
X0054979Y0148899D01*
X0054992Y0148842D01*
X0055002Y0148784D01*
X0055008Y0148726D01*
X0055010Y0148667D01*
X0055008Y0148608D01*
X0055002Y0148550D01*
X0054992Y0148492D01*
X0054979Y0148435D01*
X0054961Y0148378D01*
X0054940Y0148323D01*
X0054915Y0148270D01*
X0054887Y0148219D01*
X0054856Y0148169D01*
X0054821Y0148122D01*
X0054783Y0148077D01*
X0054742Y0148034D01*
X0054698Y0147995D01*
X0054652Y0147959D01*
X0054604Y0147925D01*
X0054553Y0147895D01*
X0054500Y0147869D01*
X0054446Y0147846D01*
X0054391Y0147827D01*
X0054334Y0147811D01*
X0054276Y0147799D01*
X0054218Y0147791D01*
X0054159Y0147787D01*
X0054101Y0147787D01*
X0054042Y0147791D01*
X0053984Y0147799D01*
X0053926Y0147811D01*
X0053869Y0147827D01*
X0053814Y0147846D01*
X0053760Y0147869D01*
X0053707Y0147895D01*
X0053656Y0147925D01*
X0053608Y0147959D01*
X0053562Y0147995D01*
X0053518Y0148034D01*
X0053477Y0148077D01*
X0053439Y0148122D01*
X0053404Y0148169D01*
X0053373Y0148219D01*
X0053345Y0148270D01*
X0053320Y0148323D01*
X0053299Y0148378D01*
X0053281Y0148435D01*
X0053268Y0148492D01*
X0053258Y0148550D01*
X0053252Y0148608D01*
X0053250Y0148667D01*
X0065350Y0162467D02*
X0075350Y0162467D01*
X0075350Y0112467D01*
X0065350Y0112467D01*
X0065350Y0162467D01*
X0065350Y0172467D01*
X0075350Y0172467D01*
X0075350Y0162467D01*
X0069762Y0181051D02*
X0069762Y0185775D01*
X0058738Y0185775D01*
X0058738Y0181051D01*
X0069762Y0181051D01*
X0065431Y0181838D02*
X0065431Y0184988D01*
X0064621Y0183953D02*
X0063069Y0183953D01*
X0063069Y0184451D02*
X0063874Y0184451D01*
X0063126Y0184950D02*
X0063069Y0184950D01*
X0063069Y0184988D02*
X0065431Y0183413D01*
X0063069Y0181838D01*
X0063069Y0184988D01*
X0065431Y0183413D01*
X0063069Y0181838D01*
X0063069Y0184988D01*
X0063069Y0183454D02*
X0065369Y0183454D01*
X0064745Y0182956D02*
X0063069Y0182956D01*
X0063069Y0182457D02*
X0063997Y0182457D01*
X0063250Y0181959D02*
X0063069Y0181959D01*
X0054812Y0106999D02*
X0052568Y0106999D01*
X0054812Y0106999D02*
X0054812Y0103574D01*
X0051387Y0101487D02*
X0049812Y0101487D01*
X0048237Y0106999D02*
X0046151Y0106999D01*
X0046151Y0103574D01*
X0040315Y0061219D02*
X0040315Y0057281D01*
X0067232Y0085482D02*
X0067232Y0094144D01*
X0015350Y0162467D02*
X0015350Y0172467D01*
X0005350Y0172467D01*
X0005350Y0162467D01*
D12*
X0021350Y0135919D02*
X0024850Y0135919D01*
X0024850Y0133919D02*
X0021350Y0133919D01*
D13*
X0017836Y0129425D02*
X0017836Y0128480D01*
X0017875Y0128952D02*
X0018426Y0128952D01*
X0017048Y0128480D02*
X0017048Y0129425D01*
X0016930Y0128952D02*
X0016458Y0128952D01*
X0023145Y0119236D02*
X0023145Y0118960D01*
X0023460Y0118645D01*
X0023500Y0118606D02*
X0022791Y0118133D01*
X0022791Y0118094D02*
X0023145Y0117740D01*
X0023145Y0117504D01*
X0022950Y0115897D02*
X0022950Y0115425D01*
X0022478Y0115307D02*
X0023422Y0115307D01*
X0023422Y0114519D02*
X0022478Y0114519D01*
X0022950Y0114480D02*
X0022950Y0113929D01*
X0022917Y0112419D02*
X0022917Y0111947D01*
X0022445Y0111829D02*
X0023390Y0111829D01*
X0023390Y0111041D02*
X0022445Y0111041D01*
X0022917Y0111002D02*
X0022917Y0110451D01*
X0023050Y0108997D02*
X0023050Y0108525D01*
X0022578Y0108407D02*
X0023522Y0108407D01*
X0023522Y0107619D02*
X0022578Y0107619D01*
X0023050Y0107580D02*
X0023050Y0107029D01*
X0022414Y0095467D02*
X0022886Y0094759D01*
X0022926Y0094798D02*
X0023241Y0095113D01*
X0023516Y0095113D01*
X0022374Y0095467D02*
X0022020Y0095113D01*
X0021784Y0095113D01*
X0020216Y0095113D02*
X0019980Y0095113D01*
X0019626Y0094759D01*
X0019586Y0094759D02*
X0019114Y0095467D01*
X0019074Y0095428D02*
X0018759Y0095113D01*
X0018484Y0095113D01*
X0025084Y0095013D02*
X0025320Y0095013D01*
X0025674Y0095367D01*
X0025714Y0095367D02*
X0026186Y0094659D01*
X0026226Y0094698D02*
X0026541Y0095013D01*
X0026816Y0095013D01*
X0028666Y0095013D02*
X0029217Y0095013D01*
X0029256Y0095485D02*
X0029256Y0094541D01*
X0030044Y0094541D02*
X0030044Y0095485D01*
X0030162Y0095013D02*
X0030634Y0095013D01*
X0034681Y0095147D02*
X0034957Y0095147D01*
X0035272Y0095462D01*
X0035311Y0095501D02*
X0035784Y0094793D01*
X0035823Y0094793D02*
X0036178Y0095147D01*
X0036414Y0095147D01*
X0038205Y0095200D02*
X0038481Y0095200D01*
X0038796Y0095515D01*
X0038835Y0095554D02*
X0039307Y0094845D01*
X0039347Y0094845D02*
X0039701Y0095200D01*
X0039937Y0095200D01*
X0041622Y0095144D02*
X0041859Y0095144D01*
X0042213Y0095499D01*
X0042252Y0095499D02*
X0042725Y0094790D01*
X0042764Y0094830D02*
X0043079Y0095144D01*
X0043355Y0095144D01*
X0041608Y0108022D02*
X0041963Y0108376D01*
X0042199Y0108376D01*
X0041569Y0108022D02*
X0041096Y0108730D01*
X0041057Y0108691D02*
X0040742Y0108376D01*
X0040467Y0108376D01*
X0038819Y0108376D02*
X0038582Y0108376D01*
X0038228Y0108022D01*
X0038189Y0108022D02*
X0037716Y0108730D01*
X0037677Y0108691D02*
X0037362Y0108376D01*
X0037086Y0108376D01*
X0035288Y0108376D02*
X0035012Y0108376D01*
X0034697Y0108061D01*
X0034658Y0108022D02*
X0034185Y0108730D01*
X0034146Y0108730D02*
X0033792Y0108376D01*
X0033556Y0108376D01*
X0030293Y0154635D02*
X0030293Y0155107D01*
X0030765Y0155226D02*
X0029820Y0155226D01*
X0029820Y0156013D02*
X0030765Y0156013D01*
X0030293Y0156052D02*
X0030293Y0156604D01*
X0031279Y0163495D02*
X0031279Y0164440D01*
X0031161Y0163967D02*
X0030689Y0163967D01*
X0032067Y0163495D02*
X0032067Y0164440D01*
X0032106Y0163967D02*
X0032657Y0163967D01*
X0029212Y0163870D02*
X0028661Y0163870D01*
X0028622Y0163398D02*
X0028622Y0164343D01*
X0027834Y0164343D02*
X0027834Y0163398D01*
X0027716Y0163870D02*
X0027244Y0163870D01*
X0025548Y0163870D02*
X0025311Y0163870D01*
X0024957Y0163516D01*
X0024918Y0163516D02*
X0024445Y0164225D01*
X0024406Y0164185D02*
X0024091Y0163870D01*
X0023815Y0163870D01*
X0018413Y0186138D02*
X0017941Y0186847D01*
X0017901Y0186847D02*
X0017547Y0186493D01*
X0017311Y0186493D01*
X0018452Y0186178D02*
X0018767Y0186493D01*
X0019043Y0186493D01*
X0052748Y0167844D02*
X0053299Y0167844D01*
X0053338Y0167372D02*
X0053338Y0168317D01*
X0054126Y0168317D02*
X0054126Y0167372D01*
X0054244Y0167844D02*
X0054716Y0167844D01*
X0053496Y0161525D02*
X0053968Y0160816D01*
X0054007Y0160816D02*
X0054362Y0161170D01*
X0054598Y0161170D01*
X0053456Y0161485D02*
X0053141Y0161170D01*
X0052866Y0161170D01*
X0056709Y0161170D02*
X0057260Y0161170D01*
X0057300Y0160698D02*
X0057300Y0161643D01*
X0058087Y0161643D02*
X0058087Y0160698D01*
X0058205Y0161170D02*
X0058678Y0161170D01*
X0060993Y0148770D02*
X0060993Y0148298D01*
X0060521Y0148180D02*
X0061466Y0148180D01*
X0061466Y0147393D02*
X0060521Y0147393D01*
X0060993Y0147353D02*
X0060993Y0146802D01*
X0062581Y0140237D02*
X0062227Y0139882D01*
X0061991Y0139882D01*
X0062621Y0140237D02*
X0063093Y0139528D01*
X0063133Y0139567D02*
X0063448Y0139882D01*
X0063723Y0139882D01*
X0062716Y0126150D02*
X0063189Y0125441D01*
X0063228Y0125441D02*
X0063582Y0125796D01*
X0063819Y0125796D01*
X0062677Y0126111D02*
X0062362Y0125796D01*
X0062086Y0125796D01*
X0062784Y0118419D02*
X0063256Y0117710D01*
X0063296Y0117710D02*
X0063650Y0118064D01*
X0063886Y0118064D01*
X0062744Y0118379D02*
X0062430Y0118064D01*
X0062154Y0118064D01*
X0063704Y0109516D02*
X0064177Y0108807D01*
X0064216Y0108807D02*
X0064570Y0109162D01*
X0064807Y0109162D01*
X0063665Y0109477D02*
X0063350Y0109162D01*
X0063074Y0109162D01*
X0061363Y0109150D02*
X0061126Y0109150D01*
X0060772Y0108796D01*
X0060733Y0108796D02*
X0060260Y0109504D01*
X0060221Y0109465D02*
X0059906Y0109150D01*
X0059630Y0109150D01*
X0057726Y0116459D02*
X0057726Y0116931D01*
X0058198Y0117049D02*
X0057253Y0117049D01*
X0057253Y0117837D02*
X0058198Y0117837D01*
X0057726Y0117876D02*
X0057726Y0118427D01*
X0059850Y0101197D02*
X0059850Y0100646D01*
X0060322Y0100607D02*
X0059378Y0100607D01*
X0059378Y0099819D02*
X0060322Y0099819D01*
X0059850Y0099701D02*
X0059850Y0099229D01*
X0060094Y0194122D02*
X0060094Y0195067D01*
X0060055Y0194594D02*
X0059504Y0194594D01*
X0060881Y0195067D02*
X0060881Y0194122D01*
X0061000Y0194594D02*
X0061472Y0194594D01*
X0058011Y0194569D02*
X0057538Y0194569D01*
X0057420Y0195041D02*
X0057420Y0194096D01*
X0056633Y0194096D02*
X0056633Y0195041D01*
X0056593Y0194569D02*
X0056042Y0194569D01*
X0012244Y0072585D02*
X0012244Y0071641D01*
X0012362Y0072113D02*
X0012834Y0072113D01*
X0011417Y0072113D02*
X0010866Y0072113D01*
X0011456Y0072585D02*
X0011456Y0071641D01*
D14*
X0009415Y0071713D02*
X0008093Y0071713D01*
X0007841Y0072500D02*
X0007841Y0070926D01*
X0006659Y0070926D02*
X0006659Y0072500D01*
X0006596Y0071713D02*
X0005085Y0071713D01*
X0005552Y0084024D02*
X0005922Y0084024D01*
X0005552Y0084024D02*
X0005552Y0090402D01*
X0005922Y0090402D01*
X0009095Y0090402D02*
X0009465Y0090402D01*
X0009095Y0084024D02*
X0013205Y0084024D01*
X0013205Y0090402D02*
X0012835Y0090402D01*
X0016378Y0090402D02*
X0016748Y0090402D01*
X0016748Y0084024D01*
X0016378Y0084024D01*
X0023546Y0102339D02*
X0025121Y0102339D01*
X0024334Y0102276D02*
X0024334Y0100764D01*
X0023546Y0103520D02*
X0025121Y0103520D01*
X0024334Y0103772D02*
X0024334Y0105095D01*
X0011250Y0176748D02*
X0011250Y0177456D01*
X0011171Y0177693D02*
X0011123Y0177695D01*
X0011076Y0177701D01*
X0011029Y0177710D01*
X0010982Y0177723D01*
X0010938Y0177739D01*
X0010894Y0177759D01*
X0010852Y0177783D01*
X0010812Y0177809D01*
X0010775Y0177839D01*
X0010740Y0177872D01*
X0010707Y0177907D01*
X0010677Y0177944D01*
X0010651Y0177984D01*
X0010627Y0178026D01*
X0010607Y0178070D01*
X0010591Y0178114D01*
X0010578Y0178161D01*
X0010569Y0178208D01*
X0010563Y0178255D01*
X0010561Y0178303D01*
X0010563Y0178351D01*
X0010569Y0178398D01*
X0010578Y0178445D01*
X0010591Y0178492D01*
X0010607Y0178536D01*
X0010627Y0178580D01*
X0010651Y0178622D01*
X0010677Y0178662D01*
X0010707Y0178699D01*
X0010740Y0178734D01*
X0010775Y0178767D01*
X0010812Y0178797D01*
X0010852Y0178823D01*
X0010894Y0178847D01*
X0010938Y0178867D01*
X0010982Y0178883D01*
X0011029Y0178896D01*
X0011076Y0178905D01*
X0011123Y0178911D01*
X0011171Y0178913D01*
X0011329Y0178913D01*
X0011368Y0178913D02*
X0011412Y0178917D01*
X0011456Y0178924D01*
X0011500Y0178935D01*
X0011542Y0178950D01*
X0011583Y0178968D01*
X0011622Y0178990D01*
X0011659Y0179015D01*
X0011694Y0179043D01*
X0011726Y0179075D01*
X0011755Y0179108D01*
X0011782Y0179144D01*
X0011805Y0179183D01*
X0011824Y0179223D01*
X0011841Y0179265D01*
X0011853Y0179308D01*
X0011862Y0179351D01*
X0011867Y0179396D01*
X0011868Y0179441D01*
X0011865Y0179485D01*
X0011859Y0179530D01*
X0011848Y0179573D01*
X0011834Y0179616D01*
X0011816Y0179657D01*
X0011795Y0179696D01*
X0011771Y0179733D01*
X0011743Y0179769D01*
X0011712Y0179801D01*
X0011679Y0179831D01*
X0011643Y0179858D01*
X0011250Y0180606D02*
X0011250Y0181039D01*
X0011250Y0180606D02*
X0011252Y0180547D01*
X0011258Y0180489D01*
X0011267Y0180431D01*
X0011280Y0180374D01*
X0011297Y0180318D01*
X0011317Y0180263D01*
X0011341Y0180210D01*
X0011368Y0180158D01*
X0011399Y0180108D01*
X0011433Y0180060D01*
X0011470Y0180014D01*
X0011509Y0179971D01*
X0011551Y0179931D01*
X0011596Y0179893D01*
X0011643Y0179858D01*
X0027622Y0179545D02*
X0028645Y0179545D01*
X0027661Y0179585D02*
X0027661Y0199585D01*
X0027700Y0199585D02*
X0028685Y0199585D01*
X0053173Y0199585D02*
X0053173Y0199624D01*
X0053173Y0199585D02*
X0054078Y0199585D01*
X0054039Y0199585D02*
X0054039Y0179585D01*
X0054118Y0179506D02*
X0053212Y0179506D01*
X0053422Y0201278D02*
X0053424Y0201320D01*
X0053430Y0201362D01*
X0053440Y0201404D01*
X0053453Y0201444D01*
X0053470Y0201483D01*
X0053491Y0201520D01*
X0053515Y0201555D01*
X0053542Y0201587D01*
X0053572Y0201617D01*
X0053604Y0201644D01*
X0053639Y0201668D01*
X0053676Y0201689D01*
X0053715Y0201706D01*
X0053755Y0201719D01*
X0053797Y0201729D01*
X0053839Y0201735D01*
X0053881Y0201737D01*
X0053923Y0201735D01*
X0053965Y0201729D01*
X0054007Y0201719D01*
X0054047Y0201706D01*
X0054086Y0201689D01*
X0054123Y0201668D01*
X0054158Y0201644D01*
X0054190Y0201617D01*
X0054220Y0201587D01*
X0054247Y0201555D01*
X0054271Y0201520D01*
X0054292Y0201483D01*
X0054309Y0201444D01*
X0054322Y0201404D01*
X0054332Y0201362D01*
X0054338Y0201320D01*
X0054340Y0201278D01*
X0054338Y0201236D01*
X0054332Y0201194D01*
X0054322Y0201152D01*
X0054309Y0201112D01*
X0054292Y0201073D01*
X0054271Y0201036D01*
X0054247Y0201001D01*
X0054220Y0200969D01*
X0054190Y0200939D01*
X0054158Y0200912D01*
X0054123Y0200888D01*
X0054086Y0200867D01*
X0054047Y0200850D01*
X0054007Y0200837D01*
X0053965Y0200827D01*
X0053923Y0200821D01*
X0053881Y0200819D01*
X0053839Y0200821D01*
X0053797Y0200827D01*
X0053755Y0200837D01*
X0053715Y0200850D01*
X0053676Y0200867D01*
X0053639Y0200888D01*
X0053604Y0200912D01*
X0053572Y0200939D01*
X0053542Y0200969D01*
X0053515Y0201001D01*
X0053491Y0201036D01*
X0053470Y0201073D01*
X0053453Y0201112D01*
X0053440Y0201152D01*
X0053430Y0201194D01*
X0053424Y0201236D01*
X0053422Y0201278D01*
X0058486Y0096309D02*
X0058486Y0095600D01*
X0058565Y0095364D02*
X0058613Y0095362D01*
X0058660Y0095356D01*
X0058707Y0095347D01*
X0058754Y0095334D01*
X0058798Y0095318D01*
X0058842Y0095298D01*
X0058884Y0095274D01*
X0058924Y0095248D01*
X0058961Y0095218D01*
X0058996Y0095185D01*
X0059029Y0095150D01*
X0059059Y0095113D01*
X0059085Y0095073D01*
X0059109Y0095031D01*
X0059129Y0094987D01*
X0059145Y0094943D01*
X0059158Y0094896D01*
X0059167Y0094849D01*
X0059173Y0094802D01*
X0059175Y0094754D01*
X0059173Y0094706D01*
X0059167Y0094659D01*
X0059158Y0094612D01*
X0059145Y0094565D01*
X0059129Y0094521D01*
X0059109Y0094477D01*
X0059085Y0094435D01*
X0059059Y0094395D01*
X0059029Y0094358D01*
X0058996Y0094323D01*
X0058961Y0094290D01*
X0058924Y0094260D01*
X0058884Y0094234D01*
X0058842Y0094210D01*
X0058798Y0094190D01*
X0058754Y0094174D01*
X0058707Y0094161D01*
X0058660Y0094152D01*
X0058613Y0094146D01*
X0058565Y0094144D01*
X0058407Y0094144D01*
X0058368Y0094144D02*
X0058324Y0094140D01*
X0058280Y0094133D01*
X0058236Y0094122D01*
X0058194Y0094107D01*
X0058153Y0094089D01*
X0058114Y0094067D01*
X0058077Y0094042D01*
X0058042Y0094014D01*
X0058010Y0093982D01*
X0057981Y0093949D01*
X0057954Y0093913D01*
X0057931Y0093874D01*
X0057912Y0093834D01*
X0057895Y0093792D01*
X0057883Y0093749D01*
X0057874Y0093706D01*
X0057869Y0093661D01*
X0057868Y0093616D01*
X0057871Y0093572D01*
X0057877Y0093527D01*
X0057888Y0093484D01*
X0057902Y0093441D01*
X0057920Y0093400D01*
X0057941Y0093361D01*
X0057965Y0093324D01*
X0057993Y0093288D01*
X0058024Y0093256D01*
X0058057Y0093226D01*
X0058093Y0093199D01*
X0058486Y0092451D02*
X0058486Y0092018D01*
X0058486Y0092451D02*
X0058484Y0092510D01*
X0058478Y0092568D01*
X0058469Y0092626D01*
X0058456Y0092683D01*
X0058439Y0092739D01*
X0058419Y0092794D01*
X0058395Y0092847D01*
X0058368Y0092899D01*
X0058337Y0092949D01*
X0058303Y0092997D01*
X0058266Y0093043D01*
X0058227Y0093086D01*
X0058185Y0093126D01*
X0058140Y0093164D01*
X0058093Y0093199D01*
D15*
X0067350Y0098313D02*
X0067350Y0098813D01*
X0069850Y0098813D01*
X0075350Y0095313D02*
X0075350Y0093313D01*
X0077850Y0093313D01*
X0077850Y0086313D01*
X0075350Y0086313D01*
X0075350Y0084313D01*
X0075350Y0086313D02*
X0075350Y0093313D01*
X0069850Y0081313D02*
X0067350Y0081313D01*
X0067350Y0081813D01*
M02*
