G75*
%MOIN*%
%OFA0B0*%
%FSLAX25Y25*%
%IPPOS*%
%LPD*%
%AMOC8*
5,1,8,0,0,1.08239X$1,22.5*
%
%ADD10R,0.00620X0.00042*%
%ADD11R,0.01120X0.00042*%
%ADD12R,0.01460X0.00041*%
%ADD13R,0.00710X0.00041*%
%ADD14R,0.00630X0.00041*%
%ADD15R,0.01830X0.00041*%
%ADD16R,0.01710X0.00042*%
%ADD17R,0.00710X0.00042*%
%ADD18R,0.00670X0.00042*%
%ADD19R,0.02080X0.00042*%
%ADD20R,0.01920X0.00042*%
%ADD21R,0.02250X0.00042*%
%ADD22R,0.02080X0.00041*%
%ADD23R,0.02370X0.00041*%
%ADD24R,0.00750X0.00042*%
%ADD25R,0.02460X0.00042*%
%ADD26R,0.02420X0.00042*%
%ADD27R,0.00800X0.00042*%
%ADD28R,0.02580X0.00042*%
%ADD29R,0.02580X0.00041*%
%ADD30R,0.00800X0.00041*%
%ADD31R,0.02670X0.00041*%
%ADD32R,0.02700X0.00042*%
%ADD33R,0.00840X0.00042*%
%ADD34R,0.02710X0.00042*%
%ADD35R,0.02800X0.00042*%
%ADD36R,0.00880X0.00042*%
%ADD37R,0.02790X0.00042*%
%ADD38R,0.02960X0.00041*%
%ADD39R,0.00920X0.00041*%
%ADD40R,0.02870X0.00041*%
%ADD41R,0.03040X0.00042*%
%ADD42R,0.00920X0.00042*%
%ADD43R,0.02920X0.00042*%
%ADD44R,0.03120X0.00042*%
%ADD45R,0.00960X0.00042*%
%ADD46R,0.02960X0.00042*%
%ADD47R,0.03250X0.00041*%
%ADD48R,0.01000X0.00041*%
%ADD49R,0.03000X0.00041*%
%ADD50R,0.03340X0.00042*%
%ADD51R,0.01050X0.00042*%
%ADD52R,0.03080X0.00042*%
%ADD53R,0.01380X0.00042*%
%ADD54R,0.01420X0.00042*%
%ADD55R,0.01210X0.00041*%
%ADD56R,0.01250X0.00041*%
%ADD57R,0.01090X0.00041*%
%ADD58R,0.03170X0.00041*%
%ADD59R,0.01130X0.00042*%
%ADD60R,0.01090X0.00042*%
%ADD61R,0.01080X0.00042*%
%ADD62R,0.01000X0.00042*%
%ADD63R,0.01170X0.00042*%
%ADD64R,0.01210X0.00042*%
%ADD65R,0.01040X0.00041*%
%ADD66R,0.00920X0.00041*%
%ADD67R,0.01170X0.00041*%
%ADD68R,0.01130X0.00041*%
%ADD69R,0.00950X0.00042*%
%ADD70R,0.01250X0.00042*%
%ADD71R,0.01040X0.00042*%
%ADD72R,0.00960X0.00041*%
%ADD73R,0.01300X0.00041*%
%ADD74R,0.01340X0.00042*%
%ADD75R,0.00920X0.00042*%
%ADD76R,0.00880X0.00041*%
%ADD77R,0.01380X0.00041*%
%ADD78R,0.01420X0.00042*%
%ADD79R,0.00830X0.00042*%
%ADD80R,0.01460X0.00042*%
%ADD81R,0.00870X0.00041*%
%ADD82R,0.01500X0.00042*%
%ADD83R,0.01550X0.00042*%
%ADD84R,0.00830X0.00041*%
%ADD85R,0.01590X0.00041*%
%ADD86R,0.00790X0.00041*%
%ADD87R,0.00790X0.00042*%
%ADD88R,0.00790X0.00041*%
%ADD89R,0.00870X0.00042*%
%ADD90R,0.00750X0.00041*%
%ADD91R,0.00840X0.00041*%
%ADD92R,0.01750X0.00042*%
%ADD93R,0.01750X0.00041*%
%ADD94R,0.00790X0.00042*%
%ADD95R,0.01590X0.00042*%
%ADD96R,0.01500X0.00041*%
%ADD97R,0.00040X0.00042*%
%ADD98R,0.00080X0.00041*%
%ADD99R,0.01420X0.00041*%
%ADD100R,0.00170X0.00042*%
%ADD101R,0.00910X0.00042*%
%ADD102R,0.00290X0.00042*%
%ADD103R,0.00380X0.00041*%
%ADD104R,0.01340X0.00041*%
%ADD105R,0.00500X0.00042*%
%ADD106R,0.01300X0.00042*%
%ADD107R,0.01040X0.00042*%
%ADD108R,0.00580X0.00042*%
%ADD109R,0.00660X0.00041*%
%ADD110R,0.03170X0.00042*%
%ADD111R,0.03120X0.00041*%
%ADD112R,0.03040X0.00042*%
%ADD113R,0.03040X0.00041*%
%ADD114R,0.01050X0.00041*%
%ADD115R,0.02880X0.00042*%
%ADD116R,0.02870X0.00042*%
%ADD117R,0.02750X0.00041*%
%ADD118R,0.02790X0.00041*%
%ADD119R,0.02620X0.00042*%
%ADD120R,0.02750X0.00042*%
%ADD121R,0.02540X0.00042*%
%ADD122R,0.02670X0.00042*%
%ADD123R,0.02380X0.00041*%
%ADD124R,0.02500X0.00042*%
%ADD125R,0.02370X0.00042*%
%ADD126R,0.01880X0.00041*%
%ADD127R,0.02250X0.00041*%
%ADD128R,0.01700X0.00042*%
%ADD129R,0.01830X0.00042*%
%ADD130R,0.01120X0.00041*%
%ADD131R,0.00660X0.00042*%
%ADD132R,0.00330X0.00041*%
%ADD133R,0.01370X0.00042*%
%ADD134R,0.01330X0.00042*%
%ADD135R,0.01630X0.00041*%
%ADD136R,0.01540X0.00041*%
%ADD137R,0.01790X0.00042*%
%ADD138R,0.01960X0.00042*%
%ADD139R,0.02130X0.00041*%
%ADD140R,0.02090X0.00041*%
%ADD141R,0.02290X0.00042*%
%ADD142R,0.02540X0.00041*%
%ADD143R,0.02500X0.00041*%
%ADD144R,0.02630X0.00042*%
%ADD145R,0.02590X0.00042*%
%ADD146R,0.02830X0.00041*%
%ADD147R,0.02790X0.00041*%
%ADD148R,0.02830X0.00042*%
%ADD149R,0.03080X0.00041*%
%ADD150R,0.01080X0.00041*%
%ADD151R,0.01170X0.00042*%
%ADD152R,0.01040X0.00041*%
%ADD153R,0.00670X0.00041*%
%ADD154R,0.00580X0.00041*%
%ADD155R,0.00460X0.00042*%
%ADD156R,0.00420X0.00042*%
%ADD157R,0.00370X0.00041*%
%ADD158R,0.00340X0.00041*%
%ADD159R,0.00250X0.00042*%
%ADD160R,0.00210X0.00042*%
%ADD161R,0.00160X0.00042*%
%ADD162R,0.00130X0.00041*%
%ADD163R,0.00040X0.00041*%
%ADD164R,0.01200X0.00042*%
%ADD165R,0.01330X0.00041*%
%ADD166R,0.01580X0.00042*%
%ADD167R,0.01710X0.00041*%
%ADD168R,0.01960X0.00041*%
%ADD169R,0.02040X0.00042*%
%ADD170R,0.02040X0.00042*%
%ADD171R,0.02040X0.00041*%
%ADD172R,0.02050X0.00042*%
%ADD173R,0.02000X0.00042*%
%ADD174R,0.02000X0.00041*%
%ADD175R,0.01920X0.00042*%
%ADD176R,0.01870X0.00042*%
%ADD177R,0.01790X0.00041*%
%ADD178R,0.01420X0.00041*%
%ADD179R,0.00120X0.00042*%
%ADD180R,0.00290X0.00041*%
%ADD181R,0.00170X0.00042*%
%ADD182R,0.00620X0.00041*%
%ADD183R,0.00700X0.00042*%
%ADD184R,0.03290X0.00042*%
%ADD185R,0.01290X0.00042*%
%ADD186R,0.03290X0.00041*%
%ADD187R,0.02880X0.00041*%
%ADD188R,0.02660X0.00041*%
%ADD189R,0.02790X0.00042*%
%ADD190R,0.02330X0.00042*%
%ADD191R,0.02170X0.00042*%
%ADD192R,0.02210X0.00041*%
%ADD193R,0.01880X0.00042*%
%ADD194R,0.01670X0.00041*%
%ADD195R,0.01410X0.00042*%
%ADD196R,0.01410X0.00041*%
%ADD197R,0.01450X0.00042*%
%ADD198R,0.01630X0.00042*%
%ADD199R,0.03290X0.00041*%
%ADD200R,0.03290X0.00042*%
%ADD201R,0.02420X0.00041*%
%ADD202R,0.02460X0.00041*%
%ADD203R,0.02670X0.00042*%
%ADD204R,0.02920X0.00042*%
%ADD205R,0.01170X0.00041*%
%ADD206R,0.03000X0.00042*%
%ADD207R,0.03130X0.00042*%
%ADD208R,0.00700X0.00041*%
%ADD209R,0.03170X0.00042*%
%ADD210R,0.03170X0.00041*%
%ADD211R,0.03040X0.00041*%
%ADD212R,0.02380X0.00042*%
%ADD213R,0.02130X0.00042*%
%ADD214R,0.00590X0.00042*%
%ADD215R,0.00410X0.00042*%
%ADD216R,0.02670X0.00041*%
%ADD217R,0.01700X0.00041*%
%ADD218R,0.01910X0.00042*%
%ADD219R,0.03130X0.00041*%
%ADD220R,0.01540X0.00042*%
%ADD221R,0.01160X0.00042*%
%ADD222R,0.01200X0.00041*%
%ADD223R,0.02170X0.00041*%
%ADD224R,0.00630X0.00042*%
%ADD225R,0.02660X0.00042*%
%ADD226R,0.02910X0.00041*%
%ADD227R,0.02920X0.00041*%
%ADD228R,0.03160X0.00042*%
%ADD229R,0.01290X0.00041*%
%ADD230R,0.01370X0.00041*%
%ADD231R,0.00950X0.00041*%
%ADD232R,0.00910X0.00041*%
%ADD233R,0.03160X0.00041*%
%ADD234R,0.02910X0.00042*%
%ADD235R,0.00340X0.00042*%
%ADD236R,0.01540X0.00042*%
%ADD237R,0.02420X0.00042*%
%ADD238R,0.02710X0.00041*%
%ADD239R,0.02090X0.00042*%
%ADD240R,0.02840X0.00042*%
%ADD241R,0.02210X0.00042*%
%ADD242R,0.02330X0.00041*%
%ADD243R,0.02410X0.00042*%
%ADD244R,0.03050X0.00042*%
%ADD245R,0.03090X0.00042*%
%ADD246R,0.02590X0.00041*%
%ADD247R,0.03210X0.00042*%
%ADD248R,0.03210X0.00041*%
%ADD249R,0.03250X0.00042*%
%ADD250R,0.03300X0.00042*%
%ADD251R,0.00420X0.00041*%
%ADD252R,0.00160X0.00041*%
%ADD253R,0.00040X0.00042*%
%ADD254R,0.01580X0.00041*%
%ADD255R,0.01920X0.00041*%
%ADD256R,0.01870X0.00041*%
%ADD257R,0.02920X0.00041*%
%ADD258R,0.00670X0.00042*%
%ADD259R,0.00080X0.00042*%
%ADD260R,0.00250X0.00041*%
%ADD261R,0.00370X0.00042*%
%ADD262R,0.00450X0.00042*%
%ADD263R,0.00590X0.00041*%
%ADD264R,0.03090X0.00041*%
%ADD265R,0.02620X0.00041*%
%ADD266R,0.02300X0.00042*%
%ADD267R,0.02160X0.00041*%
%ADD268R,0.02550X0.00042*%
%ADD269R,0.00330X0.00042*%
%ADD270R,0.02700X0.00041*%
%ADD271R,0.03340X0.00041*%
%ADD272R,0.00170X0.00041*%
%ADD273R,0.00380X0.00042*%
%ADD274R,0.00500X0.00041*%
%ADD275R,0.01620X0.00042*%
%ADD276R,0.01790X0.00042*%
%ADD277R,0.01840X0.00042*%
%ADD278R,0.01950X0.00041*%
%ADD279R,0.02160X0.00042*%
%ADD280R,0.02540X0.00042*%
%ADD281R,0.00420X0.00041*%
%ADD282R,0.00670X0.00041*%
%ADD283R,0.01800X0.00042*%
%ADD284R,0.01920X0.00041*%
%ADD285R,0.01950X0.00042*%
%ADD286R,0.01290X0.00042*%
%ADD287R,0.01290X0.00041*%
%ADD288R,0.00050X0.00042*%
%ADD289R,0.00090X0.00042*%
%ADD290R,0.02630X0.00041*%
%ADD291R,0.02170X0.00041*%
%ADD292R,0.02290X0.00041*%
%ADD293R,0.01550X0.00041*%
%ADD294R,0.00420X0.00042*%
%ADD295R,0.00300X0.00042*%
%ADD296R,0.00200X0.00042*%
%ADD297R,0.00120X0.00041*%
%ADD298R,0.01160X0.00041*%
%ADD299R,0.02200X0.00042*%
%ADD300R,0.02120X0.00042*%
%ADD301R,0.00090X0.00041*%
%ADD302R,0.02950X0.00042*%
%ADD303R,0.02450X0.00042*%
%ADD304R,0.02170X0.00042*%
%ADD305R,0.01670X0.00041*%
%ADD306R,0.01800X0.00041*%
%ADD307R,0.05170X0.00042*%
%ADD308R,0.03620X0.00042*%
%ADD309R,0.05160X0.00042*%
%ADD310R,0.03950X0.00042*%
%ADD311R,0.03460X0.00041*%
%ADD312R,0.05170X0.00041*%
%ADD313R,0.04160X0.00041*%
%ADD314R,0.05160X0.00041*%
%ADD315R,0.03670X0.00042*%
%ADD316R,0.04330X0.00042*%
%ADD317R,0.03800X0.00042*%
%ADD318R,0.04450X0.00042*%
%ADD319R,0.03960X0.00041*%
%ADD320R,0.04580X0.00041*%
%ADD321R,0.04090X0.00042*%
%ADD322R,0.04660X0.00042*%
%ADD323R,0.03540X0.00042*%
%ADD324R,0.04170X0.00042*%
%ADD325R,0.04750X0.00042*%
%ADD326R,0.03450X0.00042*%
%ADD327R,0.03700X0.00042*%
%ADD328R,0.04250X0.00041*%
%ADD329R,0.04830X0.00041*%
%ADD330R,0.03590X0.00041*%
%ADD331R,0.03880X0.00041*%
%ADD332R,0.04380X0.00042*%
%ADD333R,0.04910X0.00042*%
%ADD334R,0.03670X0.00042*%
%ADD335R,0.04040X0.00042*%
%ADD336R,0.04460X0.00042*%
%ADD337R,0.05000X0.00042*%
%ADD338R,0.03790X0.00042*%
%ADD339R,0.04160X0.00042*%
%ADD340R,0.04500X0.00041*%
%ADD341R,0.05040X0.00041*%
%ADD342R,0.03910X0.00041*%
%ADD343R,0.04290X0.00041*%
%ADD344R,0.04590X0.00042*%
%ADD345R,0.05080X0.00042*%
%ADD346R,0.04000X0.00042*%
%ADD347R,0.04670X0.00041*%
%ADD348R,0.04130X0.00041*%
%ADD349R,0.05200X0.00042*%
%ADD350R,0.04210X0.00042*%
%ADD351R,0.04710X0.00042*%
%ADD352R,0.04800X0.00042*%
%ADD353R,0.05250X0.00042*%
%ADD354R,0.04290X0.00042*%
%ADD355R,0.04830X0.00042*%
%ADD356R,0.04840X0.00042*%
%ADD357R,0.05290X0.00042*%
%ADD358R,0.04370X0.00042*%
%ADD359R,0.04920X0.00042*%
%ADD360R,0.04920X0.00041*%
%ADD361R,0.05330X0.00041*%
%ADD362R,0.04450X0.00041*%
%ADD363R,0.01450X0.00041*%
%ADD364R,0.04960X0.00042*%
%ADD365R,0.05370X0.00042*%
%ADD366R,0.04500X0.00042*%
%ADD367R,0.05130X0.00042*%
%ADD368R,0.05050X0.00042*%
%ADD369R,0.05210X0.00042*%
%ADD370R,0.05090X0.00041*%
%ADD371R,0.05410X0.00041*%
%ADD372R,0.04670X0.00041*%
%ADD373R,0.05290X0.00041*%
%ADD374R,0.05450X0.00042*%
%ADD375R,0.05460X0.00042*%
%ADD376R,0.05170X0.00042*%
%ADD377R,0.05500X0.00042*%
%ADD378R,0.04790X0.00042*%
%ADD379R,0.05210X0.00041*%
%ADD380R,0.05500X0.00041*%
%ADD381R,0.02120X0.00041*%
%ADD382R,0.05540X0.00042*%
%ADD383R,0.05300X0.00042*%
%ADD384R,0.01670X0.00042*%
%ADD385R,0.01620X0.00041*%
%ADD386R,0.04120X0.00041*%
%ADD387R,0.04080X0.00042*%
%ADD388R,0.04040X0.00041*%
%ADD389R,0.04290X0.00041*%
%ADD390R,0.04420X0.00042*%
%ADD391R,0.02950X0.00041*%
%ADD392R,0.01660X0.00042*%
%ADD393R,0.04670X0.00042*%
%ADD394R,0.04670X0.00042*%
%ADD395R,0.05370X0.00041*%
%ADD396R,0.04660X0.00041*%
%ADD397R,0.04790X0.00041*%
%ADD398R,0.05330X0.00042*%
%ADD399R,0.04870X0.00042*%
%ADD400R,0.05250X0.00041*%
%ADD401R,0.04960X0.00041*%
%ADD402R,0.05120X0.00042*%
%ADD403R,0.05040X0.00042*%
%ADD404R,0.05080X0.00041*%
%ADD405R,0.04950X0.00042*%
%ADD406R,0.04870X0.00041*%
%ADD407R,0.04790X0.00042*%
%ADD408R,0.04700X0.00042*%
%ADD409R,0.04620X0.00041*%
%ADD410R,0.05290X0.00041*%
%ADD411R,0.04540X0.00042*%
%ADD412R,0.04620X0.00042*%
%ADD413R,0.00130X0.00042*%
%ADD414R,0.00540X0.00042*%
%ADD415R,0.01670X0.00042*%
%ADD416R,0.01910X0.00041*%
%ADD417R,0.05090X0.00042*%
%ADD418R,0.05200X0.00041*%
%ADD419R,0.05290X0.00042*%
%ADD420R,0.05130X0.00041*%
%ADD421R,0.05120X0.00041*%
%ADD422R,0.05000X0.00041*%
%ADD423R,0.05170X0.00041*%
%ADD424R,0.04880X0.00042*%
%ADD425R,0.04800X0.00041*%
%ADD426R,0.04950X0.00041*%
%ADD427R,0.04750X0.00041*%
%ADD428R,0.05040X0.00041*%
%ADD429R,0.04580X0.00042*%
%ADD430R,0.04590X0.00041*%
%ADD431R,0.04790X0.00041*%
%ADD432R,0.04380X0.00041*%
%ADD433R,0.04550X0.00042*%
%ADD434R,0.04250X0.00042*%
%ADD435R,0.04120X0.00042*%
%ADD436R,0.04000X0.00041*%
%ADD437R,0.04710X0.00041*%
%ADD438R,0.03830X0.00042*%
%ADD439R,0.03710X0.00042*%
%ADD440R,0.04540X0.00042*%
%ADD441R,0.04090X0.00041*%
%ADD442R,0.04410X0.00041*%
%ADD443R,0.03540X0.00041*%
%ADD444R,0.04460X0.00041*%
%ADD445R,0.03960X0.00042*%
%ADD446R,0.03330X0.00042*%
%ADD447R,0.03840X0.00042*%
%ADD448R,0.03670X0.00041*%
%ADD449R,0.04080X0.00041*%
%ADD450R,0.03500X0.00042*%
%ADD451R,0.03920X0.00042*%
%ADD452R,0.03790X0.00042*%
%ADD453R,0.02800X0.00041*%
%ADD454R,0.03500X0.00041*%
%ADD455C,0.00300*%
%ADD456C,0.00600*%
D10*
X0025292Y0115667D03*
X0047688Y0155440D03*
X0047688Y0159690D03*
X0058518Y0165321D03*
X0061188Y0165321D03*
D11*
X0061188Y0156190D03*
X0058518Y0156190D03*
X0047768Y0166988D03*
X0063834Y0129696D03*
X0063874Y0125529D03*
X0025292Y0115709D03*
X0015542Y0166091D03*
D12*
X0016303Y0148162D03*
X0019832Y0116876D03*
X0025292Y0115751D03*
X0013783Y0191736D03*
X0014113Y0192194D03*
X0014323Y0192486D03*
X0014403Y0192611D03*
X0014863Y0193236D03*
X0014943Y0193361D03*
X0015033Y0193486D03*
X0032363Y0193361D03*
X0032323Y0196819D03*
X0040073Y0196819D03*
X0040113Y0193361D03*
X0064693Y0193361D03*
X0060504Y0128612D03*
D13*
X0060879Y0128362D03*
X0060879Y0128237D03*
X0060879Y0128112D03*
X0060879Y0127987D03*
X0060879Y0127862D03*
X0060879Y0127737D03*
X0060879Y0127612D03*
X0060879Y0127487D03*
X0060879Y0127362D03*
X0060879Y0127237D03*
X0060879Y0127112D03*
X0060879Y0126987D03*
X0060879Y0126862D03*
X0060879Y0126737D03*
X0060879Y0126612D03*
X0060879Y0126487D03*
X0060879Y0126362D03*
X0060879Y0126237D03*
X0060879Y0126112D03*
X0060879Y0125987D03*
X0060879Y0125862D03*
X0060879Y0125737D03*
X0060879Y0125612D03*
X0062499Y0126487D03*
X0062499Y0126612D03*
X0062499Y0126737D03*
X0062499Y0126862D03*
X0062499Y0126987D03*
X0062499Y0127112D03*
X0060879Y0129612D03*
X0058039Y0129612D03*
X0058039Y0129487D03*
X0058039Y0129362D03*
X0058039Y0129237D03*
X0058039Y0129112D03*
X0058039Y0128987D03*
X0058039Y0128862D03*
X0058039Y0128737D03*
X0058039Y0128612D03*
X0058039Y0128487D03*
X0058039Y0128362D03*
X0058039Y0128237D03*
X0058039Y0128112D03*
X0058039Y0127987D03*
X0058039Y0127862D03*
X0058039Y0127737D03*
X0058039Y0127612D03*
X0058039Y0127487D03*
X0058039Y0127362D03*
X0058039Y0127237D03*
X0058039Y0127112D03*
X0058039Y0126987D03*
X0058039Y0126862D03*
X0056249Y0126862D03*
X0056249Y0126737D03*
X0056249Y0126612D03*
X0056249Y0126487D03*
X0056249Y0126362D03*
X0056249Y0126237D03*
X0056249Y0126987D03*
X0056249Y0127112D03*
X0056249Y0127237D03*
X0056249Y0127362D03*
X0056249Y0127487D03*
X0056249Y0127612D03*
X0056249Y0127737D03*
X0056249Y0127862D03*
X0056249Y0127987D03*
X0056249Y0128112D03*
X0056249Y0128237D03*
X0056249Y0128362D03*
X0056249Y0128487D03*
X0056249Y0128612D03*
X0056249Y0128737D03*
X0056249Y0128862D03*
X0056249Y0128987D03*
X0056316Y0118587D03*
X0056356Y0118462D03*
X0056356Y0118337D03*
X0056356Y0116087D03*
X0057986Y0116587D03*
X0057986Y0116712D03*
X0060736Y0116837D03*
X0060736Y0116962D03*
X0060736Y0117087D03*
X0060736Y0117212D03*
X0060736Y0117337D03*
X0060736Y0117462D03*
X0060736Y0117587D03*
X0060736Y0117712D03*
X0060736Y0117837D03*
X0060736Y0117962D03*
X0060736Y0118087D03*
X0060736Y0118212D03*
X0060736Y0118337D03*
X0060736Y0118462D03*
X0060736Y0118587D03*
X0060736Y0118712D03*
X0060736Y0118837D03*
X0060736Y0118962D03*
X0060736Y0119087D03*
X0060736Y0119212D03*
X0060736Y0119337D03*
X0062736Y0117962D03*
X0062986Y0117337D03*
X0063026Y0117212D03*
X0063236Y0116712D03*
X0063276Y0116587D03*
X0063316Y0116462D03*
X0063776Y0115337D03*
X0064356Y0116837D03*
X0054106Y0116212D03*
X0054066Y0116337D03*
X0054066Y0116462D03*
X0052486Y0116462D03*
X0052486Y0116337D03*
X0052486Y0116212D03*
X0052486Y0116087D03*
X0052486Y0115962D03*
X0052486Y0116587D03*
X0052486Y0116712D03*
X0052486Y0116837D03*
X0052486Y0116962D03*
X0052486Y0117087D03*
X0052486Y0117837D03*
X0052486Y0117962D03*
X0052486Y0118087D03*
X0052486Y0118212D03*
X0052486Y0118337D03*
X0052486Y0118462D03*
X0052486Y0118587D03*
X0052486Y0118712D03*
X0050026Y0118337D03*
X0050026Y0118212D03*
X0050066Y0118087D03*
X0049816Y0116712D03*
X0049776Y0116587D03*
X0049776Y0116462D03*
X0051063Y0155648D03*
X0051063Y0155773D03*
X0051063Y0155898D03*
X0051063Y0156023D03*
X0051063Y0156148D03*
X0051063Y0156273D03*
X0051063Y0156398D03*
X0051063Y0156481D03*
X0051063Y0156648D03*
X0051063Y0156773D03*
X0051063Y0156898D03*
X0051063Y0157023D03*
X0051063Y0157148D03*
X0051063Y0157273D03*
X0051063Y0157398D03*
X0051063Y0157481D03*
X0051063Y0157606D03*
X0051063Y0157773D03*
X0051063Y0157898D03*
X0051063Y0158023D03*
X0051063Y0158148D03*
X0051063Y0158273D03*
X0051063Y0158398D03*
X0051063Y0158523D03*
X0051063Y0158606D03*
X0051063Y0158773D03*
X0051063Y0158898D03*
X0051063Y0159023D03*
X0051063Y0159148D03*
X0051063Y0159273D03*
X0051063Y0159398D03*
X0051063Y0159523D03*
X0051063Y0159606D03*
X0051603Y0166029D03*
X0051603Y0166154D03*
X0051603Y0166279D03*
X0051603Y0166404D03*
X0051603Y0166487D03*
X0051603Y0166612D03*
X0051603Y0166779D03*
X0051603Y0166904D03*
X0051603Y0167029D03*
X0051603Y0167154D03*
X0051603Y0167279D03*
X0051603Y0167404D03*
X0051603Y0167529D03*
X0051603Y0167612D03*
X0051603Y0167779D03*
X0051603Y0167904D03*
X0051603Y0168029D03*
X0051603Y0168154D03*
X0051603Y0168279D03*
X0051603Y0168404D03*
X0051603Y0168529D03*
X0051603Y0168612D03*
X0051603Y0168779D03*
X0051603Y0168904D03*
X0051603Y0169029D03*
X0051603Y0169154D03*
X0051603Y0169279D03*
X0051603Y0169404D03*
X0055683Y0158898D03*
X0055683Y0158773D03*
X0055683Y0158606D03*
X0055683Y0158523D03*
X0055683Y0158398D03*
X0055683Y0158273D03*
X0055683Y0158148D03*
X0055683Y0158023D03*
X0055683Y0157898D03*
X0055683Y0157773D03*
X0055683Y0157606D03*
X0055683Y0157481D03*
X0055683Y0157398D03*
X0055683Y0157273D03*
X0055683Y0157148D03*
X0055683Y0157023D03*
X0055683Y0156898D03*
X0055683Y0156773D03*
X0055683Y0156648D03*
X0055683Y0156481D03*
X0055683Y0156398D03*
X0055683Y0156273D03*
X0057683Y0158023D03*
X0057773Y0157773D03*
X0057853Y0157606D03*
X0057893Y0157481D03*
X0057893Y0157398D03*
X0057933Y0157273D03*
X0058023Y0157023D03*
X0058063Y0156898D03*
X0058103Y0156773D03*
X0058893Y0156648D03*
X0058933Y0156773D03*
X0059023Y0157023D03*
X0059063Y0157148D03*
X0059103Y0157273D03*
X0059143Y0157398D03*
X0059183Y0157481D03*
X0059273Y0157773D03*
X0059313Y0157898D03*
X0059353Y0158023D03*
X0059393Y0158148D03*
X0059433Y0158273D03*
X0061523Y0156648D03*
X0061813Y0157481D03*
X0061853Y0157606D03*
X0063683Y0156648D03*
X0063683Y0156481D03*
X0065933Y0158773D03*
X0063683Y0166404D03*
X0063683Y0166487D03*
X0061773Y0167154D03*
X0061683Y0166904D03*
X0061643Y0166779D03*
X0061523Y0166487D03*
X0061183Y0165404D03*
X0060433Y0167529D03*
X0060353Y0167779D03*
X0060313Y0167904D03*
X0060273Y0168029D03*
X0059433Y0168029D03*
X0059393Y0167904D03*
X0059353Y0167779D03*
X0059273Y0167612D03*
X0059273Y0167529D03*
X0058933Y0166612D03*
X0058893Y0166487D03*
X0058103Y0166612D03*
X0058063Y0166779D03*
X0058023Y0166904D03*
X0057933Y0167154D03*
X0057893Y0167279D03*
X0057853Y0167404D03*
X0057813Y0167529D03*
X0057773Y0167612D03*
X0057683Y0167904D03*
X0057643Y0168029D03*
X0057603Y0168154D03*
X0057563Y0168279D03*
X0057523Y0168404D03*
X0057393Y0168779D03*
X0058523Y0165404D03*
X0065933Y0168612D03*
X0025957Y0166299D03*
X0025207Y0166299D03*
X0025167Y0166424D03*
X0025047Y0166674D03*
X0024957Y0166924D03*
X0024707Y0167549D03*
X0022457Y0167549D03*
X0022457Y0167424D03*
X0022457Y0167299D03*
X0022457Y0167174D03*
X0022457Y0167049D03*
X0022457Y0166924D03*
X0022457Y0166799D03*
X0022457Y0166674D03*
X0022457Y0166549D03*
X0022457Y0166424D03*
X0022457Y0166299D03*
X0022457Y0166174D03*
X0022457Y0166049D03*
X0022457Y0167674D03*
X0022457Y0167799D03*
X0022457Y0167924D03*
X0022457Y0168049D03*
X0022457Y0168174D03*
X0022457Y0168299D03*
X0022457Y0168424D03*
X0022457Y0168549D03*
X0022457Y0168674D03*
X0024908Y0158918D03*
X0024908Y0158793D03*
X0024908Y0158668D03*
X0024908Y0158543D03*
X0024908Y0158418D03*
X0024908Y0158293D03*
X0024908Y0158168D03*
X0024908Y0158043D03*
X0024908Y0157918D03*
X0024908Y0157793D03*
X0024908Y0157668D03*
X0024908Y0156918D03*
X0024908Y0156751D03*
X0024908Y0156668D03*
X0024908Y0156543D03*
X0024908Y0156418D03*
X0024908Y0156251D03*
X0024908Y0156168D03*
X0024908Y0156043D03*
X0024908Y0155918D03*
X0024908Y0155751D03*
X0024908Y0155668D03*
X0024908Y0155543D03*
X0022328Y0158043D03*
X0022328Y0158543D03*
X0019658Y0158543D03*
X0019658Y0158418D03*
X0019658Y0158293D03*
X0019658Y0158168D03*
X0019658Y0158043D03*
X0019658Y0157918D03*
X0019658Y0157793D03*
X0019658Y0157668D03*
X0019658Y0157543D03*
X0019658Y0157418D03*
X0019658Y0157293D03*
X0019658Y0157168D03*
X0019658Y0157043D03*
X0019658Y0156918D03*
X0019658Y0156751D03*
X0019658Y0156668D03*
X0019658Y0156543D03*
X0019658Y0156418D03*
X0019658Y0156251D03*
X0019658Y0156168D03*
X0019658Y0156043D03*
X0019658Y0155918D03*
X0019658Y0155751D03*
X0019658Y0155668D03*
X0019658Y0155543D03*
X0019658Y0158668D03*
X0019658Y0158793D03*
X0019658Y0158918D03*
X0017118Y0158668D03*
X0017118Y0158543D03*
X0017118Y0158418D03*
X0017118Y0156251D03*
X0014828Y0156543D03*
X0014828Y0156668D03*
X0015118Y0158918D03*
X0017877Y0166049D03*
X0017877Y0166174D03*
X0017877Y0166299D03*
X0017877Y0166424D03*
X0017877Y0166549D03*
X0017877Y0166674D03*
X0017877Y0166799D03*
X0017877Y0166924D03*
X0017877Y0167049D03*
X0017877Y0167174D03*
X0017877Y0167299D03*
X0017877Y0167424D03*
X0017877Y0167549D03*
X0017877Y0167674D03*
X0017877Y0167799D03*
X0017877Y0167924D03*
X0017877Y0168049D03*
X0017877Y0168174D03*
X0017877Y0168299D03*
X0017877Y0168424D03*
X0017877Y0168549D03*
X0017877Y0168674D03*
X0021758Y0149037D03*
X0021758Y0148912D03*
X0021758Y0148787D03*
X0021758Y0148662D03*
X0021758Y0148537D03*
X0021758Y0148412D03*
X0021758Y0148287D03*
X0021758Y0148162D03*
X0021758Y0148037D03*
X0021758Y0147912D03*
X0021758Y0147745D03*
X0021758Y0147037D03*
X0021758Y0146912D03*
X0021758Y0146745D03*
X0021758Y0146662D03*
X0021758Y0146537D03*
X0021758Y0146412D03*
X0021758Y0146287D03*
X0021758Y0146162D03*
X0021758Y0146037D03*
X0021758Y0145912D03*
X0021758Y0145787D03*
X0021758Y0145662D03*
X0020365Y0138763D03*
X0020365Y0138638D03*
X0020365Y0138513D03*
X0020365Y0138346D03*
X0020365Y0138263D03*
X0020365Y0138138D03*
X0020365Y0138013D03*
X0020365Y0137846D03*
X0020365Y0137763D03*
X0020365Y0137638D03*
X0020365Y0137513D03*
X0020365Y0137346D03*
X0020365Y0137263D03*
X0020365Y0137138D03*
X0020365Y0137013D03*
X0020365Y0136846D03*
X0020365Y0136763D03*
X0020365Y0136638D03*
X0020365Y0136513D03*
X0020365Y0136388D03*
X0020365Y0136263D03*
X0020365Y0136138D03*
X0020365Y0136013D03*
X0020365Y0135888D03*
X0020365Y0135763D03*
X0020365Y0135638D03*
X0020365Y0135513D03*
X0019578Y0129007D03*
X0019578Y0128882D03*
X0019578Y0128757D03*
X0019578Y0128632D03*
X0019578Y0128507D03*
X0019578Y0128382D03*
X0019578Y0128257D03*
X0019578Y0128132D03*
X0019578Y0128007D03*
X0019578Y0127882D03*
X0019578Y0127757D03*
X0019578Y0127632D03*
X0019578Y0127507D03*
X0019578Y0127382D03*
X0019578Y0127257D03*
X0019578Y0127132D03*
X0019578Y0127007D03*
X0019578Y0126882D03*
X0019578Y0126757D03*
X0019578Y0126632D03*
X0019578Y0126507D03*
X0019578Y0126382D03*
X0019578Y0126257D03*
X0019578Y0126132D03*
X0019578Y0126007D03*
X0019578Y0125882D03*
X0019578Y0125757D03*
X0019578Y0125632D03*
X0019457Y0119751D03*
X0019457Y0119626D03*
X0019457Y0119501D03*
X0019457Y0119376D03*
X0019457Y0119251D03*
X0019457Y0119126D03*
X0019457Y0119001D03*
X0019457Y0118876D03*
X0019457Y0118751D03*
X0019457Y0118626D03*
X0019457Y0118501D03*
X0019457Y0118376D03*
X0019457Y0118251D03*
X0019457Y0118126D03*
X0019457Y0118001D03*
X0019457Y0117876D03*
X0019457Y0117751D03*
X0019457Y0117626D03*
X0019457Y0117459D03*
X0019457Y0117376D03*
X0019457Y0117251D03*
X0019457Y0117126D03*
X0019457Y0115876D03*
X0017667Y0116501D03*
X0017667Y0116626D03*
X0017667Y0116751D03*
X0017667Y0116876D03*
X0017667Y0117001D03*
X0017667Y0117126D03*
X0017667Y0117251D03*
X0017667Y0117376D03*
X0017667Y0117459D03*
X0017667Y0117626D03*
X0017667Y0117751D03*
X0017667Y0117876D03*
X0017667Y0118001D03*
X0017667Y0118126D03*
X0017667Y0118251D03*
X0017667Y0118376D03*
X0017667Y0118501D03*
X0017667Y0118626D03*
X0017667Y0118751D03*
X0017667Y0118876D03*
X0017667Y0119001D03*
X0017667Y0119126D03*
X0014698Y0126632D03*
X0014698Y0126757D03*
X0014988Y0129007D03*
X0016988Y0128757D03*
X0016988Y0128632D03*
X0016988Y0128507D03*
X0022297Y0118626D03*
X0022297Y0118501D03*
X0022297Y0118376D03*
X0022297Y0118251D03*
X0022297Y0118126D03*
X0022297Y0118001D03*
X0022297Y0117876D03*
X0022297Y0117751D03*
X0022297Y0117626D03*
X0022297Y0117459D03*
X0022297Y0117376D03*
X0022297Y0117251D03*
X0022297Y0117126D03*
X0022297Y0117001D03*
X0022297Y0116876D03*
X0022297Y0116751D03*
X0022297Y0116626D03*
X0022297Y0116501D03*
X0022297Y0116376D03*
X0022297Y0116251D03*
X0022297Y0116126D03*
X0022297Y0116001D03*
X0022297Y0115876D03*
X0022297Y0115751D03*
X0023917Y0116626D03*
X0023917Y0116751D03*
X0023917Y0116876D03*
X0023917Y0117001D03*
X0023917Y0117126D03*
X0023917Y0117251D03*
X0023917Y0117376D03*
X0019178Y0148162D03*
D14*
X0023368Y0129757D03*
X0023368Y0125507D03*
X0019417Y0115751D03*
X0054393Y0165279D03*
X0054393Y0169529D03*
X0059853Y0159606D03*
D15*
X0017107Y0115751D03*
X0017317Y0169424D03*
X0021897Y0169424D03*
X0031758Y0197361D03*
X0039508Y0197361D03*
X0055123Y0159606D03*
D16*
X0064393Y0157315D03*
X0065313Y0157857D03*
X0065313Y0167696D03*
X0064853Y0169363D03*
X0065028Y0193028D03*
X0064988Y0193070D03*
X0064988Y0197070D03*
X0050698Y0192820D03*
X0039738Y0192945D03*
X0036068Y0197445D03*
X0031988Y0192945D03*
X0028318Y0197445D03*
X0014278Y0197278D03*
X0015988Y0159502D03*
X0016448Y0157835D03*
X0015868Y0129590D03*
X0016328Y0127923D03*
X0025297Y0115792D03*
X0054776Y0117129D03*
D17*
X0054066Y0116546D03*
X0054066Y0116504D03*
X0054066Y0116421D03*
X0054066Y0116379D03*
X0054066Y0116296D03*
X0054106Y0116171D03*
X0054356Y0118754D03*
X0052486Y0118754D03*
X0052486Y0118796D03*
X0052486Y0118671D03*
X0052486Y0118629D03*
X0052486Y0118546D03*
X0052486Y0118504D03*
X0052486Y0118421D03*
X0052486Y0118379D03*
X0052486Y0118296D03*
X0052486Y0118254D03*
X0052486Y0118171D03*
X0052486Y0118129D03*
X0052486Y0118046D03*
X0052486Y0118004D03*
X0052486Y0117921D03*
X0052486Y0117879D03*
X0052486Y0117796D03*
X0052486Y0117754D03*
X0052486Y0117046D03*
X0052486Y0117004D03*
X0052486Y0116921D03*
X0052486Y0116879D03*
X0052486Y0116796D03*
X0052486Y0116754D03*
X0052486Y0116671D03*
X0052486Y0116629D03*
X0052486Y0116546D03*
X0052486Y0116504D03*
X0052486Y0116421D03*
X0052486Y0116379D03*
X0052486Y0116296D03*
X0052486Y0116254D03*
X0052486Y0116171D03*
X0052486Y0116129D03*
X0052486Y0116046D03*
X0052486Y0116004D03*
X0049776Y0116379D03*
X0049776Y0116421D03*
X0049776Y0116504D03*
X0049776Y0116546D03*
X0049776Y0116629D03*
X0049776Y0116671D03*
X0049816Y0116754D03*
X0049816Y0116796D03*
X0050146Y0117921D03*
X0050106Y0118004D03*
X0050066Y0118046D03*
X0050026Y0118254D03*
X0050026Y0118296D03*
X0050026Y0118379D03*
X0050026Y0118421D03*
X0056316Y0118546D03*
X0056356Y0118504D03*
X0056356Y0118421D03*
X0056356Y0118379D03*
X0056356Y0118296D03*
X0056356Y0118254D03*
X0057986Y0116754D03*
X0057986Y0116671D03*
X0057986Y0116629D03*
X0060736Y0116796D03*
X0060736Y0116879D03*
X0060736Y0116921D03*
X0060736Y0117004D03*
X0060736Y0117046D03*
X0060736Y0117129D03*
X0060736Y0117171D03*
X0060736Y0117254D03*
X0060736Y0117296D03*
X0060736Y0117379D03*
X0060736Y0117421D03*
X0060736Y0117504D03*
X0060736Y0117546D03*
X0060736Y0117629D03*
X0060736Y0117671D03*
X0060736Y0117754D03*
X0060736Y0117796D03*
X0060736Y0117879D03*
X0060736Y0117921D03*
X0060736Y0118004D03*
X0060736Y0118046D03*
X0060736Y0118129D03*
X0060736Y0118171D03*
X0060736Y0118254D03*
X0060736Y0118296D03*
X0060736Y0118379D03*
X0060736Y0118421D03*
X0060736Y0118504D03*
X0060736Y0118546D03*
X0060736Y0118629D03*
X0060736Y0118671D03*
X0060736Y0118754D03*
X0060736Y0118796D03*
X0060736Y0118879D03*
X0060736Y0118921D03*
X0060736Y0119004D03*
X0060736Y0119046D03*
X0060736Y0119129D03*
X0060736Y0119171D03*
X0060736Y0119254D03*
X0060736Y0119296D03*
X0060736Y0119379D03*
X0060736Y0119421D03*
X0060879Y0125571D03*
X0060879Y0125654D03*
X0060879Y0125696D03*
X0060879Y0125779D03*
X0060879Y0125821D03*
X0060879Y0125904D03*
X0060879Y0125946D03*
X0060879Y0126029D03*
X0060879Y0126071D03*
X0060879Y0126154D03*
X0060879Y0126196D03*
X0060879Y0126279D03*
X0060879Y0126321D03*
X0060879Y0126404D03*
X0060879Y0126446D03*
X0060879Y0126529D03*
X0060879Y0126571D03*
X0060879Y0126654D03*
X0060879Y0126696D03*
X0060879Y0126779D03*
X0060879Y0126821D03*
X0060879Y0126904D03*
X0060879Y0126946D03*
X0060879Y0127029D03*
X0060879Y0127071D03*
X0060879Y0127154D03*
X0060879Y0127196D03*
X0060879Y0127279D03*
X0060879Y0127321D03*
X0060879Y0127404D03*
X0060879Y0127446D03*
X0060879Y0127529D03*
X0060879Y0127571D03*
X0060879Y0127654D03*
X0060879Y0127696D03*
X0060879Y0127779D03*
X0060879Y0127821D03*
X0060879Y0127904D03*
X0060879Y0127946D03*
X0060879Y0128029D03*
X0060879Y0128071D03*
X0060879Y0128154D03*
X0060879Y0128196D03*
X0060879Y0128279D03*
X0060879Y0128321D03*
X0060879Y0128404D03*
X0060879Y0128446D03*
X0062499Y0127196D03*
X0062499Y0127154D03*
X0062499Y0127071D03*
X0062499Y0127029D03*
X0062499Y0126946D03*
X0062499Y0126904D03*
X0062499Y0126821D03*
X0062499Y0126779D03*
X0062499Y0126696D03*
X0062499Y0126654D03*
X0062499Y0126571D03*
X0062499Y0126529D03*
X0062499Y0126446D03*
X0062816Y0117754D03*
X0062896Y0117546D03*
X0063066Y0117129D03*
X0063106Y0117004D03*
X0063146Y0116921D03*
X0063236Y0116671D03*
X0063276Y0116629D03*
X0063316Y0116504D03*
X0063356Y0116421D03*
X0063356Y0116379D03*
X0063396Y0116296D03*
X0064146Y0116296D03*
X0064276Y0116629D03*
X0063776Y0115379D03*
X0058039Y0125696D03*
X0058039Y0126904D03*
X0058039Y0126946D03*
X0058039Y0127029D03*
X0058039Y0127071D03*
X0058039Y0127154D03*
X0058039Y0127196D03*
X0058039Y0127279D03*
X0058039Y0127321D03*
X0058039Y0127404D03*
X0058039Y0127446D03*
X0058039Y0127529D03*
X0058039Y0127571D03*
X0058039Y0127654D03*
X0058039Y0127696D03*
X0058039Y0127779D03*
X0058039Y0127821D03*
X0058039Y0127904D03*
X0058039Y0127946D03*
X0058039Y0128029D03*
X0058039Y0128071D03*
X0058039Y0128154D03*
X0058039Y0128196D03*
X0058039Y0128279D03*
X0058039Y0128321D03*
X0058039Y0128404D03*
X0058039Y0128446D03*
X0058039Y0128529D03*
X0058039Y0128571D03*
X0058039Y0128654D03*
X0058039Y0128696D03*
X0058039Y0128779D03*
X0058039Y0128821D03*
X0058039Y0128904D03*
X0058039Y0128946D03*
X0058039Y0129029D03*
X0058039Y0129071D03*
X0058039Y0129154D03*
X0058039Y0129196D03*
X0058039Y0129279D03*
X0058039Y0129321D03*
X0058039Y0129404D03*
X0058039Y0129446D03*
X0058039Y0129529D03*
X0058039Y0129571D03*
X0058039Y0129654D03*
X0056249Y0128946D03*
X0056249Y0128904D03*
X0056249Y0128821D03*
X0056249Y0128779D03*
X0056249Y0128696D03*
X0056249Y0128654D03*
X0056249Y0128571D03*
X0056249Y0128529D03*
X0056249Y0128446D03*
X0056249Y0128404D03*
X0056249Y0128321D03*
X0056249Y0128279D03*
X0056249Y0128196D03*
X0056249Y0128154D03*
X0056249Y0128071D03*
X0056249Y0128029D03*
X0056249Y0127946D03*
X0056249Y0127904D03*
X0056249Y0127821D03*
X0056249Y0127779D03*
X0056249Y0127696D03*
X0056249Y0127654D03*
X0056249Y0127571D03*
X0056249Y0127529D03*
X0056249Y0127446D03*
X0056249Y0127404D03*
X0056249Y0127321D03*
X0056249Y0127279D03*
X0056249Y0127196D03*
X0056249Y0127154D03*
X0056249Y0127071D03*
X0056249Y0127029D03*
X0056249Y0126946D03*
X0056249Y0126904D03*
X0056249Y0126821D03*
X0056249Y0126779D03*
X0056249Y0126696D03*
X0056249Y0126654D03*
X0056249Y0126571D03*
X0056249Y0126529D03*
X0056249Y0126446D03*
X0056249Y0126404D03*
X0056249Y0126321D03*
X0056249Y0126279D03*
X0058523Y0155565D03*
X0058523Y0155607D03*
X0058893Y0156607D03*
X0058933Y0156732D03*
X0059023Y0156982D03*
X0059063Y0157107D03*
X0059103Y0157232D03*
X0059143Y0157357D03*
X0059183Y0157523D03*
X0059273Y0157690D03*
X0059273Y0157732D03*
X0059313Y0157815D03*
X0059313Y0157857D03*
X0059353Y0157940D03*
X0059353Y0157982D03*
X0059393Y0158065D03*
X0059393Y0158107D03*
X0059433Y0158190D03*
X0059433Y0158232D03*
X0060273Y0158232D03*
X0060273Y0158190D03*
X0060313Y0158107D03*
X0060313Y0158065D03*
X0060353Y0157940D03*
X0060393Y0157815D03*
X0060433Y0157690D03*
X0061683Y0157107D03*
X0061683Y0157065D03*
X0061643Y0156982D03*
X0061643Y0156940D03*
X0061603Y0156857D03*
X0061603Y0156815D03*
X0061563Y0156732D03*
X0061563Y0156690D03*
X0061523Y0156607D03*
X0061773Y0157315D03*
X0061773Y0157357D03*
X0061893Y0157732D03*
X0061933Y0157857D03*
X0062023Y0158107D03*
X0062063Y0158232D03*
X0061183Y0155607D03*
X0061183Y0155565D03*
X0059853Y0159482D03*
X0057773Y0157857D03*
X0057773Y0157815D03*
X0057813Y0157732D03*
X0057813Y0157690D03*
X0057813Y0157648D03*
X0057853Y0157565D03*
X0057853Y0157523D03*
X0057893Y0157440D03*
X0057933Y0157357D03*
X0057933Y0157315D03*
X0058023Y0157107D03*
X0058023Y0157065D03*
X0058063Y0156940D03*
X0058103Y0156815D03*
X0058143Y0156690D03*
X0057683Y0158065D03*
X0057683Y0158107D03*
X0057643Y0158190D03*
X0057643Y0158232D03*
X0057603Y0158315D03*
X0057563Y0158440D03*
X0057523Y0158565D03*
X0057433Y0158815D03*
X0057393Y0158940D03*
X0055683Y0158940D03*
X0055683Y0158857D03*
X0055683Y0158815D03*
X0055683Y0158732D03*
X0055683Y0158690D03*
X0055683Y0158648D03*
X0055683Y0158565D03*
X0055683Y0158482D03*
X0055683Y0158440D03*
X0055683Y0158357D03*
X0055683Y0158315D03*
X0055683Y0158232D03*
X0055683Y0158190D03*
X0055683Y0158107D03*
X0055683Y0158065D03*
X0055683Y0157982D03*
X0055683Y0157940D03*
X0055683Y0157857D03*
X0055683Y0157815D03*
X0055683Y0157732D03*
X0055683Y0157690D03*
X0055683Y0157648D03*
X0055683Y0157565D03*
X0055683Y0157523D03*
X0055683Y0157440D03*
X0055683Y0157357D03*
X0055683Y0157315D03*
X0055683Y0157232D03*
X0055683Y0157190D03*
X0055683Y0157107D03*
X0055683Y0157065D03*
X0055683Y0156982D03*
X0055683Y0156940D03*
X0055683Y0156857D03*
X0055683Y0156815D03*
X0055683Y0156732D03*
X0055683Y0156690D03*
X0055683Y0156607D03*
X0055683Y0156565D03*
X0055683Y0156523D03*
X0055683Y0156440D03*
X0055683Y0156357D03*
X0055683Y0156315D03*
X0055683Y0156232D03*
X0055683Y0156190D03*
X0058523Y0165446D03*
X0058893Y0166446D03*
X0058933Y0166571D03*
X0059023Y0166821D03*
X0059023Y0166863D03*
X0059063Y0166946D03*
X0059063Y0166988D03*
X0059103Y0167071D03*
X0059103Y0167113D03*
X0059143Y0167196D03*
X0059143Y0167238D03*
X0059183Y0167321D03*
X0059183Y0167363D03*
X0059273Y0167571D03*
X0059313Y0167654D03*
X0059313Y0167696D03*
X0059313Y0167738D03*
X0059353Y0167821D03*
X0059353Y0167863D03*
X0059393Y0167946D03*
X0059393Y0167988D03*
X0059433Y0168071D03*
X0059433Y0168113D03*
X0060273Y0168071D03*
X0060313Y0167946D03*
X0060393Y0167654D03*
X0061683Y0166946D03*
X0061643Y0166821D03*
X0061603Y0166696D03*
X0061603Y0166654D03*
X0061563Y0166571D03*
X0061563Y0166529D03*
X0061523Y0166446D03*
X0061773Y0167196D03*
X0061813Y0167321D03*
X0061853Y0167446D03*
X0061893Y0167571D03*
X0061933Y0167696D03*
X0062023Y0167946D03*
X0062063Y0168071D03*
X0061183Y0165446D03*
X0059853Y0169321D03*
X0057773Y0167696D03*
X0057773Y0167654D03*
X0057813Y0167571D03*
X0057813Y0167488D03*
X0057853Y0167446D03*
X0057853Y0167363D03*
X0057893Y0167321D03*
X0057893Y0167238D03*
X0057933Y0167196D03*
X0057933Y0167113D03*
X0058023Y0166946D03*
X0058023Y0166863D03*
X0058063Y0166738D03*
X0058103Y0166654D03*
X0058143Y0166529D03*
X0057683Y0167863D03*
X0057683Y0167946D03*
X0057643Y0168071D03*
X0057433Y0168654D03*
X0053313Y0168696D03*
X0051603Y0168696D03*
X0051603Y0168738D03*
X0051603Y0168821D03*
X0051603Y0168863D03*
X0051603Y0168946D03*
X0051603Y0168988D03*
X0051603Y0169071D03*
X0051603Y0169113D03*
X0051603Y0169196D03*
X0051603Y0169238D03*
X0051603Y0169321D03*
X0051603Y0169363D03*
X0051603Y0169446D03*
X0051603Y0168654D03*
X0051603Y0168571D03*
X0051603Y0168488D03*
X0051603Y0168446D03*
X0051603Y0168363D03*
X0051603Y0168321D03*
X0051603Y0168238D03*
X0051603Y0168196D03*
X0051603Y0168113D03*
X0051603Y0168071D03*
X0051603Y0167988D03*
X0051603Y0167946D03*
X0051603Y0167863D03*
X0051603Y0167821D03*
X0051603Y0167738D03*
X0051603Y0167696D03*
X0051603Y0167654D03*
X0051603Y0167571D03*
X0051603Y0167488D03*
X0051603Y0167446D03*
X0051603Y0167363D03*
X0051603Y0167321D03*
X0051603Y0167238D03*
X0051603Y0167196D03*
X0051603Y0167113D03*
X0051603Y0167071D03*
X0051603Y0166988D03*
X0051603Y0166946D03*
X0051603Y0166863D03*
X0051603Y0166821D03*
X0051603Y0166738D03*
X0051603Y0166696D03*
X0051603Y0166654D03*
X0051603Y0166571D03*
X0051603Y0166529D03*
X0051603Y0166446D03*
X0051603Y0166363D03*
X0051603Y0166321D03*
X0051603Y0166238D03*
X0051603Y0166196D03*
X0051603Y0166113D03*
X0051603Y0166071D03*
X0051063Y0159565D03*
X0051063Y0159482D03*
X0051063Y0159440D03*
X0051063Y0159357D03*
X0051063Y0159315D03*
X0051063Y0159232D03*
X0051063Y0159190D03*
X0051063Y0159107D03*
X0051063Y0159065D03*
X0051063Y0158982D03*
X0051063Y0158940D03*
X0051063Y0158857D03*
X0051063Y0158815D03*
X0051063Y0158732D03*
X0051063Y0158690D03*
X0051063Y0158648D03*
X0051063Y0158565D03*
X0051063Y0158482D03*
X0051063Y0158440D03*
X0051063Y0158357D03*
X0051063Y0158315D03*
X0051063Y0158232D03*
X0051063Y0158190D03*
X0051063Y0158107D03*
X0051063Y0158065D03*
X0051063Y0157982D03*
X0051063Y0157940D03*
X0051063Y0157857D03*
X0051063Y0157815D03*
X0051063Y0157732D03*
X0051063Y0157690D03*
X0051063Y0157648D03*
X0051063Y0157565D03*
X0051063Y0157523D03*
X0051063Y0157440D03*
X0051063Y0157357D03*
X0051063Y0157315D03*
X0051063Y0157232D03*
X0051063Y0157190D03*
X0051063Y0157107D03*
X0051063Y0157065D03*
X0051063Y0156982D03*
X0051063Y0156940D03*
X0051063Y0156857D03*
X0051063Y0156815D03*
X0051063Y0156732D03*
X0051063Y0156690D03*
X0051063Y0156607D03*
X0051063Y0156565D03*
X0051063Y0156523D03*
X0051063Y0156440D03*
X0051063Y0156357D03*
X0051063Y0156315D03*
X0051063Y0156232D03*
X0051063Y0156190D03*
X0051063Y0156107D03*
X0051063Y0156065D03*
X0051063Y0155982D03*
X0051063Y0155940D03*
X0051063Y0155857D03*
X0051063Y0155815D03*
X0051063Y0155732D03*
X0051063Y0155690D03*
X0051063Y0155607D03*
X0051063Y0155565D03*
X0051063Y0155523D03*
X0063683Y0156523D03*
X0063683Y0156565D03*
X0063683Y0156607D03*
X0063683Y0156690D03*
X0063683Y0156732D03*
X0065933Y0158732D03*
X0063683Y0166321D03*
X0063683Y0166363D03*
X0063683Y0166446D03*
X0063683Y0166529D03*
X0063683Y0166571D03*
X0065933Y0168571D03*
X0026167Y0166841D03*
X0026087Y0166633D03*
X0025167Y0166383D03*
X0025127Y0166466D03*
X0025127Y0166508D03*
X0025087Y0166591D03*
X0025087Y0166633D03*
X0025047Y0166716D03*
X0024917Y0167008D03*
X0024877Y0167133D03*
X0024837Y0167216D03*
X0024797Y0167341D03*
X0024627Y0167758D03*
X0024547Y0167966D03*
X0022457Y0167966D03*
X0022457Y0168008D03*
X0022457Y0168091D03*
X0022457Y0168133D03*
X0022457Y0168216D03*
X0022457Y0168258D03*
X0022457Y0168341D03*
X0022457Y0168383D03*
X0022457Y0168466D03*
X0022457Y0168508D03*
X0022457Y0168591D03*
X0022457Y0168633D03*
X0022457Y0168716D03*
X0022457Y0168758D03*
X0022457Y0167883D03*
X0022457Y0167841D03*
X0022457Y0167758D03*
X0022457Y0167716D03*
X0022457Y0167633D03*
X0022457Y0167591D03*
X0022457Y0167508D03*
X0022457Y0167466D03*
X0022457Y0167383D03*
X0022457Y0167341D03*
X0022457Y0167258D03*
X0022457Y0167216D03*
X0022457Y0167133D03*
X0022457Y0167091D03*
X0022457Y0167008D03*
X0022457Y0166966D03*
X0022457Y0166883D03*
X0022457Y0166841D03*
X0022457Y0166758D03*
X0022457Y0166716D03*
X0022457Y0166633D03*
X0022457Y0166591D03*
X0022457Y0166508D03*
X0022457Y0166466D03*
X0022457Y0166383D03*
X0022457Y0166341D03*
X0022457Y0166258D03*
X0022457Y0166216D03*
X0022457Y0166133D03*
X0022457Y0166091D03*
X0022457Y0166008D03*
X0025587Y0165383D03*
X0025587Y0165341D03*
X0024908Y0158877D03*
X0024908Y0158835D03*
X0024908Y0158752D03*
X0024908Y0158710D03*
X0024908Y0158627D03*
X0024908Y0158585D03*
X0024908Y0158502D03*
X0024908Y0158460D03*
X0024908Y0158377D03*
X0024908Y0158335D03*
X0024908Y0158252D03*
X0024908Y0158210D03*
X0024908Y0158127D03*
X0024908Y0158085D03*
X0024908Y0158002D03*
X0024908Y0157960D03*
X0024908Y0157877D03*
X0024908Y0157835D03*
X0024908Y0157752D03*
X0024908Y0157710D03*
X0024908Y0157627D03*
X0024908Y0157585D03*
X0024908Y0156877D03*
X0024908Y0156835D03*
X0024908Y0156793D03*
X0024908Y0156710D03*
X0024908Y0156627D03*
X0024908Y0156585D03*
X0024908Y0156502D03*
X0024908Y0156460D03*
X0024908Y0156377D03*
X0024908Y0156335D03*
X0024908Y0156293D03*
X0024908Y0156210D03*
X0024908Y0156127D03*
X0024908Y0156085D03*
X0024908Y0156002D03*
X0024908Y0155960D03*
X0024908Y0155877D03*
X0024908Y0155835D03*
X0024908Y0155793D03*
X0024908Y0155710D03*
X0024908Y0155627D03*
X0024908Y0155585D03*
X0024908Y0155502D03*
X0022328Y0157960D03*
X0022328Y0158002D03*
X0019658Y0158002D03*
X0019658Y0157960D03*
X0019658Y0157877D03*
X0019658Y0157835D03*
X0019658Y0157752D03*
X0019658Y0157710D03*
X0019658Y0157627D03*
X0019658Y0157585D03*
X0019658Y0157502D03*
X0019658Y0157460D03*
X0019658Y0157377D03*
X0019658Y0157335D03*
X0019658Y0157252D03*
X0019658Y0157210D03*
X0019658Y0157127D03*
X0019658Y0157085D03*
X0019658Y0157002D03*
X0019658Y0156960D03*
X0019658Y0156877D03*
X0019658Y0156835D03*
X0019658Y0156793D03*
X0019658Y0156710D03*
X0019658Y0156627D03*
X0019658Y0156585D03*
X0019658Y0156502D03*
X0019658Y0156460D03*
X0019658Y0156377D03*
X0019658Y0156335D03*
X0019658Y0156293D03*
X0019658Y0156210D03*
X0019658Y0156127D03*
X0019658Y0156085D03*
X0019658Y0156002D03*
X0019658Y0155960D03*
X0019658Y0155877D03*
X0019658Y0155835D03*
X0019658Y0155793D03*
X0019658Y0155710D03*
X0019658Y0155627D03*
X0019658Y0155585D03*
X0019658Y0155502D03*
X0019658Y0158085D03*
X0019658Y0158127D03*
X0019658Y0158210D03*
X0019658Y0158252D03*
X0019658Y0158335D03*
X0019658Y0158377D03*
X0019658Y0158460D03*
X0019658Y0158502D03*
X0019658Y0158585D03*
X0019658Y0158627D03*
X0019658Y0158710D03*
X0019658Y0158752D03*
X0019658Y0158835D03*
X0019658Y0158877D03*
X0017118Y0158627D03*
X0017118Y0158585D03*
X0017118Y0158502D03*
X0017118Y0158460D03*
X0017078Y0158710D03*
X0017078Y0158752D03*
X0014828Y0156710D03*
X0014828Y0156627D03*
X0014828Y0156585D03*
X0014828Y0156502D03*
X0014828Y0156460D03*
X0014868Y0156377D03*
X0014868Y0156335D03*
X0019178Y0148704D03*
X0019178Y0148204D03*
X0019178Y0148121D03*
X0021758Y0148121D03*
X0021758Y0148079D03*
X0021758Y0147996D03*
X0021758Y0147954D03*
X0021758Y0147871D03*
X0021758Y0147829D03*
X0021758Y0147787D03*
X0021758Y0148204D03*
X0021758Y0148246D03*
X0021758Y0148329D03*
X0021758Y0148371D03*
X0021758Y0148454D03*
X0021758Y0148496D03*
X0021758Y0148579D03*
X0021758Y0148621D03*
X0021758Y0148704D03*
X0021758Y0148746D03*
X0021758Y0148829D03*
X0021758Y0148871D03*
X0021758Y0148954D03*
X0021758Y0148996D03*
X0021758Y0149079D03*
X0021758Y0147079D03*
X0021758Y0146996D03*
X0021758Y0146954D03*
X0021758Y0146871D03*
X0021758Y0146829D03*
X0021758Y0146787D03*
X0021758Y0146704D03*
X0021758Y0146621D03*
X0021758Y0146579D03*
X0021758Y0146496D03*
X0021758Y0146454D03*
X0021758Y0146371D03*
X0021758Y0146329D03*
X0021758Y0146246D03*
X0021758Y0146204D03*
X0021758Y0146121D03*
X0021758Y0146079D03*
X0021758Y0145996D03*
X0021758Y0145954D03*
X0021758Y0145871D03*
X0021758Y0145829D03*
X0021758Y0145746D03*
X0021758Y0145704D03*
X0020365Y0138846D03*
X0020365Y0138804D03*
X0020365Y0138721D03*
X0020365Y0138679D03*
X0020365Y0138596D03*
X0020365Y0138554D03*
X0020365Y0138471D03*
X0020365Y0138429D03*
X0020365Y0138387D03*
X0020365Y0138304D03*
X0020365Y0138221D03*
X0020365Y0138179D03*
X0020365Y0138096D03*
X0020365Y0138054D03*
X0020365Y0137971D03*
X0020365Y0137929D03*
X0020365Y0137887D03*
X0020365Y0137804D03*
X0020365Y0137721D03*
X0020365Y0137679D03*
X0020365Y0137596D03*
X0020365Y0137554D03*
X0020365Y0137471D03*
X0020365Y0137429D03*
X0020365Y0137387D03*
X0020365Y0137304D03*
X0020365Y0137221D03*
X0020365Y0137179D03*
X0020365Y0137096D03*
X0020365Y0137054D03*
X0020365Y0136971D03*
X0020365Y0136929D03*
X0020365Y0136887D03*
X0020365Y0136804D03*
X0020365Y0136721D03*
X0020365Y0136679D03*
X0020365Y0136596D03*
X0020365Y0136554D03*
X0020365Y0136471D03*
X0020365Y0136429D03*
X0020365Y0136346D03*
X0020365Y0136304D03*
X0020365Y0136221D03*
X0020365Y0136179D03*
X0020365Y0136096D03*
X0020365Y0136054D03*
X0020365Y0135971D03*
X0020365Y0135929D03*
X0020365Y0135846D03*
X0020365Y0135804D03*
X0020365Y0135721D03*
X0020365Y0135679D03*
X0020365Y0135596D03*
X0020365Y0135554D03*
X0020365Y0135471D03*
X0020365Y0135429D03*
X0019578Y0128965D03*
X0019578Y0128923D03*
X0019578Y0128840D03*
X0019578Y0128798D03*
X0019578Y0128715D03*
X0019578Y0128673D03*
X0019578Y0128590D03*
X0019578Y0128548D03*
X0019578Y0128465D03*
X0019578Y0128423D03*
X0019578Y0128340D03*
X0019578Y0128298D03*
X0019578Y0128215D03*
X0019578Y0128173D03*
X0019578Y0128090D03*
X0019578Y0128048D03*
X0019578Y0127965D03*
X0019578Y0127923D03*
X0019578Y0127840D03*
X0019578Y0127798D03*
X0019578Y0127715D03*
X0019578Y0127673D03*
X0019578Y0127590D03*
X0019578Y0127548D03*
X0019578Y0127465D03*
X0019578Y0127423D03*
X0019578Y0127340D03*
X0019578Y0127298D03*
X0019578Y0127215D03*
X0019578Y0127173D03*
X0019578Y0127090D03*
X0019578Y0127048D03*
X0019578Y0126965D03*
X0019578Y0126923D03*
X0019578Y0126840D03*
X0019578Y0126798D03*
X0019578Y0126715D03*
X0019578Y0126673D03*
X0019578Y0126590D03*
X0019578Y0126548D03*
X0019578Y0126465D03*
X0019578Y0126423D03*
X0019578Y0126340D03*
X0019578Y0126298D03*
X0019578Y0126215D03*
X0019578Y0126173D03*
X0019578Y0126090D03*
X0019578Y0126048D03*
X0019578Y0125965D03*
X0019578Y0125923D03*
X0019578Y0125840D03*
X0019578Y0125798D03*
X0019578Y0125715D03*
X0019578Y0125673D03*
X0019578Y0125590D03*
X0019457Y0119834D03*
X0019457Y0119792D03*
X0019457Y0119709D03*
X0019457Y0119667D03*
X0019457Y0119584D03*
X0019457Y0119542D03*
X0019457Y0119459D03*
X0019457Y0119417D03*
X0019457Y0119334D03*
X0019457Y0119292D03*
X0019457Y0119209D03*
X0019457Y0119167D03*
X0019457Y0119084D03*
X0019457Y0119042D03*
X0019457Y0118959D03*
X0019457Y0118917D03*
X0019457Y0118834D03*
X0019457Y0118792D03*
X0019457Y0118709D03*
X0019457Y0118667D03*
X0019457Y0118584D03*
X0019457Y0118542D03*
X0019457Y0118459D03*
X0019457Y0118417D03*
X0019457Y0118334D03*
X0019457Y0118292D03*
X0019457Y0118209D03*
X0019457Y0118167D03*
X0019457Y0118084D03*
X0019457Y0118042D03*
X0019457Y0117959D03*
X0019457Y0117917D03*
X0019457Y0117834D03*
X0019457Y0117792D03*
X0019457Y0117709D03*
X0019457Y0117667D03*
X0019457Y0117584D03*
X0019457Y0117542D03*
X0019457Y0117500D03*
X0019457Y0117417D03*
X0019457Y0117334D03*
X0019457Y0117292D03*
X0019457Y0117209D03*
X0019457Y0117167D03*
X0019457Y0117084D03*
X0019457Y0117042D03*
X0017667Y0117042D03*
X0017667Y0117084D03*
X0017667Y0117167D03*
X0017667Y0117209D03*
X0017667Y0117292D03*
X0017667Y0117334D03*
X0017667Y0117417D03*
X0017667Y0117500D03*
X0017667Y0117542D03*
X0017667Y0117584D03*
X0017667Y0117667D03*
X0017667Y0117709D03*
X0017667Y0117792D03*
X0017667Y0117834D03*
X0017667Y0117917D03*
X0017667Y0117959D03*
X0017667Y0118042D03*
X0017667Y0118084D03*
X0017667Y0118167D03*
X0017667Y0118209D03*
X0017667Y0118292D03*
X0017667Y0118334D03*
X0017667Y0118417D03*
X0017667Y0118459D03*
X0017667Y0118542D03*
X0017667Y0118584D03*
X0017667Y0118667D03*
X0017667Y0118709D03*
X0017667Y0118792D03*
X0017667Y0118834D03*
X0017667Y0118917D03*
X0017667Y0118959D03*
X0017667Y0119042D03*
X0017667Y0119084D03*
X0017667Y0119167D03*
X0017667Y0116959D03*
X0017667Y0116917D03*
X0017667Y0116834D03*
X0017667Y0116792D03*
X0017667Y0116709D03*
X0017667Y0116667D03*
X0017667Y0116584D03*
X0017667Y0116542D03*
X0017667Y0116459D03*
X0017667Y0116417D03*
X0022297Y0116417D03*
X0022297Y0116459D03*
X0022297Y0116542D03*
X0022297Y0116584D03*
X0022297Y0116667D03*
X0022297Y0116709D03*
X0022297Y0116792D03*
X0022297Y0116834D03*
X0022297Y0116917D03*
X0022297Y0116959D03*
X0022297Y0117042D03*
X0022297Y0117084D03*
X0022297Y0117167D03*
X0022297Y0117209D03*
X0022297Y0117292D03*
X0022297Y0117334D03*
X0022297Y0117417D03*
X0022297Y0117500D03*
X0022297Y0117542D03*
X0022297Y0117584D03*
X0022297Y0117667D03*
X0022297Y0117709D03*
X0022297Y0117792D03*
X0022297Y0117834D03*
X0022297Y0117917D03*
X0022297Y0117959D03*
X0022297Y0118042D03*
X0022297Y0118084D03*
X0022297Y0118167D03*
X0022297Y0118209D03*
X0022297Y0118292D03*
X0022297Y0118334D03*
X0022297Y0118417D03*
X0022297Y0118459D03*
X0022297Y0118542D03*
X0022297Y0118584D03*
X0022297Y0119792D03*
X0023917Y0117334D03*
X0023917Y0117292D03*
X0023917Y0117209D03*
X0023917Y0117167D03*
X0023917Y0117084D03*
X0023917Y0117042D03*
X0023917Y0116959D03*
X0023917Y0116917D03*
X0023917Y0116834D03*
X0023917Y0116792D03*
X0023917Y0116709D03*
X0023917Y0116667D03*
X0022297Y0116334D03*
X0022297Y0116292D03*
X0022297Y0116209D03*
X0022297Y0116167D03*
X0022297Y0116084D03*
X0022297Y0116042D03*
X0022297Y0115959D03*
X0022297Y0115917D03*
X0022297Y0115834D03*
X0022297Y0115792D03*
X0016988Y0126340D03*
X0016988Y0128548D03*
X0016988Y0128590D03*
X0016988Y0128673D03*
X0016988Y0128715D03*
X0016948Y0128798D03*
X0016948Y0128840D03*
X0014698Y0126798D03*
X0014698Y0126715D03*
X0014698Y0126673D03*
X0014698Y0126590D03*
X0014698Y0126548D03*
X0014738Y0126465D03*
X0014738Y0126423D03*
X0017877Y0166008D03*
X0017877Y0166091D03*
X0017877Y0166133D03*
X0017877Y0166216D03*
X0017877Y0166258D03*
X0017877Y0166341D03*
X0017877Y0166383D03*
X0017877Y0166466D03*
X0017877Y0166508D03*
X0017877Y0166591D03*
X0017877Y0166633D03*
X0017877Y0166716D03*
X0017877Y0166758D03*
X0017877Y0166841D03*
X0017877Y0166883D03*
X0017877Y0166966D03*
X0017877Y0167008D03*
X0017877Y0167091D03*
X0017877Y0167133D03*
X0017877Y0167216D03*
X0017877Y0167258D03*
X0017877Y0167341D03*
X0017877Y0167383D03*
X0017877Y0167466D03*
X0017877Y0167508D03*
X0017877Y0167591D03*
X0017877Y0167633D03*
X0017877Y0167716D03*
X0017877Y0167758D03*
X0017877Y0167841D03*
X0017877Y0167883D03*
X0017877Y0167966D03*
X0017877Y0168008D03*
X0017877Y0168091D03*
X0017877Y0168133D03*
X0017877Y0168216D03*
X0017877Y0168258D03*
X0017877Y0168341D03*
X0017877Y0168383D03*
X0017877Y0168466D03*
X0017877Y0168508D03*
X0017877Y0168591D03*
X0017877Y0168633D03*
X0017877Y0168716D03*
X0017877Y0168758D03*
D18*
X0022317Y0119834D03*
X0019437Y0115834D03*
X0019437Y0115792D03*
X0058019Y0125654D03*
X0060899Y0129654D03*
X0061163Y0155523D03*
X0060793Y0156607D03*
X0060793Y0156690D03*
X0060663Y0156982D03*
X0060663Y0157065D03*
X0060543Y0157357D03*
X0060543Y0157440D03*
X0060413Y0157732D03*
X0059163Y0157440D03*
X0059043Y0157065D03*
X0058913Y0156690D03*
X0058163Y0156607D03*
X0058043Y0156982D03*
X0058543Y0155523D03*
X0058543Y0165363D03*
X0058163Y0166446D03*
X0058043Y0166821D03*
X0058913Y0166529D03*
X0060543Y0167196D03*
X0060543Y0167238D03*
X0060413Y0167571D03*
X0060293Y0167988D03*
X0060663Y0166863D03*
X0060663Y0166821D03*
X0060793Y0166529D03*
X0060793Y0166446D03*
X0061163Y0165363D03*
D19*
X0054998Y0159565D03*
X0054998Y0155565D03*
X0047288Y0167363D03*
X0039343Y0192695D03*
X0035803Y0192695D03*
X0031593Y0192695D03*
X0028053Y0192695D03*
X0021772Y0169383D03*
X0021772Y0165383D03*
X0017192Y0165383D03*
X0017192Y0169383D03*
X0016982Y0119792D03*
X0016982Y0115792D03*
X0025232Y0119709D03*
X0055251Y0115504D03*
X0063854Y0125696D03*
X0063814Y0129529D03*
X0065383Y0192820D03*
X0065383Y0197320D03*
D20*
X0063854Y0125654D03*
X0055461Y0117546D03*
X0025272Y0115834D03*
X0015553Y0127465D03*
D21*
X0015888Y0125798D03*
X0016897Y0115834D03*
X0025277Y0115917D03*
X0025227Y0119667D03*
X0016008Y0155710D03*
X0017107Y0169341D03*
X0021687Y0169341D03*
X0054913Y0155607D03*
X0064873Y0155732D03*
X0064873Y0165571D03*
X0055479Y0129571D03*
X0055479Y0125654D03*
X0055256Y0115546D03*
D22*
X0055564Y0125612D03*
X0055564Y0129612D03*
X0025272Y0115876D03*
X0016013Y0155668D03*
D23*
X0015948Y0159293D03*
X0021627Y0169299D03*
X0016837Y0115876D03*
X0055276Y0115587D03*
X0054853Y0155648D03*
X0064893Y0155773D03*
X0064813Y0169154D03*
D24*
X0063703Y0166654D03*
X0061793Y0167238D03*
X0061833Y0167363D03*
X0061873Y0167488D03*
X0061913Y0167654D03*
X0061953Y0167738D03*
X0062003Y0167863D03*
X0062043Y0167988D03*
X0062083Y0168113D03*
X0062123Y0168196D03*
X0062123Y0168238D03*
X0062163Y0168363D03*
X0062203Y0168488D03*
X0062253Y0168654D03*
X0062293Y0168738D03*
X0062333Y0168863D03*
X0062373Y0168988D03*
X0062413Y0169113D03*
X0061753Y0167113D03*
X0061703Y0166988D03*
X0061663Y0166863D03*
X0061623Y0166738D03*
X0059833Y0169238D03*
X0057503Y0168488D03*
X0057503Y0168446D03*
X0057543Y0168363D03*
X0057543Y0168321D03*
X0057583Y0168238D03*
X0057583Y0168196D03*
X0057623Y0168113D03*
X0057663Y0167988D03*
X0057453Y0168571D03*
X0057413Y0168696D03*
X0057413Y0168738D03*
X0057373Y0168821D03*
X0057373Y0168863D03*
X0057333Y0168946D03*
X0057333Y0168988D03*
X0057293Y0169071D03*
X0057293Y0169113D03*
X0057253Y0169196D03*
X0057253Y0169238D03*
X0057203Y0169321D03*
X0057203Y0169363D03*
X0057163Y0169446D03*
X0056043Y0167988D03*
X0056043Y0167946D03*
X0056083Y0167821D03*
X0056083Y0167738D03*
X0056083Y0167696D03*
X0056123Y0167654D03*
X0056123Y0167571D03*
X0056123Y0167488D03*
X0056123Y0167446D03*
X0056123Y0167363D03*
X0056123Y0167321D03*
X0056123Y0167238D03*
X0056123Y0167196D03*
X0056083Y0167071D03*
X0056083Y0166988D03*
X0056043Y0166863D03*
X0056043Y0166821D03*
X0057203Y0159565D03*
X0057203Y0159482D03*
X0057253Y0159440D03*
X0057253Y0159357D03*
X0057293Y0159315D03*
X0057293Y0159232D03*
X0057333Y0159190D03*
X0057333Y0159107D03*
X0057373Y0159065D03*
X0057373Y0158982D03*
X0057413Y0158857D03*
X0057453Y0158732D03*
X0057503Y0158648D03*
X0057543Y0158482D03*
X0057583Y0158357D03*
X0059833Y0159440D03*
X0062203Y0158690D03*
X0062203Y0158648D03*
X0062163Y0158565D03*
X0062123Y0158440D03*
X0062123Y0158357D03*
X0062083Y0158315D03*
X0062043Y0158190D03*
X0062003Y0158065D03*
X0061953Y0157940D03*
X0061913Y0157815D03*
X0061873Y0157690D03*
X0061873Y0157648D03*
X0061833Y0157565D03*
X0061833Y0157523D03*
X0061793Y0157440D03*
X0062253Y0158815D03*
X0062293Y0158940D03*
X0062333Y0159065D03*
X0062373Y0159190D03*
X0062413Y0159315D03*
X0062453Y0159440D03*
X0062503Y0159565D03*
X0063703Y0156815D03*
X0063703Y0156440D03*
X0063753Y0156315D03*
X0065953Y0158357D03*
X0065913Y0158815D03*
X0065913Y0158857D03*
X0065913Y0168113D03*
X0065953Y0168196D03*
X0065953Y0168238D03*
X0065913Y0168654D03*
X0065913Y0168696D03*
X0065873Y0168738D03*
X0052793Y0158107D03*
X0052753Y0157982D03*
X0052753Y0157940D03*
X0052753Y0157857D03*
X0052703Y0157815D03*
X0052703Y0157732D03*
X0052703Y0157690D03*
X0052703Y0157648D03*
X0052703Y0157565D03*
X0052703Y0157523D03*
X0052703Y0157440D03*
X0052703Y0157357D03*
X0052703Y0157315D03*
X0052753Y0157232D03*
X0052753Y0157190D03*
X0052793Y0157065D03*
X0049453Y0157315D03*
X0049453Y0157357D03*
X0049453Y0157440D03*
X0049453Y0157523D03*
X0049453Y0157565D03*
X0049453Y0157648D03*
X0049453Y0157690D03*
X0049453Y0157732D03*
X0049453Y0157815D03*
X0049413Y0157857D03*
X0049413Y0157940D03*
X0049413Y0157982D03*
X0049373Y0158107D03*
X0049413Y0157232D03*
X0049413Y0157190D03*
X0046003Y0156982D03*
X0045953Y0157190D03*
X0045953Y0157232D03*
X0045913Y0157315D03*
X0045913Y0157357D03*
X0045913Y0157440D03*
X0045913Y0157523D03*
X0045913Y0157565D03*
X0045913Y0157648D03*
X0045913Y0157690D03*
X0045913Y0157732D03*
X0045913Y0157815D03*
X0045953Y0157857D03*
X0045953Y0157940D03*
X0045953Y0157982D03*
X0046003Y0158107D03*
X0047953Y0166571D03*
X0053359Y0128154D03*
X0053309Y0128029D03*
X0053309Y0127946D03*
X0053309Y0127904D03*
X0053269Y0127821D03*
X0053269Y0127779D03*
X0053269Y0127696D03*
X0053269Y0127654D03*
X0053269Y0127571D03*
X0053269Y0127529D03*
X0053269Y0127446D03*
X0053269Y0127404D03*
X0053309Y0127321D03*
X0053309Y0127279D03*
X0053309Y0127196D03*
X0053359Y0127071D03*
X0056296Y0118671D03*
X0056296Y0118629D03*
X0056336Y0118171D03*
X0058006Y0116546D03*
X0058006Y0116504D03*
X0058046Y0116421D03*
X0058046Y0116379D03*
X0060626Y0116421D03*
X0060666Y0116504D03*
X0060666Y0116546D03*
X0060716Y0116754D03*
X0062546Y0118421D03*
X0062506Y0118504D03*
X0062506Y0118546D03*
X0062466Y0118629D03*
X0062466Y0118671D03*
X0062416Y0118754D03*
X0062376Y0118879D03*
X0062296Y0119046D03*
X0062256Y0119171D03*
X0062216Y0119254D03*
X0062166Y0119379D03*
X0062586Y0118296D03*
X0062626Y0118254D03*
X0062666Y0118129D03*
X0062716Y0118046D03*
X0062716Y0118004D03*
X0062756Y0117921D03*
X0062756Y0117879D03*
X0062796Y0117796D03*
X0062836Y0117671D03*
X0062876Y0117629D03*
X0062916Y0117504D03*
X0062966Y0117379D03*
X0063006Y0117296D03*
X0063006Y0117254D03*
X0063046Y0117171D03*
X0063086Y0117046D03*
X0063166Y0116879D03*
X0063216Y0116754D03*
X0063296Y0116546D03*
X0064166Y0116379D03*
X0064216Y0116504D03*
X0064256Y0116546D03*
X0064296Y0116671D03*
X0064336Y0116754D03*
X0064336Y0116796D03*
X0064376Y0116879D03*
X0064376Y0116921D03*
X0064416Y0117004D03*
X0064466Y0117046D03*
X0064466Y0117129D03*
X0064506Y0117171D03*
X0064546Y0117296D03*
X0064586Y0117379D03*
X0064586Y0117421D03*
X0064626Y0117504D03*
X0064626Y0117546D03*
X0064666Y0117629D03*
X0064716Y0117754D03*
X0064756Y0117796D03*
X0064796Y0117921D03*
X0064836Y0118046D03*
X0064876Y0118129D03*
X0064916Y0118254D03*
X0065046Y0118546D03*
X0065086Y0118671D03*
X0065166Y0118879D03*
X0062519Y0126404D03*
X0060859Y0129571D03*
X0065559Y0128154D03*
X0065609Y0128029D03*
X0065609Y0127946D03*
X0065609Y0127904D03*
X0065649Y0127821D03*
X0065649Y0127779D03*
X0065649Y0127696D03*
X0065649Y0127654D03*
X0065649Y0127571D03*
X0065649Y0127529D03*
X0065649Y0127446D03*
X0065649Y0127404D03*
X0065649Y0127321D03*
X0065609Y0127279D03*
X0065609Y0127196D03*
X0065609Y0127154D03*
X0065559Y0127029D03*
X0054086Y0116629D03*
X0054086Y0116254D03*
X0054126Y0116129D03*
X0049876Y0116879D03*
X0049796Y0116296D03*
X0050046Y0118504D03*
X0027067Y0118042D03*
X0027027Y0118084D03*
X0027027Y0118167D03*
X0027027Y0118209D03*
X0026977Y0118334D03*
X0027067Y0117959D03*
X0027067Y0117917D03*
X0027067Y0117834D03*
X0027067Y0117792D03*
X0027067Y0117709D03*
X0027067Y0117667D03*
X0027067Y0117584D03*
X0027067Y0117542D03*
X0027067Y0117500D03*
X0027027Y0117417D03*
X0027027Y0117334D03*
X0026977Y0117209D03*
X0023937Y0116584D03*
X0019477Y0115917D03*
X0014777Y0117292D03*
X0014727Y0117417D03*
X0014727Y0117500D03*
X0014687Y0117542D03*
X0014687Y0117584D03*
X0014687Y0117667D03*
X0014687Y0117709D03*
X0014687Y0117792D03*
X0014687Y0117834D03*
X0014687Y0117917D03*
X0014687Y0117959D03*
X0014687Y0118042D03*
X0014727Y0118084D03*
X0014727Y0118167D03*
X0014727Y0118209D03*
X0014777Y0118334D03*
X0014718Y0126840D03*
X0016928Y0128340D03*
X0016968Y0128423D03*
X0016968Y0128465D03*
X0016928Y0128923D03*
X0016888Y0128965D03*
X0019238Y0147996D03*
X0019198Y0148079D03*
X0019158Y0148621D03*
X0019198Y0148746D03*
X0022388Y0157835D03*
X0022308Y0158460D03*
X0022308Y0158502D03*
X0022348Y0158585D03*
X0022348Y0158627D03*
X0025187Y0166341D03*
X0025027Y0166758D03*
X0024977Y0166883D03*
X0024937Y0166966D03*
X0024897Y0167091D03*
X0024817Y0167258D03*
X0024777Y0167383D03*
X0024727Y0167466D03*
X0024727Y0167508D03*
X0024687Y0167591D03*
X0024687Y0167633D03*
X0024647Y0167716D03*
X0024607Y0167841D03*
X0024567Y0167883D03*
X0024527Y0168008D03*
X0024477Y0168091D03*
X0024477Y0168133D03*
X0024437Y0168216D03*
X0024437Y0168258D03*
X0024397Y0168341D03*
X0024357Y0168466D03*
X0024317Y0168508D03*
X0024277Y0168633D03*
X0024227Y0168716D03*
X0024227Y0168758D03*
X0024187Y0168841D03*
X0024147Y0168966D03*
X0024107Y0169091D03*
X0024027Y0169258D03*
X0023977Y0169383D03*
X0026437Y0167508D03*
X0026477Y0167591D03*
X0026477Y0167633D03*
X0026527Y0167716D03*
X0026527Y0167758D03*
X0026567Y0167841D03*
X0026607Y0167966D03*
X0026687Y0168133D03*
X0026727Y0168258D03*
X0026777Y0168341D03*
X0026817Y0168466D03*
X0027067Y0169091D03*
X0026397Y0167383D03*
X0026357Y0167341D03*
X0026317Y0167216D03*
X0026277Y0167133D03*
X0026277Y0167091D03*
X0026227Y0167008D03*
X0026227Y0166966D03*
X0026187Y0166883D03*
X0026147Y0166758D03*
X0026107Y0166716D03*
X0026067Y0166591D03*
X0026027Y0166508D03*
X0026027Y0166466D03*
X0025977Y0166383D03*
X0025977Y0166341D03*
X0019567Y0166841D03*
X0019567Y0166883D03*
X0019527Y0166966D03*
X0019527Y0167008D03*
X0019527Y0167091D03*
X0019477Y0167133D03*
X0019477Y0167216D03*
X0019477Y0167258D03*
X0019477Y0167341D03*
X0019477Y0167383D03*
X0019477Y0167466D03*
X0019477Y0167508D03*
X0019477Y0167591D03*
X0019477Y0167633D03*
X0019527Y0167716D03*
X0019527Y0167758D03*
X0017008Y0158877D03*
X0017058Y0158835D03*
X0017098Y0158377D03*
X0017098Y0158335D03*
X0017058Y0158252D03*
X0014848Y0156793D03*
X0014888Y0156293D03*
X0014977Y0166841D03*
X0014977Y0166883D03*
X0014937Y0166966D03*
X0014937Y0167008D03*
X0014937Y0167091D03*
X0014897Y0167133D03*
X0014897Y0167216D03*
X0014897Y0167258D03*
X0014897Y0167341D03*
X0014897Y0167383D03*
X0014897Y0167466D03*
X0014897Y0167508D03*
X0014897Y0167591D03*
X0014897Y0167633D03*
X0014937Y0167716D03*
X0014937Y0167758D03*
X0025008Y0128215D03*
X0025008Y0128173D03*
X0025058Y0128048D03*
X0025058Y0127965D03*
X0025058Y0127923D03*
X0025098Y0127840D03*
X0025098Y0127798D03*
X0025098Y0127715D03*
X0025098Y0127673D03*
X0025098Y0127590D03*
X0025098Y0127548D03*
X0025098Y0127465D03*
X0025098Y0127423D03*
X0025058Y0127298D03*
X0025058Y0127215D03*
X0025008Y0127090D03*
X0025008Y0127048D03*
D25*
X0023323Y0129423D03*
X0016792Y0115917D03*
X0020883Y0147121D03*
X0024033Y0156960D03*
X0024033Y0157085D03*
X0021582Y0165508D03*
X0017002Y0165508D03*
X0029863Y0191695D03*
X0029823Y0198445D03*
X0037573Y0198445D03*
X0037613Y0191695D03*
X0047688Y0159357D03*
X0054808Y0155690D03*
X0065653Y0197403D03*
D26*
X0063854Y0125779D03*
X0025272Y0115959D03*
X0020903Y0147204D03*
X0024053Y0157002D03*
D27*
X0027002Y0168924D03*
X0027002Y0168966D03*
X0024002Y0169341D03*
X0017033Y0158210D03*
X0015002Y0166758D03*
X0015002Y0167966D03*
X0015002Y0168008D03*
X0015133Y0149329D03*
X0015383Y0148996D03*
X0015633Y0148621D03*
X0016883Y0146954D03*
X0017133Y0146579D03*
X0017383Y0146204D03*
X0015240Y0139054D03*
X0015490Y0138679D03*
X0015740Y0136679D03*
X0017490Y0135929D03*
X0016990Y0138387D03*
X0014783Y0126965D03*
X0014783Y0126340D03*
X0014752Y0118292D03*
X0014752Y0117334D03*
X0019502Y0115959D03*
X0022252Y0119667D03*
X0022252Y0119709D03*
X0025033Y0127173D03*
X0025033Y0128090D03*
X0027002Y0118292D03*
X0027002Y0117292D03*
X0045978Y0157065D03*
X0045978Y0157107D03*
X0045978Y0158065D03*
X0055978Y0166654D03*
X0055978Y0166696D03*
X0055978Y0168113D03*
X0062228Y0168571D03*
X0062478Y0169321D03*
X0062478Y0169363D03*
X0063728Y0166696D03*
X0062478Y0159482D03*
X0062228Y0158732D03*
X0063728Y0156857D03*
X0060834Y0129529D03*
X0058084Y0125821D03*
X0058084Y0125779D03*
X0062191Y0119296D03*
X0064941Y0118296D03*
X0065191Y0118921D03*
X0064691Y0117671D03*
X0065584Y0127071D03*
X0065584Y0128071D03*
X0054191Y0116046D03*
X0050191Y0117879D03*
X0053334Y0127154D03*
X0053334Y0128071D03*
X0035863Y0197153D03*
X0028113Y0197153D03*
D28*
X0021522Y0169216D03*
X0023973Y0159460D03*
X0023973Y0157127D03*
X0020823Y0149621D03*
X0020823Y0147287D03*
X0016053Y0155835D03*
X0016942Y0169216D03*
X0015803Y0129298D03*
X0016732Y0115959D03*
X0055171Y0119046D03*
X0055314Y0125779D03*
X0055314Y0129446D03*
X0063854Y0125821D03*
X0064918Y0155857D03*
X0064788Y0159232D03*
X0064918Y0165696D03*
X0064788Y0169071D03*
X0054748Y0155732D03*
D29*
X0054748Y0159398D03*
X0036053Y0192611D03*
X0028303Y0192611D03*
X0021522Y0165549D03*
X0016942Y0165549D03*
X0023343Y0129382D03*
X0025272Y0116001D03*
X0016732Y0119626D03*
D30*
X0014752Y0118251D03*
X0019502Y0116001D03*
X0025033Y0127132D03*
X0025033Y0128132D03*
X0027002Y0118251D03*
X0027002Y0117251D03*
X0016990Y0136638D03*
X0015740Y0138346D03*
X0016883Y0146912D03*
X0015002Y0166799D03*
X0024002Y0169299D03*
X0026752Y0168299D03*
X0026502Y0167674D03*
X0045978Y0158023D03*
X0055978Y0168154D03*
X0062478Y0159523D03*
X0060834Y0129487D03*
X0062191Y0119337D03*
X0065191Y0118962D03*
X0065584Y0127112D03*
X0065584Y0128112D03*
X0053334Y0128112D03*
X0049941Y0116962D03*
D31*
X0051506Y0117462D03*
X0047663Y0159273D03*
X0064793Y0169029D03*
X0016687Y0116001D03*
D32*
X0025252Y0116042D03*
D33*
X0023982Y0116542D03*
X0021232Y0118292D03*
X0020272Y0117042D03*
X0019522Y0116042D03*
X0014982Y0116834D03*
X0015013Y0129048D03*
X0014970Y0135596D03*
X0015220Y0135929D03*
X0015260Y0135971D03*
X0015470Y0136304D03*
X0015510Y0136346D03*
X0015760Y0136721D03*
X0015760Y0138304D03*
X0015470Y0138721D03*
X0014970Y0139429D03*
X0017010Y0138429D03*
X0017220Y0138721D03*
X0017260Y0138804D03*
X0017470Y0139096D03*
X0017720Y0139429D03*
X0017220Y0136304D03*
X0017720Y0135596D03*
X0017760Y0135554D03*
X0019113Y0145704D03*
X0019113Y0145746D03*
X0019363Y0146079D03*
X0019403Y0146121D03*
X0019613Y0146454D03*
X0019653Y0146496D03*
X0019863Y0146787D03*
X0019903Y0146871D03*
X0017653Y0145829D03*
X0017613Y0145871D03*
X0017363Y0146246D03*
X0016903Y0148579D03*
X0017153Y0148954D03*
X0017363Y0149246D03*
X0017403Y0149329D03*
X0017613Y0149621D03*
X0015403Y0148954D03*
X0015113Y0149371D03*
X0014863Y0149704D03*
X0015863Y0147204D03*
X0015653Y0146871D03*
X0015613Y0146829D03*
X0015363Y0146496D03*
X0015363Y0146454D03*
X0015113Y0146121D03*
X0014903Y0145829D03*
X0014863Y0145746D03*
X0022263Y0155585D03*
X0022303Y0155627D03*
X0022553Y0155960D03*
X0022553Y0156002D03*
X0022763Y0156293D03*
X0022803Y0156335D03*
X0023013Y0156627D03*
X0023053Y0156710D03*
X0019732Y0166508D03*
X0028133Y0197195D03*
X0035883Y0197195D03*
X0046748Y0167863D03*
X0046458Y0167071D03*
X0049208Y0158482D03*
X0049248Y0158440D03*
X0049248Y0156732D03*
X0049248Y0156690D03*
X0046208Y0156565D03*
X0052958Y0156690D03*
X0052998Y0156607D03*
X0055958Y0168196D03*
X0063998Y0168821D03*
X0065958Y0166071D03*
X0063998Y0158982D03*
X0065958Y0156232D03*
X0060814Y0129446D03*
X0060064Y0128446D03*
X0059104Y0127196D03*
X0058171Y0116171D03*
X0054211Y0116004D03*
X0054171Y0116754D03*
X0053564Y0126654D03*
X0026772Y0118792D03*
D34*
X0023368Y0125965D03*
X0023328Y0129340D03*
X0016667Y0116042D03*
X0015948Y0125965D03*
X0020758Y0149579D03*
X0016078Y0155877D03*
X0016877Y0165633D03*
X0021457Y0165633D03*
X0023908Y0159418D03*
X0051486Y0117546D03*
X0054683Y0155815D03*
X0054393Y0165738D03*
X0054353Y0169113D03*
X0064933Y0165738D03*
D35*
X0068363Y0191653D03*
X0063834Y0125904D03*
X0051441Y0119171D03*
X0051441Y0117421D03*
X0025252Y0116084D03*
D36*
X0026792Y0116792D03*
X0026752Y0118834D03*
X0024783Y0126590D03*
X0024823Y0126673D03*
X0024783Y0128673D03*
X0024743Y0128715D03*
X0022212Y0119584D03*
X0021462Y0118584D03*
X0021252Y0118334D03*
X0021042Y0118042D03*
X0020962Y0117959D03*
X0020792Y0117709D03*
X0020752Y0117667D03*
X0020502Y0117334D03*
X0020462Y0117292D03*
X0020292Y0117084D03*
X0019542Y0116084D03*
X0015002Y0116792D03*
X0014962Y0118709D03*
X0015002Y0118792D03*
X0014823Y0127048D03*
X0016823Y0129048D03*
X0014950Y0135554D03*
X0017450Y0139054D03*
X0017530Y0139179D03*
X0017740Y0139471D03*
X0015093Y0146079D03*
X0014843Y0149746D03*
X0017673Y0149704D03*
X0019343Y0147871D03*
X0019883Y0146829D03*
X0022493Y0157710D03*
X0019792Y0166383D03*
X0019752Y0166466D03*
X0019712Y0168258D03*
X0019792Y0168383D03*
X0015252Y0166341D03*
X0015212Y0166383D03*
X0015212Y0168383D03*
X0045228Y0165446D03*
X0045268Y0165529D03*
X0045438Y0165738D03*
X0045518Y0165821D03*
X0045688Y0166071D03*
X0045728Y0166113D03*
X0045938Y0166363D03*
X0045978Y0166446D03*
X0046188Y0166696D03*
X0046188Y0166738D03*
X0046268Y0166821D03*
X0046478Y0167113D03*
X0046688Y0167946D03*
X0046518Y0168113D03*
X0046438Y0168196D03*
X0046268Y0168363D03*
X0046188Y0168446D03*
X0046018Y0168654D03*
X0045978Y0168696D03*
X0045938Y0168738D03*
X0045728Y0168946D03*
X0045688Y0168988D03*
X0045478Y0169196D03*
X0045438Y0169238D03*
X0046268Y0158648D03*
X0046228Y0158565D03*
X0046188Y0156607D03*
X0046228Y0156523D03*
X0049188Y0156607D03*
X0053018Y0156565D03*
X0052938Y0158440D03*
X0052978Y0158482D03*
X0053018Y0158565D03*
X0055768Y0168488D03*
X0058518Y0155815D03*
X0061188Y0155815D03*
X0060794Y0129404D03*
X0060044Y0128404D03*
X0059874Y0128196D03*
X0059834Y0128154D03*
X0059794Y0128071D03*
X0059584Y0127821D03*
X0059544Y0127779D03*
X0059374Y0127529D03*
X0059294Y0127446D03*
X0059084Y0127154D03*
X0058874Y0126904D03*
X0058124Y0125904D03*
X0056191Y0118796D03*
X0058191Y0116129D03*
X0060481Y0116129D03*
X0065334Y0126571D03*
X0065374Y0128571D03*
X0065334Y0128654D03*
X0065294Y0128696D03*
X0054191Y0116796D03*
X0049981Y0117004D03*
X0053624Y0126571D03*
X0053544Y0126696D03*
X0053544Y0128529D03*
D37*
X0055209Y0129321D03*
X0055209Y0125904D03*
X0055316Y0115754D03*
X0054353Y0169071D03*
X0045488Y0191778D03*
X0016627Y0116084D03*
D38*
X0016542Y0119376D03*
X0025252Y0116126D03*
X0020633Y0147537D03*
X0020633Y0149412D03*
X0029823Y0198361D03*
X0037573Y0198361D03*
X0047688Y0159148D03*
X0054558Y0159148D03*
X0064978Y0156023D03*
X0063834Y0129237D03*
X0055361Y0115837D03*
X0051361Y0115587D03*
X0051361Y0117337D03*
D39*
X0054251Y0115962D03*
X0056131Y0118837D03*
X0058144Y0125987D03*
X0060774Y0129362D03*
X0065274Y0128737D03*
X0065274Y0126487D03*
X0061168Y0155898D03*
X0058538Y0155898D03*
X0045418Y0169279D03*
X0045288Y0169404D03*
X0024723Y0128757D03*
X0024723Y0126507D03*
X0022343Y0129007D03*
X0022192Y0119501D03*
X0019562Y0116126D03*
D40*
X0016587Y0116126D03*
X0021377Y0169049D03*
X0054353Y0169029D03*
X0054603Y0155898D03*
D41*
X0055084Y0129154D03*
X0063834Y0129196D03*
X0025252Y0116167D03*
X0016502Y0119334D03*
D42*
X0015062Y0118834D03*
X0016843Y0128215D03*
X0022192Y0119542D03*
X0019562Y0116167D03*
X0026692Y0116667D03*
X0026692Y0118917D03*
X0016973Y0158127D03*
X0015192Y0168341D03*
X0045538Y0165863D03*
X0046918Y0167654D03*
X0049038Y0158732D03*
X0049168Y0156565D03*
X0046288Y0156440D03*
X0053288Y0166071D03*
X0055788Y0166321D03*
X0058538Y0165738D03*
X0058538Y0165696D03*
X0061168Y0165696D03*
X0061168Y0165738D03*
X0061168Y0155857D03*
X0058538Y0155857D03*
X0060774Y0129321D03*
X0058144Y0125946D03*
X0053644Y0128654D03*
D43*
X0051381Y0119046D03*
X0016562Y0119417D03*
X0016562Y0116167D03*
D44*
X0016462Y0116334D03*
X0025252Y0116209D03*
X0021252Y0168841D03*
X0047688Y0159065D03*
X0047688Y0156065D03*
X0054478Y0156107D03*
X0055044Y0129071D03*
X0055044Y0126154D03*
X0063834Y0126029D03*
D45*
X0062914Y0129029D03*
X0060754Y0129279D03*
X0058164Y0126029D03*
X0058271Y0116046D03*
X0060401Y0116046D03*
X0063771Y0115671D03*
X0063771Y0115629D03*
X0065254Y0126446D03*
X0065164Y0128821D03*
X0055191Y0115296D03*
X0053664Y0126529D03*
X0053664Y0128696D03*
X0058518Y0155940D03*
X0061188Y0155940D03*
X0063938Y0156107D03*
X0064898Y0159648D03*
X0065938Y0156190D03*
X0064808Y0165321D03*
X0063938Y0165946D03*
X0064058Y0168863D03*
X0064898Y0169488D03*
X0055688Y0166196D03*
X0053148Y0158690D03*
X0053148Y0156440D03*
X0046308Y0158690D03*
X0025582Y0165633D03*
X0025582Y0165716D03*
X0019922Y0166258D03*
X0019922Y0168508D03*
X0015332Y0168508D03*
X0015292Y0168466D03*
X0015332Y0166258D03*
X0016033Y0159627D03*
X0015203Y0159002D03*
X0014993Y0157002D03*
X0015073Y0156085D03*
X0015953Y0155460D03*
X0015073Y0129090D03*
X0014863Y0127090D03*
X0014953Y0126173D03*
X0015823Y0125548D03*
X0015082Y0116709D03*
X0019582Y0116209D03*
X0022172Y0119459D03*
X0024332Y0119209D03*
D46*
X0025252Y0119417D03*
X0023363Y0126048D03*
X0023323Y0129215D03*
X0016542Y0116209D03*
X0015993Y0126090D03*
X0016113Y0156002D03*
X0016752Y0165799D03*
X0016752Y0168966D03*
X0021332Y0168966D03*
X0021332Y0165799D03*
X0023783Y0159252D03*
X0023783Y0157377D03*
X0029863Y0191778D03*
X0037613Y0191778D03*
X0047688Y0155982D03*
X0054398Y0165821D03*
X0054558Y0155982D03*
X0064978Y0165863D03*
X0055124Y0129196D03*
X0055124Y0126029D03*
X0051361Y0119004D03*
X0063834Y0125946D03*
D47*
X0025227Y0116251D03*
D48*
X0024593Y0126382D03*
X0024593Y0128882D03*
X0019602Y0116251D03*
X0015152Y0116626D03*
X0014933Y0127132D03*
X0016283Y0147662D03*
X0019403Y0149037D03*
X0015053Y0157043D03*
X0015352Y0168549D03*
X0019942Y0168549D03*
X0046378Y0158773D03*
X0046918Y0167612D03*
X0053168Y0156398D03*
X0055628Y0166154D03*
X0059828Y0168904D03*
X0063918Y0166904D03*
X0059828Y0159023D03*
X0058538Y0156023D03*
X0061168Y0156023D03*
X0060734Y0129237D03*
X0065144Y0128862D03*
X0065144Y0126362D03*
D49*
X0054538Y0156023D03*
X0051341Y0118962D03*
X0023763Y0157418D03*
X0016522Y0116251D03*
D50*
X0025232Y0116292D03*
D51*
X0022127Y0119334D03*
X0019627Y0116334D03*
X0019627Y0116292D03*
X0016258Y0147621D03*
X0055603Y0166113D03*
X0059853Y0168821D03*
X0059853Y0158982D03*
X0060709Y0129196D03*
X0060709Y0129154D03*
X0058209Y0126154D03*
D52*
X0054498Y0156065D03*
X0054498Y0159065D03*
X0023723Y0159085D03*
X0023723Y0157502D03*
X0021272Y0165883D03*
X0016692Y0165883D03*
X0020573Y0149246D03*
X0016482Y0119292D03*
X0016482Y0116292D03*
D53*
X0015502Y0116417D03*
X0015502Y0119167D03*
X0021962Y0118917D03*
X0026252Y0116334D03*
X0020292Y0166008D03*
X0020292Y0168758D03*
X0015712Y0168758D03*
X0015712Y0166008D03*
X0014073Y0195528D03*
X0032573Y0193778D03*
X0040323Y0193778D03*
X0053518Y0158940D03*
X0053518Y0156190D03*
X0058518Y0156565D03*
X0061188Y0156565D03*
X0058374Y0126571D03*
X0064834Y0126154D03*
X0047688Y0155523D03*
X0064403Y0196320D03*
D54*
X0064593Y0193528D03*
X0064633Y0193445D03*
X0050883Y0197195D03*
X0050843Y0197153D03*
X0065498Y0157940D03*
X0062854Y0126154D03*
X0024272Y0116334D03*
X0014093Y0192153D03*
X0014383Y0192570D03*
X0014883Y0193278D03*
X0015093Y0193570D03*
X0015343Y0193903D03*
D55*
X0018278Y0193861D03*
X0018278Y0193736D03*
X0018278Y0193611D03*
X0018278Y0193486D03*
X0018278Y0193361D03*
X0018278Y0193236D03*
X0018278Y0193111D03*
X0018278Y0192986D03*
X0018278Y0192861D03*
X0018278Y0192736D03*
X0018278Y0192611D03*
X0018278Y0192486D03*
X0018278Y0192361D03*
X0018278Y0192194D03*
X0018278Y0192111D03*
X0018278Y0191986D03*
X0018278Y0191861D03*
X0018278Y0191736D03*
X0018278Y0193986D03*
X0018278Y0195236D03*
X0018278Y0195361D03*
X0018278Y0195486D03*
X0018278Y0195611D03*
X0018278Y0195736D03*
X0018278Y0195861D03*
X0018278Y0195986D03*
X0018278Y0196111D03*
X0018278Y0196236D03*
X0018278Y0196361D03*
X0018278Y0196444D03*
X0018278Y0196569D03*
X0018278Y0196694D03*
X0018278Y0196819D03*
X0018278Y0196986D03*
X0018278Y0197111D03*
X0018278Y0197236D03*
X0018278Y0197361D03*
X0020207Y0166049D03*
X0015627Y0166049D03*
X0025587Y0165924D03*
X0016365Y0137763D03*
X0015158Y0129132D03*
X0022047Y0119126D03*
X0024417Y0119251D03*
X0026337Y0116376D03*
X0046643Y0156148D03*
X0058523Y0166154D03*
X0059853Y0168529D03*
X0061183Y0166154D03*
X0064143Y0168904D03*
X0064023Y0157148D03*
X0058289Y0126362D03*
X0054396Y0116962D03*
X0063776Y0115962D03*
X0061448Y0192736D03*
X0061448Y0192861D03*
X0061448Y0192986D03*
X0061448Y0193111D03*
X0061448Y0193236D03*
X0061448Y0193361D03*
X0061448Y0193486D03*
X0061448Y0193611D03*
X0061448Y0193736D03*
X0061448Y0193861D03*
X0061448Y0193986D03*
X0061448Y0194111D03*
X0061448Y0194236D03*
X0061448Y0194361D03*
X0061448Y0194486D03*
X0061448Y0195736D03*
X0061448Y0195861D03*
X0061448Y0195986D03*
X0061448Y0196111D03*
X0061448Y0196236D03*
X0061448Y0196361D03*
X0061448Y0196444D03*
X0061448Y0196569D03*
X0061448Y0196694D03*
X0061448Y0196819D03*
X0061448Y0196986D03*
X0061448Y0197111D03*
X0061448Y0197236D03*
X0061448Y0197361D03*
X0069158Y0197361D03*
X0069158Y0197236D03*
X0069158Y0197111D03*
X0069158Y0196986D03*
X0069158Y0196819D03*
X0069158Y0196694D03*
X0069158Y0196569D03*
X0069158Y0196444D03*
X0069158Y0196361D03*
X0069158Y0196236D03*
X0069158Y0196111D03*
X0069158Y0195986D03*
X0069158Y0195861D03*
X0069158Y0195736D03*
X0069158Y0195611D03*
X0069158Y0195486D03*
X0069158Y0195361D03*
X0069158Y0195236D03*
X0069158Y0195111D03*
X0069158Y0194986D03*
X0069158Y0194861D03*
X0069158Y0194736D03*
X0069158Y0194611D03*
X0069158Y0194486D03*
X0069158Y0194361D03*
X0069158Y0194236D03*
X0069158Y0194111D03*
X0069158Y0193986D03*
X0069158Y0193861D03*
X0069158Y0193736D03*
X0069158Y0193611D03*
X0069158Y0193486D03*
X0069158Y0193361D03*
X0069158Y0193236D03*
X0069158Y0193111D03*
X0069158Y0192986D03*
X0069158Y0192861D03*
X0069158Y0192736D03*
X0050698Y0196569D03*
X0050698Y0196694D03*
X0050318Y0193736D03*
X0050318Y0193611D03*
X0050318Y0193486D03*
X0047778Y0193986D03*
X0047778Y0194111D03*
X0047818Y0194236D03*
X0047818Y0194361D03*
X0047818Y0194486D03*
X0047818Y0194611D03*
X0047818Y0194736D03*
X0047818Y0194861D03*
X0047818Y0194986D03*
X0047818Y0195111D03*
X0047818Y0195236D03*
X0047818Y0195361D03*
X0047818Y0195486D03*
X0047818Y0195611D03*
X0047818Y0195736D03*
X0047818Y0195861D03*
X0047818Y0195986D03*
X0047818Y0196111D03*
X0047818Y0196236D03*
X0047818Y0196361D03*
X0047818Y0196444D03*
X0047818Y0196569D03*
X0047818Y0196694D03*
X0047818Y0196819D03*
X0047818Y0196986D03*
X0047818Y0197111D03*
X0047818Y0197236D03*
X0047818Y0197361D03*
X0047818Y0197486D03*
X0047818Y0197611D03*
X0047818Y0197736D03*
X0047818Y0197861D03*
X0047818Y0197986D03*
X0047818Y0198111D03*
X0047818Y0198236D03*
X0047818Y0198361D03*
X0047818Y0198486D03*
X0043158Y0198486D03*
X0043158Y0198361D03*
X0043158Y0198236D03*
X0043158Y0198111D03*
X0043158Y0197986D03*
X0043158Y0197861D03*
X0043158Y0197736D03*
X0043158Y0197611D03*
X0043158Y0197486D03*
X0043158Y0197361D03*
X0043158Y0197236D03*
X0043158Y0197111D03*
X0043158Y0196986D03*
X0043158Y0196819D03*
X0043158Y0196694D03*
X0043158Y0196569D03*
X0043158Y0196444D03*
X0043158Y0196361D03*
X0043158Y0196236D03*
X0043158Y0196111D03*
X0043158Y0195986D03*
X0043158Y0195861D03*
X0043158Y0195736D03*
X0043158Y0195611D03*
X0043158Y0195486D03*
X0043158Y0195361D03*
X0043158Y0195236D03*
X0043158Y0195111D03*
X0043158Y0194986D03*
X0043158Y0194861D03*
X0043158Y0194736D03*
X0043158Y0194611D03*
X0043158Y0194486D03*
X0043158Y0194361D03*
X0043158Y0194236D03*
X0043198Y0193986D03*
X0043238Y0193736D03*
X0043278Y0193611D03*
D56*
X0043218Y0193861D03*
X0040548Y0194486D03*
X0040548Y0194611D03*
X0040588Y0194736D03*
X0040588Y0194861D03*
X0040588Y0194986D03*
X0040588Y0195111D03*
X0040588Y0195236D03*
X0040588Y0195361D03*
X0040548Y0195486D03*
X0040548Y0195611D03*
X0040508Y0194361D03*
X0047718Y0193736D03*
X0047758Y0193861D03*
X0050338Y0193361D03*
X0050388Y0193236D03*
X0050428Y0194111D03*
X0050968Y0195861D03*
X0050718Y0196819D03*
X0064138Y0195361D03*
X0064138Y0195236D03*
X0064138Y0195111D03*
X0064138Y0194986D03*
X0064138Y0194861D03*
X0064138Y0194736D03*
X0064178Y0194611D03*
X0064178Y0194486D03*
X0064218Y0194361D03*
X0064178Y0195486D03*
X0064178Y0195611D03*
X0064873Y0159606D03*
X0061163Y0156398D03*
X0058543Y0156398D03*
X0053413Y0158898D03*
X0032758Y0194361D03*
X0032798Y0194486D03*
X0032798Y0194611D03*
X0032838Y0194736D03*
X0032838Y0194861D03*
X0032838Y0194986D03*
X0032838Y0195111D03*
X0032838Y0195236D03*
X0032838Y0195361D03*
X0032798Y0195486D03*
X0032798Y0195611D03*
X0013888Y0195986D03*
X0013838Y0196111D03*
X0013838Y0196236D03*
X0013838Y0196361D03*
X0013838Y0196444D03*
X0016278Y0148037D03*
X0016345Y0137263D03*
X0015397Y0119126D03*
X0024187Y0116376D03*
D57*
X0019647Y0116376D03*
X0016678Y0129132D03*
X0016345Y0137346D03*
X0016278Y0147912D03*
X0015178Y0156043D03*
X0059833Y0158898D03*
X0059833Y0168779D03*
X0065873Y0156148D03*
X0060689Y0129112D03*
X0062689Y0126237D03*
X0060296Y0115962D03*
D58*
X0016437Y0116376D03*
D59*
X0015337Y0119084D03*
X0019667Y0116417D03*
X0026417Y0116417D03*
X0026417Y0119167D03*
X0019508Y0149079D03*
X0022698Y0157585D03*
X0025587Y0165841D03*
X0025587Y0165883D03*
X0020127Y0166091D03*
X0046563Y0156190D03*
X0048853Y0156232D03*
X0048813Y0158940D03*
X0053353Y0158857D03*
X0059853Y0158857D03*
X0059853Y0158815D03*
X0059853Y0168654D03*
X0059853Y0168696D03*
X0060669Y0129071D03*
X0063776Y0115879D03*
X0059356Y0115296D03*
X0053919Y0126321D03*
X0053919Y0128904D03*
D60*
X0058229Y0126196D03*
X0056046Y0118879D03*
X0056086Y0117879D03*
X0054336Y0116921D03*
X0059833Y0158940D03*
X0059833Y0168738D03*
X0054373Y0169488D03*
X0054373Y0165321D03*
X0065873Y0165988D03*
X0024107Y0116417D03*
X0022107Y0119292D03*
X0022388Y0129048D03*
X0016888Y0126215D03*
X0016345Y0137679D03*
X0016278Y0147579D03*
D61*
X0017013Y0156127D03*
X0015093Y0157085D03*
X0015482Y0166133D03*
X0015482Y0168633D03*
X0020062Y0168633D03*
X0020062Y0166133D03*
X0028173Y0197278D03*
X0035923Y0197278D03*
X0047788Y0166946D03*
X0053418Y0168821D03*
X0055538Y0168738D03*
X0055538Y0166071D03*
X0058538Y0165988D03*
X0058538Y0165946D03*
X0061168Y0165946D03*
X0061168Y0165988D03*
X0063958Y0166946D03*
X0065668Y0159065D03*
X0065708Y0158065D03*
X0063958Y0157107D03*
X0064038Y0156065D03*
X0061168Y0156107D03*
X0058538Y0156107D03*
X0053288Y0156315D03*
X0053288Y0158815D03*
X0065064Y0126279D03*
X0054421Y0115879D03*
X0026482Y0116459D03*
X0023343Y0125548D03*
X0024513Y0126298D03*
X0024513Y0128965D03*
X0023343Y0129715D03*
X0015272Y0119042D03*
X0015272Y0116542D03*
X0014973Y0127173D03*
D62*
X0016803Y0128173D03*
X0016340Y0137429D03*
X0016340Y0137596D03*
X0016283Y0147829D03*
X0019443Y0147787D03*
X0022593Y0157627D03*
X0022553Y0158877D03*
X0019942Y0166216D03*
X0016933Y0158085D03*
X0015352Y0166216D03*
X0024553Y0128923D03*
X0022152Y0119417D03*
X0024062Y0116459D03*
X0026562Y0116542D03*
X0026562Y0119042D03*
X0015152Y0118959D03*
X0046418Y0156315D03*
X0046418Y0158815D03*
X0048958Y0158815D03*
X0048998Y0156357D03*
X0048958Y0156315D03*
X0053168Y0158732D03*
X0055628Y0168654D03*
X0055578Y0168696D03*
X0058538Y0165863D03*
X0058538Y0165821D03*
X0059828Y0168863D03*
X0061168Y0165863D03*
X0061168Y0165821D03*
X0059828Y0159065D03*
X0058538Y0155982D03*
X0061168Y0155982D03*
X0063918Y0157065D03*
X0065788Y0158107D03*
X0065788Y0167946D03*
X0053734Y0128779D03*
X0053734Y0126446D03*
X0056171Y0117921D03*
X0058341Y0116004D03*
X0060341Y0116004D03*
X0058184Y0126071D03*
X0054291Y0116879D03*
X0050381Y0117754D03*
X0050251Y0118754D03*
X0062644Y0126279D03*
X0047828Y0166863D03*
D63*
X0048793Y0156190D03*
X0055413Y0165988D03*
X0055413Y0168821D03*
X0058543Y0166113D03*
X0058543Y0166071D03*
X0061163Y0166071D03*
X0061163Y0166113D03*
X0065663Y0167863D03*
X0061163Y0156232D03*
X0058543Y0156232D03*
X0060649Y0129029D03*
X0058269Y0126321D03*
X0058269Y0126279D03*
X0043178Y0194153D03*
X0043178Y0194195D03*
X0022067Y0119209D03*
X0022067Y0119167D03*
X0019687Y0116459D03*
D64*
X0019707Y0116542D03*
X0015417Y0116459D03*
X0022328Y0126215D03*
X0026337Y0119209D03*
X0016298Y0147996D03*
X0015158Y0157127D03*
X0025587Y0165966D03*
X0025587Y0166008D03*
X0018278Y0191653D03*
X0018278Y0191695D03*
X0018278Y0191778D03*
X0018278Y0191820D03*
X0018278Y0191903D03*
X0018278Y0191945D03*
X0018278Y0192028D03*
X0018278Y0192070D03*
X0018278Y0192153D03*
X0018278Y0192236D03*
X0018278Y0192278D03*
X0018278Y0192320D03*
X0018278Y0192403D03*
X0018278Y0192445D03*
X0018278Y0192528D03*
X0018278Y0192570D03*
X0018278Y0192653D03*
X0018278Y0192695D03*
X0018278Y0192778D03*
X0018278Y0192820D03*
X0018278Y0192903D03*
X0018278Y0192945D03*
X0018278Y0193028D03*
X0018278Y0193070D03*
X0018278Y0193153D03*
X0018278Y0193195D03*
X0018278Y0193278D03*
X0018278Y0193320D03*
X0018278Y0193403D03*
X0018278Y0193445D03*
X0018278Y0193528D03*
X0018278Y0193570D03*
X0018278Y0193653D03*
X0018278Y0193695D03*
X0018278Y0193778D03*
X0018278Y0193820D03*
X0018278Y0193903D03*
X0018278Y0193945D03*
X0018278Y0194028D03*
X0018278Y0195153D03*
X0018278Y0195195D03*
X0018278Y0195278D03*
X0018278Y0195320D03*
X0018278Y0195403D03*
X0018278Y0195445D03*
X0018278Y0195528D03*
X0018278Y0195570D03*
X0018278Y0195653D03*
X0018278Y0195695D03*
X0018278Y0195778D03*
X0018278Y0195820D03*
X0018278Y0195903D03*
X0018278Y0195945D03*
X0018278Y0196028D03*
X0018278Y0196070D03*
X0018278Y0196153D03*
X0018278Y0196195D03*
X0018278Y0196278D03*
X0018278Y0196320D03*
X0018278Y0196403D03*
X0018278Y0196486D03*
X0018278Y0196528D03*
X0018278Y0196611D03*
X0018278Y0196653D03*
X0018278Y0196736D03*
X0018278Y0196778D03*
X0018278Y0196861D03*
X0018278Y0196903D03*
X0018278Y0196945D03*
X0018278Y0197028D03*
X0018278Y0197070D03*
X0018278Y0197153D03*
X0018278Y0197195D03*
X0018278Y0197278D03*
X0018278Y0197320D03*
X0018278Y0197403D03*
X0028198Y0197320D03*
X0035948Y0197320D03*
X0043158Y0197320D03*
X0043158Y0197278D03*
X0043158Y0197195D03*
X0043158Y0197153D03*
X0043158Y0197070D03*
X0043158Y0197028D03*
X0043158Y0196945D03*
X0043158Y0196903D03*
X0043158Y0196861D03*
X0043158Y0196778D03*
X0043158Y0196736D03*
X0043158Y0196653D03*
X0043158Y0196611D03*
X0043158Y0196528D03*
X0043158Y0196486D03*
X0043158Y0196403D03*
X0043158Y0196320D03*
X0043158Y0196278D03*
X0043158Y0196195D03*
X0043158Y0196153D03*
X0043158Y0196070D03*
X0043158Y0196028D03*
X0043158Y0195945D03*
X0043158Y0195903D03*
X0043158Y0195820D03*
X0043158Y0195778D03*
X0043158Y0195695D03*
X0043158Y0195653D03*
X0043158Y0195570D03*
X0043158Y0195528D03*
X0043158Y0195445D03*
X0043158Y0195403D03*
X0043158Y0195320D03*
X0043158Y0195278D03*
X0043158Y0195195D03*
X0043158Y0195153D03*
X0043158Y0195070D03*
X0043158Y0195028D03*
X0043158Y0194945D03*
X0043158Y0194903D03*
X0043158Y0194820D03*
X0043158Y0194778D03*
X0043158Y0194695D03*
X0043158Y0194653D03*
X0043158Y0194570D03*
X0043158Y0194528D03*
X0043158Y0194445D03*
X0043158Y0194403D03*
X0043158Y0194320D03*
X0043158Y0194278D03*
X0043198Y0194070D03*
X0043198Y0194028D03*
X0043198Y0193945D03*
X0043198Y0193903D03*
X0043238Y0193820D03*
X0043238Y0193778D03*
X0043158Y0197403D03*
X0043158Y0197445D03*
X0043158Y0197528D03*
X0043158Y0197570D03*
X0043158Y0197653D03*
X0043158Y0197695D03*
X0043158Y0197778D03*
X0043158Y0197820D03*
X0043158Y0197903D03*
X0043158Y0197945D03*
X0043158Y0198028D03*
X0043158Y0198070D03*
X0043158Y0198153D03*
X0043158Y0198195D03*
X0043158Y0198278D03*
X0043158Y0198320D03*
X0043158Y0198403D03*
X0043158Y0198445D03*
X0047818Y0198445D03*
X0047818Y0198403D03*
X0047818Y0198320D03*
X0047818Y0198278D03*
X0047818Y0198195D03*
X0047818Y0198153D03*
X0047818Y0198070D03*
X0047818Y0198028D03*
X0047818Y0197945D03*
X0047818Y0197903D03*
X0047818Y0197820D03*
X0047818Y0197778D03*
X0047818Y0197695D03*
X0047818Y0197653D03*
X0047818Y0197570D03*
X0047818Y0197528D03*
X0047818Y0197445D03*
X0047818Y0197403D03*
X0047818Y0197320D03*
X0047818Y0197278D03*
X0047818Y0197195D03*
X0047818Y0197153D03*
X0047818Y0197070D03*
X0047818Y0197028D03*
X0047818Y0196945D03*
X0047818Y0196903D03*
X0047818Y0196861D03*
X0047818Y0196778D03*
X0047818Y0196736D03*
X0047818Y0196653D03*
X0047818Y0196611D03*
X0047818Y0196528D03*
X0047818Y0196486D03*
X0047818Y0196403D03*
X0047818Y0196320D03*
X0047818Y0196278D03*
X0047818Y0196195D03*
X0047818Y0196153D03*
X0047818Y0196070D03*
X0047818Y0196028D03*
X0047818Y0195945D03*
X0047818Y0195903D03*
X0047818Y0195820D03*
X0047818Y0195778D03*
X0047818Y0195695D03*
X0047818Y0195653D03*
X0047818Y0195570D03*
X0047818Y0195528D03*
X0047818Y0195445D03*
X0047818Y0195403D03*
X0047818Y0195320D03*
X0047818Y0195278D03*
X0047818Y0195195D03*
X0047818Y0195153D03*
X0047818Y0195070D03*
X0047818Y0195028D03*
X0047818Y0194945D03*
X0047818Y0194903D03*
X0047818Y0194820D03*
X0047818Y0194778D03*
X0047818Y0194695D03*
X0047818Y0194653D03*
X0047818Y0194570D03*
X0047818Y0194528D03*
X0047818Y0194445D03*
X0047818Y0194403D03*
X0047818Y0194320D03*
X0047818Y0194278D03*
X0047818Y0194195D03*
X0047818Y0194153D03*
X0047778Y0194070D03*
X0047778Y0194028D03*
X0047778Y0193945D03*
X0047778Y0193903D03*
X0047738Y0193778D03*
X0050318Y0193695D03*
X0050318Y0193653D03*
X0050318Y0193570D03*
X0050318Y0193528D03*
X0050318Y0193445D03*
X0050408Y0194028D03*
X0050408Y0194070D03*
X0050818Y0196070D03*
X0050778Y0196153D03*
X0050698Y0196611D03*
X0050698Y0196653D03*
X0050698Y0196736D03*
X0061448Y0196736D03*
X0061448Y0196778D03*
X0061448Y0196861D03*
X0061448Y0196903D03*
X0061448Y0196945D03*
X0061448Y0197028D03*
X0061448Y0197070D03*
X0061448Y0197153D03*
X0061448Y0197195D03*
X0061448Y0197278D03*
X0061448Y0197320D03*
X0061448Y0197403D03*
X0061448Y0196653D03*
X0061448Y0196611D03*
X0061448Y0196528D03*
X0061448Y0196486D03*
X0061448Y0196403D03*
X0061448Y0196320D03*
X0061448Y0196278D03*
X0061448Y0196195D03*
X0061448Y0196153D03*
X0061448Y0196070D03*
X0061448Y0196028D03*
X0061448Y0195945D03*
X0061448Y0195903D03*
X0061448Y0195820D03*
X0061448Y0195778D03*
X0061448Y0195695D03*
X0061448Y0195653D03*
X0061448Y0194528D03*
X0061448Y0194445D03*
X0061448Y0194403D03*
X0061448Y0194320D03*
X0061448Y0194278D03*
X0061448Y0194195D03*
X0061448Y0194153D03*
X0061448Y0194070D03*
X0061448Y0194028D03*
X0061448Y0193945D03*
X0061448Y0193903D03*
X0061448Y0193820D03*
X0061448Y0193778D03*
X0061448Y0193695D03*
X0061448Y0193653D03*
X0061448Y0193570D03*
X0061448Y0193528D03*
X0061448Y0193445D03*
X0061448Y0193403D03*
X0061448Y0193320D03*
X0061448Y0193278D03*
X0061448Y0193195D03*
X0061448Y0193153D03*
X0061448Y0193070D03*
X0061448Y0193028D03*
X0061448Y0192945D03*
X0061448Y0192903D03*
X0061448Y0192820D03*
X0061448Y0192778D03*
X0069158Y0192778D03*
X0069158Y0192820D03*
X0069158Y0192903D03*
X0069158Y0192945D03*
X0069158Y0193028D03*
X0069158Y0193070D03*
X0069158Y0193153D03*
X0069158Y0193195D03*
X0069158Y0193278D03*
X0069158Y0193320D03*
X0069158Y0193403D03*
X0069158Y0193445D03*
X0069158Y0193528D03*
X0069158Y0193570D03*
X0069158Y0193653D03*
X0069158Y0193695D03*
X0069158Y0193778D03*
X0069158Y0193820D03*
X0069158Y0193903D03*
X0069158Y0193945D03*
X0069158Y0194028D03*
X0069158Y0194070D03*
X0069158Y0194153D03*
X0069158Y0194195D03*
X0069158Y0194278D03*
X0069158Y0194320D03*
X0069158Y0194403D03*
X0069158Y0194445D03*
X0069158Y0194528D03*
X0069158Y0194570D03*
X0069158Y0194653D03*
X0069158Y0194695D03*
X0069158Y0194778D03*
X0069158Y0194820D03*
X0069158Y0194903D03*
X0069158Y0194945D03*
X0069158Y0195028D03*
X0069158Y0195070D03*
X0069158Y0195153D03*
X0069158Y0195195D03*
X0069158Y0195278D03*
X0069158Y0195320D03*
X0069158Y0195403D03*
X0069158Y0195445D03*
X0069158Y0195528D03*
X0069158Y0195570D03*
X0069158Y0195653D03*
X0069158Y0195695D03*
X0069158Y0195778D03*
X0069158Y0195820D03*
X0069158Y0195903D03*
X0069158Y0195945D03*
X0069158Y0196028D03*
X0069158Y0196070D03*
X0069158Y0196153D03*
X0069158Y0196195D03*
X0069158Y0196278D03*
X0069158Y0196320D03*
X0069158Y0196403D03*
X0069158Y0196486D03*
X0069158Y0196528D03*
X0069158Y0196611D03*
X0069158Y0196653D03*
X0069158Y0196736D03*
X0069158Y0196778D03*
X0069158Y0196861D03*
X0069158Y0196903D03*
X0069158Y0196945D03*
X0069158Y0197028D03*
X0069158Y0197070D03*
X0069158Y0197153D03*
X0069158Y0197195D03*
X0069158Y0197278D03*
X0069158Y0197320D03*
X0069158Y0197403D03*
X0059853Y0168571D03*
X0064023Y0166988D03*
X0064143Y0159065D03*
X0061183Y0156315D03*
X0059853Y0158690D03*
X0059853Y0158732D03*
X0058523Y0156315D03*
X0053433Y0156232D03*
X0053353Y0165988D03*
X0046933Y0167488D03*
X0046643Y0158982D03*
X0053999Y0126279D03*
X0054526Y0118879D03*
X0058486Y0115921D03*
X0060629Y0128946D03*
X0062999Y0129071D03*
X0064919Y0129029D03*
X0064919Y0126196D03*
X0063776Y0116004D03*
X0063776Y0115921D03*
D65*
X0050151Y0117087D03*
X0047688Y0155481D03*
X0048898Y0156273D03*
X0047808Y0166904D03*
X0053308Y0166029D03*
X0058518Y0165904D03*
X0061188Y0165904D03*
X0026542Y0116501D03*
X0026462Y0119126D03*
X0015212Y0119001D03*
X0015422Y0166174D03*
X0025582Y0165757D03*
D66*
X0022513Y0157668D03*
X0015272Y0168424D03*
X0014982Y0118751D03*
X0024022Y0116501D03*
X0048998Y0158773D03*
X0052998Y0158523D03*
X0055748Y0166279D03*
X0055748Y0168529D03*
X0065748Y0159023D03*
X0056211Y0117962D03*
X0060421Y0116087D03*
X0050171Y0118712D03*
D67*
X0050126Y0115962D03*
X0060649Y0128987D03*
X0061163Y0156273D03*
X0058543Y0156273D03*
X0065663Y0158023D03*
X0050798Y0196111D03*
X0043178Y0194111D03*
X0019687Y0116501D03*
D68*
X0022087Y0119251D03*
X0024448Y0126257D03*
X0024448Y0129007D03*
X0019548Y0147745D03*
X0022658Y0158918D03*
X0020127Y0168674D03*
X0015337Y0116501D03*
X0053353Y0156273D03*
X0058249Y0126237D03*
X0063776Y0115837D03*
X0064999Y0126237D03*
X0064999Y0128987D03*
D69*
X0065209Y0126404D03*
X0056316Y0116004D03*
X0054316Y0115921D03*
X0053103Y0158648D03*
X0047853Y0166821D03*
X0046353Y0158732D03*
X0059853Y0159107D03*
X0063853Y0166863D03*
X0059853Y0168946D03*
X0026627Y0116584D03*
X0024658Y0126423D03*
X0024658Y0128840D03*
X0015908Y0129715D03*
X0015127Y0118917D03*
X0015127Y0116667D03*
X0019877Y0168466D03*
D70*
X0020187Y0168716D03*
X0016718Y0157960D03*
X0016008Y0159585D03*
X0016968Y0156085D03*
X0016278Y0147496D03*
X0016278Y0147454D03*
X0016345Y0137804D03*
X0016345Y0137221D03*
X0015888Y0129673D03*
X0016598Y0128048D03*
X0016848Y0126173D03*
X0019727Y0116584D03*
X0022027Y0119084D03*
X0015607Y0168716D03*
X0013888Y0195903D03*
X0013888Y0195945D03*
X0013838Y0196153D03*
X0013838Y0196195D03*
X0013838Y0196278D03*
X0013838Y0196320D03*
X0013838Y0196403D03*
X0013838Y0196486D03*
X0013838Y0196528D03*
X0013888Y0196611D03*
X0013888Y0196653D03*
X0027638Y0193070D03*
X0032758Y0194320D03*
X0032798Y0194528D03*
X0032798Y0194570D03*
X0032798Y0194653D03*
X0032838Y0194778D03*
X0032838Y0194820D03*
X0032838Y0194903D03*
X0032838Y0194945D03*
X0032838Y0195028D03*
X0032838Y0195070D03*
X0032838Y0195153D03*
X0032838Y0195195D03*
X0032838Y0195278D03*
X0032838Y0195320D03*
X0032838Y0195403D03*
X0032838Y0195445D03*
X0032798Y0195528D03*
X0032798Y0195570D03*
X0032798Y0195653D03*
X0032758Y0195778D03*
X0032758Y0195820D03*
X0035388Y0193070D03*
X0040508Y0194320D03*
X0040548Y0194528D03*
X0040548Y0194570D03*
X0040548Y0194653D03*
X0040588Y0194778D03*
X0040588Y0194820D03*
X0040588Y0194903D03*
X0040588Y0194945D03*
X0040588Y0195028D03*
X0040588Y0195070D03*
X0040588Y0195153D03*
X0040588Y0195195D03*
X0040588Y0195278D03*
X0040588Y0195320D03*
X0040588Y0195403D03*
X0040588Y0195445D03*
X0040548Y0195528D03*
X0040548Y0195570D03*
X0040548Y0195653D03*
X0040508Y0195778D03*
X0040508Y0195820D03*
X0043258Y0193695D03*
X0043258Y0193653D03*
X0043298Y0193570D03*
X0043298Y0193528D03*
X0043338Y0193445D03*
X0047678Y0193528D03*
X0047678Y0193570D03*
X0047718Y0193653D03*
X0047718Y0193695D03*
X0047758Y0193820D03*
X0050338Y0193403D03*
X0050338Y0193320D03*
X0050388Y0193278D03*
X0050468Y0194153D03*
X0050468Y0194195D03*
X0050928Y0195903D03*
X0050888Y0195945D03*
X0050718Y0196778D03*
X0050718Y0196861D03*
X0059833Y0168488D03*
X0058543Y0166238D03*
X0058543Y0166196D03*
X0061163Y0166196D03*
X0061163Y0166238D03*
X0064873Y0169446D03*
X0065583Y0167821D03*
X0065833Y0165946D03*
X0065583Y0157982D03*
X0065833Y0156107D03*
X0061163Y0156357D03*
X0059833Y0158648D03*
X0058543Y0156357D03*
X0047703Y0167113D03*
X0053979Y0128946D03*
X0055256Y0119421D03*
X0055966Y0117796D03*
X0056216Y0115921D03*
X0058309Y0126404D03*
X0060609Y0128904D03*
X0062769Y0126196D03*
X0064258Y0194195D03*
X0064218Y0194320D03*
X0064218Y0194403D03*
X0064178Y0194528D03*
X0064178Y0194570D03*
X0064178Y0194653D03*
X0064178Y0194695D03*
X0064138Y0194778D03*
X0064138Y0194820D03*
X0064138Y0194903D03*
X0064138Y0194945D03*
X0064138Y0195028D03*
X0064138Y0195070D03*
X0064138Y0195153D03*
X0064138Y0195195D03*
X0064138Y0195278D03*
X0064138Y0195320D03*
X0064138Y0195403D03*
X0064178Y0195528D03*
X0064178Y0195570D03*
X0064218Y0195778D03*
D71*
X0061188Y0156065D03*
X0058518Y0156065D03*
X0048898Y0158857D03*
X0047688Y0159648D03*
X0046518Y0156232D03*
X0046938Y0167571D03*
X0053794Y0128821D03*
X0053794Y0126404D03*
X0050021Y0116004D03*
X0063771Y0115796D03*
X0063771Y0115754D03*
X0065124Y0126321D03*
X0065044Y0128946D03*
X0025582Y0165799D03*
X0016303Y0147871D03*
X0016320Y0137387D03*
X0024573Y0126340D03*
X0015212Y0116584D03*
X0015422Y0168591D03*
D72*
X0015292Y0166299D03*
X0017073Y0156168D03*
X0025582Y0165674D03*
X0028153Y0197236D03*
X0035903Y0197236D03*
X0049018Y0156398D03*
X0055688Y0168612D03*
X0058518Y0165779D03*
X0061188Y0165779D03*
X0064058Y0159023D03*
X0064808Y0155481D03*
X0065938Y0166029D03*
X0055271Y0119462D03*
X0054441Y0118837D03*
X0054231Y0116837D03*
X0063771Y0115712D03*
X0026672Y0116626D03*
X0026582Y0119001D03*
X0016953Y0126257D03*
X0015082Y0118876D03*
D73*
X0019752Y0116626D03*
X0026252Y0119251D03*
X0032613Y0193861D03*
X0040363Y0193861D03*
X0043363Y0193361D03*
X0047613Y0193361D03*
X0060584Y0128862D03*
X0013863Y0196569D03*
D74*
X0029843Y0198570D03*
X0032593Y0196320D03*
X0032633Y0196195D03*
X0032633Y0193945D03*
X0032633Y0193903D03*
X0032593Y0193820D03*
X0037593Y0198570D03*
X0040343Y0196320D03*
X0040383Y0196195D03*
X0040383Y0193945D03*
X0040383Y0193903D03*
X0040343Y0193820D03*
X0043383Y0193320D03*
X0047593Y0193320D03*
X0053458Y0165946D03*
X0046748Y0156107D03*
X0058354Y0126529D03*
X0060564Y0128779D03*
X0060564Y0128821D03*
X0064343Y0193945D03*
X0064343Y0196153D03*
X0064343Y0196195D03*
X0064383Y0196278D03*
X0021982Y0118959D03*
X0019772Y0116709D03*
X0019772Y0116667D03*
D75*
X0022263Y0126298D03*
X0024763Y0126548D03*
X0026732Y0116709D03*
X0016763Y0129090D03*
X0019363Y0147829D03*
X0019363Y0148996D03*
X0022513Y0158835D03*
X0019772Y0168341D03*
X0015013Y0156127D03*
X0045248Y0169446D03*
X0055708Y0168571D03*
X0055708Y0166238D03*
X0065748Y0168863D03*
X0053564Y0128571D03*
X0049961Y0116046D03*
X0062604Y0126321D03*
X0065314Y0126529D03*
D76*
X0065374Y0126612D03*
X0059624Y0127862D03*
X0059334Y0127487D03*
X0059044Y0127112D03*
X0058231Y0116087D03*
X0053584Y0126612D03*
X0053584Y0128612D03*
X0049901Y0116087D03*
X0046268Y0156481D03*
X0046188Y0158523D03*
X0046228Y0158606D03*
X0045188Y0165404D03*
X0045268Y0165487D03*
X0045478Y0165779D03*
X0045688Y0166029D03*
X0045768Y0166154D03*
X0045938Y0166404D03*
X0046018Y0166487D03*
X0046228Y0166779D03*
X0046438Y0167029D03*
X0046518Y0167154D03*
X0046728Y0167904D03*
X0046478Y0168154D03*
X0046228Y0168404D03*
X0045768Y0168904D03*
X0045518Y0169154D03*
X0049188Y0158523D03*
X0052978Y0156648D03*
X0058518Y0165654D03*
X0061188Y0165654D03*
X0026712Y0118876D03*
X0026792Y0118751D03*
X0026752Y0116751D03*
X0024823Y0126632D03*
X0024823Y0128632D03*
X0021292Y0118376D03*
X0021212Y0118251D03*
X0021002Y0118001D03*
X0020712Y0117626D03*
X0015042Y0116751D03*
X0014962Y0116876D03*
X0017780Y0139513D03*
X0019593Y0146412D03*
X0017383Y0149287D03*
X0014883Y0145787D03*
X0022743Y0156251D03*
X0023033Y0156668D03*
X0019752Y0168299D03*
D77*
X0032573Y0193736D03*
X0032573Y0196361D03*
X0040323Y0196361D03*
X0040323Y0193736D03*
X0050613Y0194361D03*
X0051113Y0195736D03*
X0050823Y0197111D03*
X0058518Y0166404D03*
X0061188Y0166404D03*
X0047688Y0159606D03*
X0054084Y0128987D03*
X0054084Y0126237D03*
X0060544Y0128737D03*
X0019792Y0116751D03*
D78*
X0019812Y0116792D03*
X0023343Y0129673D03*
X0014173Y0192278D03*
X0014303Y0192445D03*
X0014553Y0192820D03*
X0014803Y0193153D03*
X0014923Y0193320D03*
X0015053Y0193528D03*
X0015173Y0193695D03*
X0015423Y0194028D03*
X0014053Y0197028D03*
X0032423Y0196653D03*
X0040173Y0196653D03*
X0043553Y0193028D03*
X0064553Y0193570D03*
X0060524Y0128696D03*
X0055881Y0117754D03*
D79*
X0056256Y0118004D03*
X0056336Y0116046D03*
X0054376Y0118796D03*
X0053479Y0126779D03*
X0053479Y0128446D03*
X0050126Y0118671D03*
X0050296Y0117796D03*
X0049876Y0116129D03*
X0058979Y0127029D03*
X0059269Y0127404D03*
X0059399Y0127571D03*
X0059649Y0127904D03*
X0059939Y0128279D03*
X0060546Y0116254D03*
X0060506Y0116171D03*
X0065399Y0126654D03*
X0065479Y0126779D03*
X0065479Y0126821D03*
X0065519Y0126904D03*
X0065439Y0128446D03*
X0065399Y0128529D03*
X0063833Y0156190D03*
X0063793Y0156940D03*
X0065873Y0158190D03*
X0061163Y0165613D03*
X0059833Y0169113D03*
X0058543Y0165613D03*
X0055913Y0166529D03*
X0055873Y0168321D03*
X0055873Y0168363D03*
X0059833Y0159315D03*
X0052873Y0158315D03*
X0052873Y0156815D03*
X0052913Y0156732D03*
X0049293Y0158357D03*
X0049163Y0158565D03*
X0046163Y0158482D03*
X0046123Y0158440D03*
X0046083Y0158357D03*
X0046083Y0158315D03*
X0046043Y0158232D03*
X0046123Y0156690D03*
X0047913Y0166654D03*
X0046913Y0167696D03*
X0046873Y0167738D03*
X0046793Y0167821D03*
X0046083Y0168571D03*
X0026817Y0118709D03*
X0026857Y0118667D03*
X0026937Y0117084D03*
X0026897Y0116959D03*
X0026857Y0116917D03*
X0026817Y0116834D03*
X0024317Y0119167D03*
X0021357Y0118459D03*
X0021067Y0118084D03*
X0020937Y0117917D03*
X0020687Y0117584D03*
X0020567Y0117417D03*
X0020397Y0117209D03*
X0016968Y0126298D03*
X0014857Y0118542D03*
X0014857Y0117042D03*
X0014897Y0116959D03*
X0014937Y0116917D03*
X0014885Y0135471D03*
X0015055Y0135679D03*
X0015135Y0135804D03*
X0015305Y0136054D03*
X0015345Y0136096D03*
X0015385Y0136179D03*
X0015425Y0136221D03*
X0015555Y0136429D03*
X0015595Y0136471D03*
X0015635Y0136554D03*
X0015675Y0136596D03*
X0015885Y0136887D03*
X0015925Y0136971D03*
X0015845Y0138179D03*
X0015675Y0138429D03*
X0015635Y0138471D03*
X0015555Y0138596D03*
X0015385Y0138846D03*
X0015305Y0138971D03*
X0015135Y0139179D03*
X0015055Y0139304D03*
X0014925Y0139471D03*
X0016845Y0138179D03*
X0016925Y0138304D03*
X0017055Y0138471D03*
X0017095Y0138554D03*
X0017135Y0138596D03*
X0017175Y0138679D03*
X0017305Y0138846D03*
X0017345Y0138929D03*
X0017385Y0138971D03*
X0017555Y0139221D03*
X0017635Y0139304D03*
X0017635Y0139346D03*
X0017055Y0136554D03*
X0017135Y0136429D03*
X0017555Y0135846D03*
X0017635Y0135721D03*
X0017805Y0135471D03*
X0017845Y0135429D03*
X0017738Y0145704D03*
X0017698Y0145746D03*
X0017568Y0145954D03*
X0017528Y0145996D03*
X0017488Y0146079D03*
X0017448Y0146121D03*
X0017278Y0146371D03*
X0017198Y0146496D03*
X0016988Y0146787D03*
X0016738Y0148371D03*
X0016988Y0148704D03*
X0017068Y0148829D03*
X0017198Y0148996D03*
X0017238Y0149079D03*
X0017278Y0149121D03*
X0017318Y0149204D03*
X0017448Y0149371D03*
X0017488Y0149454D03*
X0017528Y0149496D03*
X0017568Y0149579D03*
X0015568Y0148704D03*
X0015488Y0148829D03*
X0015318Y0149079D03*
X0015278Y0149121D03*
X0015238Y0149204D03*
X0015198Y0149246D03*
X0015028Y0149496D03*
X0014948Y0149621D03*
X0015818Y0147121D03*
X0015778Y0147079D03*
X0015738Y0146996D03*
X0015698Y0146954D03*
X0015568Y0146787D03*
X0015528Y0146704D03*
X0015488Y0146621D03*
X0015448Y0146579D03*
X0015278Y0146371D03*
X0015278Y0146329D03*
X0015198Y0146246D03*
X0015198Y0146204D03*
X0015028Y0145996D03*
X0014948Y0145871D03*
X0014818Y0145704D03*
X0019198Y0145829D03*
X0019278Y0145954D03*
X0019318Y0145996D03*
X0019448Y0146204D03*
X0019488Y0146246D03*
X0019528Y0146329D03*
X0019568Y0146371D03*
X0019698Y0146579D03*
X0019738Y0146621D03*
X0019778Y0146704D03*
X0019988Y0146996D03*
X0022218Y0155502D03*
X0022428Y0155793D03*
X0022468Y0155835D03*
X0022468Y0155877D03*
X0022638Y0156085D03*
X0022638Y0156127D03*
X0022718Y0156210D03*
X0022848Y0156377D03*
X0022888Y0156460D03*
X0022928Y0156502D03*
X0022968Y0156585D03*
X0023138Y0156835D03*
X0023178Y0156877D03*
X0022428Y0158752D03*
X0019647Y0166633D03*
X0019647Y0168133D03*
X0019687Y0168216D03*
X0015107Y0168216D03*
X0015067Y0168133D03*
X0015067Y0166633D03*
X0015147Y0166508D03*
X0015138Y0158960D03*
X0017098Y0156210D03*
X0024848Y0128590D03*
X0024848Y0128548D03*
X0024928Y0128423D03*
X0024928Y0126840D03*
D80*
X0025252Y0119834D03*
X0021922Y0118834D03*
X0021922Y0118792D03*
X0019832Y0116834D03*
X0025582Y0166258D03*
X0032323Y0193320D03*
X0032363Y0193403D03*
X0032403Y0193445D03*
X0032363Y0196736D03*
X0032323Y0196778D03*
X0032283Y0196861D03*
X0040033Y0196861D03*
X0040073Y0196778D03*
X0040113Y0196736D03*
X0040153Y0193445D03*
X0040113Y0193403D03*
X0040073Y0193320D03*
X0043613Y0192945D03*
X0047403Y0193028D03*
X0047443Y0193070D03*
X0050533Y0192945D03*
X0050653Y0194403D03*
X0064653Y0193403D03*
X0064573Y0196611D03*
X0064613Y0196653D03*
X0063834Y0129654D03*
X0063874Y0125571D03*
X0060504Y0128654D03*
X0058414Y0126696D03*
X0058414Y0126654D03*
X0063771Y0116254D03*
X0015363Y0193945D03*
X0015153Y0193653D03*
X0014823Y0193195D03*
X0014653Y0192945D03*
X0014613Y0192903D03*
X0014533Y0192778D03*
X0014443Y0192653D03*
X0014363Y0192528D03*
X0014193Y0192320D03*
X0014153Y0192236D03*
X0014033Y0192070D03*
X0013943Y0191945D03*
X0013903Y0191903D03*
X0013863Y0191820D03*
X0013823Y0191778D03*
X0014153Y0195403D03*
X0014113Y0195445D03*
X0014073Y0197070D03*
D81*
X0015167Y0168299D03*
X0022448Y0158793D03*
X0023198Y0156918D03*
X0025587Y0165549D03*
X0017468Y0149412D03*
X0016298Y0147745D03*
X0014798Y0145662D03*
X0014905Y0139513D03*
X0016365Y0137513D03*
X0021377Y0118501D03*
X0021087Y0118126D03*
X0020917Y0117876D03*
X0020587Y0117459D03*
X0020417Y0117251D03*
X0020337Y0117126D03*
X0026837Y0116876D03*
X0045393Y0165654D03*
X0045563Y0165904D03*
X0045853Y0166279D03*
X0046103Y0166612D03*
X0046603Y0168029D03*
X0046353Y0168279D03*
X0046063Y0168612D03*
X0045893Y0168779D03*
X0045643Y0169029D03*
X0049143Y0158606D03*
X0049103Y0156481D03*
X0055853Y0166404D03*
X0055893Y0166487D03*
X0055853Y0168404D03*
X0053499Y0128487D03*
X0058959Y0126987D03*
X0059249Y0127362D03*
X0059419Y0127612D03*
X0059709Y0127987D03*
X0059919Y0128237D03*
X0059999Y0128362D03*
X0063776Y0115587D03*
D82*
X0060484Y0128571D03*
X0056131Y0115879D03*
X0054591Y0117046D03*
X0055251Y0119379D03*
X0065748Y0156065D03*
X0064208Y0157232D03*
X0064878Y0159565D03*
X0064208Y0167071D03*
X0064713Y0193320D03*
X0064673Y0196736D03*
X0051173Y0195695D03*
X0050713Y0194445D03*
X0050593Y0192903D03*
X0047343Y0192945D03*
X0043673Y0192903D03*
X0040053Y0193278D03*
X0039963Y0196945D03*
X0036013Y0197403D03*
X0032213Y0196945D03*
X0032303Y0193278D03*
X0028263Y0197403D03*
X0014133Y0197153D03*
X0015343Y0157210D03*
X0016283Y0148204D03*
X0016283Y0147287D03*
X0016340Y0137971D03*
X0016340Y0137054D03*
X0015223Y0127298D03*
X0019852Y0116917D03*
D83*
X0019877Y0116959D03*
X0021877Y0118709D03*
X0016408Y0127965D03*
X0032238Y0193195D03*
X0039988Y0193195D03*
X0064853Y0155565D03*
X0060459Y0128529D03*
X0058459Y0126779D03*
D84*
X0059149Y0127237D03*
X0059519Y0127737D03*
X0062899Y0128987D03*
X0065439Y0128487D03*
X0065439Y0126737D03*
X0060546Y0116212D03*
X0053519Y0126737D03*
X0053439Y0126862D03*
X0053439Y0128362D03*
X0058543Y0155773D03*
X0059833Y0159273D03*
X0061163Y0155773D03*
X0063833Y0166029D03*
X0063793Y0166779D03*
X0065873Y0168029D03*
X0059833Y0169154D03*
X0055913Y0168279D03*
X0052913Y0158398D03*
X0049333Y0156898D03*
X0049293Y0156773D03*
X0046163Y0156648D03*
X0046123Y0158398D03*
X0046333Y0166904D03*
X0046833Y0167779D03*
X0046123Y0168529D03*
X0026857Y0118626D03*
X0026897Y0117001D03*
X0024888Y0126757D03*
X0024888Y0128507D03*
X0020817Y0117751D03*
X0016888Y0128257D03*
X0014848Y0126257D03*
X0014897Y0118626D03*
X0014925Y0135513D03*
X0015095Y0135763D03*
X0015175Y0135888D03*
X0015345Y0136138D03*
X0015425Y0136263D03*
X0015555Y0136388D03*
X0015635Y0136513D03*
X0015805Y0136763D03*
X0015845Y0136846D03*
X0016805Y0138138D03*
X0017345Y0138888D03*
X0017425Y0139013D03*
X0017595Y0139263D03*
X0017675Y0139388D03*
X0017345Y0136138D03*
X0017425Y0136013D03*
X0017595Y0135763D03*
X0017675Y0135638D03*
X0015345Y0138888D03*
X0015175Y0139138D03*
X0015095Y0139263D03*
X0014988Y0145912D03*
X0015068Y0146037D03*
X0015238Y0146287D03*
X0015318Y0146412D03*
X0015488Y0146662D03*
X0015568Y0146745D03*
X0015778Y0148412D03*
X0015698Y0148537D03*
X0015068Y0149412D03*
X0014988Y0149537D03*
X0016778Y0148412D03*
X0016948Y0148662D03*
X0017028Y0148787D03*
X0017198Y0149037D03*
X0017278Y0149162D03*
X0017568Y0149537D03*
X0017068Y0146662D03*
X0017698Y0145787D03*
X0017778Y0145662D03*
X0019068Y0145662D03*
X0019238Y0145912D03*
X0019318Y0146037D03*
X0019488Y0146287D03*
X0019698Y0146537D03*
X0019778Y0146662D03*
X0019818Y0146745D03*
X0019948Y0146912D03*
X0020028Y0147037D03*
X0019278Y0148912D03*
X0022348Y0155668D03*
X0022388Y0155751D03*
X0022598Y0156043D03*
X0022678Y0156168D03*
X0022848Y0156418D03*
X0022928Y0156543D03*
X0023098Y0156751D03*
X0019687Y0166549D03*
X0015187Y0166424D03*
X0015107Y0166549D03*
X0014928Y0156918D03*
X0014968Y0156168D03*
D85*
X0016278Y0147245D03*
X0016345Y0138013D03*
X0016345Y0137013D03*
X0019897Y0117001D03*
X0047258Y0192861D03*
X0060439Y0128487D03*
D86*
X0065316Y0119212D03*
X0065066Y0118587D03*
X0052853Y0156898D03*
X0052853Y0158273D03*
X0046103Y0156773D03*
X0050066Y0118587D03*
X0065853Y0168779D03*
X0022408Y0157793D03*
X0019627Y0166674D03*
X0019627Y0168049D03*
X0014908Y0156251D03*
X0015258Y0149162D03*
X0015508Y0148787D03*
X0015758Y0147037D03*
X0017008Y0146745D03*
X0017258Y0146412D03*
X0017508Y0146037D03*
X0015615Y0138513D03*
X0015865Y0138138D03*
X0016865Y0136846D03*
X0014877Y0117001D03*
D87*
X0014837Y0117084D03*
X0014797Y0117167D03*
X0014797Y0117209D03*
X0014797Y0118417D03*
X0014837Y0118459D03*
X0014828Y0126298D03*
X0014738Y0126923D03*
X0017655Y0135679D03*
X0017575Y0135804D03*
X0017445Y0135971D03*
X0017405Y0136054D03*
X0017325Y0136179D03*
X0017285Y0136221D03*
X0017195Y0136346D03*
X0017035Y0136596D03*
X0016945Y0136679D03*
X0016945Y0136721D03*
X0016825Y0136887D03*
X0016785Y0136929D03*
X0016785Y0136971D03*
X0015905Y0136929D03*
X0015825Y0136804D03*
X0015905Y0138096D03*
X0015825Y0138221D03*
X0015695Y0138387D03*
X0015575Y0138554D03*
X0015405Y0138804D03*
X0015325Y0138929D03*
X0015195Y0139096D03*
X0015035Y0139346D03*
X0016785Y0138096D03*
X0019218Y0145871D03*
X0017298Y0146329D03*
X0017218Y0146454D03*
X0017088Y0146621D03*
X0017048Y0146704D03*
X0016968Y0146829D03*
X0016928Y0146871D03*
X0016838Y0146996D03*
X0016798Y0147079D03*
X0016718Y0147204D03*
X0016718Y0148329D03*
X0016798Y0148454D03*
X0016838Y0148496D03*
X0016928Y0148621D03*
X0017088Y0148871D03*
X0015838Y0148329D03*
X0015798Y0148371D03*
X0015718Y0148496D03*
X0015678Y0148579D03*
X0015548Y0148746D03*
X0015468Y0148871D03*
X0015048Y0149454D03*
X0014968Y0149579D03*
X0014948Y0156210D03*
X0014868Y0156835D03*
X0019218Y0148829D03*
X0022368Y0155710D03*
X0022448Y0157752D03*
X0022368Y0157877D03*
X0025587Y0165466D03*
X0025587Y0165508D03*
X0026337Y0167258D03*
X0026417Y0167466D03*
X0026587Y0167883D03*
X0026667Y0168091D03*
X0026707Y0168216D03*
X0026797Y0168383D03*
X0026837Y0168508D03*
X0026917Y0168716D03*
X0026917Y0168758D03*
X0026957Y0168841D03*
X0027047Y0169008D03*
X0027087Y0169133D03*
X0027167Y0169341D03*
X0027167Y0169383D03*
X0024297Y0168591D03*
X0024167Y0168924D03*
X0024087Y0169133D03*
X0024047Y0169216D03*
X0019587Y0168008D03*
X0019587Y0167966D03*
X0019547Y0167883D03*
X0019547Y0167841D03*
X0019587Y0166758D03*
X0019667Y0166591D03*
X0015087Y0166591D03*
X0015047Y0166716D03*
X0014957Y0167841D03*
X0014957Y0167883D03*
X0015047Y0168091D03*
X0022328Y0128965D03*
X0022238Y0126340D03*
X0024948Y0126923D03*
X0024988Y0126965D03*
X0025078Y0127340D03*
X0024988Y0128298D03*
X0024948Y0128340D03*
X0026917Y0118542D03*
X0026917Y0118459D03*
X0026957Y0118417D03*
X0026957Y0117167D03*
X0026917Y0117042D03*
X0046063Y0156815D03*
X0046063Y0156857D03*
X0046023Y0156940D03*
X0046023Y0158190D03*
X0049313Y0158315D03*
X0049393Y0158065D03*
X0049393Y0157107D03*
X0049393Y0157065D03*
X0049313Y0156857D03*
X0049313Y0156815D03*
X0052773Y0157107D03*
X0052813Y0156982D03*
X0052813Y0156940D03*
X0052773Y0158065D03*
X0052813Y0158190D03*
X0052893Y0158357D03*
X0053273Y0166113D03*
X0055933Y0166571D03*
X0056023Y0166738D03*
X0056063Y0166946D03*
X0056063Y0167863D03*
X0056023Y0168071D03*
X0055933Y0168238D03*
X0058523Y0165571D03*
X0058523Y0165529D03*
X0061183Y0165529D03*
X0061183Y0165571D03*
X0062143Y0168321D03*
X0062183Y0168446D03*
X0062273Y0168696D03*
X0062313Y0168821D03*
X0062393Y0169071D03*
X0062433Y0169196D03*
X0062433Y0169238D03*
X0062523Y0169446D03*
X0063773Y0166738D03*
X0063773Y0166113D03*
X0063813Y0166071D03*
X0065893Y0168071D03*
X0062433Y0159357D03*
X0062393Y0159232D03*
X0062313Y0158982D03*
X0062273Y0158857D03*
X0062143Y0158482D03*
X0061183Y0155732D03*
X0061183Y0155690D03*
X0063813Y0156232D03*
X0065893Y0158232D03*
X0065933Y0158315D03*
X0058523Y0155732D03*
X0058523Y0155690D03*
X0053419Y0128321D03*
X0053419Y0128279D03*
X0053379Y0128196D03*
X0053379Y0127029D03*
X0053419Y0126946D03*
X0053419Y0126904D03*
X0056236Y0118754D03*
X0056276Y0118046D03*
X0058106Y0116296D03*
X0058106Y0116254D03*
X0060606Y0116379D03*
X0062396Y0118796D03*
X0062356Y0118921D03*
X0062276Y0119129D03*
X0062146Y0119421D03*
X0062646Y0118171D03*
X0063776Y0115504D03*
X0063776Y0115421D03*
X0064526Y0117254D03*
X0064776Y0117879D03*
X0064896Y0118171D03*
X0064986Y0118379D03*
X0064986Y0118421D03*
X0065026Y0118504D03*
X0065106Y0118754D03*
X0065146Y0118796D03*
X0065236Y0119004D03*
X0065236Y0119046D03*
X0065276Y0119129D03*
X0065276Y0119171D03*
X0065356Y0119296D03*
X0065356Y0119379D03*
X0065396Y0119421D03*
X0065539Y0126946D03*
X0065539Y0128196D03*
X0065499Y0128279D03*
X0065499Y0128321D03*
X0054106Y0116671D03*
X0049896Y0116921D03*
X0049856Y0116171D03*
X0050106Y0118629D03*
D88*
X0050236Y0117837D03*
X0053379Y0126987D03*
X0053379Y0128237D03*
X0054146Y0116712D03*
X0054146Y0116087D03*
X0058146Y0116212D03*
X0060606Y0116337D03*
X0062486Y0118587D03*
X0062236Y0119212D03*
X0063776Y0115462D03*
X0064606Y0117462D03*
X0064856Y0118087D03*
X0064896Y0118212D03*
X0065106Y0118712D03*
X0065146Y0118837D03*
X0065356Y0119337D03*
X0065499Y0126862D03*
X0065539Y0126987D03*
X0065539Y0128237D03*
X0065499Y0128362D03*
X0063773Y0156273D03*
X0063773Y0156898D03*
X0062183Y0158606D03*
X0062433Y0159398D03*
X0062523Y0159606D03*
X0065933Y0168154D03*
X0056063Y0167904D03*
X0056023Y0168029D03*
X0056063Y0166904D03*
X0056023Y0166779D03*
X0052813Y0158148D03*
X0052773Y0158023D03*
X0052893Y0156773D03*
X0049393Y0158023D03*
X0049313Y0158273D03*
X0049273Y0158398D03*
X0046063Y0158273D03*
X0046023Y0158148D03*
X0046023Y0156898D03*
X0047933Y0166612D03*
X0027207Y0169424D03*
X0027167Y0169299D03*
X0027087Y0169174D03*
X0027047Y0169049D03*
X0026957Y0168799D03*
X0026797Y0168424D03*
X0026707Y0168174D03*
X0025587Y0165424D03*
X0024457Y0168174D03*
X0024207Y0168799D03*
X0023957Y0169424D03*
X0019667Y0168174D03*
X0019547Y0166924D03*
X0019587Y0166799D03*
X0016988Y0158918D03*
X0017078Y0158293D03*
X0015047Y0166674D03*
X0014957Y0166924D03*
X0015047Y0168049D03*
X0015087Y0168174D03*
X0022368Y0158668D03*
X0019218Y0148037D03*
X0019298Y0147912D03*
X0017338Y0146287D03*
X0017428Y0146162D03*
X0017588Y0145912D03*
X0016798Y0147037D03*
X0016718Y0147162D03*
X0015838Y0147162D03*
X0015678Y0146912D03*
X0015428Y0148912D03*
X0015338Y0149037D03*
X0015178Y0149287D03*
X0015445Y0138763D03*
X0015535Y0138638D03*
X0015785Y0138263D03*
X0016905Y0138263D03*
X0017075Y0138513D03*
X0017155Y0138638D03*
X0016905Y0136763D03*
X0017075Y0136513D03*
X0017155Y0136388D03*
X0016868Y0129007D03*
X0016948Y0128382D03*
X0014837Y0118501D03*
X0014797Y0118376D03*
X0014837Y0117126D03*
X0024948Y0126882D03*
X0024988Y0127007D03*
X0024988Y0128257D03*
X0024948Y0128382D03*
X0026917Y0118501D03*
X0026957Y0118376D03*
X0026957Y0117126D03*
D89*
X0024868Y0126715D03*
X0021417Y0118542D03*
X0021337Y0118417D03*
X0021167Y0118209D03*
X0021127Y0118167D03*
X0020877Y0117834D03*
X0020837Y0117792D03*
X0020667Y0117542D03*
X0020627Y0117500D03*
X0020377Y0117167D03*
X0014917Y0118667D03*
X0014865Y0135429D03*
X0015075Y0135721D03*
X0015155Y0135846D03*
X0015008Y0145954D03*
X0017718Y0149746D03*
X0019298Y0148954D03*
X0020048Y0147079D03*
X0019968Y0146954D03*
X0023118Y0156793D03*
X0025587Y0165591D03*
X0019837Y0166341D03*
X0016948Y0158960D03*
X0014948Y0156960D03*
X0015167Y0166466D03*
X0015127Y0168258D03*
X0045143Y0165363D03*
X0045313Y0165571D03*
X0045353Y0165613D03*
X0045393Y0165696D03*
X0045603Y0165946D03*
X0045643Y0165988D03*
X0045813Y0166196D03*
X0045813Y0166238D03*
X0045893Y0166321D03*
X0046063Y0166529D03*
X0046063Y0166571D03*
X0046143Y0166654D03*
X0046313Y0166863D03*
X0046353Y0166946D03*
X0046393Y0166988D03*
X0046643Y0167988D03*
X0046563Y0168071D03*
X0046393Y0168238D03*
X0046313Y0168321D03*
X0046143Y0168488D03*
X0045853Y0168821D03*
X0045813Y0168863D03*
X0045603Y0169071D03*
X0045563Y0169113D03*
X0047893Y0166696D03*
X0049103Y0158648D03*
X0049143Y0156523D03*
X0053063Y0156523D03*
X0055813Y0166363D03*
X0055853Y0166446D03*
X0055813Y0168446D03*
X0059853Y0169071D03*
X0059853Y0159232D03*
X0063813Y0156982D03*
X0065813Y0158982D03*
X0063813Y0166821D03*
X0065813Y0168821D03*
X0059959Y0128321D03*
X0059749Y0128029D03*
X0059669Y0127946D03*
X0059499Y0127696D03*
X0059459Y0127654D03*
X0059209Y0127321D03*
X0059169Y0127279D03*
X0058999Y0127071D03*
X0058919Y0126946D03*
X0063776Y0115546D03*
X0065419Y0126696D03*
D90*
X0065609Y0127237D03*
X0065649Y0127362D03*
X0065649Y0127487D03*
X0065649Y0127612D03*
X0065649Y0127737D03*
X0065649Y0127862D03*
X0065609Y0127987D03*
X0065256Y0119087D03*
X0065006Y0118462D03*
X0064966Y0118337D03*
X0064796Y0117962D03*
X0064756Y0117837D03*
X0064716Y0117712D03*
X0064666Y0117587D03*
X0064546Y0117337D03*
X0064506Y0117212D03*
X0064466Y0117087D03*
X0064416Y0116962D03*
X0064296Y0116712D03*
X0064256Y0116587D03*
X0064216Y0116462D03*
X0064166Y0116337D03*
X0063376Y0116337D03*
X0063126Y0116962D03*
X0063086Y0117087D03*
X0062916Y0117462D03*
X0062876Y0117587D03*
X0062836Y0117712D03*
X0062796Y0117837D03*
X0062666Y0118087D03*
X0062626Y0118212D03*
X0062586Y0118337D03*
X0062546Y0118462D03*
X0062416Y0118712D03*
X0062376Y0118837D03*
X0062336Y0118962D03*
X0062296Y0119087D03*
X0060666Y0116587D03*
X0060626Y0116462D03*
X0058086Y0116337D03*
X0058046Y0116462D03*
X0056296Y0118087D03*
X0056336Y0118212D03*
X0056256Y0118712D03*
X0054086Y0116587D03*
X0050126Y0117962D03*
X0050046Y0118462D03*
X0049836Y0116837D03*
X0049796Y0116337D03*
X0049836Y0116212D03*
X0053359Y0127112D03*
X0053309Y0127237D03*
X0053269Y0127362D03*
X0053269Y0127487D03*
X0053269Y0127612D03*
X0053269Y0127737D03*
X0053269Y0127862D03*
X0053309Y0127987D03*
X0058059Y0125737D03*
X0058543Y0155648D03*
X0057663Y0158148D03*
X0057623Y0158273D03*
X0057583Y0158398D03*
X0057543Y0158523D03*
X0057503Y0158606D03*
X0057453Y0158773D03*
X0057413Y0158898D03*
X0057373Y0159023D03*
X0057333Y0159148D03*
X0057293Y0159273D03*
X0057253Y0159398D03*
X0057203Y0159523D03*
X0057163Y0159606D03*
X0059833Y0159398D03*
X0061753Y0157273D03*
X0061793Y0157398D03*
X0061703Y0157148D03*
X0061663Y0157023D03*
X0061623Y0156898D03*
X0061583Y0156773D03*
X0061913Y0157773D03*
X0061953Y0157898D03*
X0062003Y0158023D03*
X0062043Y0158148D03*
X0062083Y0158273D03*
X0062123Y0158398D03*
X0062163Y0158523D03*
X0062253Y0158773D03*
X0062293Y0158898D03*
X0062333Y0159023D03*
X0062373Y0159148D03*
X0062413Y0159273D03*
X0063703Y0156773D03*
X0065913Y0158273D03*
X0065953Y0158398D03*
X0065873Y0158898D03*
X0063753Y0166154D03*
X0063703Y0166279D03*
X0063703Y0166612D03*
X0061793Y0167279D03*
X0061833Y0167404D03*
X0061873Y0167529D03*
X0061913Y0167612D03*
X0061953Y0167779D03*
X0062003Y0167904D03*
X0062043Y0168029D03*
X0062083Y0168154D03*
X0062123Y0168279D03*
X0062163Y0168404D03*
X0062203Y0168529D03*
X0062253Y0168612D03*
X0062293Y0168779D03*
X0062333Y0168904D03*
X0062373Y0169029D03*
X0062413Y0169154D03*
X0062453Y0169279D03*
X0062503Y0169404D03*
X0061583Y0166612D03*
X0061163Y0165487D03*
X0059833Y0169279D03*
X0058543Y0165487D03*
X0057453Y0168612D03*
X0057373Y0168904D03*
X0057333Y0169029D03*
X0057293Y0169154D03*
X0057253Y0169279D03*
X0057203Y0169404D03*
X0056083Y0167779D03*
X0056123Y0167612D03*
X0056123Y0167529D03*
X0056123Y0167404D03*
X0056123Y0167279D03*
X0056123Y0167154D03*
X0056083Y0167029D03*
X0052753Y0157898D03*
X0052703Y0157773D03*
X0052703Y0157606D03*
X0052703Y0157481D03*
X0052703Y0157398D03*
X0052753Y0157273D03*
X0052753Y0157148D03*
X0052793Y0157023D03*
X0049453Y0157398D03*
X0049453Y0157481D03*
X0049453Y0157606D03*
X0049453Y0157773D03*
X0049413Y0157898D03*
X0049373Y0158148D03*
X0049413Y0157273D03*
X0049413Y0157148D03*
X0049373Y0157023D03*
X0046003Y0157023D03*
X0045953Y0157148D03*
X0045953Y0157273D03*
X0045913Y0157398D03*
X0045913Y0157481D03*
X0045913Y0157606D03*
X0045913Y0157773D03*
X0045953Y0157898D03*
X0061163Y0155648D03*
X0026857Y0168549D03*
X0026897Y0168674D03*
X0026977Y0168882D03*
X0026647Y0168049D03*
X0026607Y0167924D03*
X0026567Y0167799D03*
X0026437Y0167549D03*
X0026397Y0167424D03*
X0026357Y0167299D03*
X0026317Y0167174D03*
X0026277Y0167049D03*
X0026187Y0166924D03*
X0026147Y0166799D03*
X0026107Y0166674D03*
X0026067Y0166549D03*
X0025107Y0166549D03*
X0024897Y0167049D03*
X0024857Y0167174D03*
X0024817Y0167299D03*
X0024647Y0167674D03*
X0024607Y0167799D03*
X0024567Y0167924D03*
X0024527Y0168049D03*
X0024397Y0168299D03*
X0024357Y0168424D03*
X0024317Y0168549D03*
X0024277Y0168674D03*
X0024187Y0168882D03*
X0024107Y0169049D03*
X0024067Y0169174D03*
X0022348Y0157918D03*
X0019527Y0167049D03*
X0019477Y0167174D03*
X0019477Y0167299D03*
X0019477Y0167424D03*
X0019477Y0167549D03*
X0019527Y0167674D03*
X0019527Y0167799D03*
X0019567Y0167924D03*
X0017058Y0158793D03*
X0014848Y0156751D03*
X0014848Y0156418D03*
X0019198Y0148787D03*
X0019158Y0148662D03*
X0014937Y0167049D03*
X0014897Y0167174D03*
X0014897Y0167299D03*
X0014897Y0167424D03*
X0014897Y0167549D03*
X0014937Y0167674D03*
X0014937Y0167799D03*
X0014977Y0167924D03*
X0016928Y0128882D03*
X0014718Y0126882D03*
X0014718Y0126507D03*
X0014758Y0126382D03*
X0014727Y0118126D03*
X0014687Y0118001D03*
X0014687Y0117876D03*
X0014687Y0117751D03*
X0014687Y0117626D03*
X0014727Y0117459D03*
X0014727Y0117376D03*
X0014777Y0117251D03*
X0022277Y0119751D03*
X0025058Y0127257D03*
X0025098Y0127382D03*
X0025098Y0127507D03*
X0025098Y0127632D03*
X0025098Y0127757D03*
X0025098Y0127882D03*
X0025058Y0128007D03*
X0027027Y0118126D03*
X0027067Y0118001D03*
X0027067Y0117876D03*
X0027067Y0117751D03*
X0027067Y0117626D03*
X0027027Y0117459D03*
X0027027Y0117376D03*
D91*
X0022232Y0119626D03*
X0021482Y0118626D03*
X0020522Y0117376D03*
X0014803Y0127007D03*
X0015010Y0135638D03*
X0015260Y0136013D03*
X0015720Y0136638D03*
X0015260Y0139013D03*
X0015010Y0139388D03*
X0016970Y0138346D03*
X0017260Y0138763D03*
X0017510Y0139138D03*
X0017260Y0136263D03*
X0017510Y0135888D03*
X0017760Y0135513D03*
X0019153Y0145787D03*
X0019403Y0146162D03*
X0017653Y0149662D03*
X0017113Y0148912D03*
X0016863Y0148537D03*
X0017153Y0146537D03*
X0015403Y0146537D03*
X0015153Y0146162D03*
X0015613Y0148662D03*
X0014903Y0149662D03*
X0017013Y0158168D03*
X0019772Y0166424D03*
X0022513Y0155918D03*
X0022263Y0155543D03*
X0049208Y0156648D03*
X0055958Y0166612D03*
X0059814Y0128112D03*
X0058854Y0126862D03*
X0058104Y0125862D03*
X0062564Y0126362D03*
X0065354Y0128612D03*
D92*
X0063019Y0127821D03*
X0063019Y0127779D03*
X0063019Y0127696D03*
X0063019Y0127654D03*
X0063019Y0127571D03*
X0063019Y0127529D03*
X0063019Y0127446D03*
X0063019Y0127404D03*
X0063019Y0127321D03*
X0063019Y0127279D03*
X0039678Y0192903D03*
X0031928Y0192903D03*
X0024437Y0117959D03*
X0024437Y0117917D03*
X0024437Y0117834D03*
X0024437Y0117792D03*
X0024437Y0117709D03*
X0024437Y0117667D03*
X0024437Y0117584D03*
X0024437Y0117542D03*
X0024437Y0117500D03*
X0024437Y0117417D03*
D93*
X0024437Y0117459D03*
X0024437Y0117626D03*
X0024437Y0117751D03*
X0024437Y0117876D03*
X0024437Y0118001D03*
X0045508Y0191611D03*
X0047138Y0192736D03*
X0051088Y0197361D03*
X0051388Y0195611D03*
X0065048Y0197111D03*
X0065088Y0192986D03*
X0063019Y0127737D03*
X0063019Y0127612D03*
X0063019Y0127487D03*
X0063019Y0127362D03*
X0063019Y0127237D03*
D94*
X0065459Y0128404D03*
X0065316Y0119254D03*
X0065066Y0118629D03*
X0064816Y0118004D03*
X0062566Y0118379D03*
X0062316Y0119004D03*
X0060566Y0116296D03*
X0056316Y0118129D03*
X0053459Y0126821D03*
X0053459Y0128404D03*
X0050066Y0118546D03*
X0049816Y0116254D03*
X0046103Y0156732D03*
X0049353Y0156940D03*
X0049353Y0156982D03*
X0049353Y0158190D03*
X0049353Y0158232D03*
X0052853Y0158232D03*
X0052853Y0156857D03*
X0056103Y0167113D03*
X0053353Y0168738D03*
X0059853Y0169196D03*
X0062353Y0168946D03*
X0059853Y0159357D03*
X0062353Y0159107D03*
X0065853Y0158940D03*
X0027127Y0169216D03*
X0027127Y0169258D03*
X0026877Y0168633D03*
X0026877Y0168591D03*
X0026627Y0168008D03*
X0024377Y0168383D03*
X0024127Y0169008D03*
X0022408Y0158710D03*
X0019627Y0166716D03*
X0019627Y0168091D03*
X0014908Y0156877D03*
X0017008Y0148746D03*
X0016758Y0147121D03*
X0015758Y0148454D03*
X0015115Y0139221D03*
X0016865Y0138221D03*
X0016865Y0136804D03*
X0017115Y0136471D03*
X0017365Y0136096D03*
X0016908Y0128298D03*
X0014877Y0118584D03*
X0024908Y0126798D03*
X0024908Y0128465D03*
X0026877Y0118584D03*
X0019258Y0147954D03*
X0019258Y0148871D03*
D95*
X0016278Y0148246D03*
X0015428Y0157252D03*
X0014258Y0195320D03*
X0043758Y0192820D03*
X0051258Y0195653D03*
X0050968Y0197278D03*
X0058479Y0126821D03*
X0059336Y0115379D03*
X0021857Y0118667D03*
D96*
X0021902Y0118751D03*
X0016763Y0126132D03*
X0015883Y0129632D03*
X0016883Y0156043D03*
X0016013Y0159543D03*
X0014093Y0197111D03*
X0032173Y0196986D03*
X0032263Y0193236D03*
X0040013Y0193236D03*
X0039923Y0196986D03*
X0047383Y0192986D03*
X0050923Y0197236D03*
X0064633Y0196694D03*
X0064878Y0169404D03*
X0065748Y0165904D03*
X0058434Y0126737D03*
D97*
X0062754Y0128654D03*
X0066058Y0156565D03*
X0024172Y0118834D03*
X0022203Y0126673D03*
X0014863Y0128715D03*
X0014993Y0158627D03*
D98*
X0014973Y0158668D03*
X0014843Y0128757D03*
X0022223Y0128632D03*
X0024192Y0118876D03*
X0053248Y0168404D03*
D99*
X0064553Y0196569D03*
X0040173Y0193486D03*
X0032423Y0193486D03*
X0015303Y0193861D03*
X0014673Y0192986D03*
X0014053Y0192111D03*
X0021942Y0118876D03*
X0058394Y0126612D03*
D100*
X0054256Y0118546D03*
X0066043Y0156523D03*
X0066043Y0166363D03*
X0024187Y0118917D03*
D101*
X0026647Y0118959D03*
X0024678Y0126465D03*
X0024678Y0128798D03*
X0016345Y0137471D03*
X0016345Y0137554D03*
X0016278Y0147704D03*
X0016278Y0147787D03*
X0016888Y0159002D03*
X0014888Y0126215D03*
X0045373Y0169321D03*
X0045333Y0169363D03*
X0047873Y0166738D03*
X0049083Y0158690D03*
X0049083Y0156440D03*
X0046373Y0156357D03*
X0059833Y0159190D03*
X0059833Y0168988D03*
X0063873Y0165988D03*
X0065833Y0167988D03*
X0065229Y0128779D03*
X0050046Y0117046D03*
D102*
X0062789Y0128779D03*
X0024207Y0118959D03*
X0022198Y0126548D03*
D103*
X0024212Y0119001D03*
X0015033Y0158793D03*
X0028073Y0196986D03*
X0035823Y0196986D03*
X0053228Y0166279D03*
D104*
X0046748Y0159023D03*
X0058354Y0126487D03*
X0055211Y0115337D03*
X0064383Y0193861D03*
X0064343Y0193986D03*
X0064383Y0196236D03*
X0040383Y0196236D03*
X0032633Y0196236D03*
X0015263Y0157168D03*
X0021982Y0119001D03*
D105*
X0024232Y0119042D03*
X0022263Y0128840D03*
X0017013Y0126423D03*
X0017133Y0156335D03*
X0045513Y0191528D03*
X0065998Y0166196D03*
X0065998Y0156357D03*
X0056381Y0116171D03*
D106*
X0058334Y0126446D03*
X0064834Y0129071D03*
X0053478Y0168863D03*
X0047613Y0193403D03*
X0043363Y0193403D03*
X0040363Y0196278D03*
X0032613Y0196278D03*
X0024283Y0129090D03*
X0024283Y0126173D03*
X0022002Y0119042D03*
X0064363Y0193903D03*
D107*
X0053228Y0156357D03*
X0046478Y0158857D03*
X0065084Y0128904D03*
X0026502Y0119084D03*
X0020002Y0168591D03*
D108*
X0015093Y0158877D03*
X0014973Y0128965D03*
X0022223Y0126423D03*
X0024272Y0119084D03*
X0053248Y0166196D03*
X0063958Y0168738D03*
X0065998Y0156315D03*
X0062854Y0128904D03*
X0056381Y0116129D03*
D109*
X0063854Y0129737D03*
X0060748Y0156773D03*
X0060708Y0156898D03*
X0060498Y0157481D03*
X0060458Y0157606D03*
X0060248Y0158273D03*
X0060208Y0158398D03*
X0060748Y0166612D03*
X0060708Y0166779D03*
X0060498Y0167404D03*
X0059208Y0167404D03*
X0058998Y0166779D03*
X0053248Y0166154D03*
X0035843Y0197111D03*
X0028093Y0197111D03*
X0024272Y0119126D03*
D110*
X0016437Y0119209D03*
X0029798Y0198320D03*
X0037548Y0198320D03*
X0055019Y0129029D03*
X0055019Y0126196D03*
X0051256Y0117171D03*
X0051256Y0115754D03*
D111*
X0054478Y0159023D03*
X0023323Y0129132D03*
X0016462Y0119251D03*
X0021252Y0165924D03*
D112*
X0021292Y0168924D03*
X0023743Y0159127D03*
X0023743Y0157460D03*
X0020593Y0149329D03*
X0020593Y0147621D03*
X0023323Y0129173D03*
X0023363Y0126090D03*
X0025292Y0119334D03*
X0025332Y0119292D03*
X0016712Y0168924D03*
X0047688Y0159107D03*
X0054518Y0159107D03*
X0054398Y0165863D03*
X0063874Y0129154D03*
D113*
X0063834Y0125987D03*
X0025252Y0119376D03*
D114*
X0022127Y0119376D03*
X0016365Y0137638D03*
X0048853Y0158898D03*
X0058209Y0126112D03*
D115*
X0063834Y0129279D03*
X0051401Y0117671D03*
X0051401Y0117379D03*
X0051401Y0115546D03*
X0047688Y0155940D03*
X0047688Y0159190D03*
X0050518Y0165363D03*
X0050518Y0165446D03*
X0050518Y0165529D03*
X0050518Y0165571D03*
X0050518Y0165613D03*
X0050518Y0165696D03*
X0050518Y0165738D03*
X0050518Y0165821D03*
X0050518Y0165863D03*
X0050518Y0165946D03*
X0050518Y0165988D03*
X0025252Y0119459D03*
X0020673Y0147454D03*
X0020673Y0149454D03*
X0016792Y0165716D03*
D116*
X0021377Y0165716D03*
X0016587Y0119459D03*
X0055169Y0125946D03*
X0055169Y0129279D03*
X0054603Y0159232D03*
D117*
X0055229Y0129362D03*
X0051466Y0117587D03*
X0025227Y0119501D03*
X0020738Y0149537D03*
X0023888Y0159376D03*
D118*
X0016627Y0119501D03*
D119*
X0015823Y0129215D03*
X0025252Y0119542D03*
D120*
X0016647Y0119542D03*
X0020738Y0147371D03*
X0023888Y0157210D03*
X0021437Y0169133D03*
X0016857Y0169133D03*
X0029798Y0198403D03*
X0037548Y0198403D03*
X0054663Y0159315D03*
X0063809Y0129321D03*
X0059336Y0115796D03*
D121*
X0063834Y0129404D03*
X0025252Y0119584D03*
D122*
X0016687Y0119584D03*
X0015848Y0129173D03*
X0015968Y0159085D03*
X0055269Y0129404D03*
X0055269Y0125821D03*
X0064793Y0159190D03*
D123*
X0025252Y0119626D03*
X0015823Y0129382D03*
X0016033Y0155751D03*
X0017042Y0169299D03*
X0024073Y0159543D03*
D124*
X0024013Y0159502D03*
X0021562Y0169258D03*
X0016982Y0169258D03*
X0015933Y0159252D03*
X0016053Y0155793D03*
X0015803Y0129340D03*
X0016772Y0119667D03*
X0055291Y0115629D03*
X0059341Y0115671D03*
X0064918Y0155815D03*
X0064788Y0169113D03*
X0054788Y0159440D03*
D125*
X0054853Y0159482D03*
X0054393Y0165613D03*
X0064893Y0165613D03*
X0064813Y0159315D03*
X0055419Y0129529D03*
X0055419Y0125696D03*
X0023368Y0125840D03*
X0016837Y0119709D03*
X0015908Y0125840D03*
X0021627Y0165466D03*
D126*
X0028403Y0197486D03*
X0036153Y0197486D03*
X0025252Y0119751D03*
D127*
X0016897Y0119751D03*
X0017107Y0165424D03*
X0021687Y0165424D03*
X0054913Y0159523D03*
X0063809Y0129487D03*
X0063859Y0125737D03*
D128*
X0055691Y0117671D03*
X0035613Y0192820D03*
X0031863Y0197278D03*
X0027863Y0192820D03*
X0039613Y0197278D03*
X0025252Y0119792D03*
D129*
X0017107Y0119834D03*
X0017317Y0165341D03*
X0021897Y0165341D03*
X0027928Y0192778D03*
X0035678Y0192778D03*
X0043928Y0192695D03*
X0047048Y0192695D03*
X0055123Y0155523D03*
X0055689Y0129654D03*
X0055689Y0125571D03*
D130*
X0046518Y0158898D03*
X0046938Y0167529D03*
X0055478Y0168779D03*
X0055478Y0166029D03*
X0058518Y0166029D03*
X0061188Y0166029D03*
X0025252Y0119876D03*
X0015542Y0168674D03*
D131*
X0025272Y0119917D03*
X0058958Y0156815D03*
X0058998Y0156940D03*
X0059208Y0157565D03*
X0060458Y0157648D03*
X0060498Y0157565D03*
X0060498Y0157523D03*
X0060708Y0156940D03*
X0060708Y0156857D03*
X0060748Y0156815D03*
X0060748Y0156732D03*
X0060748Y0166571D03*
X0060748Y0166654D03*
X0060708Y0166696D03*
X0060708Y0166738D03*
X0060498Y0167321D03*
X0060498Y0167363D03*
X0060458Y0167446D03*
X0060458Y0167488D03*
X0060248Y0168113D03*
X0060208Y0168238D03*
X0058958Y0166654D03*
X0062854Y0128946D03*
D132*
X0064833Y0165279D03*
X0066043Y0166279D03*
X0064873Y0169529D03*
X0017178Y0156418D03*
X0015968Y0155418D03*
X0015888Y0129757D03*
X0015848Y0125507D03*
D133*
X0023368Y0125590D03*
X0025587Y0166133D03*
X0025587Y0166216D03*
X0032528Y0193653D03*
X0032528Y0193695D03*
X0032488Y0196528D03*
X0032448Y0196611D03*
X0040198Y0196611D03*
X0040238Y0196528D03*
X0040278Y0193695D03*
X0040278Y0193653D03*
X0043448Y0193195D03*
X0043528Y0193070D03*
X0047488Y0193153D03*
X0047528Y0193195D03*
X0050448Y0193070D03*
X0050488Y0193028D03*
X0059853Y0168321D03*
X0059853Y0158482D03*
X0059853Y0158440D03*
X0054393Y0165363D03*
X0064488Y0193653D03*
X0064488Y0193695D03*
X0064448Y0196403D03*
X0064488Y0196486D03*
X0063776Y0116171D03*
X0063776Y0116129D03*
X0014028Y0195570D03*
X0013988Y0196945D03*
D134*
X0013968Y0196903D03*
X0013968Y0196861D03*
X0013968Y0195695D03*
X0015968Y0155502D03*
X0016278Y0148079D03*
X0016345Y0137179D03*
X0015848Y0125590D03*
X0022428Y0126173D03*
X0045508Y0191570D03*
X0043468Y0193153D03*
X0040428Y0194028D03*
X0040298Y0196403D03*
X0040258Y0196486D03*
X0047548Y0193278D03*
X0050428Y0193153D03*
X0050548Y0194320D03*
X0051048Y0195778D03*
X0051008Y0195820D03*
X0050798Y0197070D03*
X0059833Y0168363D03*
X0058543Y0166363D03*
X0058543Y0166321D03*
X0061163Y0166321D03*
X0061163Y0166363D03*
X0064833Y0165363D03*
X0064123Y0157190D03*
X0064833Y0155523D03*
X0061163Y0156523D03*
X0058543Y0156523D03*
X0048623Y0156107D03*
X0054506Y0117004D03*
X0064428Y0193778D03*
X0064428Y0193820D03*
X0064298Y0194070D03*
X0064298Y0196070D03*
X0032678Y0194028D03*
X0032548Y0196403D03*
X0032508Y0196486D03*
D135*
X0014198Y0197236D03*
X0016298Y0148287D03*
X0023368Y0125632D03*
X0054393Y0165404D03*
D136*
X0065398Y0157898D03*
X0064823Y0193236D03*
X0043693Y0192861D03*
X0015993Y0155543D03*
X0015863Y0125632D03*
X0014193Y0195361D03*
X0055771Y0117712D03*
D137*
X0055606Y0117629D03*
X0054856Y0117171D03*
X0055236Y0115421D03*
X0059356Y0115421D03*
X0054393Y0165446D03*
X0050778Y0192778D03*
X0039568Y0197320D03*
X0031818Y0197320D03*
X0015618Y0157335D03*
X0015988Y0155585D03*
X0015488Y0127423D03*
X0015868Y0125673D03*
X0023368Y0125673D03*
X0014448Y0195195D03*
X0014318Y0197320D03*
D138*
X0015993Y0155627D03*
X0015863Y0125715D03*
X0023363Y0125715D03*
X0046943Y0192653D03*
X0051861Y0119421D03*
X0054981Y0117254D03*
D139*
X0023368Y0125757D03*
D140*
X0015888Y0125757D03*
X0031508Y0197486D03*
X0039258Y0197486D03*
X0051796Y0115337D03*
D141*
X0047683Y0155732D03*
X0054393Y0165571D03*
X0064813Y0169196D03*
X0064813Y0159357D03*
X0035908Y0192653D03*
X0028158Y0192653D03*
X0015948Y0159335D03*
X0015828Y0129423D03*
X0023368Y0125798D03*
D142*
X0023363Y0125882D03*
X0054398Y0165654D03*
D143*
X0064918Y0165654D03*
X0064788Y0159273D03*
X0055354Y0129487D03*
X0055171Y0119087D03*
X0020863Y0149662D03*
X0015933Y0125882D03*
D144*
X0023368Y0125923D03*
X0015948Y0159127D03*
X0051526Y0119254D03*
X0051526Y0117504D03*
X0054393Y0165696D03*
X0064813Y0168988D03*
D145*
X0055296Y0115671D03*
X0051546Y0115421D03*
X0015928Y0125923D03*
X0015928Y0159210D03*
D146*
X0023348Y0126007D03*
X0054373Y0165779D03*
X0059336Y0115837D03*
D147*
X0047683Y0155898D03*
X0054643Y0159273D03*
X0064933Y0165779D03*
X0021417Y0165674D03*
X0016837Y0165674D03*
X0016078Y0155918D03*
X0020718Y0147412D03*
X0015948Y0126007D03*
D148*
X0015968Y0126048D03*
X0020698Y0149496D03*
X0016098Y0155960D03*
X0023848Y0159335D03*
X0055336Y0115796D03*
X0059336Y0115879D03*
D149*
X0055064Y0126112D03*
X0055064Y0129112D03*
X0023343Y0126132D03*
X0020573Y0147662D03*
X0021272Y0168882D03*
X0016692Y0168882D03*
D150*
X0016803Y0159043D03*
X0016843Y0158043D03*
X0016723Y0128132D03*
X0015053Y0126132D03*
X0053854Y0126362D03*
X0053854Y0128862D03*
X0056251Y0115962D03*
X0058381Y0115962D03*
X0058538Y0156148D03*
X0061168Y0156148D03*
X0064038Y0165904D03*
X0065708Y0167904D03*
X0065668Y0168904D03*
D151*
X0050758Y0196195D03*
X0050758Y0196278D03*
X0050718Y0196320D03*
X0050718Y0196403D03*
X0050718Y0196486D03*
X0050718Y0196528D03*
X0046583Y0158940D03*
X0050336Y0118796D03*
X0024388Y0126215D03*
X0024388Y0129048D03*
X0016678Y0128090D03*
X0016345Y0137304D03*
X0016345Y0137721D03*
X0016278Y0147954D03*
D152*
X0020002Y0166174D03*
X0022283Y0126257D03*
X0046478Y0156273D03*
X0053228Y0158773D03*
D153*
X0058163Y0156648D03*
X0060543Y0157398D03*
X0060663Y0157023D03*
X0060793Y0156648D03*
X0060413Y0157773D03*
X0060293Y0158148D03*
X0060793Y0166487D03*
X0060663Y0166904D03*
X0060543Y0167279D03*
X0060413Y0167612D03*
X0059163Y0167279D03*
X0059043Y0166904D03*
X0058163Y0166487D03*
X0058019Y0125612D03*
X0022218Y0126382D03*
D154*
X0017013Y0126382D03*
X0063958Y0158898D03*
X0065998Y0166154D03*
D155*
X0063938Y0168696D03*
X0063938Y0158857D03*
X0053228Y0166238D03*
X0035823Y0197028D03*
X0028073Y0197028D03*
X0015073Y0158835D03*
X0014953Y0128923D03*
X0022203Y0126465D03*
D156*
X0022263Y0128798D03*
X0017053Y0126465D03*
D157*
X0014908Y0128882D03*
X0022198Y0126507D03*
D158*
X0017053Y0126507D03*
X0016013Y0159668D03*
D159*
X0015008Y0158752D03*
X0017178Y0156460D03*
X0014888Y0128840D03*
X0017058Y0126548D03*
X0028048Y0196945D03*
X0035798Y0196945D03*
X0066043Y0166321D03*
X0056416Y0116296D03*
D160*
X0053273Y0168488D03*
X0035778Y0196903D03*
X0028028Y0196903D03*
X0022238Y0128715D03*
X0022198Y0126590D03*
D161*
X0017053Y0126590D03*
X0015013Y0158710D03*
D162*
X0022198Y0126632D03*
D163*
X0017073Y0126632D03*
X0017203Y0156543D03*
X0028033Y0196819D03*
X0035783Y0196819D03*
X0054231Y0118462D03*
X0066058Y0166404D03*
D164*
X0054863Y0192778D03*
X0054863Y0192820D03*
X0054863Y0192903D03*
X0054863Y0192945D03*
X0054863Y0193028D03*
X0054863Y0193070D03*
X0054863Y0193153D03*
X0054863Y0193195D03*
X0054863Y0193278D03*
X0054863Y0193320D03*
X0054863Y0193403D03*
X0054863Y0193445D03*
X0054863Y0193528D03*
X0054863Y0193570D03*
X0054863Y0193653D03*
X0054863Y0193695D03*
X0054863Y0193778D03*
X0054863Y0193820D03*
X0054863Y0193903D03*
X0054863Y0193945D03*
X0054863Y0194028D03*
X0054863Y0194070D03*
X0054863Y0194153D03*
X0054863Y0194195D03*
X0054863Y0194278D03*
X0054863Y0194320D03*
X0054863Y0194403D03*
X0054863Y0194445D03*
X0054863Y0194528D03*
X0054863Y0194570D03*
X0054863Y0195653D03*
X0054863Y0195695D03*
X0054863Y0195778D03*
X0054863Y0195820D03*
X0054863Y0195903D03*
X0054863Y0195945D03*
X0054863Y0196028D03*
X0054863Y0196070D03*
X0054863Y0196153D03*
X0054863Y0196195D03*
X0054863Y0196278D03*
X0054863Y0196320D03*
X0054863Y0196403D03*
X0054863Y0196486D03*
X0054863Y0196528D03*
X0054863Y0196611D03*
X0054863Y0196653D03*
X0054863Y0196736D03*
X0054863Y0196778D03*
X0054863Y0196861D03*
X0054863Y0196903D03*
X0054863Y0196945D03*
X0054863Y0197028D03*
X0054863Y0197070D03*
X0054863Y0197153D03*
X0054863Y0197195D03*
X0054863Y0197278D03*
X0054863Y0197320D03*
X0054863Y0197403D03*
X0050863Y0196028D03*
X0050363Y0193945D03*
X0050363Y0193903D03*
X0047728Y0167071D03*
X0048728Y0158982D03*
X0060191Y0115921D03*
X0024863Y0192778D03*
X0024863Y0192820D03*
X0024863Y0192903D03*
X0024863Y0192945D03*
X0024863Y0193028D03*
X0024863Y0193070D03*
X0024863Y0193153D03*
X0024863Y0193195D03*
X0024863Y0193278D03*
X0024863Y0193320D03*
X0024863Y0193403D03*
X0024863Y0193445D03*
X0024863Y0193528D03*
X0024863Y0193570D03*
X0024863Y0193653D03*
X0024863Y0193695D03*
X0024863Y0193778D03*
X0024863Y0193820D03*
X0024863Y0193903D03*
X0024863Y0193945D03*
X0024863Y0194028D03*
X0024863Y0194070D03*
X0024863Y0194153D03*
X0024863Y0194195D03*
X0024863Y0194278D03*
X0024863Y0194320D03*
X0024863Y0194403D03*
X0024863Y0194445D03*
X0024863Y0194528D03*
X0024863Y0195653D03*
X0024863Y0195695D03*
X0024863Y0195778D03*
X0024863Y0195820D03*
X0024863Y0195903D03*
X0024863Y0195945D03*
X0024863Y0196028D03*
X0024863Y0196070D03*
X0024863Y0196153D03*
X0024863Y0196195D03*
X0024863Y0196278D03*
X0024863Y0196320D03*
X0024863Y0196403D03*
X0024863Y0196486D03*
X0024863Y0196528D03*
X0024863Y0196611D03*
X0024863Y0196653D03*
X0024863Y0196736D03*
X0024863Y0196778D03*
X0024863Y0196861D03*
X0024863Y0196903D03*
X0024863Y0196945D03*
X0024863Y0197028D03*
X0024863Y0197070D03*
X0024863Y0197153D03*
X0024863Y0197195D03*
X0024863Y0197278D03*
X0024863Y0197320D03*
X0024863Y0197403D03*
X0013863Y0196070D03*
X0013863Y0196028D03*
X0015033Y0127215D03*
D165*
X0015138Y0127257D03*
X0016345Y0137846D03*
X0016278Y0147412D03*
X0014008Y0195611D03*
X0013928Y0196819D03*
X0032678Y0196111D03*
X0040428Y0196111D03*
X0043428Y0193236D03*
X0047548Y0193236D03*
X0050428Y0193111D03*
X0064123Y0167029D03*
X0059833Y0158523D03*
X0058543Y0156481D03*
X0061163Y0156481D03*
X0048623Y0159023D03*
X0064428Y0196361D03*
D166*
X0064803Y0196903D03*
X0064843Y0196945D03*
X0064843Y0193195D03*
X0064288Y0167113D03*
X0039883Y0197028D03*
X0039843Y0197070D03*
X0032133Y0197028D03*
X0032093Y0197070D03*
X0014173Y0197195D03*
X0015303Y0127340D03*
D167*
X0015408Y0127382D03*
X0031908Y0197236D03*
X0039658Y0197236D03*
X0064393Y0167154D03*
X0064853Y0159523D03*
X0063879Y0125612D03*
X0055236Y0119337D03*
D168*
X0055231Y0115462D03*
X0059361Y0115462D03*
X0054398Y0165487D03*
X0015743Y0157418D03*
X0015613Y0127507D03*
D169*
X0015703Y0127548D03*
X0023323Y0129548D03*
X0015823Y0157460D03*
X0055271Y0117421D03*
X0064768Y0157523D03*
X0064808Y0157565D03*
X0064688Y0167321D03*
X0064768Y0167363D03*
X0064898Y0167446D03*
D170*
X0055191Y0117379D03*
X0015783Y0127590D03*
X0016033Y0157585D03*
D171*
X0015953Y0157543D03*
X0015823Y0127632D03*
X0047308Y0167404D03*
X0064808Y0167404D03*
X0064898Y0157606D03*
X0064688Y0157481D03*
X0055151Y0117337D03*
D172*
X0055066Y0117296D03*
X0054353Y0169321D03*
X0015908Y0157502D03*
X0015908Y0127673D03*
D173*
X0015973Y0127715D03*
X0016093Y0157627D03*
X0015973Y0159418D03*
X0014553Y0195153D03*
X0031593Y0197445D03*
X0039343Y0197445D03*
X0047668Y0159482D03*
X0055211Y0119254D03*
X0055381Y0117504D03*
X0064958Y0157648D03*
X0064998Y0157690D03*
X0064828Y0159440D03*
X0064958Y0167488D03*
X0065303Y0197278D03*
D174*
X0065303Y0192861D03*
X0064828Y0169279D03*
X0064998Y0167529D03*
X0050883Y0192736D03*
X0039423Y0192736D03*
X0031673Y0192736D03*
X0016133Y0157668D03*
X0015843Y0129507D03*
X0016013Y0127757D03*
X0047708Y0155648D03*
X0055341Y0117462D03*
D175*
X0064538Y0167238D03*
X0051173Y0197403D03*
X0039423Y0197403D03*
X0031673Y0197403D03*
X0016223Y0157710D03*
X0016093Y0127798D03*
D176*
X0016158Y0127840D03*
X0015868Y0129548D03*
X0054353Y0169363D03*
X0064853Y0169321D03*
X0064853Y0159482D03*
D177*
X0047683Y0159523D03*
X0016368Y0157793D03*
X0016238Y0127882D03*
D178*
X0016513Y0128007D03*
X0013883Y0191861D03*
X0014593Y0192861D03*
X0015133Y0193611D03*
X0015383Y0193986D03*
X0014093Y0195486D03*
X0032383Y0196694D03*
X0040133Y0196694D03*
X0043593Y0192986D03*
X0064593Y0193486D03*
X0065498Y0167779D03*
D179*
X0053268Y0168446D03*
X0022243Y0128673D03*
D180*
X0022238Y0128757D03*
X0053273Y0168529D03*
D181*
X0063873Y0168571D03*
X0063873Y0158732D03*
X0017178Y0156502D03*
X0014888Y0128798D03*
D182*
X0022283Y0128882D03*
X0058518Y0155481D03*
X0061188Y0155481D03*
X0063874Y0125487D03*
D183*
X0062941Y0117421D03*
X0063191Y0116796D03*
X0064191Y0116421D03*
X0060691Y0116629D03*
X0060691Y0116671D03*
X0057941Y0116796D03*
X0057941Y0116879D03*
X0057941Y0116921D03*
X0057941Y0117004D03*
X0057941Y0117046D03*
X0057941Y0117129D03*
X0057941Y0117171D03*
X0057941Y0117254D03*
X0057941Y0117296D03*
X0057941Y0117379D03*
X0057941Y0117421D03*
X0057941Y0117504D03*
X0057941Y0117546D03*
X0057941Y0117629D03*
X0057941Y0117671D03*
X0057941Y0117754D03*
X0057941Y0117796D03*
X0057941Y0117879D03*
X0057941Y0117921D03*
X0057941Y0118004D03*
X0057941Y0118046D03*
X0057941Y0118129D03*
X0057941Y0118171D03*
X0057941Y0118254D03*
X0057941Y0118296D03*
X0057941Y0118379D03*
X0057941Y0118421D03*
X0057941Y0118504D03*
X0057941Y0118546D03*
X0057941Y0118629D03*
X0057941Y0118671D03*
X0057941Y0118754D03*
X0057941Y0118796D03*
X0057941Y0118879D03*
X0057941Y0118921D03*
X0057941Y0119004D03*
X0057941Y0119046D03*
X0057941Y0119129D03*
X0057941Y0119171D03*
X0057941Y0119254D03*
X0057941Y0119296D03*
X0057941Y0119379D03*
X0057941Y0119421D03*
X0063728Y0156357D03*
X0063978Y0158940D03*
X0061978Y0157982D03*
X0061728Y0157232D03*
X0061728Y0157190D03*
X0060228Y0158315D03*
X0060228Y0158357D03*
X0059478Y0158357D03*
X0059478Y0158315D03*
X0059228Y0157648D03*
X0058978Y0156857D03*
X0057978Y0157190D03*
X0057978Y0157232D03*
X0057728Y0157940D03*
X0057728Y0157982D03*
X0057478Y0158690D03*
X0058978Y0166696D03*
X0058978Y0166738D03*
X0059228Y0167446D03*
X0059228Y0167488D03*
X0059478Y0168196D03*
X0059478Y0168238D03*
X0060228Y0168196D03*
X0061728Y0167071D03*
X0061978Y0167821D03*
X0063728Y0166238D03*
X0063728Y0166196D03*
X0065978Y0166113D03*
X0065978Y0168321D03*
X0065978Y0168363D03*
X0065978Y0168446D03*
X0065978Y0168488D03*
X0065978Y0158690D03*
X0065978Y0158648D03*
X0065978Y0158565D03*
X0065978Y0158482D03*
X0065978Y0158440D03*
X0057978Y0166988D03*
X0057978Y0167071D03*
X0057728Y0167738D03*
X0057728Y0167821D03*
X0047978Y0167821D03*
X0047978Y0167863D03*
X0047978Y0167946D03*
X0047978Y0167988D03*
X0047978Y0168071D03*
X0047978Y0168113D03*
X0047978Y0168196D03*
X0047978Y0168238D03*
X0047978Y0168321D03*
X0047978Y0168363D03*
X0047978Y0168446D03*
X0047978Y0168488D03*
X0047978Y0168571D03*
X0047978Y0168654D03*
X0047978Y0168696D03*
X0047978Y0168738D03*
X0047978Y0168821D03*
X0047978Y0168863D03*
X0047978Y0168946D03*
X0047978Y0168988D03*
X0047978Y0169071D03*
X0047978Y0169113D03*
X0047978Y0169196D03*
X0047978Y0169238D03*
X0047978Y0169321D03*
X0047978Y0169363D03*
X0047978Y0169446D03*
X0047978Y0167738D03*
X0047978Y0167696D03*
X0047978Y0167654D03*
X0047978Y0167571D03*
X0047978Y0167488D03*
X0047978Y0167446D03*
X0047978Y0166529D03*
X0047978Y0166446D03*
X0047978Y0166363D03*
X0047978Y0166321D03*
X0047978Y0166238D03*
X0047978Y0166196D03*
X0047978Y0166113D03*
X0047978Y0166071D03*
X0047978Y0165988D03*
X0047978Y0165946D03*
X0047978Y0165863D03*
X0047978Y0165821D03*
X0047978Y0165738D03*
X0047978Y0165696D03*
X0047978Y0165613D03*
X0047978Y0165571D03*
X0047978Y0165529D03*
X0047978Y0165446D03*
X0047978Y0165363D03*
X0025002Y0166841D03*
X0022283Y0158377D03*
X0022283Y0158335D03*
X0022283Y0158252D03*
X0022283Y0158210D03*
X0022283Y0158127D03*
X0022283Y0158085D03*
X0019133Y0148579D03*
X0019133Y0148496D03*
X0019133Y0148454D03*
X0019133Y0148371D03*
X0019133Y0148329D03*
X0019133Y0148246D03*
X0022283Y0128923D03*
D184*
X0019578Y0129048D03*
X0019578Y0129090D03*
X0019578Y0129173D03*
X0019578Y0129215D03*
X0019578Y0129298D03*
X0019578Y0129340D03*
X0019578Y0129423D03*
X0019578Y0129465D03*
X0019578Y0129548D03*
X0019578Y0129590D03*
X0019578Y0129673D03*
D185*
X0022448Y0129090D03*
X0025587Y0166091D03*
X0029908Y0191570D03*
X0027658Y0193028D03*
X0032698Y0194070D03*
X0032698Y0194153D03*
X0032778Y0194403D03*
X0032778Y0194445D03*
X0032818Y0194695D03*
X0032778Y0195695D03*
X0032698Y0196028D03*
X0032698Y0196070D03*
X0032658Y0196153D03*
X0035408Y0193028D03*
X0037658Y0191570D03*
X0040448Y0194070D03*
X0040448Y0194153D03*
X0040528Y0194403D03*
X0040528Y0194445D03*
X0040568Y0194695D03*
X0040528Y0195695D03*
X0040448Y0196028D03*
X0040448Y0196070D03*
X0040408Y0196153D03*
X0043408Y0193278D03*
X0047658Y0193445D03*
X0050408Y0193195D03*
X0050528Y0194278D03*
X0050778Y0197028D03*
X0055313Y0168863D03*
X0055313Y0165946D03*
X0058523Y0156440D03*
X0061183Y0156440D03*
X0046933Y0167446D03*
X0064158Y0195445D03*
X0064198Y0195653D03*
X0064198Y0195695D03*
X0064278Y0195945D03*
X0064278Y0196028D03*
X0064198Y0194445D03*
X0064278Y0194153D03*
X0064318Y0194028D03*
X0063776Y0116046D03*
X0013948Y0195778D03*
X0013908Y0195820D03*
X0013908Y0196736D03*
X0013908Y0196778D03*
D186*
X0019578Y0129632D03*
X0019578Y0129507D03*
X0019578Y0129382D03*
X0019578Y0129257D03*
X0019578Y0129132D03*
D187*
X0023323Y0129257D03*
X0023823Y0157293D03*
X0023823Y0159293D03*
X0016792Y0169049D03*
X0050518Y0165904D03*
X0050518Y0165779D03*
X0050518Y0165654D03*
X0050518Y0165487D03*
X0050518Y0165404D03*
X0051401Y0119087D03*
D188*
X0054708Y0155773D03*
X0021482Y0169174D03*
X0015803Y0129257D03*
D189*
X0023328Y0129298D03*
X0023868Y0157252D03*
X0021417Y0169091D03*
X0016837Y0169091D03*
X0047683Y0159232D03*
X0054643Y0155857D03*
X0064933Y0155940D03*
D190*
X0054373Y0169238D03*
X0045508Y0191695D03*
X0023348Y0129465D03*
D191*
X0015848Y0129465D03*
X0047663Y0159440D03*
D192*
X0054353Y0169279D03*
X0046818Y0192611D03*
X0037568Y0198486D03*
X0029818Y0198486D03*
X0023328Y0129507D03*
X0065488Y0197361D03*
D193*
X0065153Y0197195D03*
X0065153Y0192945D03*
X0063834Y0129571D03*
X0055231Y0119296D03*
X0039573Y0192820D03*
X0031823Y0192820D03*
X0016283Y0157752D03*
X0015993Y0159460D03*
X0023323Y0129590D03*
D194*
X0023348Y0129632D03*
X0064928Y0193111D03*
D195*
X0064508Y0196528D03*
X0054373Y0169446D03*
X0040218Y0193528D03*
X0040218Y0193570D03*
X0032468Y0193570D03*
X0032468Y0193528D03*
X0015258Y0193820D03*
X0015008Y0193445D03*
X0014968Y0193403D03*
X0014718Y0193028D03*
X0014468Y0192695D03*
X0014258Y0192403D03*
X0013758Y0191695D03*
X0016278Y0148121D03*
X0016278Y0147371D03*
X0016278Y0147329D03*
X0016345Y0137887D03*
X0016345Y0137096D03*
D196*
X0016345Y0137138D03*
X0016638Y0157918D03*
X0013968Y0191986D03*
X0014508Y0192736D03*
X0014758Y0193111D03*
X0015218Y0193736D03*
X0014008Y0196986D03*
X0032468Y0196569D03*
X0040218Y0196569D03*
X0047468Y0193111D03*
X0050508Y0192986D03*
X0064468Y0196444D03*
X0059336Y0115337D03*
D197*
X0035488Y0192945D03*
X0032238Y0196903D03*
X0027738Y0192945D03*
X0015238Y0193778D03*
X0014738Y0193070D03*
X0013988Y0192028D03*
X0013738Y0191653D03*
X0016365Y0137929D03*
X0039988Y0196903D03*
D198*
X0047238Y0192820D03*
X0016365Y0138054D03*
D199*
X0020365Y0138888D03*
X0020365Y0139013D03*
X0020365Y0139138D03*
X0020365Y0139263D03*
X0020365Y0139388D03*
X0020365Y0139513D03*
X0019658Y0159043D03*
X0019658Y0159168D03*
X0019658Y0159293D03*
X0019658Y0159376D03*
X0019658Y0159543D03*
X0017238Y0198486D03*
D200*
X0019658Y0159585D03*
X0019658Y0159502D03*
X0019658Y0159460D03*
X0019658Y0159418D03*
X0019658Y0159335D03*
X0019658Y0159252D03*
X0019658Y0159210D03*
X0019658Y0159127D03*
X0019658Y0159085D03*
X0019658Y0159002D03*
X0019658Y0158960D03*
X0020365Y0139471D03*
X0020365Y0139429D03*
X0020365Y0139346D03*
X0020365Y0139304D03*
X0020365Y0139221D03*
X0020365Y0139179D03*
X0020365Y0139096D03*
X0020365Y0139054D03*
X0020365Y0138971D03*
X0020365Y0138929D03*
X0045488Y0191903D03*
D201*
X0039093Y0192611D03*
X0031343Y0192611D03*
X0024053Y0157043D03*
X0020903Y0147162D03*
D202*
X0020883Y0147245D03*
X0047688Y0155773D03*
X0055374Y0125737D03*
X0051611Y0119337D03*
X0065653Y0192736D03*
D203*
X0064833Y0168946D03*
X0064833Y0159107D03*
X0059336Y0115754D03*
X0020778Y0147329D03*
X0016897Y0165591D03*
D204*
X0016772Y0169008D03*
X0023803Y0157335D03*
X0020653Y0147496D03*
D205*
X0016278Y0147537D03*
X0050758Y0196236D03*
X0050718Y0196361D03*
X0050718Y0196444D03*
X0059833Y0168612D03*
X0059833Y0158773D03*
X0056046Y0117837D03*
D206*
X0055104Y0126071D03*
X0051341Y0118921D03*
X0051341Y0117296D03*
X0023763Y0159210D03*
X0021312Y0165841D03*
X0016732Y0165841D03*
X0020613Y0149371D03*
X0020613Y0147579D03*
X0045513Y0191820D03*
D207*
X0020548Y0149204D03*
X0020548Y0147704D03*
X0016667Y0168841D03*
D208*
X0022283Y0158418D03*
X0022283Y0158293D03*
X0022283Y0158168D03*
X0025002Y0166799D03*
X0024752Y0167424D03*
X0026002Y0166424D03*
X0019133Y0148537D03*
X0019133Y0148412D03*
X0019133Y0148287D03*
X0047978Y0165404D03*
X0047978Y0165487D03*
X0047978Y0165654D03*
X0047978Y0165779D03*
X0047978Y0165904D03*
X0047978Y0166029D03*
X0047978Y0166154D03*
X0047978Y0166279D03*
X0047978Y0166404D03*
X0047978Y0166487D03*
X0047978Y0167529D03*
X0047978Y0167612D03*
X0047978Y0167779D03*
X0047978Y0167904D03*
X0047978Y0168029D03*
X0047978Y0168154D03*
X0047978Y0168279D03*
X0047978Y0168404D03*
X0047978Y0168529D03*
X0047978Y0168612D03*
X0047978Y0168779D03*
X0047978Y0168904D03*
X0047978Y0169029D03*
X0047978Y0169154D03*
X0047978Y0169279D03*
X0047978Y0169404D03*
X0057478Y0168529D03*
X0057728Y0167779D03*
X0057978Y0167029D03*
X0059478Y0168154D03*
X0060228Y0168154D03*
X0061728Y0167029D03*
X0063978Y0168779D03*
X0065978Y0168529D03*
X0065978Y0168404D03*
X0065978Y0168279D03*
X0065978Y0158606D03*
X0065978Y0158523D03*
X0065978Y0156273D03*
X0063728Y0156398D03*
X0059478Y0158398D03*
X0059228Y0157606D03*
X0058978Y0156898D03*
X0057978Y0157148D03*
X0057728Y0157898D03*
X0057941Y0119337D03*
X0057941Y0119212D03*
X0057941Y0119087D03*
X0057941Y0118962D03*
X0057941Y0118837D03*
X0057941Y0118712D03*
X0057941Y0118587D03*
X0057941Y0118462D03*
X0057941Y0118337D03*
X0057941Y0118212D03*
X0057941Y0118087D03*
X0057941Y0117962D03*
X0057941Y0117837D03*
X0057941Y0117712D03*
X0057941Y0117587D03*
X0057941Y0117462D03*
X0057941Y0117337D03*
X0057941Y0117212D03*
X0057941Y0117087D03*
X0057941Y0116962D03*
X0057941Y0116837D03*
X0060691Y0116712D03*
X0063191Y0116837D03*
D209*
X0023678Y0158960D03*
X0023678Y0159002D03*
X0020528Y0149121D03*
X0016647Y0165966D03*
D210*
X0016647Y0168799D03*
X0020528Y0149162D03*
D211*
X0020593Y0149287D03*
X0023743Y0159168D03*
X0047688Y0156023D03*
X0063914Y0129112D03*
D212*
X0063834Y0129446D03*
X0055191Y0119129D03*
X0020923Y0149704D03*
X0017042Y0165466D03*
D213*
X0021048Y0149746D03*
X0024198Y0159585D03*
X0054393Y0165529D03*
D214*
X0017138Y0156293D03*
D215*
X0017178Y0156377D03*
D216*
X0015928Y0159168D03*
X0016897Y0169174D03*
X0023928Y0157168D03*
D217*
X0015533Y0157293D03*
X0014363Y0195236D03*
X0043863Y0192736D03*
X0063834Y0129612D03*
D218*
X0065083Y0157732D03*
X0065083Y0167571D03*
X0065218Y0192903D03*
X0051008Y0194570D03*
X0044008Y0192653D03*
X0039508Y0192778D03*
X0031758Y0192778D03*
X0015678Y0157377D03*
D219*
X0016667Y0165924D03*
X0023698Y0159043D03*
X0023698Y0157543D03*
X0045488Y0191861D03*
X0054353Y0168904D03*
X0051276Y0117212D03*
X0051276Y0115712D03*
D220*
X0016533Y0157877D03*
D221*
X0016803Y0158002D03*
X0027593Y0193153D03*
X0027593Y0193195D03*
X0027593Y0193278D03*
X0027593Y0193320D03*
X0027593Y0193403D03*
X0027593Y0193445D03*
X0027593Y0193528D03*
X0027593Y0193570D03*
X0027593Y0193653D03*
X0027593Y0193695D03*
X0027593Y0193778D03*
X0027593Y0193820D03*
X0027593Y0193903D03*
X0027593Y0193945D03*
X0027593Y0194028D03*
X0027593Y0194070D03*
X0027593Y0194153D03*
X0027593Y0194195D03*
X0027593Y0194278D03*
X0027593Y0194320D03*
X0027593Y0194403D03*
X0035343Y0194403D03*
X0035343Y0194320D03*
X0035343Y0194278D03*
X0035343Y0194195D03*
X0035343Y0194153D03*
X0035343Y0194070D03*
X0035343Y0194028D03*
X0035343Y0193945D03*
X0035343Y0193903D03*
X0035343Y0193820D03*
X0035343Y0193778D03*
X0035343Y0193695D03*
X0035343Y0193653D03*
X0035343Y0193570D03*
X0035343Y0193528D03*
X0035343Y0193445D03*
X0035343Y0193403D03*
X0035343Y0193320D03*
X0035343Y0193278D03*
X0035343Y0193195D03*
X0035343Y0193153D03*
X0050343Y0193778D03*
X0050343Y0193820D03*
D222*
X0050363Y0193986D03*
X0050863Y0195986D03*
X0054863Y0195986D03*
X0054863Y0195861D03*
X0054863Y0195736D03*
X0054863Y0195611D03*
X0054863Y0196111D03*
X0054863Y0196236D03*
X0054863Y0196361D03*
X0054863Y0196444D03*
X0054863Y0196569D03*
X0054863Y0196694D03*
X0054863Y0196819D03*
X0054863Y0196986D03*
X0054863Y0197111D03*
X0054863Y0197236D03*
X0054863Y0197361D03*
X0054863Y0194486D03*
X0054863Y0194361D03*
X0054863Y0194236D03*
X0054863Y0194111D03*
X0054863Y0193986D03*
X0054863Y0193861D03*
X0054863Y0193736D03*
X0054863Y0193611D03*
X0054863Y0193486D03*
X0054863Y0193361D03*
X0054863Y0193236D03*
X0054863Y0193111D03*
X0054863Y0192986D03*
X0054863Y0192861D03*
X0054863Y0192736D03*
X0048728Y0156148D03*
X0035363Y0193111D03*
X0027613Y0193111D03*
X0024863Y0193111D03*
X0024863Y0192986D03*
X0024863Y0192861D03*
X0024863Y0192736D03*
X0024863Y0193236D03*
X0024863Y0193361D03*
X0024863Y0193486D03*
X0024863Y0193611D03*
X0024863Y0193736D03*
X0024863Y0193861D03*
X0024863Y0193986D03*
X0024863Y0194111D03*
X0024863Y0194236D03*
X0024863Y0194361D03*
X0024863Y0194486D03*
X0024863Y0195736D03*
X0024863Y0195861D03*
X0024863Y0195986D03*
X0024863Y0196111D03*
X0024863Y0196236D03*
X0024863Y0196361D03*
X0024863Y0196444D03*
X0024863Y0196569D03*
X0024863Y0196694D03*
X0024863Y0196819D03*
X0024863Y0196986D03*
X0024863Y0197111D03*
X0024863Y0197236D03*
X0024863Y0197361D03*
X0015283Y0159043D03*
D223*
X0015968Y0159376D03*
D224*
X0025587Y0165299D03*
X0053313Y0168654D03*
X0059853Y0169446D03*
X0057999Y0125571D03*
X0059356Y0115254D03*
X0063776Y0115296D03*
D225*
X0055211Y0118921D03*
X0055171Y0119004D03*
X0047708Y0155857D03*
X0054708Y0159357D03*
X0021482Y0165591D03*
D226*
X0021357Y0165757D03*
D227*
X0016772Y0165757D03*
D228*
X0021232Y0165966D03*
X0029843Y0191820D03*
X0037593Y0191820D03*
X0054458Y0158982D03*
D229*
X0058523Y0166279D03*
X0061183Y0166279D03*
X0064278Y0194111D03*
X0064198Y0195736D03*
X0064278Y0195986D03*
X0064318Y0196111D03*
X0050778Y0196986D03*
X0047698Y0193611D03*
X0047658Y0193486D03*
X0043318Y0193486D03*
X0040448Y0194111D03*
X0040408Y0193986D03*
X0040528Y0195736D03*
X0040448Y0195986D03*
X0032778Y0195736D03*
X0032698Y0195986D03*
X0032698Y0194111D03*
X0032658Y0193986D03*
X0025587Y0166049D03*
X0013948Y0195736D03*
X0013908Y0195861D03*
X0013908Y0196694D03*
X0047683Y0167154D03*
X0063776Y0116087D03*
D230*
X0063776Y0116212D03*
X0059853Y0168279D03*
X0064528Y0193611D03*
X0064448Y0193736D03*
X0043488Y0193111D03*
X0040238Y0193611D03*
X0040278Y0196444D03*
X0035988Y0197361D03*
X0035448Y0192986D03*
X0032488Y0193611D03*
X0032528Y0196444D03*
X0028238Y0197361D03*
X0027698Y0192986D03*
X0025587Y0166174D03*
D231*
X0019877Y0166299D03*
X0047853Y0166779D03*
X0053103Y0156481D03*
X0063853Y0157023D03*
X0053709Y0128737D03*
X0053709Y0126487D03*
D232*
X0046333Y0156398D03*
X0053083Y0158606D03*
X0053373Y0168779D03*
X0059833Y0169029D03*
X0059833Y0159148D03*
X0063873Y0156148D03*
X0065833Y0158148D03*
X0019857Y0168424D03*
D233*
X0021232Y0168799D03*
X0054458Y0156148D03*
D234*
X0054583Y0155940D03*
X0054583Y0159190D03*
X0021357Y0169008D03*
D235*
X0055211Y0115254D03*
X0056421Y0116254D03*
D236*
X0055231Y0115379D03*
X0065398Y0167738D03*
X0064783Y0193278D03*
X0064693Y0196778D03*
X0064783Y0196861D03*
X0047323Y0192903D03*
X0039943Y0193153D03*
X0035533Y0192903D03*
X0032193Y0193153D03*
X0027783Y0192903D03*
D237*
X0051631Y0115379D03*
D238*
X0051486Y0115462D03*
X0051486Y0119212D03*
X0055316Y0115712D03*
X0055249Y0125862D03*
X0064933Y0155898D03*
D239*
X0064873Y0155690D03*
X0064873Y0165529D03*
X0045508Y0191653D03*
X0059336Y0115504D03*
D240*
X0051421Y0115504D03*
X0051421Y0117629D03*
X0051421Y0119129D03*
X0064958Y0155982D03*
X0064958Y0165821D03*
D241*
X0065488Y0192778D03*
X0039238Y0192653D03*
X0036278Y0197528D03*
X0031488Y0192653D03*
X0028528Y0197528D03*
X0014568Y0197403D03*
X0059356Y0115546D03*
D242*
X0059336Y0115587D03*
D243*
X0059336Y0115629D03*
D244*
X0051316Y0115629D03*
X0051316Y0117254D03*
X0051316Y0118879D03*
X0054353Y0168946D03*
D245*
X0051296Y0115671D03*
D246*
X0059336Y0115712D03*
X0054373Y0169154D03*
X0045508Y0191736D03*
D247*
X0051236Y0117129D03*
X0051236Y0115796D03*
D248*
X0051236Y0115837D03*
D249*
X0051216Y0115879D03*
X0063809Y0126071D03*
X0068138Y0191695D03*
X0068138Y0198445D03*
D250*
X0051191Y0115921D03*
D251*
X0056421Y0116212D03*
X0037633Y0198611D03*
X0029883Y0198611D03*
D252*
X0056421Y0116337D03*
D253*
X0056441Y0116379D03*
X0053228Y0166446D03*
D254*
X0050633Y0192861D03*
X0050803Y0194486D03*
X0039883Y0193111D03*
X0039803Y0197111D03*
X0032133Y0193111D03*
X0032053Y0197111D03*
X0054671Y0117087D03*
X0064288Y0157273D03*
D255*
X0054921Y0117212D03*
D256*
X0055526Y0117587D03*
X0065143Y0157773D03*
X0065143Y0167612D03*
D257*
X0055144Y0129237D03*
X0055144Y0125987D03*
X0051381Y0117712D03*
D258*
X0050046Y0118129D03*
X0050046Y0118171D03*
X0058123Y0156732D03*
X0058083Y0156857D03*
X0059083Y0157190D03*
X0059123Y0157315D03*
X0059833Y0159565D03*
X0060333Y0157982D03*
X0060373Y0157857D03*
X0060583Y0157315D03*
X0060583Y0157232D03*
X0060623Y0157190D03*
X0060623Y0157107D03*
X0058123Y0166571D03*
X0058083Y0166696D03*
X0059833Y0169363D03*
X0060333Y0167863D03*
X0060333Y0167821D03*
X0060373Y0167738D03*
X0060373Y0167696D03*
X0060583Y0167113D03*
X0060583Y0167071D03*
X0060623Y0166988D03*
X0060623Y0166946D03*
D259*
X0062774Y0128696D03*
X0054211Y0118504D03*
D260*
X0054256Y0118587D03*
X0066043Y0156481D03*
X0063873Y0158773D03*
X0063873Y0168612D03*
D261*
X0063893Y0168654D03*
X0063893Y0158815D03*
X0054276Y0118629D03*
D262*
X0054316Y0118671D03*
D263*
X0054336Y0118712D03*
D264*
X0051296Y0118837D03*
X0054373Y0165904D03*
D265*
X0063834Y0129362D03*
X0055191Y0118962D03*
D266*
X0055191Y0119171D03*
X0051691Y0119379D03*
X0039113Y0197528D03*
X0031363Y0197528D03*
D267*
X0047248Y0167279D03*
X0055211Y0119212D03*
D268*
X0051566Y0119296D03*
D269*
X0055256Y0119504D03*
X0064833Y0155440D03*
X0066043Y0156440D03*
X0064873Y0159690D03*
D270*
X0063834Y0125862D03*
X0037613Y0191736D03*
X0029863Y0191736D03*
D271*
X0029843Y0191861D03*
X0037593Y0191861D03*
X0063814Y0126112D03*
D272*
X0062769Y0128737D03*
D273*
X0062794Y0128821D03*
X0037653Y0191528D03*
X0029903Y0191528D03*
D274*
X0053288Y0168612D03*
X0062814Y0128862D03*
D275*
X0047688Y0155565D03*
X0047688Y0159565D03*
X0039823Y0193028D03*
X0039863Y0193070D03*
X0032113Y0193070D03*
X0032073Y0193028D03*
X0064903Y0193153D03*
D276*
X0064853Y0165446D03*
X0064853Y0155607D03*
D277*
X0047708Y0155607D03*
X0037593Y0198528D03*
X0029843Y0198528D03*
D278*
X0027988Y0192736D03*
X0035738Y0192736D03*
X0064603Y0167279D03*
X0064853Y0165487D03*
X0064853Y0155648D03*
D279*
X0047708Y0155690D03*
X0047248Y0167238D03*
X0037633Y0191653D03*
D280*
X0047688Y0159315D03*
X0047688Y0155815D03*
D281*
X0066038Y0156398D03*
D282*
X0060623Y0157148D03*
X0060583Y0157273D03*
X0060373Y0157898D03*
X0060333Y0158023D03*
X0059833Y0159523D03*
X0059083Y0167029D03*
X0059123Y0167154D03*
X0059833Y0169404D03*
X0060583Y0167154D03*
X0060623Y0167029D03*
D283*
X0064478Y0167196D03*
X0065228Y0167654D03*
X0065228Y0157815D03*
X0064478Y0157357D03*
X0065113Y0197153D03*
D284*
X0064538Y0157398D03*
X0014423Y0197361D03*
D285*
X0064603Y0157440D03*
D286*
X0059853Y0158565D03*
X0059853Y0168446D03*
X0064238Y0194278D03*
X0064238Y0195820D03*
X0064238Y0195903D03*
X0050738Y0196903D03*
X0050738Y0196945D03*
X0040488Y0195945D03*
X0040488Y0195903D03*
X0040488Y0194278D03*
X0040488Y0194195D03*
X0032738Y0194195D03*
X0032738Y0194278D03*
X0032738Y0195903D03*
X0032738Y0195945D03*
X0013988Y0195653D03*
D287*
X0032738Y0195861D03*
X0032738Y0194236D03*
X0040488Y0194236D03*
X0040488Y0195861D03*
X0050488Y0194236D03*
X0059853Y0168404D03*
X0059853Y0158606D03*
X0064238Y0194236D03*
X0064238Y0195861D03*
D288*
X0063853Y0168488D03*
X0063853Y0158648D03*
D289*
X0063833Y0158690D03*
D290*
X0064813Y0159148D03*
D291*
X0064833Y0159398D03*
D292*
X0047683Y0159398D03*
D293*
X0064853Y0165404D03*
X0064738Y0196819D03*
D294*
X0053288Y0168571D03*
X0066038Y0166238D03*
D295*
X0053228Y0166321D03*
D296*
X0053228Y0166363D03*
D297*
X0053228Y0166404D03*
D298*
X0047748Y0167029D03*
X0050343Y0193861D03*
X0035343Y0193861D03*
X0035343Y0193736D03*
X0035343Y0193611D03*
X0035343Y0193486D03*
X0035343Y0193361D03*
X0035343Y0193236D03*
X0035343Y0193986D03*
X0035343Y0194111D03*
X0035343Y0194236D03*
X0035343Y0194361D03*
X0027593Y0194361D03*
X0027593Y0194236D03*
X0027593Y0194111D03*
X0027593Y0193986D03*
X0027593Y0193861D03*
X0027593Y0193736D03*
X0027593Y0193611D03*
X0027593Y0193486D03*
X0027593Y0193361D03*
X0027593Y0193236D03*
D299*
X0047228Y0167196D03*
D300*
X0047268Y0167321D03*
D301*
X0063833Y0168529D03*
D302*
X0054353Y0168988D03*
X0036238Y0194445D03*
X0036238Y0194528D03*
X0036238Y0194570D03*
X0036238Y0194653D03*
X0036238Y0194695D03*
X0036238Y0194778D03*
X0036238Y0194820D03*
X0036238Y0194903D03*
X0036238Y0194945D03*
X0036238Y0195028D03*
X0036238Y0195070D03*
X0036238Y0195153D03*
X0036238Y0195195D03*
X0036238Y0195278D03*
X0036238Y0195320D03*
X0036238Y0195403D03*
X0036238Y0195445D03*
X0028488Y0195445D03*
X0028488Y0195403D03*
X0028488Y0195320D03*
X0028488Y0195278D03*
X0028488Y0195195D03*
X0028488Y0195153D03*
X0028488Y0195070D03*
X0028488Y0195028D03*
X0028488Y0194945D03*
X0028488Y0194903D03*
X0028488Y0194820D03*
X0028488Y0194778D03*
X0028488Y0194695D03*
X0028488Y0194653D03*
X0028488Y0194570D03*
X0028488Y0194528D03*
X0028488Y0194445D03*
D303*
X0054353Y0169196D03*
D304*
X0064833Y0169238D03*
D305*
X0054373Y0169404D03*
X0039758Y0192986D03*
X0032008Y0192986D03*
D306*
X0031863Y0192861D03*
X0029863Y0191611D03*
X0037613Y0191611D03*
X0039613Y0192861D03*
D307*
X0059468Y0192695D03*
X0059468Y0192653D03*
X0059468Y0192570D03*
X0059468Y0192528D03*
X0059468Y0192445D03*
X0059468Y0192403D03*
X0059468Y0192320D03*
X0059468Y0192278D03*
X0059468Y0192236D03*
X0059468Y0192153D03*
X0059468Y0192070D03*
X0059468Y0192028D03*
X0059468Y0191945D03*
X0059468Y0191903D03*
X0059468Y0191820D03*
X0059468Y0191778D03*
X0059468Y0191695D03*
X0059468Y0191653D03*
D308*
X0053653Y0191653D03*
D309*
X0052883Y0197528D03*
X0052883Y0197570D03*
X0022883Y0192695D03*
X0022883Y0192653D03*
X0022883Y0192570D03*
X0022883Y0192528D03*
X0022883Y0192445D03*
X0022883Y0192403D03*
X0022883Y0192320D03*
X0022883Y0192278D03*
X0022883Y0192236D03*
X0022883Y0192153D03*
X0022883Y0192070D03*
X0022883Y0192028D03*
X0022883Y0191945D03*
X0022883Y0191903D03*
X0022883Y0191820D03*
X0022883Y0191778D03*
X0022883Y0191695D03*
X0022883Y0191653D03*
D310*
X0053488Y0191695D03*
X0053488Y0198403D03*
D311*
X0068033Y0191736D03*
D312*
X0059468Y0191736D03*
X0059468Y0191861D03*
X0059468Y0191986D03*
X0059468Y0192111D03*
X0059468Y0192194D03*
X0059468Y0192361D03*
X0059468Y0192486D03*
X0059468Y0192611D03*
D313*
X0053383Y0191736D03*
D314*
X0052883Y0192194D03*
X0022883Y0192194D03*
X0022883Y0192111D03*
X0022883Y0191986D03*
X0022883Y0191861D03*
X0022883Y0191736D03*
X0022883Y0192361D03*
X0022883Y0192486D03*
X0022883Y0192611D03*
D315*
X0067928Y0191778D03*
D316*
X0053298Y0191778D03*
X0053298Y0198278D03*
X0016718Y0198278D03*
D317*
X0067863Y0191820D03*
D318*
X0053238Y0191820D03*
D319*
X0067783Y0191861D03*
D320*
X0053173Y0191861D03*
X0037553Y0192194D03*
X0029803Y0192194D03*
X0016593Y0194486D03*
D321*
X0067718Y0191903D03*
D322*
X0053133Y0191903D03*
X0023133Y0194570D03*
X0023133Y0194653D03*
X0023133Y0194695D03*
X0023133Y0194778D03*
X0023133Y0194820D03*
X0023133Y0194903D03*
X0023133Y0194945D03*
X0023133Y0195028D03*
X0023133Y0195070D03*
X0023133Y0195153D03*
X0023133Y0195195D03*
X0023133Y0195278D03*
X0023133Y0195320D03*
X0023133Y0195403D03*
X0023133Y0195445D03*
X0023133Y0195528D03*
X0023133Y0195570D03*
D323*
X0029863Y0191903D03*
X0037613Y0191903D03*
D324*
X0016798Y0194070D03*
X0016798Y0194320D03*
X0067678Y0191945D03*
X0067678Y0198195D03*
D325*
X0067388Y0197903D03*
X0067388Y0192236D03*
X0053088Y0191945D03*
X0053088Y0198028D03*
X0016508Y0198070D03*
D326*
X0045488Y0191945D03*
D327*
X0037613Y0191945D03*
X0029863Y0191945D03*
D328*
X0067638Y0191986D03*
D329*
X0053048Y0191986D03*
X0053048Y0195486D03*
D330*
X0045508Y0191986D03*
D331*
X0037573Y0191986D03*
X0029823Y0191986D03*
D332*
X0067573Y0192028D03*
D333*
X0053008Y0192028D03*
X0053008Y0195570D03*
X0053008Y0197903D03*
D334*
X0045508Y0192028D03*
D335*
X0037573Y0192028D03*
X0029823Y0192028D03*
D336*
X0029823Y0192153D03*
X0037573Y0192153D03*
X0067533Y0192070D03*
X0067533Y0198070D03*
D337*
X0052963Y0197820D03*
X0052963Y0197778D03*
X0052963Y0194903D03*
X0052963Y0192070D03*
X0016383Y0194778D03*
X0016383Y0197903D03*
D338*
X0045488Y0192070D03*
D339*
X0037593Y0192070D03*
X0029843Y0192070D03*
D340*
X0067513Y0192111D03*
D341*
X0052943Y0192111D03*
X0052943Y0197736D03*
X0037533Y0197736D03*
X0037533Y0192361D03*
X0029783Y0192361D03*
X0029783Y0197736D03*
D342*
X0045508Y0192111D03*
D343*
X0037568Y0192111D03*
X0029818Y0192111D03*
D344*
X0045508Y0192445D03*
X0067468Y0192153D03*
D345*
X0052923Y0192153D03*
X0052923Y0197695D03*
X0037673Y0197570D03*
X0037593Y0197653D03*
X0037553Y0197695D03*
X0029923Y0197570D03*
X0029843Y0197653D03*
X0029803Y0197695D03*
X0022923Y0197695D03*
X0022923Y0197653D03*
X0022923Y0197570D03*
X0022923Y0197528D03*
X0022923Y0197445D03*
X0022923Y0197778D03*
X0022923Y0197820D03*
X0022923Y0197903D03*
X0022923Y0197945D03*
X0022923Y0198028D03*
X0022923Y0198070D03*
X0022923Y0198153D03*
X0022923Y0198195D03*
X0022923Y0198278D03*
X0022923Y0198320D03*
X0022923Y0198403D03*
X0022923Y0198445D03*
X0016343Y0197820D03*
D346*
X0045513Y0192153D03*
D347*
X0067428Y0192194D03*
D348*
X0045488Y0192194D03*
D349*
X0052863Y0192236D03*
X0052863Y0194778D03*
X0052863Y0197445D03*
D350*
X0045488Y0192236D03*
D351*
X0045488Y0192528D03*
X0037568Y0192236D03*
X0029818Y0192236D03*
X0016528Y0194570D03*
D352*
X0067363Y0192278D03*
D353*
X0067138Y0192653D03*
X0052838Y0192278D03*
X0016258Y0195028D03*
X0016258Y0195070D03*
X0016258Y0197653D03*
D354*
X0045488Y0192278D03*
D355*
X0037548Y0192278D03*
X0037548Y0197820D03*
X0029798Y0197820D03*
X0029798Y0192278D03*
X0016468Y0194653D03*
X0016468Y0198028D03*
D356*
X0067343Y0192320D03*
D357*
X0052818Y0192320D03*
X0052818Y0194695D03*
D358*
X0053278Y0195195D03*
X0045488Y0192320D03*
D359*
X0037553Y0192320D03*
X0037553Y0197778D03*
X0029803Y0197778D03*
X0029803Y0192320D03*
X0067303Y0197778D03*
D360*
X0067303Y0192361D03*
D361*
X0052798Y0192361D03*
X0016218Y0197486D03*
D362*
X0045488Y0192361D03*
X0053238Y0195236D03*
D363*
X0014238Y0192361D03*
D364*
X0016403Y0197945D03*
X0067283Y0192403D03*
D365*
X0052778Y0192403D03*
X0052778Y0192445D03*
X0016198Y0197445D03*
D366*
X0016633Y0194445D03*
X0029803Y0197945D03*
X0037553Y0197945D03*
X0045513Y0192403D03*
X0053213Y0195153D03*
X0053213Y0198195D03*
D367*
X0067198Y0192528D03*
X0037528Y0192403D03*
X0029778Y0192403D03*
D368*
X0067238Y0192445D03*
X0067238Y0197695D03*
D369*
X0067158Y0197528D03*
X0037528Y0192445D03*
X0029778Y0192445D03*
X0016278Y0197695D03*
D370*
X0059508Y0197736D03*
X0059508Y0197611D03*
X0059508Y0197486D03*
X0059508Y0197861D03*
X0059508Y0197986D03*
X0059508Y0198111D03*
X0059508Y0198236D03*
X0059508Y0198361D03*
X0059508Y0198486D03*
X0067218Y0192486D03*
D371*
X0052758Y0192486D03*
D372*
X0045508Y0192486D03*
X0059718Y0194611D03*
X0059718Y0194736D03*
X0059718Y0194861D03*
X0059718Y0194986D03*
X0059718Y0195111D03*
X0059718Y0195236D03*
X0059718Y0195361D03*
X0059718Y0195486D03*
X0059718Y0195611D03*
D373*
X0037528Y0192486D03*
X0029778Y0192486D03*
D374*
X0052738Y0192528D03*
D375*
X0037533Y0192528D03*
X0029783Y0192528D03*
D376*
X0016298Y0194945D03*
X0067178Y0192570D03*
X0067178Y0197570D03*
D377*
X0052713Y0192570D03*
X0037513Y0192570D03*
X0029763Y0192570D03*
D378*
X0045488Y0192570D03*
D379*
X0067158Y0192611D03*
X0016278Y0194986D03*
D380*
X0052713Y0192611D03*
D381*
X0044153Y0192611D03*
D382*
X0052693Y0192653D03*
X0052693Y0192695D03*
D383*
X0067113Y0192695D03*
X0067113Y0197445D03*
D384*
X0064928Y0197028D03*
X0047178Y0192778D03*
X0043798Y0192778D03*
X0014298Y0195278D03*
D385*
X0027823Y0192861D03*
X0035573Y0192861D03*
X0064903Y0196986D03*
D386*
X0053403Y0198361D03*
X0016823Y0194111D03*
D387*
X0016843Y0194153D03*
X0016843Y0194195D03*
X0016843Y0194278D03*
D388*
X0016863Y0194236D03*
D389*
X0016738Y0194361D03*
D390*
X0016673Y0194403D03*
D391*
X0028488Y0194486D03*
X0028488Y0194611D03*
X0028488Y0194736D03*
X0028488Y0194861D03*
X0028488Y0194986D03*
X0028488Y0195111D03*
X0028488Y0195236D03*
X0028488Y0195361D03*
X0028488Y0195486D03*
X0036238Y0195486D03*
X0036238Y0195361D03*
X0036238Y0195236D03*
X0036238Y0195111D03*
X0036238Y0194986D03*
X0036238Y0194861D03*
X0036238Y0194736D03*
X0036238Y0194611D03*
X0036238Y0194486D03*
D392*
X0050883Y0194528D03*
D393*
X0067428Y0197945D03*
X0016548Y0194528D03*
D394*
X0059718Y0194570D03*
X0059718Y0194653D03*
X0059718Y0194695D03*
X0059718Y0194778D03*
X0059718Y0194820D03*
X0059718Y0194903D03*
X0059718Y0194945D03*
X0059718Y0195028D03*
X0059718Y0195070D03*
X0059718Y0195153D03*
X0059718Y0195195D03*
X0059718Y0195278D03*
X0059718Y0195320D03*
X0059718Y0195403D03*
X0059718Y0195445D03*
X0059718Y0195528D03*
X0059718Y0195570D03*
D395*
X0052778Y0194611D03*
D396*
X0053133Y0195361D03*
X0023133Y0195361D03*
X0023133Y0195236D03*
X0023133Y0195111D03*
X0023133Y0194986D03*
X0023133Y0194861D03*
X0023133Y0194736D03*
X0023133Y0194611D03*
X0023133Y0195486D03*
X0023133Y0195611D03*
D397*
X0016488Y0194611D03*
D398*
X0016218Y0197528D03*
X0052798Y0194653D03*
D399*
X0053028Y0195528D03*
X0053028Y0197945D03*
X0016448Y0194695D03*
D400*
X0016258Y0197611D03*
X0052838Y0194736D03*
X0067138Y0197486D03*
D401*
X0016403Y0194736D03*
D402*
X0016323Y0194903D03*
X0016323Y0197778D03*
X0052903Y0197653D03*
X0052903Y0194820D03*
D403*
X0016363Y0194820D03*
D404*
X0016343Y0194861D03*
X0022923Y0197486D03*
X0022923Y0197611D03*
X0022923Y0197736D03*
X0022923Y0197861D03*
X0022923Y0197986D03*
X0022923Y0198111D03*
X0022923Y0198236D03*
X0022923Y0198361D03*
X0022923Y0198486D03*
X0029883Y0197611D03*
X0037633Y0197611D03*
X0052923Y0194861D03*
D405*
X0052988Y0194945D03*
D406*
X0053028Y0194986D03*
X0016448Y0197986D03*
D407*
X0053068Y0195445D03*
X0053068Y0195028D03*
D408*
X0053113Y0195070D03*
X0053113Y0195403D03*
X0053113Y0198070D03*
D409*
X0053153Y0198111D03*
X0053153Y0195111D03*
D410*
X0016238Y0195111D03*
D411*
X0053193Y0195278D03*
D412*
X0053153Y0195320D03*
X0016573Y0198153D03*
D413*
X0028028Y0196861D03*
X0035778Y0196861D03*
D414*
X0035823Y0197070D03*
X0028073Y0197070D03*
D415*
X0031968Y0197195D03*
X0032008Y0197153D03*
X0039718Y0197195D03*
X0039758Y0197153D03*
X0051008Y0197320D03*
D416*
X0065218Y0197236D03*
D417*
X0067218Y0197653D03*
X0059508Y0197653D03*
X0059508Y0197695D03*
X0059508Y0197778D03*
X0059508Y0197820D03*
X0059508Y0197903D03*
X0059508Y0197945D03*
X0059508Y0198028D03*
X0059508Y0198070D03*
X0059508Y0198153D03*
X0059508Y0198195D03*
X0059508Y0198278D03*
X0059508Y0198320D03*
X0059508Y0198403D03*
X0059508Y0198445D03*
X0059508Y0197570D03*
X0059508Y0197528D03*
X0059508Y0197445D03*
D418*
X0052863Y0197486D03*
D419*
X0016238Y0197570D03*
D420*
X0067198Y0197611D03*
D421*
X0052903Y0197611D03*
D422*
X0067263Y0197736D03*
D423*
X0016298Y0197736D03*
D424*
X0067323Y0197820D03*
D425*
X0067363Y0197861D03*
D426*
X0052988Y0197861D03*
D427*
X0037548Y0197861D03*
X0029798Y0197861D03*
D428*
X0016363Y0197861D03*
D429*
X0029803Y0197903D03*
X0037553Y0197903D03*
X0053173Y0198153D03*
D430*
X0067468Y0197986D03*
D431*
X0053068Y0197986D03*
D432*
X0067573Y0198111D03*
X0037573Y0197986D03*
X0029823Y0197986D03*
D433*
X0067488Y0198028D03*
D434*
X0067638Y0198153D03*
X0053338Y0198320D03*
X0037548Y0198028D03*
X0029798Y0198028D03*
X0016758Y0198320D03*
D435*
X0029823Y0198070D03*
X0037573Y0198070D03*
D436*
X0037553Y0198111D03*
X0029803Y0198111D03*
D437*
X0016528Y0198111D03*
D438*
X0029798Y0198153D03*
X0037548Y0198153D03*
D439*
X0037568Y0198195D03*
X0029818Y0198195D03*
X0017028Y0198445D03*
D440*
X0016613Y0198195D03*
D441*
X0067718Y0198236D03*
D442*
X0053258Y0198236D03*
D443*
X0037573Y0198236D03*
X0029823Y0198236D03*
D444*
X0016653Y0198236D03*
D445*
X0067783Y0198278D03*
D446*
X0037548Y0198278D03*
X0029798Y0198278D03*
D447*
X0067843Y0198320D03*
D448*
X0067928Y0198361D03*
D449*
X0016843Y0198361D03*
D450*
X0068013Y0198403D03*
D451*
X0016923Y0198403D03*
D452*
X0053568Y0198445D03*
D453*
X0068363Y0198486D03*
D454*
X0053713Y0198486D03*
D455*
X0052239Y0148963D02*
X0050594Y0148963D01*
X0051005Y0147319D02*
X0052239Y0147319D01*
X0052239Y0148963D02*
X0052239Y0145263D01*
X0050594Y0145263D01*
X0049486Y0148963D02*
X0047430Y0148963D01*
X0048458Y0148963D02*
X0048458Y0145263D01*
X0054201Y0146805D02*
X0055332Y0147421D01*
X0054921Y0148963D02*
X0054845Y0148961D01*
X0054769Y0148955D01*
X0054693Y0148946D01*
X0054618Y0148933D01*
X0054543Y0148916D01*
X0054470Y0148895D01*
X0054397Y0148871D01*
X0054326Y0148844D01*
X0054257Y0148812D01*
X0054188Y0148778D01*
X0054122Y0148740D01*
X0054058Y0148699D01*
X0053996Y0148655D01*
X0055332Y0147422D02*
X0055378Y0147451D01*
X0055421Y0147483D01*
X0055463Y0147517D01*
X0055502Y0147555D01*
X0055539Y0147594D01*
X0055573Y0147636D01*
X0055605Y0147681D01*
X0055633Y0147727D01*
X0055658Y0147775D01*
X0055681Y0147824D01*
X0055699Y0147875D01*
X0055715Y0147927D01*
X0055727Y0147979D01*
X0055736Y0148033D01*
X0055741Y0148087D01*
X0055743Y0148141D01*
X0055741Y0148197D01*
X0055735Y0148253D01*
X0055726Y0148308D01*
X0055713Y0148363D01*
X0055696Y0148416D01*
X0055675Y0148468D01*
X0055651Y0148519D01*
X0055623Y0148568D01*
X0055593Y0148615D01*
X0055559Y0148660D01*
X0055522Y0148702D01*
X0055482Y0148742D01*
X0055440Y0148779D01*
X0055395Y0148813D01*
X0055348Y0148843D01*
X0055299Y0148871D01*
X0055248Y0148895D01*
X0055196Y0148916D01*
X0055143Y0148933D01*
X0055088Y0148946D01*
X0055033Y0148955D01*
X0054977Y0148961D01*
X0054921Y0148963D01*
X0055845Y0145777D02*
X0055787Y0145721D01*
X0055727Y0145668D01*
X0055664Y0145617D01*
X0055598Y0145570D01*
X0055531Y0145526D01*
X0055461Y0145485D01*
X0055390Y0145447D01*
X0055317Y0145413D01*
X0055243Y0145382D01*
X0055167Y0145354D01*
X0055090Y0145330D01*
X0055012Y0145310D01*
X0054933Y0145293D01*
X0054853Y0145280D01*
X0054773Y0145270D01*
X0054693Y0145265D01*
X0054612Y0145263D01*
X0054556Y0145265D01*
X0054500Y0145271D01*
X0054445Y0145280D01*
X0054390Y0145293D01*
X0054337Y0145310D01*
X0054285Y0145331D01*
X0054234Y0145355D01*
X0054185Y0145383D01*
X0054138Y0145413D01*
X0054093Y0145447D01*
X0054051Y0145484D01*
X0054011Y0145524D01*
X0053974Y0145566D01*
X0053940Y0145611D01*
X0053910Y0145658D01*
X0053882Y0145707D01*
X0053858Y0145758D01*
X0053837Y0145810D01*
X0053820Y0145863D01*
X0053807Y0145918D01*
X0053798Y0145973D01*
X0053792Y0146029D01*
X0053790Y0146085D01*
X0053792Y0146139D01*
X0053797Y0146193D01*
X0053806Y0146247D01*
X0053818Y0146299D01*
X0053834Y0146351D01*
X0053852Y0146402D01*
X0053875Y0146451D01*
X0053900Y0146499D01*
X0053928Y0146545D01*
X0053960Y0146590D01*
X0053994Y0146632D01*
X0054031Y0146671D01*
X0054070Y0146709D01*
X0054112Y0146743D01*
X0054155Y0146775D01*
X0054201Y0146804D01*
X0057074Y0145263D02*
X0058719Y0145263D01*
X0058719Y0148963D01*
X0057074Y0148963D01*
X0057485Y0147319D02*
X0058719Y0147319D01*
X0061190Y0146907D02*
X0060368Y0145263D01*
X0061395Y0146907D02*
X0062423Y0146907D01*
X0061395Y0146907D02*
X0061332Y0146909D01*
X0061269Y0146915D01*
X0061206Y0146925D01*
X0061144Y0146938D01*
X0061083Y0146955D01*
X0061024Y0146976D01*
X0060965Y0147001D01*
X0060909Y0147029D01*
X0060854Y0147061D01*
X0060801Y0147096D01*
X0060751Y0147134D01*
X0060702Y0147175D01*
X0060657Y0147219D01*
X0060614Y0147266D01*
X0060575Y0147315D01*
X0060538Y0147367D01*
X0060505Y0147421D01*
X0060475Y0147477D01*
X0060448Y0147534D01*
X0060425Y0147593D01*
X0060406Y0147654D01*
X0060391Y0147715D01*
X0060379Y0147777D01*
X0060371Y0147840D01*
X0060367Y0147903D01*
X0060367Y0147967D01*
X0060371Y0148030D01*
X0060379Y0148093D01*
X0060391Y0148155D01*
X0060406Y0148216D01*
X0060425Y0148277D01*
X0060448Y0148336D01*
X0060475Y0148393D01*
X0060505Y0148449D01*
X0060538Y0148503D01*
X0060575Y0148555D01*
X0060614Y0148604D01*
X0060657Y0148651D01*
X0060702Y0148695D01*
X0060751Y0148736D01*
X0060801Y0148774D01*
X0060854Y0148809D01*
X0060909Y0148841D01*
X0060965Y0148869D01*
X0061024Y0148894D01*
X0061083Y0148915D01*
X0061144Y0148932D01*
X0061206Y0148945D01*
X0061269Y0148955D01*
X0061332Y0148961D01*
X0061395Y0148963D01*
X0062423Y0148963D01*
X0062423Y0145263D01*
X0065600Y0144852D02*
X0063956Y0149374D01*
X0062057Y0139163D02*
X0061234Y0135463D01*
X0060412Y0137930D01*
X0059590Y0135463D01*
X0058768Y0139163D01*
X0057360Y0138135D02*
X0057360Y0136491D01*
X0057358Y0136428D01*
X0057352Y0136365D01*
X0057342Y0136302D01*
X0057329Y0136240D01*
X0057312Y0136179D01*
X0057291Y0136120D01*
X0057266Y0136061D01*
X0057238Y0136005D01*
X0057206Y0135950D01*
X0057171Y0135897D01*
X0057133Y0135847D01*
X0057092Y0135798D01*
X0057048Y0135753D01*
X0057001Y0135710D01*
X0056952Y0135671D01*
X0056900Y0135634D01*
X0056846Y0135601D01*
X0056790Y0135571D01*
X0056733Y0135544D01*
X0056674Y0135521D01*
X0056613Y0135502D01*
X0056552Y0135487D01*
X0056490Y0135475D01*
X0056427Y0135467D01*
X0056364Y0135463D01*
X0056300Y0135463D01*
X0056237Y0135467D01*
X0056174Y0135475D01*
X0056112Y0135487D01*
X0056051Y0135502D01*
X0055990Y0135521D01*
X0055931Y0135544D01*
X0055874Y0135571D01*
X0055818Y0135601D01*
X0055764Y0135634D01*
X0055712Y0135671D01*
X0055663Y0135710D01*
X0055616Y0135753D01*
X0055572Y0135798D01*
X0055531Y0135847D01*
X0055493Y0135897D01*
X0055458Y0135950D01*
X0055426Y0136005D01*
X0055398Y0136061D01*
X0055373Y0136120D01*
X0055352Y0136179D01*
X0055335Y0136240D01*
X0055322Y0136302D01*
X0055312Y0136365D01*
X0055306Y0136428D01*
X0055304Y0136491D01*
X0055304Y0138135D01*
X0055306Y0138198D01*
X0055312Y0138261D01*
X0055322Y0138324D01*
X0055335Y0138386D01*
X0055352Y0138447D01*
X0055373Y0138506D01*
X0055398Y0138565D01*
X0055426Y0138621D01*
X0055458Y0138676D01*
X0055493Y0138729D01*
X0055531Y0138779D01*
X0055572Y0138828D01*
X0055616Y0138873D01*
X0055663Y0138916D01*
X0055712Y0138955D01*
X0055764Y0138992D01*
X0055818Y0139025D01*
X0055874Y0139055D01*
X0055931Y0139082D01*
X0055990Y0139105D01*
X0056051Y0139124D01*
X0056112Y0139139D01*
X0056174Y0139151D01*
X0056237Y0139159D01*
X0056300Y0139163D01*
X0056364Y0139163D01*
X0056427Y0139159D01*
X0056490Y0139151D01*
X0056552Y0139139D01*
X0056613Y0139124D01*
X0056674Y0139105D01*
X0056733Y0139082D01*
X0056790Y0139055D01*
X0056846Y0139025D01*
X0056900Y0138992D01*
X0056952Y0138955D01*
X0057001Y0138916D01*
X0057048Y0138873D01*
X0057092Y0138828D01*
X0057133Y0138779D01*
X0057171Y0138729D01*
X0057206Y0138676D01*
X0057238Y0138621D01*
X0057266Y0138565D01*
X0057291Y0138506D01*
X0057312Y0138447D01*
X0057329Y0138386D01*
X0057342Y0138324D01*
X0057352Y0138261D01*
X0057358Y0138198D01*
X0057360Y0138135D01*
X0063756Y0137005D02*
X0064886Y0137621D01*
X0064475Y0139163D02*
X0064399Y0139161D01*
X0064323Y0139155D01*
X0064247Y0139146D01*
X0064172Y0139133D01*
X0064097Y0139116D01*
X0064024Y0139095D01*
X0063951Y0139071D01*
X0063880Y0139044D01*
X0063811Y0139012D01*
X0063742Y0138978D01*
X0063676Y0138940D01*
X0063612Y0138899D01*
X0063550Y0138855D01*
X0064886Y0137622D02*
X0064932Y0137651D01*
X0064975Y0137683D01*
X0065017Y0137717D01*
X0065056Y0137755D01*
X0065093Y0137794D01*
X0065127Y0137836D01*
X0065159Y0137881D01*
X0065187Y0137927D01*
X0065212Y0137975D01*
X0065235Y0138024D01*
X0065253Y0138075D01*
X0065269Y0138127D01*
X0065281Y0138179D01*
X0065290Y0138233D01*
X0065295Y0138287D01*
X0065297Y0138341D01*
X0065295Y0138397D01*
X0065289Y0138453D01*
X0065280Y0138508D01*
X0065267Y0138563D01*
X0065250Y0138616D01*
X0065229Y0138668D01*
X0065205Y0138719D01*
X0065177Y0138768D01*
X0065147Y0138815D01*
X0065113Y0138860D01*
X0065076Y0138902D01*
X0065036Y0138942D01*
X0064994Y0138979D01*
X0064949Y0139013D01*
X0064902Y0139043D01*
X0064853Y0139071D01*
X0064802Y0139095D01*
X0064750Y0139116D01*
X0064697Y0139133D01*
X0064642Y0139146D01*
X0064587Y0139155D01*
X0064531Y0139161D01*
X0064475Y0139163D01*
X0065400Y0135977D02*
X0065342Y0135921D01*
X0065282Y0135868D01*
X0065219Y0135817D01*
X0065153Y0135770D01*
X0065086Y0135726D01*
X0065016Y0135685D01*
X0064945Y0135647D01*
X0064872Y0135613D01*
X0064798Y0135582D01*
X0064722Y0135554D01*
X0064645Y0135530D01*
X0064567Y0135510D01*
X0064488Y0135493D01*
X0064408Y0135480D01*
X0064328Y0135470D01*
X0064248Y0135465D01*
X0064167Y0135463D01*
X0064111Y0135465D01*
X0064055Y0135471D01*
X0064000Y0135480D01*
X0063945Y0135493D01*
X0063892Y0135510D01*
X0063840Y0135531D01*
X0063789Y0135555D01*
X0063740Y0135583D01*
X0063693Y0135613D01*
X0063648Y0135647D01*
X0063606Y0135684D01*
X0063566Y0135724D01*
X0063529Y0135766D01*
X0063495Y0135811D01*
X0063465Y0135858D01*
X0063437Y0135907D01*
X0063413Y0135958D01*
X0063392Y0136010D01*
X0063375Y0136063D01*
X0063362Y0136118D01*
X0063353Y0136173D01*
X0063347Y0136229D01*
X0063345Y0136285D01*
X0063347Y0136339D01*
X0063352Y0136393D01*
X0063361Y0136447D01*
X0063373Y0136499D01*
X0063389Y0136551D01*
X0063407Y0136602D01*
X0063430Y0136651D01*
X0063455Y0136699D01*
X0063483Y0136745D01*
X0063515Y0136790D01*
X0063549Y0136832D01*
X0063586Y0136871D01*
X0063625Y0136909D01*
X0063667Y0136943D01*
X0063710Y0136975D01*
X0063756Y0137004D01*
D456*
X0046717Y0180413D02*
X0044583Y0186813D01*
X0042340Y0185391D02*
X0040563Y0186813D01*
X0040563Y0180413D01*
X0042340Y0180413D02*
X0038785Y0180413D01*
X0036433Y0180413D02*
X0036077Y0180413D01*
X0036077Y0180769D01*
X0036433Y0180769D01*
X0036433Y0180413D01*
X0033725Y0180413D02*
X0030169Y0180413D01*
X0031947Y0180413D02*
X0031947Y0186813D01*
X0033725Y0185391D01*
X0046717Y0180413D02*
X0048850Y0186813D01*
M02*
