G75*
%MOIN*%
%OFA0B0*%
%FSLAX25Y25*%
%IPPOS*%
%LPD*%
%AMOC8*
5,1,8,0,0,1.08239X$1,22.5*
%
%ADD10C,0.00000*%
%ADD11R,0.01063X0.03937*%
%ADD12R,0.03937X0.01063*%
%ADD13R,0.01181X0.00500*%
%ADD14R,0.00500X0.01181*%
%ADD15R,0.01772X0.02165*%
%ADD16R,0.01772X0.02362*%
%ADD17R,0.02165X0.01772*%
%ADD18R,0.02362X0.01772*%
%ADD19R,0.05315X0.03740*%
%ADD20R,0.02756X0.08268*%
%ADD21R,0.03346X0.04921*%
%ADD22R,0.03346X0.05118*%
%ADD23R,0.01969X0.00787*%
%ADD24C,0.00157*%
%ADD25R,0.02362X0.03150*%
%ADD26R,0.02362X0.03543*%
%ADD27C,0.06299*%
%ADD28R,0.06299X0.06299*%
%ADD29R,0.03740X0.09055*%
%ADD30C,0.06299*%
%ADD31R,0.04331X0.03150*%
%ADD32R,0.01969X0.03150*%
%ADD33C,0.03169*%
%ADD34R,0.02165X0.04724*%
%ADD35R,0.05118X0.03346*%
%ADD36R,0.03150X0.10630*%
%ADD37R,0.03346X0.02756*%
%ADD38R,0.03000X0.03500*%
%ADD39R,0.03150X0.01575*%
%ADD40C,0.00600*%
%ADD41C,0.02000*%
%ADD42C,0.02400*%
%ADD43C,0.01200*%
%ADD44C,0.02200*%
%ADD45C,0.00800*%
%ADD46C,0.02800*%
%ADD47C,0.03000*%
%ADD48C,0.02500*%
%ADD49C,0.00400*%
%ADD50C,0.02000*%
%ADD51C,0.01000*%
%ADD52C,0.01987*%
%ADD53C,0.04000*%
%ADD54C,0.03500*%
D10*
X0009850Y0061313D02*
X0070950Y0061313D01*
X0071119Y0061317D01*
X0071288Y0061326D01*
X0071457Y0061338D01*
X0071625Y0061355D01*
X0071793Y0061376D01*
X0071960Y0061401D01*
X0072127Y0061429D01*
X0072293Y0061462D01*
X0072458Y0061499D01*
X0072622Y0061540D01*
X0072786Y0061585D01*
X0072948Y0061634D01*
X0073108Y0061686D01*
X0073268Y0061743D01*
X0073426Y0061803D01*
X0073582Y0061867D01*
X0073737Y0061935D01*
X0073891Y0062007D01*
X0074042Y0062082D01*
X0074192Y0062161D01*
X0074339Y0062244D01*
X0074485Y0062330D01*
X0074629Y0062419D01*
X0074770Y0062512D01*
X0074909Y0062609D01*
X0075046Y0062708D01*
X0075180Y0062811D01*
X0075311Y0062918D01*
X0075441Y0063027D01*
X0075567Y0063140D01*
X0075691Y0063255D01*
X0075811Y0063373D01*
X0075929Y0063495D01*
X0076044Y0063619D01*
X0076156Y0063746D01*
X0076265Y0063875D01*
X0076371Y0064007D01*
X0076473Y0064142D01*
X0076572Y0064279D01*
X0076668Y0064419D01*
X0076760Y0064560D01*
X0076849Y0064704D01*
X0076935Y0064850D01*
X0077017Y0064998D01*
X0077095Y0065148D01*
X0077170Y0065300D01*
X0077241Y0065454D01*
X0077308Y0065609D01*
X0077371Y0065766D01*
X0077431Y0065924D01*
X0077487Y0066084D01*
X0077539Y0066245D01*
X0077587Y0066407D01*
X0077631Y0066570D01*
X0077671Y0066735D01*
X0077707Y0066900D01*
X0077739Y0067066D01*
X0077767Y0067233D01*
X0077791Y0067400D01*
X0077811Y0067568D01*
X0077827Y0067737D01*
X0077839Y0067906D01*
X0077847Y0068075D01*
X0077851Y0068244D01*
X0077850Y0068413D01*
X0077850Y0084213D01*
X0074850Y0087313D01*
X0074850Y0092813D01*
X0077850Y0095813D01*
X0077850Y0201313D01*
X0077848Y0201482D01*
X0077842Y0201651D01*
X0077832Y0201820D01*
X0077817Y0201989D01*
X0077799Y0202157D01*
X0077777Y0202324D01*
X0077750Y0202491D01*
X0077720Y0202658D01*
X0077685Y0202823D01*
X0077647Y0202988D01*
X0077604Y0203152D01*
X0077558Y0203315D01*
X0077507Y0203476D01*
X0077453Y0203636D01*
X0077395Y0203795D01*
X0077333Y0203953D01*
X0077268Y0204109D01*
X0077198Y0204263D01*
X0077125Y0204415D01*
X0077048Y0204566D01*
X0076968Y0204715D01*
X0076884Y0204862D01*
X0076796Y0205006D01*
X0076705Y0205149D01*
X0076611Y0205289D01*
X0076513Y0205427D01*
X0076412Y0205563D01*
X0076308Y0205696D01*
X0076200Y0205827D01*
X0076090Y0205955D01*
X0075976Y0206080D01*
X0075859Y0206203D01*
X0075740Y0206322D01*
X0075617Y0206439D01*
X0075492Y0206553D01*
X0075364Y0206663D01*
X0075233Y0206771D01*
X0075100Y0206875D01*
X0074964Y0206976D01*
X0074826Y0207074D01*
X0074686Y0207168D01*
X0074543Y0207259D01*
X0074399Y0207347D01*
X0074252Y0207431D01*
X0074103Y0207511D01*
X0073952Y0207588D01*
X0073800Y0207661D01*
X0073646Y0207731D01*
X0073490Y0207796D01*
X0073332Y0207858D01*
X0073173Y0207916D01*
X0073013Y0207970D01*
X0072852Y0208021D01*
X0072689Y0208067D01*
X0072525Y0208110D01*
X0072360Y0208148D01*
X0072195Y0208183D01*
X0072028Y0208213D01*
X0071861Y0208240D01*
X0071694Y0208262D01*
X0071526Y0208280D01*
X0071357Y0208295D01*
X0071188Y0208305D01*
X0071019Y0208311D01*
X0070850Y0208313D01*
X0009850Y0208313D01*
X0009681Y0208311D01*
X0009512Y0208305D01*
X0009343Y0208295D01*
X0009174Y0208280D01*
X0009006Y0208262D01*
X0008839Y0208240D01*
X0008672Y0208213D01*
X0008505Y0208183D01*
X0008340Y0208148D01*
X0008175Y0208110D01*
X0008011Y0208067D01*
X0007848Y0208021D01*
X0007687Y0207970D01*
X0007527Y0207916D01*
X0007368Y0207858D01*
X0007210Y0207796D01*
X0007054Y0207731D01*
X0006900Y0207661D01*
X0006748Y0207588D01*
X0006597Y0207511D01*
X0006448Y0207431D01*
X0006301Y0207347D01*
X0006157Y0207259D01*
X0006014Y0207168D01*
X0005874Y0207074D01*
X0005736Y0206976D01*
X0005600Y0206875D01*
X0005467Y0206771D01*
X0005336Y0206663D01*
X0005208Y0206553D01*
X0005083Y0206439D01*
X0004960Y0206322D01*
X0004841Y0206203D01*
X0004724Y0206080D01*
X0004610Y0205955D01*
X0004500Y0205827D01*
X0004392Y0205696D01*
X0004288Y0205563D01*
X0004187Y0205427D01*
X0004089Y0205289D01*
X0003995Y0205149D01*
X0003904Y0205006D01*
X0003816Y0204862D01*
X0003732Y0204715D01*
X0003652Y0204566D01*
X0003575Y0204415D01*
X0003502Y0204263D01*
X0003432Y0204109D01*
X0003367Y0203953D01*
X0003305Y0203795D01*
X0003247Y0203636D01*
X0003193Y0203476D01*
X0003142Y0203315D01*
X0003096Y0203152D01*
X0003053Y0202988D01*
X0003015Y0202823D01*
X0002980Y0202658D01*
X0002950Y0202491D01*
X0002923Y0202324D01*
X0002901Y0202157D01*
X0002883Y0201989D01*
X0002868Y0201820D01*
X0002858Y0201651D01*
X0002852Y0201482D01*
X0002850Y0201313D01*
X0002850Y0068313D01*
X0002852Y0068144D01*
X0002858Y0067975D01*
X0002868Y0067806D01*
X0002883Y0067637D01*
X0002901Y0067469D01*
X0002923Y0067302D01*
X0002950Y0067135D01*
X0002980Y0066968D01*
X0003015Y0066803D01*
X0003053Y0066638D01*
X0003096Y0066474D01*
X0003142Y0066311D01*
X0003193Y0066150D01*
X0003247Y0065990D01*
X0003305Y0065831D01*
X0003367Y0065673D01*
X0003432Y0065517D01*
X0003502Y0065363D01*
X0003575Y0065211D01*
X0003652Y0065060D01*
X0003732Y0064911D01*
X0003816Y0064764D01*
X0003904Y0064620D01*
X0003995Y0064477D01*
X0004089Y0064337D01*
X0004187Y0064199D01*
X0004288Y0064063D01*
X0004392Y0063930D01*
X0004500Y0063799D01*
X0004610Y0063671D01*
X0004724Y0063546D01*
X0004841Y0063423D01*
X0004960Y0063304D01*
X0005083Y0063187D01*
X0005208Y0063073D01*
X0005336Y0062963D01*
X0005467Y0062855D01*
X0005600Y0062751D01*
X0005736Y0062650D01*
X0005874Y0062552D01*
X0006014Y0062458D01*
X0006157Y0062367D01*
X0006301Y0062279D01*
X0006448Y0062195D01*
X0006597Y0062115D01*
X0006748Y0062038D01*
X0006900Y0061965D01*
X0007054Y0061895D01*
X0007210Y0061830D01*
X0007368Y0061768D01*
X0007527Y0061710D01*
X0007687Y0061656D01*
X0007848Y0061605D01*
X0008011Y0061559D01*
X0008175Y0061516D01*
X0008340Y0061478D01*
X0008505Y0061443D01*
X0008672Y0061413D01*
X0008839Y0061386D01*
X0009006Y0061364D01*
X0009174Y0061346D01*
X0009343Y0061331D01*
X0009512Y0061321D01*
X0009681Y0061315D01*
X0009850Y0061313D01*
X0029290Y0071061D02*
X0029292Y0071149D01*
X0029298Y0071237D01*
X0029308Y0071325D01*
X0029322Y0071413D01*
X0029339Y0071499D01*
X0029361Y0071585D01*
X0029386Y0071669D01*
X0029416Y0071753D01*
X0029448Y0071835D01*
X0029485Y0071915D01*
X0029525Y0071994D01*
X0029569Y0072071D01*
X0029616Y0072146D01*
X0029666Y0072218D01*
X0029720Y0072289D01*
X0029776Y0072356D01*
X0029836Y0072422D01*
X0029898Y0072484D01*
X0029964Y0072544D01*
X0030031Y0072600D01*
X0030102Y0072654D01*
X0030174Y0072704D01*
X0030249Y0072751D01*
X0030326Y0072795D01*
X0030405Y0072835D01*
X0030485Y0072872D01*
X0030567Y0072904D01*
X0030651Y0072934D01*
X0030735Y0072959D01*
X0030821Y0072981D01*
X0030907Y0072998D01*
X0030995Y0073012D01*
X0031083Y0073022D01*
X0031171Y0073028D01*
X0031259Y0073030D01*
X0031347Y0073028D01*
X0031435Y0073022D01*
X0031523Y0073012D01*
X0031611Y0072998D01*
X0031697Y0072981D01*
X0031783Y0072959D01*
X0031867Y0072934D01*
X0031951Y0072904D01*
X0032033Y0072872D01*
X0032113Y0072835D01*
X0032192Y0072795D01*
X0032269Y0072751D01*
X0032344Y0072704D01*
X0032416Y0072654D01*
X0032487Y0072600D01*
X0032554Y0072544D01*
X0032620Y0072484D01*
X0032682Y0072422D01*
X0032742Y0072356D01*
X0032798Y0072289D01*
X0032852Y0072218D01*
X0032902Y0072146D01*
X0032949Y0072071D01*
X0032993Y0071994D01*
X0033033Y0071915D01*
X0033070Y0071835D01*
X0033102Y0071753D01*
X0033132Y0071669D01*
X0033157Y0071585D01*
X0033179Y0071499D01*
X0033196Y0071413D01*
X0033210Y0071325D01*
X0033220Y0071237D01*
X0033226Y0071149D01*
X0033228Y0071061D01*
X0033226Y0070973D01*
X0033220Y0070885D01*
X0033210Y0070797D01*
X0033196Y0070709D01*
X0033179Y0070623D01*
X0033157Y0070537D01*
X0033132Y0070453D01*
X0033102Y0070369D01*
X0033070Y0070287D01*
X0033033Y0070207D01*
X0032993Y0070128D01*
X0032949Y0070051D01*
X0032902Y0069976D01*
X0032852Y0069904D01*
X0032798Y0069833D01*
X0032742Y0069766D01*
X0032682Y0069700D01*
X0032620Y0069638D01*
X0032554Y0069578D01*
X0032487Y0069522D01*
X0032416Y0069468D01*
X0032344Y0069418D01*
X0032269Y0069371D01*
X0032192Y0069327D01*
X0032113Y0069287D01*
X0032033Y0069250D01*
X0031951Y0069218D01*
X0031867Y0069188D01*
X0031783Y0069163D01*
X0031697Y0069141D01*
X0031611Y0069124D01*
X0031523Y0069110D01*
X0031435Y0069100D01*
X0031347Y0069094D01*
X0031259Y0069092D01*
X0031171Y0069094D01*
X0031083Y0069100D01*
X0030995Y0069110D01*
X0030907Y0069124D01*
X0030821Y0069141D01*
X0030735Y0069163D01*
X0030651Y0069188D01*
X0030567Y0069218D01*
X0030485Y0069250D01*
X0030405Y0069287D01*
X0030326Y0069327D01*
X0030249Y0069371D01*
X0030174Y0069418D01*
X0030102Y0069468D01*
X0030031Y0069522D01*
X0029964Y0069578D01*
X0029898Y0069638D01*
X0029836Y0069700D01*
X0029776Y0069766D01*
X0029720Y0069833D01*
X0029666Y0069904D01*
X0029616Y0069976D01*
X0029569Y0070051D01*
X0029525Y0070128D01*
X0029485Y0070207D01*
X0029448Y0070287D01*
X0029416Y0070369D01*
X0029386Y0070453D01*
X0029361Y0070537D01*
X0029339Y0070623D01*
X0029322Y0070709D01*
X0029308Y0070797D01*
X0029298Y0070885D01*
X0029292Y0070973D01*
X0029290Y0071061D01*
X0047401Y0071061D02*
X0047403Y0071149D01*
X0047409Y0071237D01*
X0047419Y0071325D01*
X0047433Y0071413D01*
X0047450Y0071499D01*
X0047472Y0071585D01*
X0047497Y0071669D01*
X0047527Y0071753D01*
X0047559Y0071835D01*
X0047596Y0071915D01*
X0047636Y0071994D01*
X0047680Y0072071D01*
X0047727Y0072146D01*
X0047777Y0072218D01*
X0047831Y0072289D01*
X0047887Y0072356D01*
X0047947Y0072422D01*
X0048009Y0072484D01*
X0048075Y0072544D01*
X0048142Y0072600D01*
X0048213Y0072654D01*
X0048285Y0072704D01*
X0048360Y0072751D01*
X0048437Y0072795D01*
X0048516Y0072835D01*
X0048596Y0072872D01*
X0048678Y0072904D01*
X0048762Y0072934D01*
X0048846Y0072959D01*
X0048932Y0072981D01*
X0049018Y0072998D01*
X0049106Y0073012D01*
X0049194Y0073022D01*
X0049282Y0073028D01*
X0049370Y0073030D01*
X0049458Y0073028D01*
X0049546Y0073022D01*
X0049634Y0073012D01*
X0049722Y0072998D01*
X0049808Y0072981D01*
X0049894Y0072959D01*
X0049978Y0072934D01*
X0050062Y0072904D01*
X0050144Y0072872D01*
X0050224Y0072835D01*
X0050303Y0072795D01*
X0050380Y0072751D01*
X0050455Y0072704D01*
X0050527Y0072654D01*
X0050598Y0072600D01*
X0050665Y0072544D01*
X0050731Y0072484D01*
X0050793Y0072422D01*
X0050853Y0072356D01*
X0050909Y0072289D01*
X0050963Y0072218D01*
X0051013Y0072146D01*
X0051060Y0072071D01*
X0051104Y0071994D01*
X0051144Y0071915D01*
X0051181Y0071835D01*
X0051213Y0071753D01*
X0051243Y0071669D01*
X0051268Y0071585D01*
X0051290Y0071499D01*
X0051307Y0071413D01*
X0051321Y0071325D01*
X0051331Y0071237D01*
X0051337Y0071149D01*
X0051339Y0071061D01*
X0051337Y0070973D01*
X0051331Y0070885D01*
X0051321Y0070797D01*
X0051307Y0070709D01*
X0051290Y0070623D01*
X0051268Y0070537D01*
X0051243Y0070453D01*
X0051213Y0070369D01*
X0051181Y0070287D01*
X0051144Y0070207D01*
X0051104Y0070128D01*
X0051060Y0070051D01*
X0051013Y0069976D01*
X0050963Y0069904D01*
X0050909Y0069833D01*
X0050853Y0069766D01*
X0050793Y0069700D01*
X0050731Y0069638D01*
X0050665Y0069578D01*
X0050598Y0069522D01*
X0050527Y0069468D01*
X0050455Y0069418D01*
X0050380Y0069371D01*
X0050303Y0069327D01*
X0050224Y0069287D01*
X0050144Y0069250D01*
X0050062Y0069218D01*
X0049978Y0069188D01*
X0049894Y0069163D01*
X0049808Y0069141D01*
X0049722Y0069124D01*
X0049634Y0069110D01*
X0049546Y0069100D01*
X0049458Y0069094D01*
X0049370Y0069092D01*
X0049282Y0069094D01*
X0049194Y0069100D01*
X0049106Y0069110D01*
X0049018Y0069124D01*
X0048932Y0069141D01*
X0048846Y0069163D01*
X0048762Y0069188D01*
X0048678Y0069218D01*
X0048596Y0069250D01*
X0048516Y0069287D01*
X0048437Y0069327D01*
X0048360Y0069371D01*
X0048285Y0069418D01*
X0048213Y0069468D01*
X0048142Y0069522D01*
X0048075Y0069578D01*
X0048009Y0069638D01*
X0047947Y0069700D01*
X0047887Y0069766D01*
X0047831Y0069833D01*
X0047777Y0069904D01*
X0047727Y0069976D01*
X0047680Y0070051D01*
X0047636Y0070128D01*
X0047596Y0070207D01*
X0047559Y0070287D01*
X0047527Y0070369D01*
X0047497Y0070453D01*
X0047472Y0070537D01*
X0047450Y0070623D01*
X0047433Y0070709D01*
X0047419Y0070797D01*
X0047409Y0070885D01*
X0047403Y0070973D01*
X0047401Y0071061D01*
D11*
X0047240Y0115596D03*
X0045271Y0115596D03*
X0043303Y0115596D03*
X0041334Y0115596D03*
X0039366Y0115596D03*
X0037397Y0115596D03*
X0035429Y0115596D03*
X0033460Y0115596D03*
X0031492Y0115596D03*
X0029523Y0115596D03*
X0029523Y0150242D03*
X0031492Y0150242D03*
X0033460Y0150242D03*
X0035429Y0150242D03*
X0037397Y0150242D03*
X0039366Y0150242D03*
X0041334Y0150242D03*
X0043303Y0150242D03*
X0045271Y0150242D03*
X0047240Y0150242D03*
X0049208Y0150242D03*
X0051177Y0150242D03*
X0051177Y0115596D03*
X0049208Y0115596D03*
D12*
X0057673Y0122093D03*
X0057673Y0124061D03*
X0057673Y0126030D03*
X0057673Y0127998D03*
X0057673Y0129967D03*
X0057673Y0131935D03*
X0057673Y0133904D03*
X0057673Y0135872D03*
X0057673Y0137841D03*
X0057673Y0139809D03*
X0057673Y0141778D03*
X0057673Y0143746D03*
X0023027Y0143746D03*
X0023027Y0141778D03*
X0023027Y0139809D03*
X0023027Y0137841D03*
X0023027Y0131935D03*
X0023027Y0129967D03*
X0023027Y0127998D03*
X0023027Y0126030D03*
X0023027Y0124061D03*
X0023027Y0122093D03*
D13*
X0054278Y0151400D03*
D14*
X0054264Y0151393D03*
D15*
X0024996Y0118370D03*
X0021295Y0118370D03*
D16*
X0021100Y0114913D03*
X0021067Y0111435D03*
X0021200Y0108013D03*
X0024768Y0111435D03*
X0024800Y0114913D03*
X0024900Y0108013D03*
X0028442Y0155619D03*
X0032143Y0155619D03*
X0055875Y0117443D03*
X0059576Y0117443D03*
X0058000Y0100213D03*
X0061700Y0100213D03*
X0062844Y0147786D03*
X0059143Y0147786D03*
D17*
X0062857Y0141733D03*
X0062857Y0138032D03*
X0062952Y0127646D03*
X0062952Y0123945D03*
X0063020Y0119915D03*
X0063020Y0116214D03*
X0063941Y0111012D03*
X0063941Y0107311D03*
X0060496Y0107300D03*
X0060496Y0111000D03*
X0042489Y0096995D03*
X0042489Y0093294D03*
X0039071Y0093349D03*
X0039071Y0097050D03*
X0035548Y0096997D03*
X0035548Y0093296D03*
X0034422Y0106526D03*
X0034422Y0110226D03*
X0037952Y0110226D03*
X0037952Y0106526D03*
X0041333Y0106526D03*
X0041333Y0110226D03*
X0025950Y0096863D03*
X0025950Y0093163D03*
X0022650Y0093263D03*
X0022650Y0096963D03*
X0019350Y0096963D03*
X0019350Y0093263D03*
X0024681Y0162020D03*
X0024681Y0165721D03*
X0018177Y0184642D03*
X0018177Y0188343D03*
X0053732Y0163021D03*
X0053732Y0159320D03*
D18*
X0053732Y0165994D03*
X0053732Y0169695D03*
X0057693Y0163021D03*
X0057693Y0159320D03*
X0057026Y0192719D03*
X0057026Y0196419D03*
X0060488Y0196444D03*
X0060488Y0192744D03*
X0031673Y0165818D03*
X0031673Y0162117D03*
X0028228Y0162020D03*
X0028228Y0165721D03*
X0017442Y0130803D03*
X0017442Y0127102D03*
X0029650Y0096863D03*
X0029650Y0093163D03*
X0011850Y0073963D03*
X0011850Y0070263D03*
D19*
X0037448Y0160104D03*
X0037448Y0167978D03*
X0047291Y0167978D03*
X0047291Y0160104D03*
D20*
X0045850Y0181711D03*
X0050850Y0181711D03*
X0050850Y0197459D03*
X0045850Y0197459D03*
X0040850Y0197459D03*
X0035850Y0197459D03*
X0030850Y0197459D03*
X0030850Y0181711D03*
X0035850Y0181711D03*
X0040850Y0181711D03*
D21*
X0014400Y0178913D03*
X0008100Y0178913D03*
X0055337Y0094144D03*
X0061636Y0094144D03*
D22*
X0027680Y0102930D03*
X0021184Y0102930D03*
D23*
X0022982Y0185235D03*
X0022982Y0186889D03*
X0013678Y0193422D03*
X0013678Y0195075D03*
X0013626Y0186846D03*
X0013626Y0185193D03*
X0058050Y0201586D03*
X0058050Y0203240D03*
D24*
X0058207Y0204933D02*
X0058654Y0204882D01*
X0059079Y0204734D01*
X0059459Y0204495D01*
X0059777Y0204177D01*
X0060017Y0203796D01*
X0060165Y0203372D01*
X0060215Y0202925D01*
X0055885Y0202925D01*
X0055935Y0203372D01*
X0056083Y0203796D01*
X0056323Y0204177D01*
X0056641Y0204495D01*
X0057021Y0204734D01*
X0057446Y0204882D01*
X0057893Y0204933D01*
X0058050Y0204963D01*
X0058207Y0204933D01*
X0058100Y0204953D02*
X0058000Y0204953D01*
X0057203Y0204797D02*
X0058897Y0204797D01*
X0059226Y0204641D02*
X0056874Y0204641D01*
X0056631Y0204485D02*
X0059469Y0204485D01*
X0059625Y0204329D02*
X0056475Y0204329D01*
X0056321Y0204173D02*
X0059779Y0204173D01*
X0059877Y0204017D02*
X0056223Y0204017D01*
X0056125Y0203861D02*
X0059975Y0203861D01*
X0060048Y0203705D02*
X0056052Y0203705D01*
X0055997Y0203549D02*
X0060103Y0203549D01*
X0060157Y0203393D02*
X0055943Y0203393D01*
X0055920Y0203237D02*
X0060180Y0203237D01*
X0060198Y0203081D02*
X0055902Y0203081D01*
X0055885Y0202926D02*
X0060215Y0202926D01*
X0060215Y0201901D02*
X0060178Y0201486D01*
X0060055Y0201087D01*
X0059854Y0200722D01*
X0059581Y0200406D01*
X0059249Y0200153D01*
X0058873Y0199973D01*
X0058467Y0199875D01*
X0058050Y0199863D01*
X0057600Y0199877D01*
X0057165Y0199991D01*
X0056766Y0200199D01*
X0056423Y0200491D01*
X0056153Y0200851D01*
X0055971Y0201263D01*
X0055885Y0201704D01*
X0055885Y0201901D01*
X0060215Y0201901D01*
X0060209Y0201834D02*
X0055885Y0201834D01*
X0055890Y0201678D02*
X0060195Y0201678D01*
X0060181Y0201522D02*
X0055920Y0201522D01*
X0055951Y0201366D02*
X0060141Y0201366D01*
X0060093Y0201210D02*
X0055994Y0201210D01*
X0056064Y0201054D02*
X0060037Y0201054D01*
X0059951Y0200898D02*
X0056133Y0200898D01*
X0056235Y0200742D02*
X0059865Y0200742D01*
X0059736Y0200586D02*
X0056352Y0200586D01*
X0056494Y0200430D02*
X0059602Y0200430D01*
X0059408Y0200274D02*
X0056678Y0200274D01*
X0056922Y0200118D02*
X0059175Y0200118D01*
X0058824Y0199962D02*
X0057277Y0199962D01*
X0025061Y0187212D02*
X0024879Y0187624D01*
X0024610Y0187984D01*
X0024267Y0188276D01*
X0023868Y0188484D01*
X0023432Y0188598D01*
X0022982Y0188612D01*
X0022565Y0188599D01*
X0022160Y0188501D01*
X0021783Y0188322D01*
X0021451Y0188069D01*
X0021179Y0187753D01*
X0020977Y0187388D01*
X0020855Y0186989D01*
X0020817Y0186574D01*
X0025148Y0186574D01*
X0025148Y0186770D01*
X0025061Y0187212D01*
X0025070Y0187170D02*
X0020910Y0187170D01*
X0020862Y0187014D02*
X0025100Y0187014D01*
X0025130Y0186858D02*
X0020843Y0186858D01*
X0020829Y0186702D02*
X0025148Y0186702D01*
X0025011Y0187326D02*
X0020958Y0187326D01*
X0021029Y0187482D02*
X0024942Y0187482D01*
X0024868Y0187638D02*
X0021115Y0187638D01*
X0021214Y0187794D02*
X0024751Y0187794D01*
X0024635Y0187950D02*
X0021349Y0187950D01*
X0021500Y0188106D02*
X0024466Y0188106D01*
X0024283Y0188262D02*
X0021705Y0188262D01*
X0021985Y0188418D02*
X0023993Y0188418D01*
X0023521Y0188574D02*
X0022462Y0188574D01*
X0020817Y0185550D02*
X0020867Y0185103D01*
X0021016Y0184679D01*
X0021255Y0184298D01*
X0021573Y0183980D01*
X0021954Y0183741D01*
X0022378Y0183592D01*
X0022825Y0183542D01*
X0022982Y0183512D01*
X0023140Y0183542D01*
X0023587Y0183592D01*
X0024011Y0183741D01*
X0024392Y0183980D01*
X0024710Y0184298D01*
X0024949Y0184679D01*
X0025097Y0185103D01*
X0025148Y0185550D01*
X0020817Y0185550D01*
X0020828Y0185454D02*
X0025137Y0185454D01*
X0025119Y0185298D02*
X0020845Y0185298D01*
X0020863Y0185142D02*
X0025102Y0185142D01*
X0025056Y0184986D02*
X0020908Y0184986D01*
X0020963Y0184830D02*
X0025002Y0184830D01*
X0024946Y0184674D02*
X0021019Y0184674D01*
X0021117Y0184518D02*
X0024848Y0184518D01*
X0024750Y0184362D02*
X0021215Y0184362D01*
X0021347Y0184207D02*
X0024618Y0184207D01*
X0024462Y0184051D02*
X0021503Y0184051D01*
X0021709Y0183895D02*
X0024255Y0183895D01*
X0024004Y0183739D02*
X0021961Y0183739D01*
X0022466Y0183583D02*
X0023498Y0183583D01*
X0015753Y0185092D02*
X0015791Y0185507D01*
X0011460Y0185507D01*
X0011460Y0185311D01*
X0011547Y0184869D01*
X0011729Y0184457D01*
X0011998Y0184097D01*
X0012341Y0183805D01*
X0012740Y0183597D01*
X0013176Y0183483D01*
X0013626Y0183469D01*
X0014043Y0183482D01*
X0014448Y0183580D01*
X0014825Y0183759D01*
X0015157Y0184012D01*
X0015429Y0184328D01*
X0015631Y0184693D01*
X0015753Y0185092D01*
X0015758Y0185142D02*
X0011493Y0185142D01*
X0011524Y0184986D02*
X0015721Y0184986D01*
X0015673Y0184830D02*
X0011564Y0184830D01*
X0011633Y0184674D02*
X0015621Y0184674D01*
X0015534Y0184518D02*
X0011702Y0184518D01*
X0011800Y0184362D02*
X0015448Y0184362D01*
X0015324Y0184207D02*
X0011916Y0184207D01*
X0012053Y0184051D02*
X0015190Y0184051D01*
X0015002Y0183895D02*
X0012236Y0183895D01*
X0012469Y0183739D02*
X0014782Y0183739D01*
X0014454Y0183583D02*
X0012797Y0183583D01*
X0011463Y0185298D02*
X0015772Y0185298D01*
X0015786Y0185454D02*
X0011460Y0185454D01*
X0011460Y0186531D02*
X0011511Y0186978D01*
X0011659Y0187402D01*
X0011898Y0187783D01*
X0012216Y0188101D01*
X0012597Y0188340D01*
X0013021Y0188489D01*
X0013468Y0188539D01*
X0013626Y0188569D01*
X0013783Y0188539D01*
X0014230Y0188489D01*
X0014654Y0188340D01*
X0015035Y0188101D01*
X0015353Y0187783D01*
X0015592Y0187402D01*
X0015741Y0186978D01*
X0015791Y0186531D01*
X0011460Y0186531D01*
X0011462Y0186546D02*
X0015789Y0186546D01*
X0015772Y0186702D02*
X0011480Y0186702D01*
X0011497Y0186858D02*
X0015754Y0186858D01*
X0015728Y0187014D02*
X0011523Y0187014D01*
X0011578Y0187170D02*
X0015673Y0187170D01*
X0015619Y0187326D02*
X0011633Y0187326D01*
X0011709Y0187482D02*
X0015542Y0187482D01*
X0015444Y0187638D02*
X0011807Y0187638D01*
X0011910Y0187794D02*
X0015342Y0187794D01*
X0015186Y0187950D02*
X0012066Y0187950D01*
X0012225Y0188106D02*
X0015026Y0188106D01*
X0014778Y0188262D02*
X0012473Y0188262D01*
X0012820Y0188418D02*
X0014431Y0188418D01*
X0014095Y0191711D02*
X0014500Y0191809D01*
X0014877Y0191988D01*
X0015209Y0192241D01*
X0015481Y0192557D01*
X0015683Y0192922D01*
X0015805Y0193321D01*
X0015843Y0193737D01*
X0011512Y0193737D01*
X0011512Y0193540D01*
X0011598Y0193098D01*
X0015737Y0193098D01*
X0015785Y0193254D02*
X0011568Y0193254D01*
X0011598Y0193098D02*
X0011781Y0192687D01*
X0012050Y0192326D01*
X0012393Y0192034D01*
X0012792Y0191827D01*
X0013228Y0191713D01*
X0013678Y0191698D01*
X0014095Y0191711D01*
X0014587Y0191850D02*
X0012747Y0191850D01*
X0012448Y0192006D02*
X0014900Y0192006D01*
X0015105Y0192162D02*
X0012243Y0192162D01*
X0012060Y0192318D02*
X0015275Y0192318D01*
X0015409Y0192474D02*
X0011940Y0192474D01*
X0011823Y0192630D02*
X0015521Y0192630D01*
X0015608Y0192786D02*
X0011737Y0192786D01*
X0011668Y0192942D02*
X0015689Y0192942D01*
X0015813Y0193410D02*
X0011538Y0193410D01*
X0011512Y0193566D02*
X0015827Y0193566D01*
X0015842Y0193722D02*
X0011512Y0193722D01*
X0011512Y0194760D02*
X0011563Y0195207D01*
X0011711Y0195631D01*
X0011950Y0196012D01*
X0012268Y0196330D01*
X0012649Y0196569D01*
X0013073Y0196718D01*
X0013520Y0196768D01*
X0013678Y0196798D01*
X0013835Y0196768D01*
X0014282Y0196718D01*
X0014706Y0196569D01*
X0015087Y0196330D01*
X0015405Y0196012D01*
X0015644Y0195631D01*
X0015793Y0195207D01*
X0015843Y0194760D01*
X0011512Y0194760D01*
X0011518Y0194814D02*
X0015837Y0194814D01*
X0015819Y0194970D02*
X0011536Y0194970D01*
X0011553Y0195126D02*
X0015802Y0195126D01*
X0015766Y0195282D02*
X0011589Y0195282D01*
X0011643Y0195438D02*
X0015712Y0195438D01*
X0015657Y0195594D02*
X0011698Y0195594D01*
X0011785Y0195750D02*
X0015570Y0195750D01*
X0015472Y0195906D02*
X0011883Y0195906D01*
X0012000Y0196062D02*
X0015355Y0196062D01*
X0015199Y0196218D02*
X0012156Y0196218D01*
X0012338Y0196374D02*
X0015017Y0196374D01*
X0014769Y0196530D02*
X0012586Y0196530D01*
X0012982Y0196686D02*
X0014373Y0196686D01*
D25*
X0047922Y0100306D03*
X0053041Y0100306D03*
D26*
X0050481Y0108180D03*
D27*
X0070350Y0117467D03*
X0070350Y0127467D03*
X0070350Y0137467D03*
X0070350Y0147467D03*
X0070350Y0157467D03*
X0010350Y0157467D03*
X0010350Y0147467D03*
X0010350Y0137467D03*
X0010350Y0127467D03*
X0010350Y0117467D03*
D28*
X0010350Y0167467D03*
X0070350Y0167467D03*
D29*
X0054291Y0080510D03*
X0044252Y0080510D03*
X0036378Y0080510D03*
X0026338Y0080510D03*
D30*
X0017283Y0074211D02*
X0017283Y0067911D01*
X0063346Y0067911D02*
X0063346Y0074211D01*
D31*
X0067626Y0084380D03*
X0067626Y0095246D03*
D32*
X0075303Y0097490D03*
X0075303Y0082136D03*
D33*
X0072350Y0082431D03*
X0072350Y0097195D03*
D34*
X0014890Y0092331D03*
X0011150Y0092331D03*
X0007410Y0092331D03*
X0007410Y0082095D03*
X0014890Y0082095D03*
D35*
X0007250Y0074863D03*
X0007250Y0068367D03*
D36*
X0007019Y0103713D03*
X0015681Y0103713D03*
D37*
X0017350Y0113354D03*
X0017350Y0118472D03*
D38*
X0060904Y0183413D03*
X0067596Y0183413D03*
D39*
X0058050Y0202413D03*
D40*
X0061073Y0205790D02*
X0060864Y0206345D01*
X0060826Y0206385D01*
X0060805Y0206437D01*
X0060429Y0206813D01*
X0070550Y0206813D01*
X0070950Y0206413D01*
X0071250Y0206413D01*
X0076268Y0202148D01*
X0076350Y0201313D01*
X0076350Y0175159D01*
X0075645Y0175863D01*
X0071050Y0180459D01*
X0070532Y0180977D01*
X0070596Y0181042D01*
X0070596Y0185784D01*
X0069718Y0186663D01*
X0069414Y0186663D01*
X0069644Y0187217D01*
X0069644Y0188209D01*
X0069264Y0189126D01*
X0068563Y0189827D01*
X0067646Y0190207D01*
X0066654Y0190207D01*
X0065737Y0189827D01*
X0065036Y0189126D01*
X0064656Y0188209D01*
X0064656Y0187217D01*
X0065036Y0186300D01*
X0065074Y0186262D01*
X0064596Y0185784D01*
X0064596Y0181513D01*
X0063904Y0181513D01*
X0063904Y0185784D01*
X0063025Y0186663D01*
X0058782Y0186663D01*
X0058464Y0186345D01*
X0056150Y0188659D01*
X0056150Y0192997D01*
X0057186Y0194033D01*
X0058829Y0194033D01*
X0058854Y0194059D01*
X0062290Y0194059D01*
X0063169Y0194937D01*
X0063169Y0197952D01*
X0062488Y0198633D01*
X0062488Y0199066D01*
X0062300Y0199254D01*
X0062300Y0200322D01*
X0061824Y0201470D01*
X0061879Y0201648D01*
X0061794Y0201808D01*
X0061794Y0201830D01*
X0061847Y0202410D01*
X0061835Y0202424D01*
X0061857Y0202452D01*
X0061794Y0203014D01*
X0061794Y0203116D01*
X0061871Y0203276D01*
X0061794Y0203496D01*
X0061794Y0203579D01*
X0061750Y0203623D01*
X0061714Y0203725D01*
X0061683Y0204002D01*
X0061701Y0204082D01*
X0061668Y0204136D01*
X0061661Y0204198D01*
X0061596Y0204250D01*
X0061448Y0204485D01*
X0061356Y0204748D01*
X0061356Y0204831D01*
X0061311Y0204875D01*
X0061311Y0204876D01*
X0061320Y0205134D01*
X0061300Y0205186D01*
X0061300Y0205242D01*
X0061073Y0205790D01*
X0061086Y0205759D02*
X0072020Y0205759D01*
X0071316Y0206357D02*
X0060853Y0206357D01*
X0061310Y0205160D02*
X0072724Y0205160D01*
X0073428Y0204562D02*
X0061421Y0204562D01*
X0061687Y0203963D02*
X0074132Y0203963D01*
X0074836Y0203365D02*
X0061840Y0203365D01*
X0061822Y0202766D02*
X0075540Y0202766D01*
X0076245Y0202168D02*
X0061825Y0202168D01*
X0061855Y0201569D02*
X0076325Y0201569D01*
X0076350Y0200971D02*
X0062031Y0200971D01*
X0062279Y0200372D02*
X0076350Y0200372D01*
X0076350Y0199774D02*
X0062300Y0199774D01*
X0062379Y0199175D02*
X0076350Y0199175D01*
X0076350Y0198577D02*
X0062544Y0198577D01*
X0063142Y0197978D02*
X0076350Y0197978D01*
X0076350Y0197380D02*
X0063169Y0197380D01*
X0063169Y0196781D02*
X0076350Y0196781D01*
X0076350Y0196183D02*
X0063169Y0196183D01*
X0063169Y0195584D02*
X0076350Y0195584D01*
X0076350Y0194985D02*
X0063169Y0194985D01*
X0062619Y0194387D02*
X0076350Y0194387D01*
X0076350Y0193788D02*
X0056941Y0193788D01*
X0056343Y0193190D02*
X0076350Y0193190D01*
X0076350Y0192591D02*
X0056150Y0192591D01*
X0056150Y0191993D02*
X0076350Y0191993D01*
X0076350Y0191394D02*
X0056150Y0191394D01*
X0056150Y0190796D02*
X0076350Y0190796D01*
X0076350Y0190197D02*
X0067668Y0190197D01*
X0066632Y0190197D02*
X0056150Y0190197D01*
X0056150Y0189599D02*
X0065509Y0189599D01*
X0064984Y0189000D02*
X0056150Y0189000D01*
X0056407Y0188402D02*
X0064736Y0188402D01*
X0064656Y0187803D02*
X0057005Y0187803D01*
X0057604Y0187205D02*
X0064661Y0187205D01*
X0064909Y0186606D02*
X0063082Y0186606D01*
X0063680Y0186008D02*
X0064820Y0186008D01*
X0064596Y0185409D02*
X0063904Y0185409D01*
X0063904Y0184811D02*
X0064596Y0184811D01*
X0064596Y0184212D02*
X0063904Y0184212D01*
X0063904Y0183614D02*
X0064596Y0183614D01*
X0064596Y0183015D02*
X0063904Y0183015D01*
X0063904Y0182417D02*
X0064596Y0182417D01*
X0064596Y0181818D02*
X0063904Y0181818D01*
X0063550Y0176313D02*
X0056150Y0176313D01*
X0053350Y0173513D01*
X0033550Y0173513D01*
X0030850Y0176213D01*
X0030850Y0181711D01*
X0030850Y0186713D01*
X0030050Y0187513D01*
X0023607Y0187513D01*
X0022982Y0186889D01*
X0022982Y0185235D01*
X0020825Y0185235D01*
X0019824Y0186237D01*
X0019824Y0186696D01*
X0018177Y0188343D01*
X0018177Y0184642D02*
X0018921Y0184642D01*
X0024750Y0178813D01*
X0024750Y0171113D01*
X0024850Y0171013D01*
X0024635Y0168313D02*
X0025387Y0168313D01*
X0026379Y0168724D01*
X0027139Y0169484D01*
X0027550Y0170476D01*
X0027550Y0171550D01*
X0027139Y0172542D01*
X0026550Y0173131D01*
X0026550Y0179559D01*
X0025496Y0180613D01*
X0024052Y0182056D01*
X0024216Y0182075D01*
X0024297Y0182056D01*
X0024351Y0182090D01*
X0024413Y0182097D01*
X0024465Y0182162D01*
X0024700Y0182310D01*
X0024963Y0182401D01*
X0025046Y0182401D01*
X0025090Y0182446D01*
X0025150Y0182467D01*
X0025185Y0182541D01*
X0025382Y0182738D01*
X0025618Y0182886D01*
X0025698Y0182904D01*
X0025732Y0182958D01*
X0025785Y0182991D01*
X0025804Y0183072D01*
X0025952Y0183308D01*
X0026148Y0183504D01*
X0026223Y0183540D01*
X0026244Y0183600D01*
X0026288Y0183644D01*
X0026288Y0183727D01*
X0026380Y0183989D01*
X0026528Y0184225D01*
X0026593Y0184277D01*
X0026600Y0184339D01*
X0026633Y0184393D01*
X0026615Y0184473D01*
X0026646Y0184750D01*
X0026682Y0184852D01*
X0026726Y0184896D01*
X0026726Y0184979D01*
X0026803Y0185199D01*
X0026726Y0185359D01*
X0026726Y0185461D01*
X0026755Y0185713D01*
X0027350Y0185713D01*
X0027350Y0177420D01*
X0027350Y0177006D01*
X0027643Y0176713D01*
X0028214Y0176713D01*
X0028851Y0176077D01*
X0029050Y0176077D01*
X0029050Y0175467D01*
X0030104Y0174413D01*
X0031750Y0172767D01*
X0032804Y0171713D01*
X0051562Y0171713D01*
X0051051Y0171202D01*
X0051051Y0170867D01*
X0050570Y0171348D01*
X0044012Y0171348D01*
X0043133Y0170470D01*
X0043133Y0166366D01*
X0041503Y0164736D01*
X0041503Y0162699D01*
X0040727Y0163474D01*
X0034354Y0163474D01*
X0034354Y0163624D01*
X0033475Y0164503D01*
X0029870Y0164503D01*
X0029774Y0164406D01*
X0027264Y0164406D01*
X0027264Y0167228D01*
X0026385Y0168107D01*
X0024841Y0168107D01*
X0024635Y0168313D01*
X0024681Y0165721D02*
X0023758Y0165721D01*
X0022050Y0164013D01*
X0022050Y0160513D01*
X0024275Y0158288D01*
X0029475Y0158288D01*
X0032143Y0155619D01*
X0035429Y0152833D01*
X0035429Y0150242D01*
X0035429Y0146964D01*
X0038780Y0143613D01*
X0042650Y0143613D01*
X0044350Y0145313D01*
X0048850Y0145313D01*
X0051177Y0147640D01*
X0051177Y0150242D01*
X0051177Y0153489D01*
X0057007Y0159320D01*
X0057693Y0159320D01*
X0057693Y0163021D02*
X0057693Y0164632D01*
X0056750Y0165575D01*
X0056750Y0166013D01*
X0056731Y0165994D01*
X0053732Y0165994D01*
X0053732Y0163021D01*
X0050207Y0163021D01*
X0047291Y0160104D01*
X0045103Y0160272D02*
X0051149Y0160272D01*
X0051149Y0160827D02*
X0051149Y0159373D01*
X0050836Y0159060D01*
X0048492Y0156845D01*
X0048463Y0156845D01*
X0047953Y0156336D01*
X0047430Y0155841D01*
X0047429Y0155812D01*
X0047408Y0155791D01*
X0047408Y0155071D01*
X0047388Y0154351D01*
X0047408Y0154329D01*
X0047408Y0153711D01*
X0045103Y0153711D01*
X0045103Y0163245D01*
X0046466Y0164608D01*
X0050570Y0164608D01*
X0051448Y0165487D01*
X0051448Y0166178D01*
X0052261Y0166178D01*
X0053315Y0167233D01*
X0053392Y0167309D01*
X0055534Y0167309D01*
X0056413Y0168188D01*
X0056413Y0171202D01*
X0055534Y0172081D01*
X0054463Y0172081D01*
X0056896Y0174513D01*
X0061891Y0174513D01*
X0062046Y0174140D01*
X0062777Y0173409D01*
X0063733Y0173013D01*
X0064767Y0173013D01*
X0065723Y0173409D01*
X0066454Y0174140D01*
X0066850Y0175096D01*
X0066850Y0176113D01*
X0067804Y0176113D01*
X0069150Y0174767D01*
X0069150Y0172117D01*
X0066579Y0172117D01*
X0065700Y0171238D01*
X0065700Y0163696D01*
X0066094Y0163303D01*
X0055715Y0152924D01*
X0055489Y0153150D01*
X0055470Y0153150D01*
X0055135Y0153484D01*
X0053717Y0153484D01*
X0057167Y0156934D01*
X0059496Y0156934D01*
X0060374Y0157813D01*
X0060374Y0160827D01*
X0059496Y0161706D01*
X0055891Y0161706D01*
X0055663Y0161478D01*
X0055436Y0161706D01*
X0052028Y0161706D01*
X0051149Y0160827D01*
X0051192Y0160870D02*
X0045103Y0160870D01*
X0045103Y0161469D02*
X0051791Y0161469D01*
X0051149Y0159673D02*
X0045103Y0159673D01*
X0045103Y0159075D02*
X0050851Y0159075D01*
X0050218Y0158476D02*
X0045103Y0158476D01*
X0045103Y0157878D02*
X0049585Y0157878D01*
X0048952Y0157279D02*
X0045103Y0157279D01*
X0045103Y0156681D02*
X0048298Y0156681D01*
X0047685Y0156082D02*
X0045103Y0156082D01*
X0045103Y0155484D02*
X0047408Y0155484D01*
X0047403Y0154885D02*
X0045103Y0154885D01*
X0045103Y0154287D02*
X0047408Y0154287D01*
X0049208Y0155045D02*
X0049208Y0150242D01*
X0049208Y0155045D02*
X0052091Y0157770D01*
X0053642Y0159320D01*
X0053732Y0159320D01*
X0055717Y0155484D02*
X0058275Y0155484D01*
X0058874Y0156082D02*
X0056315Y0156082D01*
X0056914Y0156681D02*
X0059472Y0156681D01*
X0059841Y0157279D02*
X0060071Y0157279D01*
X0060374Y0157878D02*
X0060669Y0157878D01*
X0060374Y0158476D02*
X0061268Y0158476D01*
X0061866Y0159075D02*
X0060374Y0159075D01*
X0060374Y0159673D02*
X0062465Y0159673D01*
X0063063Y0160272D02*
X0060374Y0160272D01*
X0060331Y0160870D02*
X0063662Y0160870D01*
X0064260Y0161469D02*
X0059733Y0161469D01*
X0057677Y0154885D02*
X0055118Y0154885D01*
X0054520Y0154287D02*
X0057078Y0154287D01*
X0056480Y0153688D02*
X0053921Y0153688D01*
X0055549Y0153090D02*
X0055881Y0153090D01*
X0059143Y0147786D02*
X0059143Y0146820D01*
X0060150Y0145813D01*
X0060150Y0144513D01*
X0059383Y0143746D01*
X0057673Y0143746D01*
X0057440Y0143513D01*
X0053950Y0143513D01*
X0051550Y0141113D01*
X0051550Y0135313D01*
X0045450Y0129213D01*
X0039880Y0129213D01*
X0037650Y0126983D01*
X0037650Y0123913D01*
X0047750Y0123913D01*
X0051177Y0120486D01*
X0051177Y0115596D01*
X0051177Y0111653D01*
X0050481Y0110957D01*
X0050481Y0108180D01*
X0048241Y0111013D02*
X0048241Y0112128D01*
X0048393Y0112128D01*
X0049208Y0112944D01*
X0049377Y0112775D01*
X0049377Y0112398D01*
X0048681Y0111703D01*
X0048681Y0111452D01*
X0048679Y0111452D01*
X0048241Y0111013D01*
X0048241Y0111194D02*
X0048421Y0111194D01*
X0048241Y0111792D02*
X0048771Y0111792D01*
X0048650Y0111813D02*
X0049208Y0112371D01*
X0049208Y0115596D01*
X0051177Y0115596D02*
X0051177Y0116813D01*
X0051752Y0117388D01*
X0055875Y0117443D01*
X0053746Y0115383D02*
X0053208Y0115383D01*
X0053208Y0115607D02*
X0053519Y0115611D01*
X0054368Y0114762D01*
X0057382Y0114762D01*
X0058261Y0115640D01*
X0058261Y0119245D01*
X0057445Y0120061D01*
X0059428Y0120061D01*
X0060104Y0119385D01*
X0060437Y0119052D01*
X0060437Y0118407D01*
X0060781Y0118064D01*
X0060437Y0117721D01*
X0060437Y0114707D01*
X0061316Y0113828D01*
X0061741Y0113828D01*
X0061741Y0113386D01*
X0058792Y0113386D01*
X0058207Y0112800D01*
X0057492Y0112800D01*
X0056601Y0111910D01*
X0056599Y0111913D01*
X0052977Y0111913D01*
X0052977Y0112775D01*
X0053208Y0113007D01*
X0053208Y0115607D01*
X0053208Y0114785D02*
X0054345Y0114785D01*
X0053208Y0114186D02*
X0060958Y0114186D01*
X0060437Y0114785D02*
X0057405Y0114785D01*
X0058004Y0115383D02*
X0060437Y0115383D01*
X0060437Y0115982D02*
X0058261Y0115982D01*
X0058261Y0116580D02*
X0060437Y0116580D01*
X0060437Y0117179D02*
X0058261Y0117179D01*
X0058261Y0117778D02*
X0060494Y0117778D01*
X0060469Y0118376D02*
X0058261Y0118376D01*
X0058261Y0118975D02*
X0060437Y0118975D01*
X0059916Y0119573D02*
X0057933Y0119573D01*
X0057673Y0122093D02*
X0051770Y0122093D01*
X0047950Y0125913D01*
X0041950Y0125913D01*
X0040750Y0127113D01*
X0042250Y0130913D02*
X0044874Y0133537D01*
X0044874Y0137389D01*
X0064951Y0157467D01*
X0070350Y0157467D01*
X0074900Y0162017D01*
X0074900Y0174063D01*
X0069250Y0179713D01*
X0052848Y0179713D01*
X0050850Y0181711D01*
X0054750Y0177913D02*
X0052750Y0175913D01*
X0047550Y0175913D01*
X0046350Y0177113D01*
X0046350Y0181211D01*
X0045850Y0181711D01*
X0048350Y0186844D02*
X0047849Y0187344D01*
X0043851Y0187344D01*
X0043350Y0186844D01*
X0042849Y0187344D01*
X0038851Y0187344D01*
X0038350Y0186844D01*
X0037849Y0187344D01*
X0037164Y0187344D01*
X0034396Y0190113D01*
X0034696Y0190113D01*
X0035750Y0191167D01*
X0036407Y0191825D01*
X0037849Y0191825D01*
X0038637Y0192613D01*
X0048063Y0192613D01*
X0048851Y0191825D01*
X0052550Y0191825D01*
X0052550Y0187344D01*
X0048851Y0187344D01*
X0048350Y0186844D01*
X0047989Y0187205D02*
X0048711Y0187205D01*
X0048683Y0191993D02*
X0038017Y0191993D01*
X0038616Y0192591D02*
X0048084Y0192591D01*
X0043711Y0187205D02*
X0042989Y0187205D01*
X0040850Y0181711D02*
X0040850Y0177911D01*
X0040550Y0177611D01*
X0040550Y0175713D01*
X0043133Y0170447D02*
X0027538Y0170447D01*
X0027550Y0171045D02*
X0043709Y0171045D01*
X0043133Y0169848D02*
X0027290Y0169848D01*
X0026905Y0169249D02*
X0043133Y0169249D01*
X0043133Y0168651D02*
X0026203Y0168651D01*
X0026440Y0168052D02*
X0043133Y0168052D01*
X0043133Y0167454D02*
X0027038Y0167454D01*
X0027264Y0166855D02*
X0043133Y0166855D01*
X0043024Y0166257D02*
X0027264Y0166257D01*
X0027264Y0165658D02*
X0042425Y0165658D01*
X0041827Y0165060D02*
X0027264Y0165060D01*
X0027264Y0164461D02*
X0029829Y0164461D01*
X0028228Y0165721D02*
X0029550Y0167043D01*
X0029550Y0168413D01*
X0028228Y0165721D02*
X0031576Y0165721D01*
X0031673Y0165818D01*
X0034233Y0167978D01*
X0037448Y0167978D01*
X0037814Y0167613D01*
X0041950Y0167613D01*
X0041503Y0164461D02*
X0033517Y0164461D01*
X0034115Y0163863D02*
X0041503Y0163863D01*
X0041503Y0163264D02*
X0040937Y0163264D01*
X0043303Y0163990D02*
X0047291Y0167978D01*
X0051515Y0167978D01*
X0053232Y0169695D01*
X0053732Y0169695D01*
X0053315Y0167233D02*
X0053315Y0167233D01*
X0052938Y0166855D02*
X0065700Y0166855D01*
X0065700Y0166257D02*
X0052340Y0166257D01*
X0051448Y0165658D02*
X0065700Y0165658D01*
X0065700Y0165060D02*
X0051021Y0165060D01*
X0051051Y0171045D02*
X0050873Y0171045D01*
X0051492Y0171644D02*
X0027511Y0171644D01*
X0027263Y0172242D02*
X0032275Y0172242D01*
X0031677Y0172841D02*
X0026841Y0172841D01*
X0026550Y0173439D02*
X0031078Y0173439D01*
X0030480Y0174038D02*
X0026550Y0174038D01*
X0026550Y0174636D02*
X0029881Y0174636D01*
X0029283Y0175235D02*
X0026550Y0175235D01*
X0026550Y0175833D02*
X0029050Y0175833D01*
X0028496Y0176432D02*
X0026550Y0176432D01*
X0026550Y0177030D02*
X0027350Y0177030D01*
X0027350Y0177629D02*
X0026550Y0177629D01*
X0026550Y0178227D02*
X0027350Y0178227D01*
X0027350Y0178826D02*
X0026550Y0178826D01*
X0026550Y0179424D02*
X0027350Y0179424D01*
X0027350Y0180023D02*
X0026086Y0180023D01*
X0025487Y0180621D02*
X0027350Y0180621D01*
X0027350Y0181220D02*
X0024889Y0181220D01*
X0024290Y0181818D02*
X0027350Y0181818D01*
X0027350Y0182417D02*
X0025061Y0182417D01*
X0025791Y0183015D02*
X0027350Y0183015D01*
X0027350Y0183614D02*
X0026258Y0183614D01*
X0026520Y0184212D02*
X0027350Y0184212D01*
X0027350Y0184811D02*
X0026668Y0184811D01*
X0026726Y0185409D02*
X0027350Y0185409D01*
X0027650Y0193713D02*
X0027650Y0201863D01*
X0015618Y0201863D01*
X0016039Y0201442D01*
X0016450Y0200450D01*
X0016450Y0199376D01*
X0016039Y0198384D01*
X0015588Y0197933D01*
X0015658Y0197909D01*
X0015741Y0197909D01*
X0015785Y0197864D01*
X0015845Y0197843D01*
X0015881Y0197769D01*
X0016077Y0197572D01*
X0016313Y0197424D01*
X0016394Y0197406D01*
X0016427Y0197352D01*
X0016481Y0197319D01*
X0016499Y0197238D01*
X0016647Y0197003D01*
X0016844Y0196806D01*
X0016918Y0196770D01*
X0016939Y0196711D01*
X0016984Y0196666D01*
X0016984Y0196583D01*
X0017075Y0196321D01*
X0017223Y0196085D01*
X0017288Y0196034D01*
X0017295Y0195971D01*
X0017329Y0195918D01*
X0017310Y0195837D01*
X0017341Y0195561D01*
X0017377Y0195459D01*
X0017422Y0195414D01*
X0017422Y0195331D01*
X0017499Y0195111D01*
X0017422Y0194951D01*
X0017422Y0194849D01*
X0017485Y0194287D01*
X0017463Y0194259D01*
X0017474Y0194245D01*
X0017426Y0193713D01*
X0027650Y0193713D01*
X0027650Y0193788D02*
X0017433Y0193788D01*
X0017474Y0194387D02*
X0027650Y0194387D01*
X0027650Y0194985D02*
X0017438Y0194985D01*
X0017339Y0195584D02*
X0027650Y0195584D01*
X0027650Y0196183D02*
X0017162Y0196183D01*
X0016895Y0196781D02*
X0027650Y0196781D01*
X0027650Y0197380D02*
X0016410Y0197380D01*
X0015633Y0197978D02*
X0027650Y0197978D01*
X0027650Y0198577D02*
X0016119Y0198577D01*
X0016367Y0199175D02*
X0027650Y0199175D01*
X0027650Y0199774D02*
X0016450Y0199774D01*
X0016450Y0200372D02*
X0027650Y0200372D01*
X0027650Y0200971D02*
X0016234Y0200971D01*
X0015912Y0201569D02*
X0027650Y0201569D01*
X0031650Y0190313D02*
X0014850Y0190313D01*
X0013626Y0189089D01*
X0013626Y0186846D01*
X0013626Y0185193D02*
X0013626Y0184537D01*
X0015750Y0182413D01*
X0018450Y0182413D01*
X0021250Y0179013D01*
X0018550Y0175513D02*
X0017150Y0174113D01*
X0015250Y0174113D01*
X0014850Y0174513D01*
X0017150Y0174113D02*
X0017150Y0172413D01*
X0017650Y0171913D01*
X0020150Y0171913D01*
X0019750Y0169313D01*
X0019150Y0168713D01*
X0016750Y0168713D01*
X0016150Y0169313D01*
X0017150Y0170313D01*
X0017150Y0172413D01*
X0019150Y0168713D02*
X0021689Y0168713D01*
X0024681Y0165721D01*
X0024681Y0162020D02*
X0028228Y0162020D01*
X0031360Y0158888D01*
X0032525Y0158888D01*
X0034499Y0156913D01*
X0038150Y0156913D01*
X0039366Y0155697D01*
X0039366Y0150242D01*
X0039366Y0145997D01*
X0039650Y0145713D01*
X0036980Y0142867D02*
X0038035Y0141813D01*
X0043396Y0141813D01*
X0044196Y0142613D01*
X0044887Y0142613D01*
X0045770Y0142979D01*
X0041704Y0138913D01*
X0037204Y0138913D01*
X0036150Y0137859D01*
X0031614Y0133322D01*
X0031614Y0128628D01*
X0031250Y0127750D01*
X0031250Y0126676D01*
X0031649Y0125713D01*
X0028625Y0125713D01*
X0027570Y0124659D01*
X0026804Y0123893D01*
X0025848Y0123893D01*
X0025680Y0124061D01*
X0026496Y0124877D01*
X0026496Y0125513D01*
X0026757Y0125513D01*
X0027050Y0125806D01*
X0027750Y0126506D01*
X0027750Y0133470D01*
X0028447Y0134167D01*
X0032523Y0138244D01*
X0032523Y0143110D01*
X0034630Y0145217D01*
X0034683Y0145164D01*
X0036980Y0142867D01*
X0036980Y0142867D01*
X0036933Y0142915D02*
X0032523Y0142915D01*
X0032523Y0142316D02*
X0037531Y0142316D01*
X0036334Y0143514D02*
X0032926Y0143514D01*
X0033525Y0144112D02*
X0035736Y0144112D01*
X0035137Y0144711D02*
X0034123Y0144711D01*
X0034683Y0145164D02*
X0034683Y0145164D01*
X0033460Y0146593D02*
X0033460Y0150242D01*
X0033460Y0146593D02*
X0030723Y0143856D01*
X0030723Y0138989D01*
X0026647Y0134913D01*
X0013523Y0134913D01*
X0012027Y0133417D01*
X0011054Y0133417D01*
X0010350Y0132713D01*
X0010350Y0127467D01*
X0008550Y0131754D02*
X0007716Y0131409D01*
X0006408Y0130101D01*
X0005700Y0128392D01*
X0005700Y0126542D01*
X0006408Y0124833D01*
X0007716Y0123525D01*
X0009425Y0122817D01*
X0011275Y0122817D01*
X0011650Y0122973D01*
X0011650Y0120609D01*
X0012646Y0119613D01*
X0013650Y0118609D01*
X0013650Y0116609D01*
X0014541Y0115718D01*
X0014177Y0115353D01*
X0014177Y0115244D01*
X0013046Y0114113D01*
X0012050Y0113117D01*
X0012050Y0098909D01*
X0012150Y0098809D01*
X0012606Y0098353D01*
X0012606Y0097777D01*
X0013485Y0096898D01*
X0016767Y0096898D01*
X0016767Y0096754D01*
X0016207Y0096193D01*
X0013186Y0096193D01*
X0012307Y0095315D01*
X0012307Y0089348D01*
X0013186Y0088469D01*
X0016160Y0088469D01*
X0013648Y0085957D01*
X0013186Y0085957D01*
X0012307Y0085078D01*
X0012307Y0084001D01*
X0012050Y0084259D01*
X0010996Y0085313D01*
X0009758Y0085313D01*
X0009114Y0085957D01*
X0005706Y0085957D01*
X0005062Y0085313D01*
X0004550Y0085313D01*
X0004550Y0088213D01*
X0006599Y0088213D01*
X0006854Y0088469D01*
X0009114Y0088469D01*
X0009993Y0089348D01*
X0009993Y0091380D01*
X0010160Y0091784D01*
X0010160Y0103869D01*
X0010094Y0104028D01*
X0010094Y0109649D01*
X0009215Y0110528D01*
X0004823Y0110528D01*
X0004550Y0110255D01*
X0004550Y0163913D01*
X0005700Y0163913D01*
X0005700Y0163696D01*
X0006579Y0162817D01*
X0014121Y0162817D01*
X0015000Y0163696D01*
X0015000Y0165113D01*
X0020346Y0165113D01*
X0020475Y0164984D01*
X0020250Y0164759D01*
X0020250Y0159767D01*
X0021304Y0158713D01*
X0022475Y0157542D01*
X0023530Y0156488D01*
X0028729Y0156488D01*
X0029757Y0155460D01*
X0029757Y0155313D01*
X0015050Y0155313D01*
X0014654Y0155708D01*
X0015000Y0156542D01*
X0015000Y0158392D01*
X0014292Y0160101D01*
X0012984Y0161409D01*
X0011275Y0162117D01*
X0009425Y0162117D01*
X0007716Y0161409D01*
X0006408Y0160101D01*
X0005700Y0158392D01*
X0005700Y0156542D01*
X0006408Y0154833D01*
X0007716Y0153525D01*
X0009425Y0152817D01*
X0011275Y0152817D01*
X0012109Y0153163D01*
X0012504Y0152767D01*
X0013558Y0151713D01*
X0020950Y0151713D01*
X0020950Y0150876D01*
X0021361Y0149884D01*
X0022121Y0149124D01*
X0023113Y0148713D01*
X0024187Y0148713D01*
X0025179Y0149124D01*
X0025668Y0149613D01*
X0027492Y0149613D01*
X0027492Y0147652D01*
X0027723Y0147421D01*
X0027723Y0146513D01*
X0026853Y0146513D01*
X0025934Y0146132D01*
X0025579Y0145778D01*
X0020437Y0145778D01*
X0020206Y0145546D01*
X0014817Y0145546D01*
X0014654Y0145708D01*
X0015000Y0146542D01*
X0015000Y0148392D01*
X0014292Y0150101D01*
X0012984Y0151409D01*
X0011275Y0152117D01*
X0009425Y0152117D01*
X0007716Y0151409D01*
X0006408Y0150101D01*
X0005700Y0148392D01*
X0005700Y0146542D01*
X0006408Y0144833D01*
X0007716Y0143525D01*
X0009425Y0142817D01*
X0011275Y0142817D01*
X0012109Y0143163D01*
X0013250Y0142021D01*
X0013250Y0141142D01*
X0012984Y0141409D01*
X0011275Y0142117D01*
X0009425Y0142117D01*
X0007716Y0141409D01*
X0006408Y0140101D01*
X0005700Y0138392D01*
X0005700Y0136542D01*
X0006408Y0134833D01*
X0007716Y0133525D01*
X0008550Y0133180D01*
X0008550Y0131754D01*
X0008550Y0132142D02*
X0004550Y0132142D01*
X0004550Y0132740D02*
X0008550Y0132740D01*
X0008166Y0133339D02*
X0004550Y0133339D01*
X0004550Y0133937D02*
X0007304Y0133937D01*
X0006706Y0134536D02*
X0004550Y0134536D01*
X0004550Y0135134D02*
X0006284Y0135134D01*
X0006036Y0135733D02*
X0004550Y0135733D01*
X0004550Y0136331D02*
X0005788Y0136331D01*
X0005700Y0136930D02*
X0004550Y0136930D01*
X0004550Y0137528D02*
X0005700Y0137528D01*
X0005700Y0138127D02*
X0004550Y0138127D01*
X0004550Y0138725D02*
X0005839Y0138725D01*
X0006086Y0139324D02*
X0004550Y0139324D01*
X0004550Y0139922D02*
X0006334Y0139922D01*
X0006828Y0140521D02*
X0004550Y0140521D01*
X0004550Y0141119D02*
X0007427Y0141119D01*
X0008463Y0141718D02*
X0004550Y0141718D01*
X0004550Y0142316D02*
X0012955Y0142316D01*
X0013250Y0141718D02*
X0012237Y0141718D01*
X0012356Y0142915D02*
X0011511Y0142915D01*
X0014071Y0143746D02*
X0010350Y0147467D01*
X0008885Y0151893D02*
X0004550Y0151893D01*
X0004550Y0152491D02*
X0012780Y0152491D01*
X0012182Y0153090D02*
X0011932Y0153090D01*
X0011815Y0151893D02*
X0013379Y0151893D01*
X0013098Y0151294D02*
X0020950Y0151294D01*
X0021025Y0150696D02*
X0013697Y0150696D01*
X0014293Y0150097D02*
X0021273Y0150097D01*
X0021746Y0149499D02*
X0014541Y0149499D01*
X0014789Y0148900D02*
X0022661Y0148900D01*
X0023650Y0151413D02*
X0028352Y0151413D01*
X0029523Y0150242D01*
X0029523Y0139486D01*
X0026250Y0136213D01*
X0020350Y0136213D01*
X0019096Y0137467D01*
X0010350Y0137467D01*
X0009189Y0142915D02*
X0004550Y0142915D01*
X0004550Y0143514D02*
X0007745Y0143514D01*
X0007129Y0144112D02*
X0004550Y0144112D01*
X0004550Y0144711D02*
X0006531Y0144711D01*
X0006211Y0145309D02*
X0004550Y0145309D01*
X0004550Y0145908D02*
X0005963Y0145908D01*
X0005715Y0146506D02*
X0004550Y0146506D01*
X0004550Y0147105D02*
X0005700Y0147105D01*
X0005700Y0147703D02*
X0004550Y0147703D01*
X0004550Y0148302D02*
X0005700Y0148302D01*
X0005911Y0148900D02*
X0004550Y0148900D01*
X0004550Y0149499D02*
X0006159Y0149499D01*
X0006407Y0150097D02*
X0004550Y0150097D01*
X0004550Y0150696D02*
X0007003Y0150696D01*
X0007602Y0151294D02*
X0004550Y0151294D01*
X0004550Y0153090D02*
X0008768Y0153090D01*
X0007553Y0153688D02*
X0004550Y0153688D01*
X0004550Y0154287D02*
X0006955Y0154287D01*
X0006387Y0154885D02*
X0004550Y0154885D01*
X0004550Y0155484D02*
X0006139Y0155484D01*
X0005891Y0156082D02*
X0004550Y0156082D01*
X0004550Y0156681D02*
X0005700Y0156681D01*
X0005700Y0157279D02*
X0004550Y0157279D01*
X0004550Y0157878D02*
X0005700Y0157878D01*
X0005735Y0158476D02*
X0004550Y0158476D01*
X0004550Y0159075D02*
X0005983Y0159075D01*
X0006231Y0159673D02*
X0004550Y0159673D01*
X0004550Y0160272D02*
X0006579Y0160272D01*
X0007178Y0160870D02*
X0004550Y0160870D01*
X0004550Y0161469D02*
X0007861Y0161469D01*
X0009306Y0162067D02*
X0004550Y0162067D01*
X0004550Y0162666D02*
X0020250Y0162666D01*
X0020250Y0163264D02*
X0014568Y0163264D01*
X0015000Y0163863D02*
X0020250Y0163863D01*
X0020250Y0164461D02*
X0015000Y0164461D01*
X0015000Y0165060D02*
X0020399Y0165060D01*
X0020250Y0162067D02*
X0011394Y0162067D01*
X0012839Y0161469D02*
X0020250Y0161469D01*
X0020250Y0160870D02*
X0013522Y0160870D01*
X0014121Y0160272D02*
X0020250Y0160272D01*
X0020344Y0159673D02*
X0014469Y0159673D01*
X0014717Y0159075D02*
X0020943Y0159075D01*
X0021541Y0158476D02*
X0014965Y0158476D01*
X0015000Y0157878D02*
X0022140Y0157878D01*
X0022738Y0157279D02*
X0015000Y0157279D01*
X0015000Y0156681D02*
X0023337Y0156681D01*
X0025150Y0155713D02*
X0025244Y0155619D01*
X0028442Y0155619D01*
X0029134Y0156082D02*
X0014809Y0156082D01*
X0014879Y0155484D02*
X0029733Y0155484D01*
X0030375Y0153513D02*
X0014304Y0153513D01*
X0010350Y0157467D01*
X0006132Y0163264D02*
X0004550Y0163264D01*
X0004550Y0163863D02*
X0005700Y0163863D01*
X0014071Y0143746D02*
X0023027Y0143746D01*
X0023027Y0141778D02*
X0025550Y0141778D01*
X0027350Y0143578D01*
X0027350Y0144013D01*
X0026836Y0146506D02*
X0014985Y0146506D01*
X0015000Y0147105D02*
X0027723Y0147105D01*
X0027492Y0147703D02*
X0015000Y0147703D01*
X0015000Y0148302D02*
X0027492Y0148302D01*
X0027492Y0148900D02*
X0024639Y0148900D01*
X0025554Y0149499D02*
X0027492Y0149499D01*
X0025709Y0145908D02*
X0014737Y0145908D01*
X0015750Y0133713D02*
X0029150Y0133713D01*
X0029550Y0134113D01*
X0028816Y0134536D02*
X0032827Y0134536D01*
X0032229Y0133937D02*
X0028217Y0133937D01*
X0027750Y0133339D02*
X0031630Y0133339D01*
X0031614Y0132740D02*
X0027750Y0132740D01*
X0027750Y0132142D02*
X0031614Y0132142D01*
X0031614Y0131543D02*
X0027750Y0131543D01*
X0027750Y0130945D02*
X0031614Y0130945D01*
X0031614Y0130346D02*
X0027750Y0130346D01*
X0027750Y0129748D02*
X0031614Y0129748D01*
X0031614Y0129149D02*
X0027750Y0129149D01*
X0027750Y0128551D02*
X0031582Y0128551D01*
X0031334Y0127952D02*
X0027750Y0127952D01*
X0027750Y0127354D02*
X0031250Y0127354D01*
X0031250Y0126755D02*
X0027750Y0126755D01*
X0027401Y0126157D02*
X0031465Y0126157D01*
X0033414Y0127749D02*
X0033414Y0132577D01*
X0037950Y0137113D01*
X0042450Y0137113D01*
X0070350Y0165013D01*
X0070350Y0167467D01*
X0070950Y0168067D01*
X0070950Y0175513D01*
X0068550Y0177913D01*
X0054750Y0177913D01*
X0056420Y0174038D02*
X0062148Y0174038D01*
X0062747Y0173439D02*
X0055822Y0173439D01*
X0055223Y0172841D02*
X0069150Y0172841D01*
X0069150Y0173439D02*
X0065753Y0173439D01*
X0066352Y0174038D02*
X0069150Y0174038D01*
X0069150Y0174636D02*
X0066660Y0174636D01*
X0066850Y0175235D02*
X0068683Y0175235D01*
X0068084Y0175833D02*
X0066850Y0175833D01*
X0066106Y0171644D02*
X0055971Y0171644D01*
X0056413Y0171045D02*
X0065700Y0171045D01*
X0065700Y0170447D02*
X0056413Y0170447D01*
X0056413Y0169848D02*
X0065700Y0169848D01*
X0065700Y0169249D02*
X0056413Y0169249D01*
X0056413Y0168651D02*
X0065700Y0168651D01*
X0065700Y0168052D02*
X0056278Y0168052D01*
X0055679Y0167454D02*
X0065700Y0167454D01*
X0065700Y0164461D02*
X0046320Y0164461D01*
X0045721Y0163863D02*
X0065700Y0163863D01*
X0066056Y0163264D02*
X0045123Y0163264D01*
X0045103Y0162666D02*
X0065457Y0162666D01*
X0064859Y0162067D02*
X0045103Y0162067D01*
X0043303Y0163990D02*
X0043303Y0150242D01*
X0041334Y0150242D02*
X0041334Y0156219D01*
X0037448Y0160104D01*
X0034850Y0160104D01*
X0033596Y0161359D01*
X0032431Y0161359D01*
X0031673Y0162117D01*
X0030375Y0153513D02*
X0031492Y0152396D01*
X0031492Y0150242D01*
X0032523Y0141718D02*
X0044509Y0141718D01*
X0043911Y0141119D02*
X0032523Y0141119D01*
X0032523Y0140521D02*
X0043312Y0140521D01*
X0042714Y0139922D02*
X0032523Y0139922D01*
X0032523Y0139324D02*
X0042115Y0139324D01*
X0043899Y0142316D02*
X0045108Y0142316D01*
X0045616Y0142915D02*
X0045706Y0142915D01*
X0049750Y0139720D02*
X0046674Y0136644D01*
X0046674Y0134282D01*
X0046674Y0132982D01*
X0049750Y0136059D01*
X0049750Y0139720D01*
X0049750Y0139324D02*
X0049354Y0139324D01*
X0049750Y0138725D02*
X0048755Y0138725D01*
X0048157Y0138127D02*
X0049750Y0138127D01*
X0049750Y0137528D02*
X0047558Y0137528D01*
X0046960Y0136930D02*
X0049750Y0136930D01*
X0049750Y0136331D02*
X0046674Y0136331D01*
X0046674Y0135733D02*
X0049424Y0135733D01*
X0048826Y0135134D02*
X0046674Y0135134D01*
X0046674Y0134536D02*
X0048227Y0134536D01*
X0047629Y0133937D02*
X0046674Y0133937D01*
X0046674Y0133339D02*
X0047030Y0133339D01*
X0048530Y0129748D02*
X0053250Y0129748D01*
X0053250Y0130346D02*
X0049129Y0130346D01*
X0049727Y0130945D02*
X0053250Y0130945D01*
X0053250Y0131543D02*
X0050326Y0131543D01*
X0050924Y0132142D02*
X0053250Y0132142D01*
X0053250Y0132740D02*
X0051523Y0132740D01*
X0052121Y0133339D02*
X0053250Y0133339D01*
X0053250Y0133937D02*
X0052720Y0133937D01*
X0053250Y0134467D02*
X0053250Y0123893D01*
X0052516Y0123893D01*
X0049750Y0126659D01*
X0048696Y0127713D01*
X0046496Y0127713D01*
X0047250Y0128467D01*
X0053250Y0134467D01*
X0053250Y0129149D02*
X0047932Y0129149D01*
X0047333Y0128551D02*
X0053250Y0128551D01*
X0053250Y0127952D02*
X0046735Y0127952D01*
X0049055Y0127354D02*
X0053250Y0127354D01*
X0053250Y0126755D02*
X0049653Y0126755D01*
X0050252Y0126157D02*
X0053250Y0126157D01*
X0053250Y0125558D02*
X0050850Y0125558D01*
X0051449Y0124960D02*
X0053250Y0124960D01*
X0053250Y0124361D02*
X0052047Y0124361D01*
X0053208Y0113588D02*
X0061741Y0113588D01*
X0060508Y0111012D02*
X0063941Y0111012D01*
X0063541Y0111412D01*
X0063541Y0114693D01*
X0063020Y0115213D01*
X0063020Y0116214D01*
X0063020Y0119915D02*
X0062120Y0119915D01*
X0060850Y0121185D01*
X0060850Y0123313D01*
X0060102Y0124061D01*
X0057673Y0124061D01*
X0059576Y0117443D02*
X0059601Y0117441D01*
X0059625Y0117436D01*
X0059648Y0117427D01*
X0059670Y0117415D01*
X0059690Y0117401D01*
X0059708Y0117383D01*
X0059722Y0117363D01*
X0059734Y0117341D01*
X0059743Y0117318D01*
X0059748Y0117294D01*
X0059750Y0117269D01*
X0059750Y0114113D01*
X0060508Y0111012D02*
X0060496Y0111000D01*
X0058237Y0111000D01*
X0056050Y0108813D01*
X0056050Y0105413D01*
X0054150Y0103513D01*
X0050522Y0103513D01*
X0047922Y0100913D01*
X0047922Y0100306D01*
X0046550Y0097213D02*
X0044739Y0099024D01*
X0044739Y0103020D01*
X0043457Y0104302D01*
X0040851Y0104302D01*
X0035548Y0098999D01*
X0035548Y0096997D01*
X0033684Y0099224D02*
X0031478Y0099224D01*
X0031452Y0099249D02*
X0027848Y0099249D01*
X0027751Y0099152D01*
X0027654Y0099249D01*
X0024246Y0099249D01*
X0023367Y0098371D01*
X0023367Y0096848D01*
X0021933Y0096848D01*
X0021933Y0097000D01*
X0022984Y0098052D01*
X0022984Y0098870D01*
X0023479Y0098870D01*
X0024357Y0099749D01*
X0024357Y0106110D01*
X0023650Y0106817D01*
X0023650Y0115787D01*
X0026503Y0115787D01*
X0027285Y0116570D01*
X0027492Y0116570D01*
X0027492Y0113007D01*
X0028370Y0112128D01*
X0029692Y0112128D01*
X0029692Y0110926D01*
X0030182Y0110435D01*
X0029934Y0110332D01*
X0029231Y0109629D01*
X0028850Y0108710D01*
X0028850Y0107716D01*
X0029231Y0106797D01*
X0029934Y0106094D01*
X0030853Y0105713D01*
X0031304Y0105713D01*
X0031839Y0105178D01*
X0031839Y0105018D01*
X0032296Y0104562D01*
X0032150Y0104210D01*
X0032150Y0103216D01*
X0032531Y0102297D01*
X0033234Y0101594D01*
X0034153Y0101213D01*
X0035147Y0101213D01*
X0035265Y0101262D01*
X0033748Y0099745D01*
X0033748Y0099287D01*
X0032965Y0098504D01*
X0032965Y0095490D01*
X0033308Y0095147D01*
X0032965Y0094804D01*
X0032965Y0091789D01*
X0033844Y0090911D01*
X0037252Y0090911D01*
X0037336Y0090995D01*
X0037367Y0090963D01*
X0037700Y0090963D01*
X0037700Y0087209D01*
X0037029Y0086537D01*
X0033886Y0086537D01*
X0033007Y0085659D01*
X0033007Y0075361D01*
X0033886Y0074482D01*
X0038869Y0074482D01*
X0039200Y0074813D01*
X0041429Y0074813D01*
X0041760Y0074482D01*
X0046743Y0074482D01*
X0047622Y0075361D01*
X0047622Y0085659D01*
X0046743Y0086537D01*
X0043271Y0086537D01*
X0042854Y0086955D01*
X0042854Y0090908D01*
X0044193Y0090908D01*
X0045071Y0091787D01*
X0045071Y0094801D01*
X0044728Y0095144D01*
X0045071Y0095488D01*
X0045071Y0096146D01*
X0045804Y0095413D01*
X0050693Y0095413D01*
X0051748Y0096467D01*
X0052163Y0096883D01*
X0052163Y0095629D01*
X0051837Y0094840D01*
X0051837Y0092649D01*
X0051366Y0092183D01*
X0051364Y0092177D01*
X0051359Y0092172D01*
X0051095Y0091534D01*
X0050829Y0090898D01*
X0050829Y0090892D01*
X0050826Y0090886D01*
X0050826Y0090196D01*
X0050788Y0079826D01*
X0050921Y0079503D01*
X0050921Y0075361D01*
X0051800Y0074482D01*
X0056782Y0074482D01*
X0057661Y0075361D01*
X0057661Y0079497D01*
X0057788Y0079801D01*
X0057794Y0081213D01*
X0060099Y0081213D01*
X0060450Y0081564D01*
X0060450Y0081713D01*
X0064454Y0081713D01*
X0064554Y0081813D01*
X0065550Y0082809D01*
X0065550Y0092171D01*
X0070412Y0092171D01*
X0071291Y0093050D01*
X0071291Y0097442D01*
X0070412Y0098321D01*
X0069426Y0098321D01*
X0069426Y0101843D01*
X0076350Y0108767D01*
X0076350Y0096995D01*
X0076244Y0096328D01*
X0073350Y0093434D01*
X0073350Y0087324D01*
X0073340Y0086716D01*
X0073350Y0086706D01*
X0073350Y0086513D01*
X0076350Y0083513D01*
X0076350Y0069022D01*
X0076341Y0069013D01*
X0076350Y0068402D01*
X0076350Y0068390D01*
X0076260Y0067317D01*
X0075467Y0065323D01*
X0073971Y0063783D01*
X0072000Y0062934D01*
X0070930Y0062813D01*
X0009850Y0062813D01*
X0008777Y0062919D01*
X0006794Y0063740D01*
X0005277Y0065257D01*
X0004456Y0067240D01*
X0004350Y0068313D01*
X0004350Y0070113D01*
X0004550Y0070313D01*
X0004550Y0071566D01*
X0004878Y0071613D01*
X0010012Y0071613D01*
X0010048Y0071578D01*
X0013652Y0071578D01*
X0014531Y0072456D01*
X0014531Y0075471D01*
X0013652Y0076349D01*
X0013650Y0076349D01*
X0013650Y0076367D01*
X0013996Y0076713D01*
X0017196Y0076713D01*
X0021150Y0080667D01*
X0021150Y0088567D01*
X0021496Y0088913D01*
X0025196Y0088913D01*
X0026250Y0089967D01*
X0027059Y0090777D01*
X0027654Y0090777D01*
X0028533Y0091655D01*
X0028533Y0094478D01*
X0031452Y0094478D01*
X0032331Y0095356D01*
X0032331Y0098371D01*
X0031452Y0099249D01*
X0032076Y0098625D02*
X0033086Y0098625D01*
X0032965Y0098027D02*
X0032331Y0098027D01*
X0032331Y0097428D02*
X0032965Y0097428D01*
X0032965Y0096830D02*
X0032331Y0096830D01*
X0032331Y0096231D02*
X0032965Y0096231D01*
X0032965Y0095633D02*
X0032331Y0095633D01*
X0032009Y0095034D02*
X0033195Y0095034D01*
X0032965Y0094436D02*
X0028533Y0094436D01*
X0028533Y0093837D02*
X0032965Y0093837D01*
X0032965Y0093239D02*
X0028533Y0093239D01*
X0028533Y0092640D02*
X0032965Y0092640D01*
X0032965Y0092042D02*
X0028533Y0092042D01*
X0028320Y0091443D02*
X0033311Y0091443D01*
X0033405Y0086056D02*
X0021150Y0086056D01*
X0021150Y0085458D02*
X0033007Y0085458D01*
X0033007Y0084859D02*
X0021150Y0084859D01*
X0021150Y0084261D02*
X0033007Y0084261D01*
X0033007Y0083662D02*
X0021150Y0083662D01*
X0021150Y0083064D02*
X0033007Y0083064D01*
X0033007Y0082465D02*
X0021150Y0082465D01*
X0021150Y0081867D02*
X0033007Y0081867D01*
X0033007Y0081268D02*
X0021150Y0081268D01*
X0021150Y0080670D02*
X0033007Y0080670D01*
X0033007Y0080071D02*
X0020554Y0080071D01*
X0019955Y0079473D02*
X0033007Y0079473D01*
X0033007Y0078874D02*
X0019357Y0078874D01*
X0018758Y0078276D02*
X0033007Y0078276D01*
X0033007Y0077677D02*
X0018160Y0077677D01*
X0017561Y0077079D02*
X0033007Y0077079D01*
X0033007Y0076480D02*
X0013763Y0076480D01*
X0014120Y0075882D02*
X0033007Y0075882D01*
X0033085Y0075283D02*
X0014531Y0075283D01*
X0014531Y0074685D02*
X0033684Y0074685D01*
X0033224Y0074001D02*
X0034200Y0073026D01*
X0034728Y0071751D01*
X0034728Y0070371D01*
X0034200Y0069096D01*
X0033224Y0068121D01*
X0031949Y0067593D01*
X0030570Y0067593D01*
X0029295Y0068121D01*
X0028319Y0069096D01*
X0027791Y0070371D01*
X0027791Y0071751D01*
X0028319Y0073026D01*
X0029295Y0074001D01*
X0030570Y0074530D01*
X0031949Y0074530D01*
X0033224Y0074001D01*
X0033020Y0074086D02*
X0047609Y0074086D01*
X0047405Y0074001D02*
X0046429Y0073026D01*
X0045901Y0071751D01*
X0045901Y0070371D01*
X0046429Y0069096D01*
X0047405Y0068121D01*
X0048680Y0067593D01*
X0050060Y0067593D01*
X0051334Y0068121D01*
X0052310Y0069096D01*
X0052838Y0070371D01*
X0052838Y0071751D01*
X0052310Y0073026D01*
X0051334Y0074001D01*
X0050060Y0074530D01*
X0048680Y0074530D01*
X0047405Y0074001D01*
X0046891Y0073488D02*
X0033738Y0073488D01*
X0034256Y0072889D02*
X0046373Y0072889D01*
X0046125Y0072291D02*
X0034504Y0072291D01*
X0034728Y0071692D02*
X0045901Y0071692D01*
X0045901Y0071094D02*
X0034728Y0071094D01*
X0034728Y0070495D02*
X0045901Y0070495D01*
X0046098Y0069897D02*
X0034531Y0069897D01*
X0034283Y0069298D02*
X0046346Y0069298D01*
X0046826Y0068700D02*
X0033803Y0068700D01*
X0033177Y0068101D02*
X0047452Y0068101D01*
X0046945Y0074685D02*
X0051597Y0074685D01*
X0051130Y0074086D02*
X0076350Y0074086D01*
X0076350Y0073488D02*
X0051848Y0073488D01*
X0052367Y0072889D02*
X0076350Y0072889D01*
X0076350Y0072291D02*
X0052615Y0072291D01*
X0052838Y0071692D02*
X0076350Y0071692D01*
X0076350Y0071094D02*
X0052838Y0071094D01*
X0052838Y0070495D02*
X0076350Y0070495D01*
X0076350Y0069897D02*
X0052642Y0069897D01*
X0052394Y0069298D02*
X0076350Y0069298D01*
X0076346Y0068700D02*
X0051913Y0068700D01*
X0051287Y0068101D02*
X0076326Y0068101D01*
X0076275Y0067503D02*
X0004430Y0067503D01*
X0004371Y0068101D02*
X0029342Y0068101D01*
X0028716Y0068700D02*
X0004350Y0068700D01*
X0004350Y0069298D02*
X0028235Y0069298D01*
X0027987Y0069897D02*
X0004350Y0069897D01*
X0004550Y0070495D02*
X0027791Y0070495D01*
X0027791Y0071094D02*
X0004550Y0071094D01*
X0004750Y0073413D02*
X0003950Y0074013D01*
X0003950Y0074014D01*
X0003950Y0083513D01*
X0010250Y0083513D01*
X0011650Y0082113D01*
X0011650Y0075313D01*
X0009750Y0073413D01*
X0004750Y0073413D01*
X0004650Y0073488D02*
X0009825Y0073488D01*
X0010423Y0074086D02*
X0003950Y0074086D01*
X0003950Y0074685D02*
X0011022Y0074685D01*
X0010550Y0075263D02*
X0007651Y0075263D01*
X0010550Y0075263D02*
X0011850Y0073963D01*
X0011850Y0077113D01*
X0013250Y0078513D01*
X0016450Y0078513D01*
X0019350Y0081413D01*
X0019350Y0089313D01*
X0020750Y0090713D01*
X0024450Y0090713D01*
X0025950Y0092213D01*
X0025950Y0093163D01*
X0026529Y0090246D02*
X0037700Y0090246D01*
X0037700Y0090845D02*
X0027722Y0090845D01*
X0029050Y0091013D02*
X0026367Y0088330D01*
X0026367Y0081736D01*
X0026343Y0081713D01*
X0026338Y0080510D01*
X0028781Y0073488D02*
X0014531Y0073488D01*
X0014531Y0074086D02*
X0029499Y0074086D01*
X0028262Y0072889D02*
X0014531Y0072889D01*
X0014366Y0072291D02*
X0028015Y0072291D01*
X0027791Y0071692D02*
X0013767Y0071692D01*
X0011850Y0070263D02*
X0011850Y0067413D01*
X0011950Y0067313D01*
X0011620Y0075283D02*
X0003950Y0075283D01*
X0003950Y0075882D02*
X0011650Y0075882D01*
X0011650Y0076480D02*
X0003950Y0076480D01*
X0003950Y0077079D02*
X0011650Y0077079D01*
X0011650Y0077677D02*
X0003950Y0077677D01*
X0003950Y0078276D02*
X0011650Y0078276D01*
X0011650Y0078874D02*
X0003950Y0078874D01*
X0003950Y0079473D02*
X0011650Y0079473D01*
X0011650Y0080071D02*
X0003950Y0080071D01*
X0003950Y0080670D02*
X0011650Y0080670D01*
X0011650Y0081268D02*
X0003950Y0081268D01*
X0003950Y0081867D02*
X0011650Y0081867D01*
X0011298Y0082465D02*
X0003950Y0082465D01*
X0003950Y0083064D02*
X0010699Y0083064D01*
X0011449Y0084859D02*
X0012307Y0084859D01*
X0012307Y0084261D02*
X0012048Y0084261D01*
X0012687Y0085458D02*
X0009613Y0085458D01*
X0009694Y0089049D02*
X0012606Y0089049D01*
X0012307Y0089647D02*
X0009993Y0089647D01*
X0009993Y0090246D02*
X0012307Y0090246D01*
X0012307Y0090845D02*
X0009993Y0090845D01*
X0010019Y0091443D02*
X0012307Y0091443D01*
X0012307Y0092042D02*
X0010160Y0092042D01*
X0010160Y0092640D02*
X0012307Y0092640D01*
X0012307Y0093239D02*
X0010160Y0093239D01*
X0010160Y0093837D02*
X0012307Y0093837D01*
X0012307Y0094436D02*
X0010160Y0094436D01*
X0010160Y0095034D02*
X0012307Y0095034D01*
X0012625Y0095633D02*
X0010160Y0095633D01*
X0010160Y0096231D02*
X0016245Y0096231D01*
X0016767Y0096830D02*
X0010160Y0096830D01*
X0010160Y0097428D02*
X0012954Y0097428D01*
X0012606Y0098027D02*
X0010160Y0098027D01*
X0010160Y0098625D02*
X0012334Y0098625D01*
X0012050Y0099224D02*
X0010160Y0099224D01*
X0010160Y0099822D02*
X0012050Y0099822D01*
X0012050Y0100421D02*
X0010160Y0100421D01*
X0010160Y0101019D02*
X0012050Y0101019D01*
X0012050Y0101618D02*
X0010160Y0101618D01*
X0010160Y0102216D02*
X0012050Y0102216D01*
X0012050Y0102815D02*
X0010160Y0102815D01*
X0010160Y0103413D02*
X0012050Y0103413D01*
X0012050Y0104012D02*
X0010101Y0104012D01*
X0010094Y0104610D02*
X0012050Y0104610D01*
X0012050Y0105209D02*
X0010094Y0105209D01*
X0010094Y0105807D02*
X0012050Y0105807D01*
X0012050Y0106406D02*
X0010094Y0106406D01*
X0010094Y0107004D02*
X0012050Y0107004D01*
X0012050Y0107603D02*
X0010094Y0107603D01*
X0010094Y0108201D02*
X0012050Y0108201D01*
X0012050Y0108800D02*
X0010094Y0108800D01*
X0010094Y0109398D02*
X0012050Y0109398D01*
X0012050Y0109997D02*
X0009746Y0109997D01*
X0012050Y0110595D02*
X0004550Y0110595D01*
X0004550Y0111194D02*
X0012050Y0111194D01*
X0012050Y0111792D02*
X0004550Y0111792D01*
X0004550Y0112391D02*
X0012050Y0112391D01*
X0012050Y0112989D02*
X0004550Y0112989D01*
X0004550Y0113588D02*
X0012521Y0113588D01*
X0013119Y0114186D02*
X0004550Y0114186D01*
X0004550Y0114785D02*
X0013718Y0114785D01*
X0014207Y0115383D02*
X0004550Y0115383D01*
X0004550Y0115982D02*
X0014277Y0115982D01*
X0013678Y0116580D02*
X0004550Y0116580D01*
X0004550Y0117179D02*
X0013650Y0117179D01*
X0013650Y0117778D02*
X0004550Y0117778D01*
X0004550Y0118376D02*
X0013650Y0118376D01*
X0013284Y0118975D02*
X0004550Y0118975D01*
X0004550Y0119573D02*
X0012686Y0119573D01*
X0012087Y0120172D02*
X0004550Y0120172D01*
X0004550Y0120770D02*
X0011650Y0120770D01*
X0011650Y0121369D02*
X0004550Y0121369D01*
X0004550Y0121967D02*
X0011650Y0121967D01*
X0011650Y0122566D02*
X0004550Y0122566D01*
X0004550Y0123164D02*
X0008588Y0123164D01*
X0007479Y0123763D02*
X0004550Y0123763D01*
X0004550Y0124361D02*
X0006880Y0124361D01*
X0006356Y0124960D02*
X0004550Y0124960D01*
X0004550Y0125558D02*
X0006108Y0125558D01*
X0005860Y0126157D02*
X0004550Y0126157D01*
X0004550Y0126755D02*
X0005700Y0126755D01*
X0005700Y0127354D02*
X0004550Y0127354D01*
X0004550Y0127952D02*
X0005700Y0127952D01*
X0005766Y0128551D02*
X0004550Y0128551D01*
X0004550Y0129149D02*
X0006014Y0129149D01*
X0006262Y0129748D02*
X0004550Y0129748D01*
X0004550Y0130346D02*
X0006654Y0130346D01*
X0007252Y0130945D02*
X0004550Y0130945D01*
X0004550Y0131543D02*
X0008041Y0131543D01*
X0012480Y0131617D02*
X0012773Y0131617D01*
X0013827Y0132672D01*
X0014269Y0133113D01*
X0019584Y0133113D01*
X0019559Y0133088D01*
X0019559Y0130013D01*
X0014646Y0130013D01*
X0014421Y0129788D01*
X0014292Y0130101D01*
X0012984Y0131409D01*
X0012480Y0131617D01*
X0012659Y0131543D02*
X0019559Y0131543D01*
X0019559Y0130945D02*
X0013448Y0130945D01*
X0013150Y0131713D02*
X0015750Y0133713D01*
X0013896Y0132740D02*
X0019559Y0132740D01*
X0019559Y0132142D02*
X0013297Y0132142D01*
X0013150Y0131713D02*
X0014260Y0130803D01*
X0017442Y0130803D01*
X0017442Y0127102D02*
X0016453Y0126713D01*
X0015950Y0126713D01*
X0014046Y0130346D02*
X0019559Y0130346D01*
X0023027Y0124061D02*
X0026898Y0124061D01*
X0028550Y0125713D01*
X0028550Y0127013D01*
X0028650Y0127113D01*
X0028470Y0125558D02*
X0026802Y0125558D01*
X0026496Y0124960D02*
X0027872Y0124960D01*
X0027273Y0124361D02*
X0025980Y0124361D01*
X0027550Y0122093D02*
X0029370Y0123913D01*
X0037650Y0123913D01*
X0036350Y0130613D02*
X0036650Y0130913D01*
X0042250Y0130913D01*
X0041504Y0132713D02*
X0038068Y0132713D01*
X0037879Y0132902D01*
X0036887Y0133313D01*
X0036696Y0133313D01*
X0038696Y0135313D01*
X0043074Y0135313D01*
X0043074Y0134282D01*
X0041504Y0132713D01*
X0041532Y0132740D02*
X0038041Y0132740D01*
X0037320Y0133937D02*
X0042729Y0133937D01*
X0043074Y0134536D02*
X0037918Y0134536D01*
X0038517Y0135134D02*
X0043074Y0135134D01*
X0042130Y0133339D02*
X0036721Y0133339D01*
X0034623Y0136331D02*
X0030611Y0136331D01*
X0030013Y0135733D02*
X0034024Y0135733D01*
X0033426Y0135134D02*
X0029414Y0135134D01*
X0031210Y0136930D02*
X0035221Y0136930D01*
X0035820Y0137528D02*
X0031808Y0137528D01*
X0032407Y0138127D02*
X0036418Y0138127D01*
X0037017Y0138725D02*
X0032523Y0138725D01*
X0033414Y0127749D02*
X0033950Y0127213D01*
X0032050Y0120413D02*
X0033460Y0119003D01*
X0033460Y0115596D01*
X0033460Y0113203D01*
X0034350Y0112313D01*
X0036850Y0112313D01*
X0037952Y0111211D01*
X0037952Y0110226D01*
X0037952Y0106526D02*
X0037850Y0106423D01*
X0037850Y0105113D01*
X0036450Y0103713D01*
X0034650Y0103713D01*
X0035022Y0101019D02*
X0024357Y0101019D01*
X0024357Y0100421D02*
X0034424Y0100421D01*
X0033825Y0099822D02*
X0024357Y0099822D01*
X0024350Y0099513D02*
X0022650Y0097813D01*
X0022650Y0096963D01*
X0022360Y0097428D02*
X0023367Y0097428D01*
X0023367Y0098027D02*
X0022959Y0098027D01*
X0022984Y0098625D02*
X0023622Y0098625D01*
X0023832Y0099224D02*
X0024220Y0099224D01*
X0024357Y0101618D02*
X0033210Y0101618D01*
X0032611Y0102216D02*
X0024357Y0102216D01*
X0024357Y0102815D02*
X0032316Y0102815D01*
X0032150Y0103413D02*
X0024357Y0103413D01*
X0024357Y0104012D02*
X0032150Y0104012D01*
X0032247Y0104610D02*
X0024357Y0104610D01*
X0024357Y0105209D02*
X0031809Y0105209D01*
X0030625Y0105807D02*
X0024357Y0105807D01*
X0024062Y0106406D02*
X0029622Y0106406D01*
X0029145Y0107004D02*
X0023650Y0107004D01*
X0023650Y0107603D02*
X0028897Y0107603D01*
X0028850Y0108201D02*
X0023650Y0108201D01*
X0023650Y0108800D02*
X0028887Y0108800D01*
X0029135Y0109398D02*
X0023650Y0109398D01*
X0023650Y0109997D02*
X0029598Y0109997D01*
X0030022Y0110595D02*
X0023650Y0110595D01*
X0023650Y0111194D02*
X0029692Y0111194D01*
X0029692Y0111792D02*
X0023650Y0111792D01*
X0023650Y0112391D02*
X0028107Y0112391D01*
X0027509Y0112989D02*
X0023650Y0112989D01*
X0023650Y0113588D02*
X0027492Y0113588D01*
X0027492Y0114186D02*
X0023650Y0114186D01*
X0023650Y0114785D02*
X0027492Y0114785D01*
X0027492Y0115383D02*
X0023650Y0115383D01*
X0024996Y0118370D02*
X0028993Y0118370D01*
X0029523Y0117840D01*
X0029523Y0115596D01*
X0027492Y0115982D02*
X0026698Y0115982D01*
X0027450Y0111413D02*
X0024790Y0111413D01*
X0024768Y0111435D01*
X0024900Y0108013D02*
X0027550Y0108013D01*
X0027650Y0107913D01*
X0027680Y0102930D02*
X0029033Y0102930D01*
X0031050Y0100913D01*
X0029650Y0096863D02*
X0025950Y0096863D01*
X0024135Y0095048D01*
X0017607Y0095048D01*
X0014890Y0092331D01*
X0016142Y0088450D02*
X0006836Y0088450D01*
X0005207Y0085458D02*
X0004550Y0085458D01*
X0004550Y0086056D02*
X0013748Y0086056D01*
X0014346Y0086655D02*
X0004550Y0086655D01*
X0004550Y0087253D02*
X0014945Y0087253D01*
X0015543Y0087852D02*
X0004550Y0087852D01*
X0003950Y0083513D02*
X0003950Y0083513D01*
X0004595Y0066904D02*
X0076096Y0066904D01*
X0075858Y0066306D02*
X0004843Y0066306D01*
X0005091Y0065707D02*
X0075620Y0065707D01*
X0075259Y0065109D02*
X0005426Y0065109D01*
X0006024Y0064510D02*
X0074677Y0064510D01*
X0074096Y0063912D02*
X0006623Y0063912D01*
X0007825Y0063313D02*
X0072880Y0063313D01*
X0076350Y0074685D02*
X0056985Y0074685D01*
X0057583Y0075283D02*
X0076350Y0075283D01*
X0076350Y0075882D02*
X0057661Y0075882D01*
X0057661Y0076480D02*
X0076350Y0076480D01*
X0076350Y0077079D02*
X0057661Y0077079D01*
X0057661Y0077677D02*
X0076350Y0077677D01*
X0076350Y0078276D02*
X0057661Y0078276D01*
X0057661Y0078874D02*
X0076350Y0078874D01*
X0076350Y0079473D02*
X0057661Y0079473D01*
X0057789Y0080071D02*
X0076350Y0080071D01*
X0076350Y0080670D02*
X0057792Y0080670D01*
X0060154Y0081268D02*
X0076350Y0081268D01*
X0076350Y0081867D02*
X0064608Y0081867D01*
X0065207Y0082465D02*
X0076350Y0082465D01*
X0076350Y0083064D02*
X0065550Y0083064D01*
X0065550Y0083662D02*
X0076201Y0083662D01*
X0075602Y0084261D02*
X0065550Y0084261D01*
X0065550Y0084859D02*
X0075004Y0084859D01*
X0074405Y0085458D02*
X0065550Y0085458D01*
X0065550Y0086056D02*
X0073807Y0086056D01*
X0073350Y0086655D02*
X0065550Y0086655D01*
X0065550Y0087253D02*
X0073349Y0087253D01*
X0073350Y0087852D02*
X0065550Y0087852D01*
X0065550Y0088450D02*
X0073350Y0088450D01*
X0073350Y0089049D02*
X0065550Y0089049D01*
X0065550Y0089647D02*
X0073350Y0089647D01*
X0073350Y0090246D02*
X0065550Y0090246D01*
X0065550Y0090845D02*
X0073350Y0090845D01*
X0073350Y0091443D02*
X0065550Y0091443D01*
X0065550Y0092042D02*
X0073350Y0092042D01*
X0073350Y0092640D02*
X0070881Y0092640D01*
X0071291Y0093239D02*
X0073350Y0093239D01*
X0073753Y0093837D02*
X0071291Y0093837D01*
X0071291Y0094436D02*
X0074351Y0094436D01*
X0074950Y0095034D02*
X0071291Y0095034D01*
X0071291Y0095633D02*
X0075548Y0095633D01*
X0076147Y0096231D02*
X0071291Y0096231D01*
X0071291Y0096830D02*
X0076324Y0096830D01*
X0076350Y0097428D02*
X0071291Y0097428D01*
X0070706Y0098027D02*
X0076350Y0098027D01*
X0076350Y0098625D02*
X0069426Y0098625D01*
X0069426Y0099224D02*
X0076350Y0099224D01*
X0076350Y0099822D02*
X0069426Y0099822D01*
X0069426Y0100421D02*
X0076350Y0100421D01*
X0076350Y0101019D02*
X0069426Y0101019D01*
X0069426Y0101618D02*
X0076350Y0101618D01*
X0076350Y0102216D02*
X0069799Y0102216D01*
X0070397Y0102815D02*
X0076350Y0102815D01*
X0076350Y0103413D02*
X0070996Y0103413D01*
X0071594Y0104012D02*
X0076350Y0104012D01*
X0076350Y0104610D02*
X0072193Y0104610D01*
X0072791Y0105209D02*
X0076350Y0105209D01*
X0076350Y0105807D02*
X0073390Y0105807D01*
X0073988Y0106406D02*
X0076350Y0106406D01*
X0076350Y0107004D02*
X0074587Y0107004D01*
X0075185Y0107603D02*
X0076350Y0107603D01*
X0076350Y0108201D02*
X0075784Y0108201D01*
X0074850Y0109813D02*
X0067626Y0102589D01*
X0067626Y0095246D01*
X0061700Y0100213D02*
X0062750Y0101263D01*
X0062750Y0103213D01*
X0060046Y0105513D02*
X0061250Y0106717D01*
X0061250Y0108615D01*
X0058792Y0108615D01*
X0058595Y0108812D01*
X0057850Y0108067D01*
X0057850Y0104667D01*
X0055950Y0102767D01*
X0055703Y0102521D01*
X0055722Y0102502D01*
X0055722Y0098110D01*
X0055716Y0098104D01*
X0057631Y0098104D01*
X0058350Y0097385D01*
X0058350Y0098317D01*
X0059050Y0099017D01*
X0059050Y0104517D01*
X0060046Y0105513D01*
X0060340Y0105807D02*
X0057850Y0105807D01*
X0057850Y0105209D02*
X0059742Y0105209D01*
X0059143Y0104610D02*
X0057793Y0104610D01*
X0057950Y0104113D02*
X0058000Y0104063D01*
X0060496Y0106560D01*
X0060496Y0107300D01*
X0061250Y0107004D02*
X0057850Y0107004D01*
X0057850Y0106406D02*
X0060939Y0106406D01*
X0061250Y0107603D02*
X0057850Y0107603D01*
X0057984Y0108201D02*
X0061250Y0108201D01*
X0058607Y0108800D02*
X0058582Y0108800D01*
X0057082Y0112391D02*
X0052977Y0112391D01*
X0053191Y0112989D02*
X0058396Y0112989D01*
X0058000Y0104063D02*
X0058000Y0100213D01*
X0059050Y0100421D02*
X0055722Y0100421D01*
X0055722Y0101019D02*
X0059050Y0101019D01*
X0059050Y0101618D02*
X0055722Y0101618D01*
X0055722Y0102216D02*
X0059050Y0102216D01*
X0059050Y0102815D02*
X0055997Y0102815D01*
X0056596Y0103413D02*
X0059050Y0103413D01*
X0059050Y0104012D02*
X0057194Y0104012D01*
X0055722Y0099822D02*
X0059050Y0099822D01*
X0059050Y0099224D02*
X0055722Y0099224D01*
X0055722Y0098625D02*
X0058658Y0098625D01*
X0058350Y0098027D02*
X0057709Y0098027D01*
X0058307Y0097428D02*
X0058350Y0097428D01*
X0052750Y0105013D02*
X0054050Y0106313D01*
X0054050Y0108213D01*
X0052750Y0105013D02*
X0046050Y0105013D01*
X0044537Y0106526D01*
X0041333Y0106526D01*
X0041333Y0110226D02*
X0041334Y0110228D01*
X0041334Y0115596D01*
X0043303Y0115596D02*
X0043303Y0113360D01*
X0044350Y0112313D01*
X0044350Y0110713D01*
X0046441Y0111920D02*
X0045271Y0113089D01*
X0045271Y0115596D01*
X0047240Y0115596D02*
X0047240Y0117913D01*
X0045040Y0120113D01*
X0040550Y0120113D01*
X0040250Y0120413D01*
X0046441Y0111920D02*
X0046441Y0109022D01*
X0046450Y0108413D01*
X0048656Y0112391D02*
X0049369Y0112391D01*
X0053041Y0100306D02*
X0049948Y0097213D01*
X0046550Y0097213D01*
X0045585Y0095633D02*
X0045071Y0095633D01*
X0044838Y0095034D02*
X0051917Y0095034D01*
X0051837Y0094436D02*
X0045071Y0094436D01*
X0045071Y0093837D02*
X0051837Y0093837D01*
X0051837Y0093239D02*
X0045071Y0093239D01*
X0045071Y0092640D02*
X0051827Y0092640D01*
X0051305Y0092042D02*
X0045071Y0092042D01*
X0044727Y0091443D02*
X0051057Y0091443D01*
X0050826Y0090845D02*
X0042854Y0090845D01*
X0042854Y0090246D02*
X0050826Y0090246D01*
X0050824Y0089647D02*
X0042854Y0089647D01*
X0042854Y0089049D02*
X0050822Y0089049D01*
X0050820Y0088450D02*
X0042854Y0088450D01*
X0042854Y0087852D02*
X0050818Y0087852D01*
X0050816Y0087253D02*
X0042854Y0087253D01*
X0043154Y0086655D02*
X0050813Y0086655D01*
X0050811Y0086056D02*
X0047224Y0086056D01*
X0047622Y0085458D02*
X0050809Y0085458D01*
X0050807Y0084859D02*
X0047622Y0084859D01*
X0047622Y0084261D02*
X0050805Y0084261D01*
X0050802Y0083662D02*
X0047622Y0083662D01*
X0047622Y0083064D02*
X0050800Y0083064D01*
X0050798Y0082465D02*
X0047622Y0082465D01*
X0047622Y0081867D02*
X0050796Y0081867D01*
X0050794Y0081268D02*
X0047622Y0081268D01*
X0047622Y0080670D02*
X0050792Y0080670D01*
X0050789Y0080071D02*
X0047622Y0080071D01*
X0047622Y0079473D02*
X0050921Y0079473D01*
X0050921Y0078874D02*
X0047622Y0078874D01*
X0047622Y0078276D02*
X0050921Y0078276D01*
X0050921Y0077677D02*
X0047622Y0077677D01*
X0047622Y0077079D02*
X0050921Y0077079D01*
X0050921Y0076480D02*
X0047622Y0076480D01*
X0047622Y0075882D02*
X0050921Y0075882D01*
X0050999Y0075283D02*
X0047544Y0075283D01*
X0044252Y0080510D02*
X0044252Y0083011D01*
X0041950Y0085313D01*
X0041054Y0086209D01*
X0041054Y0091859D01*
X0042489Y0093294D01*
X0042489Y0096994D02*
X0042436Y0096996D01*
X0042384Y0097002D01*
X0042332Y0097011D01*
X0042281Y0097024D01*
X0042231Y0097041D01*
X0042182Y0097061D01*
X0042135Y0097084D01*
X0042089Y0097111D01*
X0042046Y0097141D01*
X0042005Y0097175D01*
X0041966Y0097210D01*
X0041931Y0097249D01*
X0041897Y0097290D01*
X0041867Y0097333D01*
X0041840Y0097379D01*
X0041817Y0097426D01*
X0041797Y0097475D01*
X0041780Y0097525D01*
X0041767Y0097576D01*
X0041758Y0097628D01*
X0041752Y0097680D01*
X0041750Y0097733D01*
X0041750Y0102113D01*
X0039550Y0099213D02*
X0039550Y0097529D01*
X0039071Y0097050D01*
X0039113Y0097052D01*
X0039154Y0097057D01*
X0039195Y0097066D01*
X0039235Y0097079D01*
X0039273Y0097095D01*
X0039311Y0097114D01*
X0039346Y0097137D01*
X0039379Y0097162D01*
X0039410Y0097190D01*
X0039438Y0097221D01*
X0039463Y0097254D01*
X0039486Y0097290D01*
X0039505Y0097327D01*
X0039521Y0097365D01*
X0039534Y0097405D01*
X0039543Y0097446D01*
X0039548Y0097487D01*
X0039550Y0097529D01*
X0039071Y0093349D02*
X0039500Y0092920D01*
X0039500Y0086463D01*
X0036950Y0083913D01*
X0036950Y0081110D01*
X0036378Y0080510D01*
X0037146Y0086655D02*
X0021150Y0086655D01*
X0021150Y0087253D02*
X0037700Y0087253D01*
X0037700Y0087852D02*
X0021150Y0087852D01*
X0021150Y0088450D02*
X0037700Y0088450D01*
X0037700Y0089049D02*
X0025332Y0089049D01*
X0025930Y0089647D02*
X0037700Y0089647D01*
X0039019Y0093296D02*
X0035548Y0093296D01*
X0039019Y0093296D02*
X0039071Y0093349D01*
X0034422Y0106526D02*
X0033037Y0106526D01*
X0031350Y0108213D01*
X0032937Y0110226D02*
X0031492Y0111671D01*
X0031492Y0115596D01*
X0032050Y0120413D02*
X0022450Y0120413D01*
X0022383Y0120411D01*
X0022316Y0120405D01*
X0022249Y0120395D01*
X0022184Y0120382D01*
X0022119Y0120364D01*
X0022055Y0120343D01*
X0021993Y0120319D01*
X0021932Y0120290D01*
X0021873Y0120258D01*
X0021815Y0120223D01*
X0021760Y0120184D01*
X0021708Y0120143D01*
X0021657Y0120098D01*
X0021610Y0120051D01*
X0021565Y0120000D01*
X0021524Y0119948D01*
X0021485Y0119893D01*
X0021450Y0119836D01*
X0021418Y0119776D01*
X0021389Y0119715D01*
X0021365Y0119653D01*
X0021344Y0119589D01*
X0021326Y0119524D01*
X0021313Y0119459D01*
X0021303Y0119392D01*
X0021297Y0119325D01*
X0021295Y0119258D01*
X0021295Y0118370D01*
X0023027Y0122093D02*
X0027550Y0122093D01*
X0023027Y0122093D02*
X0018930Y0122093D01*
X0018950Y0121713D01*
X0021184Y0102930D02*
X0021184Y0098798D01*
X0019350Y0096963D01*
X0019350Y0093263D02*
X0022650Y0093263D01*
X0019350Y0093263D02*
X0018150Y0092063D01*
X0018150Y0087913D01*
X0014890Y0084653D01*
X0014890Y0082095D01*
X0027680Y0099224D02*
X0027822Y0099224D01*
X0029650Y0093163D02*
X0029050Y0092563D01*
X0029050Y0091013D01*
X0032937Y0110226D02*
X0034422Y0110226D01*
X0039071Y0074685D02*
X0041558Y0074685D01*
X0050913Y0095633D02*
X0052163Y0095633D01*
X0052163Y0096231D02*
X0051511Y0096231D01*
X0052110Y0096830D02*
X0052163Y0096830D01*
X0062952Y0123945D02*
X0060950Y0125948D01*
X0060950Y0131113D01*
X0060128Y0131935D01*
X0057673Y0131935D01*
X0057673Y0133904D02*
X0064259Y0133904D01*
X0065850Y0132313D01*
X0065850Y0124113D01*
X0067450Y0122513D01*
X0072150Y0122513D01*
X0074850Y0119813D01*
X0074850Y0109813D01*
X0076350Y0120859D02*
X0075596Y0121613D01*
X0072896Y0124313D01*
X0071404Y0124313D01*
X0068196Y0124313D01*
X0067650Y0124859D01*
X0067650Y0133059D01*
X0066596Y0134113D01*
X0065005Y0135704D01*
X0064619Y0135704D01*
X0065440Y0136525D01*
X0065440Y0139539D01*
X0064561Y0140418D01*
X0061153Y0140418D01*
X0061141Y0140406D01*
X0061141Y0140962D01*
X0060326Y0141778D01*
X0061141Y0142593D01*
X0061141Y0142959D01*
X0061950Y0143767D01*
X0061950Y0146559D01*
X0061529Y0146980D01*
X0061529Y0149589D01*
X0060650Y0150467D01*
X0060497Y0150467D01*
X0065697Y0155667D01*
X0066063Y0155667D01*
X0066408Y0154833D01*
X0067716Y0153525D01*
X0069425Y0152817D01*
X0071275Y0152817D01*
X0072984Y0153525D01*
X0074292Y0154833D01*
X0075000Y0156542D01*
X0075000Y0158392D01*
X0074654Y0159226D01*
X0076350Y0160921D01*
X0076350Y0120859D01*
X0076350Y0121369D02*
X0075840Y0121369D01*
X0076350Y0121967D02*
X0075241Y0121967D01*
X0074643Y0122566D02*
X0076350Y0122566D01*
X0076350Y0123164D02*
X0074044Y0123164D01*
X0073446Y0123763D02*
X0076350Y0123763D01*
X0076350Y0124361D02*
X0068147Y0124361D01*
X0067650Y0124960D02*
X0076350Y0124960D01*
X0076350Y0125558D02*
X0067650Y0125558D01*
X0067650Y0126157D02*
X0076350Y0126157D01*
X0076350Y0126755D02*
X0067650Y0126755D01*
X0067650Y0127354D02*
X0076350Y0127354D01*
X0076350Y0127952D02*
X0067650Y0127952D01*
X0067650Y0128551D02*
X0076350Y0128551D01*
X0076350Y0129149D02*
X0067650Y0129149D01*
X0067650Y0129748D02*
X0076350Y0129748D01*
X0076350Y0130346D02*
X0067650Y0130346D01*
X0067650Y0130945D02*
X0076350Y0130945D01*
X0076350Y0131543D02*
X0067650Y0131543D01*
X0067650Y0132142D02*
X0076350Y0132142D01*
X0076350Y0132740D02*
X0067650Y0132740D01*
X0067370Y0133339D02*
X0068166Y0133339D01*
X0067716Y0133525D02*
X0069425Y0132817D01*
X0071275Y0132817D01*
X0072984Y0133525D01*
X0074292Y0134833D01*
X0075000Y0136542D01*
X0075000Y0138392D01*
X0074292Y0140101D01*
X0072984Y0141409D01*
X0071275Y0142117D01*
X0069425Y0142117D01*
X0067716Y0141409D01*
X0066408Y0140101D01*
X0065700Y0138392D01*
X0065700Y0136542D01*
X0066408Y0134833D01*
X0067716Y0133525D01*
X0067304Y0133937D02*
X0066771Y0133937D01*
X0066706Y0134536D02*
X0066173Y0134536D01*
X0066284Y0135134D02*
X0065574Y0135134D01*
X0066036Y0135733D02*
X0064648Y0135733D01*
X0065246Y0136331D02*
X0065788Y0136331D01*
X0065700Y0136930D02*
X0065440Y0136930D01*
X0065440Y0137528D02*
X0065700Y0137528D01*
X0065700Y0138127D02*
X0065440Y0138127D01*
X0065440Y0138725D02*
X0065839Y0138725D01*
X0066086Y0139324D02*
X0065440Y0139324D01*
X0065056Y0139922D02*
X0066334Y0139922D01*
X0066828Y0140521D02*
X0061141Y0140521D01*
X0060984Y0141119D02*
X0067427Y0141119D01*
X0068463Y0141718D02*
X0060385Y0141718D01*
X0060865Y0142316D02*
X0076350Y0142316D01*
X0076350Y0141718D02*
X0072237Y0141718D01*
X0073273Y0141119D02*
X0076350Y0141119D01*
X0076350Y0140521D02*
X0073872Y0140521D01*
X0074366Y0139922D02*
X0076350Y0139922D01*
X0076350Y0139324D02*
X0074614Y0139324D01*
X0074861Y0138725D02*
X0076350Y0138725D01*
X0076350Y0138127D02*
X0075000Y0138127D01*
X0075000Y0137528D02*
X0076350Y0137528D01*
X0076350Y0136930D02*
X0075000Y0136930D01*
X0074912Y0136331D02*
X0076350Y0136331D01*
X0076350Y0135733D02*
X0074664Y0135733D01*
X0074416Y0135134D02*
X0076350Y0135134D01*
X0076350Y0134536D02*
X0073994Y0134536D01*
X0073396Y0133937D02*
X0076350Y0133937D01*
X0076350Y0133339D02*
X0072534Y0133339D01*
X0071275Y0142817D02*
X0069425Y0142817D01*
X0067716Y0143525D01*
X0066408Y0144833D01*
X0065700Y0146542D01*
X0065700Y0148392D01*
X0066408Y0150101D01*
X0067716Y0151409D01*
X0069425Y0152117D01*
X0071275Y0152117D01*
X0072984Y0151409D01*
X0074292Y0150101D01*
X0075000Y0148392D01*
X0075000Y0146542D01*
X0074292Y0144833D01*
X0072984Y0143525D01*
X0071275Y0142817D01*
X0071511Y0142915D02*
X0076350Y0142915D01*
X0076350Y0143514D02*
X0072955Y0143514D01*
X0073571Y0144112D02*
X0076350Y0144112D01*
X0076350Y0144711D02*
X0074169Y0144711D01*
X0074489Y0145309D02*
X0076350Y0145309D01*
X0076350Y0145908D02*
X0074737Y0145908D01*
X0074985Y0146506D02*
X0076350Y0146506D01*
X0076350Y0147105D02*
X0075000Y0147105D01*
X0075000Y0147703D02*
X0076350Y0147703D01*
X0076350Y0148302D02*
X0075000Y0148302D01*
X0074789Y0148900D02*
X0076350Y0148900D01*
X0076350Y0149499D02*
X0074541Y0149499D01*
X0074293Y0150097D02*
X0076350Y0150097D01*
X0076350Y0150696D02*
X0073697Y0150696D01*
X0073098Y0151294D02*
X0076350Y0151294D01*
X0076350Y0151893D02*
X0071815Y0151893D01*
X0071932Y0153090D02*
X0076350Y0153090D01*
X0076350Y0153688D02*
X0073147Y0153688D01*
X0073745Y0154287D02*
X0076350Y0154287D01*
X0076350Y0154885D02*
X0074313Y0154885D01*
X0074561Y0155484D02*
X0076350Y0155484D01*
X0076350Y0156082D02*
X0074809Y0156082D01*
X0075000Y0156681D02*
X0076350Y0156681D01*
X0076350Y0157279D02*
X0075000Y0157279D01*
X0075000Y0157878D02*
X0076350Y0157878D01*
X0076350Y0158476D02*
X0074965Y0158476D01*
X0074717Y0159075D02*
X0076350Y0159075D01*
X0076350Y0159673D02*
X0075102Y0159673D01*
X0075700Y0160272D02*
X0076350Y0160272D01*
X0076350Y0160870D02*
X0076299Y0160870D01*
X0076350Y0152491D02*
X0062521Y0152491D01*
X0061923Y0151893D02*
X0068885Y0151893D01*
X0068768Y0153090D02*
X0063120Y0153090D01*
X0063718Y0153688D02*
X0067553Y0153688D01*
X0066955Y0154287D02*
X0064317Y0154287D01*
X0064915Y0154885D02*
X0066387Y0154885D01*
X0066139Y0155484D02*
X0065514Y0155484D01*
X0067602Y0151294D02*
X0061324Y0151294D01*
X0060726Y0150696D02*
X0067003Y0150696D01*
X0066407Y0150097D02*
X0061020Y0150097D01*
X0061529Y0149499D02*
X0066159Y0149499D01*
X0065911Y0148900D02*
X0061529Y0148900D01*
X0061529Y0148302D02*
X0065700Y0148302D01*
X0065700Y0147703D02*
X0061529Y0147703D01*
X0061529Y0147105D02*
X0065700Y0147105D01*
X0065715Y0146506D02*
X0061950Y0146506D01*
X0061950Y0145908D02*
X0065963Y0145908D01*
X0066211Y0145309D02*
X0061950Y0145309D01*
X0061950Y0144711D02*
X0066531Y0144711D01*
X0067129Y0144112D02*
X0061950Y0144112D01*
X0061696Y0143514D02*
X0067745Y0143514D01*
X0069189Y0142915D02*
X0061141Y0142915D01*
X0062812Y0141778D02*
X0062857Y0141733D01*
X0062857Y0144520D01*
X0062950Y0144613D01*
X0062844Y0144719D01*
X0062844Y0147786D01*
X0062812Y0141778D02*
X0057673Y0141778D01*
X0057673Y0135872D02*
X0061497Y0135872D01*
X0062857Y0137232D01*
X0062857Y0138032D01*
X0063550Y0130513D02*
X0062952Y0129915D01*
X0062952Y0127646D01*
X0069150Y0172242D02*
X0054625Y0172242D01*
X0058850Y0183413D02*
X0054350Y0187913D01*
X0054350Y0193743D01*
X0057026Y0196419D01*
X0060463Y0196419D01*
X0060488Y0196444D01*
X0060488Y0192744D02*
X0060450Y0192706D01*
X0060450Y0190213D01*
X0058726Y0186606D02*
X0058202Y0186606D01*
X0057050Y0190313D02*
X0057026Y0190337D01*
X0057026Y0192719D01*
X0058850Y0183413D02*
X0060904Y0183413D01*
X0063550Y0176313D02*
X0064250Y0175613D01*
X0067596Y0183413D02*
X0067596Y0187267D01*
X0067150Y0187713D01*
X0068791Y0189599D02*
X0076350Y0189599D01*
X0076350Y0189000D02*
X0069316Y0189000D01*
X0069564Y0188402D02*
X0076350Y0188402D01*
X0076350Y0187803D02*
X0069644Y0187803D01*
X0069639Y0187205D02*
X0076350Y0187205D01*
X0076350Y0186606D02*
X0069774Y0186606D01*
X0070373Y0186008D02*
X0076350Y0186008D01*
X0076350Y0185409D02*
X0070596Y0185409D01*
X0070596Y0184811D02*
X0076350Y0184811D01*
X0076350Y0184212D02*
X0070596Y0184212D01*
X0070596Y0183614D02*
X0076350Y0183614D01*
X0076350Y0183015D02*
X0070596Y0183015D01*
X0070596Y0182417D02*
X0076350Y0182417D01*
X0076350Y0181818D02*
X0070596Y0181818D01*
X0070596Y0181220D02*
X0076350Y0181220D01*
X0076350Y0180621D02*
X0070887Y0180621D01*
X0071050Y0180459D02*
X0071050Y0180459D01*
X0071486Y0180023D02*
X0076350Y0180023D01*
X0076350Y0179424D02*
X0072084Y0179424D01*
X0072683Y0178826D02*
X0076350Y0178826D01*
X0076350Y0178227D02*
X0073281Y0178227D01*
X0073880Y0177629D02*
X0076350Y0177629D01*
X0076350Y0177030D02*
X0074478Y0177030D01*
X0075077Y0176432D02*
X0076350Y0176432D01*
X0076350Y0175833D02*
X0075675Y0175833D01*
X0076274Y0175235D02*
X0076350Y0175235D01*
X0052550Y0187803D02*
X0036705Y0187803D01*
X0036107Y0188402D02*
X0052550Y0188402D01*
X0052550Y0189000D02*
X0035508Y0189000D01*
X0034910Y0189599D02*
X0052550Y0189599D01*
X0052550Y0190197D02*
X0034780Y0190197D01*
X0035378Y0190796D02*
X0052550Y0190796D01*
X0052550Y0191394D02*
X0035977Y0191394D01*
X0033950Y0191913D02*
X0035850Y0193813D01*
X0035850Y0197459D01*
X0033950Y0191913D02*
X0015186Y0191913D01*
X0013678Y0193422D01*
X0013678Y0195075D02*
X0013678Y0199885D01*
X0013650Y0199913D01*
X0013750Y0199913D01*
X0031650Y0190313D02*
X0035850Y0186113D01*
X0035850Y0181711D01*
X0037989Y0187205D02*
X0038711Y0187205D01*
X0037404Y0155113D02*
X0035523Y0155113D01*
X0036089Y0154633D01*
X0036174Y0154633D01*
X0036649Y0154159D01*
X0037161Y0153724D01*
X0037168Y0153639D01*
X0037229Y0153579D01*
X0037229Y0153063D01*
X0037397Y0152895D01*
X0037566Y0153063D01*
X0037566Y0154952D01*
X0037404Y0155113D01*
X0037566Y0154885D02*
X0035792Y0154885D01*
X0036521Y0154287D02*
X0037566Y0154287D01*
X0037397Y0154066D02*
X0036750Y0154713D01*
X0037397Y0154066D02*
X0037397Y0150242D01*
X0037229Y0153090D02*
X0037566Y0153090D01*
X0037566Y0153688D02*
X0037164Y0153688D01*
D41*
X0029350Y0130913D03*
X0028650Y0127113D03*
X0027350Y0144013D03*
X0031350Y0108213D03*
X0034650Y0103713D03*
X0033150Y0099313D03*
X0032550Y0093513D03*
X0024950Y0074113D03*
X0021950Y0077713D03*
X0024350Y0099513D03*
X0013150Y0131713D03*
X0006350Y0132313D03*
X0006150Y0142313D03*
X0011950Y0067313D03*
X0044350Y0110713D03*
X0046450Y0108413D03*
X0048650Y0111813D03*
X0061650Y0150813D03*
X0060950Y0162013D03*
X0059150Y0168913D03*
X0056750Y0166013D03*
X0055850Y0154513D03*
X0046950Y0163713D03*
X0068350Y0173713D03*
X0072550Y0182313D03*
X0074650Y0178613D03*
X0068350Y0142513D03*
D42*
X0063550Y0130513D03*
X0062950Y0144613D03*
X0051550Y0131413D03*
X0051250Y0126913D03*
X0048150Y0136813D03*
X0044350Y0145313D03*
X0046150Y0155313D03*
X0041950Y0167613D03*
X0040550Y0175713D03*
X0043650Y0188613D03*
X0045750Y0191413D03*
X0047850Y0188913D03*
X0051650Y0189813D03*
X0057050Y0190313D03*
X0060450Y0190213D03*
X0064850Y0192213D03*
X0070650Y0187913D03*
X0072750Y0190913D03*
X0074350Y0186713D03*
X0059750Y0114113D03*
X0062750Y0102713D03*
X0064950Y0104713D03*
X0061550Y0090913D03*
X0062250Y0088013D03*
X0060950Y0084913D03*
X0056150Y0070713D03*
X0056850Y0065513D03*
X0050250Y0065613D03*
X0049450Y0077913D03*
X0048750Y0088113D03*
X0050050Y0092613D03*
X0045750Y0091513D03*
X0045250Y0095113D03*
X0041750Y0102113D03*
X0036350Y0088913D03*
X0033150Y0090113D03*
X0031350Y0086913D03*
X0031250Y0077613D03*
X0027550Y0065713D03*
X0024750Y0070313D03*
X0022750Y0065913D03*
X0022050Y0086413D03*
X0013650Y0087613D03*
X0010750Y0087513D03*
X0010250Y0081713D03*
X0011050Y0078213D03*
X0008350Y0078313D03*
X0005350Y0078513D03*
X0005050Y0081213D03*
X0005250Y0087213D03*
X0008050Y0087213D03*
X0007150Y0064713D03*
X0027650Y0107913D03*
X0027450Y0111413D03*
X0031050Y0100913D03*
X0040250Y0120413D03*
X0040750Y0127113D03*
X0040450Y0134013D03*
X0036350Y0130613D03*
X0033950Y0127213D03*
X0029550Y0134113D03*
X0033750Y0138513D03*
X0034850Y0143013D03*
X0036750Y0154713D03*
X0039650Y0145713D03*
X0029550Y0168413D03*
X0026750Y0179813D03*
X0024850Y0171013D03*
X0021250Y0179013D03*
X0018550Y0175513D03*
X0017150Y0172413D03*
X0016150Y0169313D03*
X0019150Y0168713D03*
X0020150Y0171913D03*
X0014850Y0174513D03*
X0018450Y0194413D03*
X0020550Y0197013D03*
X0018550Y0200813D03*
X0013750Y0199913D03*
X0023450Y0200813D03*
X0024950Y0194613D03*
X0027650Y0197513D03*
X0040850Y0191413D03*
X0025150Y0155713D03*
X0023650Y0151413D03*
X0023650Y0147813D03*
X0019150Y0124913D03*
X0018950Y0121713D03*
X0015550Y0121713D03*
X0015350Y0124913D03*
X0037950Y0071113D03*
X0034650Y0065513D03*
X0042350Y0065413D03*
X0043550Y0071113D03*
X0069550Y0072913D03*
X0070150Y0068713D03*
X0072950Y0073913D03*
X0069550Y0077513D03*
X0069950Y0089313D03*
X0071550Y0101813D03*
X0074250Y0105313D03*
X0075150Y0101113D03*
D43*
X0075303Y0100960D01*
X0075303Y0097490D01*
X0027450Y0111413D02*
X0027450Y0112263D01*
X0027448Y0112365D01*
X0027442Y0112466D01*
X0027433Y0112567D01*
X0027419Y0112668D01*
X0027402Y0112768D01*
X0027380Y0112867D01*
X0027355Y0112965D01*
X0027327Y0113063D01*
X0027294Y0113159D01*
X0027258Y0113254D01*
X0027218Y0113347D01*
X0027175Y0113439D01*
X0027128Y0113529D01*
X0027078Y0113617D01*
X0027024Y0113703D01*
X0026968Y0113788D01*
X0026908Y0113869D01*
X0026844Y0113949D01*
X0026778Y0114026D01*
X0026709Y0114101D01*
X0026638Y0114172D01*
X0026563Y0114241D01*
X0026486Y0114307D01*
X0026406Y0114371D01*
X0026325Y0114431D01*
X0026240Y0114487D01*
X0026154Y0114541D01*
X0026066Y0114591D01*
X0025976Y0114638D01*
X0025884Y0114681D01*
X0025791Y0114721D01*
X0025696Y0114757D01*
X0025600Y0114790D01*
X0025502Y0114818D01*
X0025404Y0114843D01*
X0025305Y0114865D01*
X0025205Y0114882D01*
X0025104Y0114896D01*
X0025003Y0114905D01*
X0024902Y0114911D01*
X0024800Y0114913D01*
D44*
X0039550Y0099213D03*
X0054050Y0108213D03*
X0057950Y0104113D03*
X0041250Y0164313D03*
X0042350Y0171113D03*
X0037050Y0164513D03*
X0032050Y0171413D03*
X0026850Y0174513D03*
X0057850Y0172213D03*
X0060750Y0165713D03*
X0064250Y0175613D03*
X0074550Y0196413D03*
X0073250Y0203513D03*
X0068650Y0204313D03*
X0064350Y0204313D03*
X0064550Y0200813D03*
D45*
X0007250Y0068367D02*
X0007150Y0068267D01*
X0007150Y0064713D01*
D46*
X0040850Y0191413D02*
X0040850Y0197459D01*
X0045850Y0197459D02*
X0045850Y0191513D01*
X0045750Y0191413D01*
D47*
X0030850Y0197459D02*
X0027704Y0197459D01*
X0027650Y0197513D01*
X0067550Y0108013D02*
X0062750Y0103213D01*
X0062750Y0102713D01*
X0067550Y0108013D02*
X0067550Y0114667D01*
X0070350Y0117467D01*
D48*
X0011150Y0092331D02*
X0011150Y0087913D01*
X0010750Y0087513D01*
X0007410Y0092331D02*
X0007410Y0103322D01*
X0007019Y0103713D01*
D49*
X0015350Y0119313D02*
X0013350Y0121313D01*
X0013350Y0124599D01*
X0013868Y0125116D01*
X0014500Y0126642D01*
X0014500Y0127463D01*
X0015350Y0128313D01*
X0019350Y0128313D01*
X0020059Y0127604D01*
X0020059Y0127052D01*
X0020097Y0127014D01*
X0020059Y0126975D01*
X0020059Y0125084D01*
X0020097Y0125045D01*
X0020059Y0125007D01*
X0020059Y0123115D01*
X0020350Y0122824D01*
X0020350Y0121313D01*
X0019350Y0120313D01*
X0019350Y0117313D01*
X0015350Y0117313D01*
X0015350Y0119313D01*
X0015350Y0119105D02*
X0019350Y0119105D01*
X0019350Y0119503D02*
X0015160Y0119503D01*
X0014761Y0119902D02*
X0019350Y0119902D01*
X0019350Y0120300D02*
X0014363Y0120300D01*
X0013964Y0120699D02*
X0019736Y0120699D01*
X0020134Y0121097D02*
X0013566Y0121097D01*
X0013350Y0121496D02*
X0020350Y0121496D01*
X0020350Y0121894D02*
X0013350Y0121894D01*
X0013350Y0122293D02*
X0020350Y0122293D01*
X0020350Y0122691D02*
X0013350Y0122691D01*
X0013350Y0123090D02*
X0020084Y0123090D01*
X0020059Y0123488D02*
X0013350Y0123488D01*
X0013350Y0123887D02*
X0020059Y0123887D01*
X0020059Y0124285D02*
X0013350Y0124285D01*
X0013435Y0124684D02*
X0020059Y0124684D01*
X0020060Y0125082D02*
X0013834Y0125082D01*
X0014019Y0125481D02*
X0020059Y0125481D01*
X0020059Y0125879D02*
X0014184Y0125879D01*
X0014349Y0126278D02*
X0020059Y0126278D01*
X0020059Y0126676D02*
X0014500Y0126676D01*
X0014500Y0127075D02*
X0020059Y0127075D01*
X0020059Y0127473D02*
X0014510Y0127473D01*
X0014909Y0127872D02*
X0019791Y0127872D01*
X0019393Y0128270D02*
X0015307Y0128270D01*
X0015350Y0118706D02*
X0019350Y0118706D01*
X0019350Y0118308D02*
X0015350Y0118308D01*
X0015350Y0117909D02*
X0019350Y0117909D01*
X0019350Y0117511D02*
X0015350Y0117511D01*
X0015850Y0114513D02*
X0019650Y0114513D01*
X0020050Y0114913D01*
X0020050Y0115713D01*
X0020250Y0115913D01*
X0021850Y0115913D01*
X0021950Y0115813D01*
X0021950Y0101513D01*
X0021850Y0101413D01*
X0017450Y0101413D01*
X0017250Y0101213D01*
X0017250Y0099813D01*
X0016950Y0099513D01*
X0013850Y0099513D01*
X0013750Y0099613D01*
X0013750Y0112413D01*
X0015850Y0114513D01*
X0015659Y0114322D02*
X0021950Y0114322D01*
X0021950Y0113924D02*
X0015261Y0113924D01*
X0014862Y0113525D02*
X0021950Y0113525D01*
X0021950Y0113127D02*
X0014464Y0113127D01*
X0014065Y0112728D02*
X0021950Y0112728D01*
X0021950Y0112330D02*
X0013750Y0112330D01*
X0013750Y0111931D02*
X0021950Y0111931D01*
X0021950Y0111533D02*
X0013750Y0111533D01*
X0013750Y0111134D02*
X0021950Y0111134D01*
X0021950Y0110736D02*
X0013750Y0110736D01*
X0013750Y0110337D02*
X0021950Y0110337D01*
X0021950Y0109939D02*
X0013750Y0109939D01*
X0013750Y0109540D02*
X0021950Y0109540D01*
X0021950Y0109142D02*
X0013750Y0109142D01*
X0013750Y0108743D02*
X0021950Y0108743D01*
X0021950Y0108345D02*
X0013750Y0108345D01*
X0013750Y0107946D02*
X0021950Y0107946D01*
X0021950Y0107548D02*
X0013750Y0107548D01*
X0013750Y0107149D02*
X0021950Y0107149D01*
X0021950Y0106751D02*
X0013750Y0106751D01*
X0013750Y0106352D02*
X0021950Y0106352D01*
X0021950Y0105954D02*
X0013750Y0105954D01*
X0013750Y0105555D02*
X0021950Y0105555D01*
X0021950Y0105157D02*
X0013750Y0105157D01*
X0013750Y0104758D02*
X0021950Y0104758D01*
X0021950Y0104360D02*
X0013750Y0104360D01*
X0013750Y0103961D02*
X0021950Y0103961D01*
X0021950Y0103563D02*
X0013750Y0103563D01*
X0013750Y0103164D02*
X0021950Y0103164D01*
X0021950Y0102766D02*
X0013750Y0102766D01*
X0013750Y0102367D02*
X0021950Y0102367D01*
X0021950Y0101969D02*
X0013750Y0101969D01*
X0013750Y0101570D02*
X0021950Y0101570D01*
X0017250Y0101172D02*
X0013750Y0101172D01*
X0013750Y0100773D02*
X0017250Y0100773D01*
X0017250Y0100375D02*
X0013750Y0100375D01*
X0013750Y0099976D02*
X0017250Y0099976D01*
X0017015Y0099578D02*
X0013785Y0099578D01*
X0019858Y0114721D02*
X0021950Y0114721D01*
X0021950Y0115119D02*
X0020050Y0115119D01*
X0020050Y0115518D02*
X0021950Y0115518D01*
X0021250Y0166613D02*
X0021050Y0166813D01*
X0015450Y0166813D01*
X0015450Y0172713D01*
X0013150Y0172713D01*
X0013150Y0181313D01*
X0015012Y0181313D01*
X0015212Y0181113D01*
X0015891Y0181113D01*
X0020950Y0173913D01*
X0021250Y0166613D01*
X0021237Y0166926D02*
X0015450Y0166926D01*
X0015450Y0167324D02*
X0021221Y0167324D01*
X0021204Y0167723D02*
X0015450Y0167723D01*
X0015450Y0168121D02*
X0021188Y0168121D01*
X0021172Y0168520D02*
X0015450Y0168520D01*
X0015450Y0168918D02*
X0021155Y0168918D01*
X0021139Y0169317D02*
X0015450Y0169317D01*
X0015450Y0169716D02*
X0021122Y0169716D01*
X0021106Y0170114D02*
X0015450Y0170114D01*
X0015450Y0170513D02*
X0021090Y0170513D01*
X0021073Y0170911D02*
X0015450Y0170911D01*
X0015450Y0171310D02*
X0021057Y0171310D01*
X0021041Y0171708D02*
X0015450Y0171708D01*
X0015450Y0172107D02*
X0021024Y0172107D01*
X0021008Y0172505D02*
X0015450Y0172505D01*
X0013150Y0172904D02*
X0020991Y0172904D01*
X0020975Y0173302D02*
X0013150Y0173302D01*
X0013150Y0173701D02*
X0020959Y0173701D01*
X0020819Y0174099D02*
X0013150Y0174099D01*
X0013150Y0174498D02*
X0020539Y0174498D01*
X0020259Y0174896D02*
X0013150Y0174896D01*
X0013150Y0175295D02*
X0019979Y0175295D01*
X0019699Y0175693D02*
X0013150Y0175693D01*
X0013150Y0176092D02*
X0019419Y0176092D01*
X0019139Y0176490D02*
X0013150Y0176490D01*
X0013150Y0176889D02*
X0018859Y0176889D01*
X0018579Y0177287D02*
X0013150Y0177287D01*
X0013150Y0177686D02*
X0018299Y0177686D01*
X0018019Y0178084D02*
X0013150Y0178084D01*
X0013150Y0178483D02*
X0017739Y0178483D01*
X0017459Y0178881D02*
X0013150Y0178881D01*
X0013150Y0179280D02*
X0017179Y0179280D01*
X0016899Y0179678D02*
X0013150Y0179678D01*
X0013150Y0180077D02*
X0016619Y0180077D01*
X0016339Y0180475D02*
X0013150Y0180475D01*
X0013150Y0180874D02*
X0016059Y0180874D01*
X0015052Y0181272D02*
X0013150Y0181272D01*
X0060750Y0098313D02*
X0060050Y0097613D01*
X0060050Y0089813D01*
X0060057Y0089813D01*
X0060350Y0089520D01*
X0060350Y0083513D01*
X0060450Y0083413D01*
X0063750Y0083413D01*
X0063850Y0083513D01*
X0063850Y0100413D01*
X0066250Y0102813D01*
X0066250Y0108213D01*
X0062950Y0108213D01*
X0062950Y0106013D01*
X0060750Y0103813D01*
X0060750Y0098313D01*
X0060750Y0098382D02*
X0063850Y0098382D01*
X0063850Y0098780D02*
X0060750Y0098780D01*
X0060750Y0099179D02*
X0063850Y0099179D01*
X0063850Y0099578D02*
X0060750Y0099578D01*
X0060750Y0099976D02*
X0063850Y0099976D01*
X0063850Y0100375D02*
X0060750Y0100375D01*
X0060750Y0100773D02*
X0064210Y0100773D01*
X0064609Y0101172D02*
X0060750Y0101172D01*
X0060750Y0101570D02*
X0065007Y0101570D01*
X0065406Y0101969D02*
X0060750Y0101969D01*
X0060750Y0102367D02*
X0065804Y0102367D01*
X0066203Y0102766D02*
X0060750Y0102766D01*
X0060750Y0103164D02*
X0066250Y0103164D01*
X0066250Y0103563D02*
X0060750Y0103563D01*
X0060898Y0103961D02*
X0066250Y0103961D01*
X0066250Y0104360D02*
X0061297Y0104360D01*
X0061695Y0104758D02*
X0066250Y0104758D01*
X0066250Y0105157D02*
X0062094Y0105157D01*
X0062492Y0105555D02*
X0066250Y0105555D01*
X0066250Y0105954D02*
X0062891Y0105954D01*
X0062950Y0106352D02*
X0066250Y0106352D01*
X0066250Y0106751D02*
X0062950Y0106751D01*
X0062950Y0107149D02*
X0066250Y0107149D01*
X0066250Y0107548D02*
X0062950Y0107548D01*
X0062950Y0107946D02*
X0066250Y0107946D01*
X0063850Y0097983D02*
X0060420Y0097983D01*
X0060050Y0097585D02*
X0063850Y0097585D01*
X0063850Y0097186D02*
X0060050Y0097186D01*
X0060050Y0096788D02*
X0063850Y0096788D01*
X0063850Y0096389D02*
X0060050Y0096389D01*
X0060050Y0095991D02*
X0063850Y0095991D01*
X0063850Y0095592D02*
X0060050Y0095592D01*
X0060050Y0095194D02*
X0063850Y0095194D01*
X0063850Y0094795D02*
X0060050Y0094795D01*
X0060050Y0094397D02*
X0063850Y0094397D01*
X0063850Y0093998D02*
X0060050Y0093998D01*
X0060050Y0093600D02*
X0063850Y0093600D01*
X0063850Y0093201D02*
X0060050Y0093201D01*
X0060050Y0092803D02*
X0063850Y0092803D01*
X0063850Y0092404D02*
X0060050Y0092404D01*
X0060050Y0092006D02*
X0063850Y0092006D01*
X0063850Y0091607D02*
X0060050Y0091607D01*
X0060050Y0091209D02*
X0063850Y0091209D01*
X0063850Y0090810D02*
X0060050Y0090810D01*
X0060050Y0090412D02*
X0063850Y0090412D01*
X0063850Y0090013D02*
X0060050Y0090013D01*
X0060255Y0089615D02*
X0063850Y0089615D01*
X0063850Y0089216D02*
X0060350Y0089216D01*
X0060350Y0088818D02*
X0063850Y0088818D01*
X0063850Y0088419D02*
X0060350Y0088419D01*
X0060350Y0088021D02*
X0063850Y0088021D01*
X0063850Y0087622D02*
X0060350Y0087622D01*
X0060350Y0087224D02*
X0063850Y0087224D01*
X0063850Y0086825D02*
X0060350Y0086825D01*
X0060350Y0086427D02*
X0063850Y0086427D01*
X0063850Y0086028D02*
X0060350Y0086028D01*
X0060350Y0085630D02*
X0063850Y0085630D01*
X0063850Y0085231D02*
X0060350Y0085231D01*
X0060350Y0084833D02*
X0063850Y0084833D01*
X0063850Y0084434D02*
X0060350Y0084434D01*
X0060350Y0084036D02*
X0063850Y0084036D01*
X0063850Y0083637D02*
X0060350Y0083637D01*
D50*
X0061550Y0090913D02*
X0061636Y0090999D01*
X0061636Y0094144D01*
X0018550Y0119672D02*
X0018950Y0121713D01*
X0019150Y0124913D01*
X0015350Y0124913D01*
X0015750Y0124113D01*
X0015550Y0121713D01*
X0018950Y0121713D01*
X0018550Y0119672D02*
X0017350Y0118472D01*
D51*
X0019150Y0124913D02*
X0016842Y0126021D01*
X0015950Y0125129D01*
X0015350Y0124913D01*
X0016842Y0126021D02*
X0017442Y0127102D01*
X0005350Y0078513D02*
X0005950Y0076163D01*
X0007250Y0074863D01*
X0007651Y0075263D01*
X0057026Y0196419D02*
X0056502Y0196944D01*
X0056502Y0199676D01*
X0058050Y0199676D02*
X0058050Y0201586D01*
X0059050Y0199676D02*
X0060488Y0198238D01*
X0060488Y0196444D01*
D52*
X0067150Y0187713D03*
D53*
X0055337Y0094144D02*
X0055337Y0091200D01*
X0054326Y0090189D01*
X0054291Y0080510D01*
D54*
X0010350Y0167467D02*
X0008154Y0169663D01*
X0008100Y0169663D01*
X0008100Y0178913D01*
X0008150Y0178963D01*
X0008150Y0202513D01*
X0010750Y0205113D01*
X0057566Y0205113D01*
X0058050Y0204596D01*
X0058050Y0201586D01*
X0058050Y0203240D01*
X0058050Y0199676D02*
X0056502Y0199676D01*
X0056464Y0199713D01*
X0053104Y0199713D01*
X0050850Y0197459D01*
X0058050Y0199676D02*
X0059050Y0199676D01*
M02*
