%
M48
M72
T01C0.00787
T02C0.00800
T03C0.01000
T04C0.01200
T05C0.01969
T06C0.03543
T07C0.03937
%
T01
X67150Y187713
T02
X72550Y182313
X74650Y178613
X68350Y173713
X60950Y162013
X59150Y168913
X56750Y166013
X55850Y154513
X61650Y150813
X68350Y142513
X48650Y111813
X46450Y108413
X44350Y110713
X34650Y103713
X33150Y99313
X32550Y93513
X31350Y108213
X24350Y99513
X21950Y77713
X24950Y74113
X11950Y67313
X28650Y127113
X29350Y130913
X27350Y144013
X13150Y131713
X6350Y132313
X6150Y142313
X46950Y163713
T03
X42350Y171113
X41250Y164313
X37050Y164513
X32050Y171413
X26850Y174513
X54050Y108213
X57950Y104113
X39550Y99213
X60750Y165713
X57850Y172213
X64250Y175613
X74550Y196413
X73250Y203513
X68650Y204313
X64350Y204313
X64550Y200813
T04
X7150Y64713
X8350Y78313
X10250Y81713
X11050Y78213
X10750Y87513
X8050Y87213
X5250Y87213
X5050Y81213
X5350Y78513
X13650Y87613
X22050Y86413
X24750Y70313
X22750Y65913
X27550Y65713
X31250Y77613
X31350Y86913
X33150Y90113
X36350Y88913
X31050Y100913
X27650Y107913
X27450Y111413
X33950Y127213
X36350Y130613
X33750Y138513
X34850Y143013
X36750Y154713
X39650Y145713
X40450Y134013
X40750Y127113
X40250Y120413
X41750Y102113
X45250Y95113
X45750Y91513
X48750Y88113
X50050Y92613
X49450Y77913
X50250Y65613
X56850Y65513
X56150Y70713
X60950Y84913
X62250Y88013
X61550Y90913
X62750Y102713
X64950Y104713
X59750Y114113
X63550Y130513
X62950Y144613
X51550Y131413
X51250Y126913
X48150Y136813
X44350Y145313
X46150Y155313
X41950Y167613
X40550Y175713
X43650Y188613
X45750Y191413
X47850Y188913
X51650Y189813
X57050Y190313
X60450Y190213
X64850Y192213
X70650Y187913
X72750Y190913
X74350Y186713
X74250Y105313
X75150Y101113
X71550Y101813
X69950Y89313
X69550Y77513
X69550Y72913
X70150Y68713
X72950Y73913
X43550Y71113
X42350Y65413
X37950Y71113
X34650Y65513
X18950Y121713
X19150Y124913
X15350Y124913
X15550Y121713
X23650Y147813
X23650Y151413
X25150Y155713
X29550Y168413
X26750Y179813
X24850Y171013
X21250Y179013
X18550Y175513
X17150Y172413
X16150Y169313
X19150Y168713
X20150Y171913
X14850Y174513
X18450Y194413
X20550Y197013
X18550Y200813
X13750Y199913
X23450Y200813
X24950Y194613
X27650Y197513
X40850Y191413
X29550Y134113
T05
X72350Y97195
X72350Y82431
T06
X63346Y71061
X70350Y117467
X70350Y127467
X70350Y137467
X70350Y147467
X70350Y157467
X70350Y167467
X17283Y71061
X10350Y117467
X10350Y127467
X10350Y137467
X10350Y147467
X10350Y157467
X10350Y167467
T07
X31259Y71061
X49370Y71061
M30
