G75*
%MOIN*%
%OFA0B0*%
%FSLAX25Y25*%
%IPPOS*%
%LPD*%
%AMOC8*
5,1,8,0,0,1.08239X$1,22.5*
%
%ADD10R,0.01063X0.03937*%
%ADD11R,0.03937X0.01063*%
%ADD12R,0.01181X0.00500*%
%ADD13R,0.00500X0.01181*%
%ADD14R,0.01772X0.02165*%
%ADD15R,0.01772X0.02362*%
%ADD16R,0.02165X0.01772*%
%ADD17R,0.02362X0.01772*%
%ADD18R,0.05315X0.03740*%
%ADD19R,0.02756X0.08268*%
%ADD20R,0.03346X0.04921*%
%ADD21R,0.03346X0.05118*%
%ADD22R,0.01969X0.00787*%
%ADD23R,0.02362X0.03150*%
%ADD24R,0.02362X0.03543*%
%ADD25R,0.03740X0.09055*%
%ADD26R,0.04331X0.03150*%
%ADD27R,0.01969X0.03150*%
%ADD28R,0.02165X0.04724*%
%ADD29R,0.05118X0.03346*%
%ADD30R,0.03150X0.10630*%
%ADD31R,0.03346X0.02756*%
%ADD32R,0.03000X0.03500*%
%ADD33R,0.03150X0.01575*%
D10*
X0029523Y0115596D03*
X0031492Y0115596D03*
X0033460Y0115596D03*
X0035429Y0115596D03*
X0037397Y0115596D03*
X0039366Y0115596D03*
X0041334Y0115596D03*
X0043303Y0115596D03*
X0045271Y0115596D03*
X0047240Y0115596D03*
X0049208Y0115596D03*
X0051177Y0115596D03*
X0051177Y0150242D03*
X0049208Y0150242D03*
X0047240Y0150242D03*
X0045271Y0150242D03*
X0043303Y0150242D03*
X0041334Y0150242D03*
X0039366Y0150242D03*
X0037397Y0150242D03*
X0035429Y0150242D03*
X0033460Y0150242D03*
X0031492Y0150242D03*
X0029523Y0150242D03*
D11*
X0023027Y0143746D03*
X0023027Y0141778D03*
X0023027Y0139809D03*
X0023027Y0137841D03*
X0023027Y0131935D03*
X0023027Y0129967D03*
X0023027Y0127998D03*
X0023027Y0126030D03*
X0023027Y0124061D03*
X0023027Y0122093D03*
X0057673Y0122093D03*
X0057673Y0124061D03*
X0057673Y0126030D03*
X0057673Y0127998D03*
X0057673Y0129967D03*
X0057673Y0131935D03*
X0057673Y0133904D03*
X0057673Y0135872D03*
X0057673Y0137841D03*
X0057673Y0139809D03*
X0057673Y0141778D03*
X0057673Y0143746D03*
D12*
X0054278Y0151400D03*
D13*
X0054264Y0151393D03*
D14*
X0024996Y0118370D03*
X0021295Y0118370D03*
D15*
X0021100Y0114913D03*
X0021067Y0111435D03*
X0021200Y0108013D03*
X0024768Y0111435D03*
X0024800Y0114913D03*
X0024900Y0108013D03*
X0028442Y0155619D03*
X0032143Y0155619D03*
X0055875Y0117443D03*
X0059576Y0117443D03*
X0058000Y0100213D03*
X0061700Y0100213D03*
X0062844Y0147786D03*
X0059143Y0147786D03*
D16*
X0062857Y0141733D03*
X0062857Y0138032D03*
X0062952Y0127646D03*
X0062952Y0123945D03*
X0063020Y0119915D03*
X0063020Y0116214D03*
X0063941Y0111012D03*
X0063941Y0107311D03*
X0060496Y0107300D03*
X0060496Y0111000D03*
X0042489Y0096995D03*
X0042489Y0093294D03*
X0039071Y0093349D03*
X0039071Y0097050D03*
X0035548Y0096997D03*
X0035548Y0093296D03*
X0034422Y0106526D03*
X0034422Y0110226D03*
X0037952Y0110226D03*
X0037952Y0106526D03*
X0041333Y0106526D03*
X0041333Y0110226D03*
X0025950Y0096863D03*
X0025950Y0093163D03*
X0022650Y0093263D03*
X0022650Y0096963D03*
X0019350Y0096963D03*
X0019350Y0093263D03*
X0024681Y0162020D03*
X0024681Y0165721D03*
X0018177Y0184642D03*
X0018177Y0188343D03*
X0053732Y0163021D03*
X0053732Y0159320D03*
D17*
X0053732Y0165994D03*
X0053732Y0169695D03*
X0057693Y0163021D03*
X0057693Y0159320D03*
X0057026Y0192719D03*
X0057026Y0196419D03*
X0060488Y0196444D03*
X0060488Y0192744D03*
X0031673Y0165818D03*
X0031673Y0162117D03*
X0028228Y0162020D03*
X0028228Y0165721D03*
X0017442Y0130803D03*
X0017442Y0127102D03*
X0029650Y0096863D03*
X0029650Y0093163D03*
X0011850Y0073963D03*
X0011850Y0070263D03*
D18*
X0037448Y0160104D03*
X0037448Y0167978D03*
X0047291Y0167978D03*
X0047291Y0160104D03*
D19*
X0045850Y0181711D03*
X0050850Y0181711D03*
X0050850Y0197459D03*
X0045850Y0197459D03*
X0040850Y0197459D03*
X0035850Y0197459D03*
X0030850Y0197459D03*
X0030850Y0181711D03*
X0035850Y0181711D03*
X0040850Y0181711D03*
D20*
X0014400Y0178913D03*
X0008100Y0178913D03*
X0055337Y0094144D03*
X0061636Y0094144D03*
D21*
X0027680Y0102930D03*
X0021184Y0102930D03*
D22*
X0022982Y0185235D03*
X0022982Y0186889D03*
X0013678Y0193422D03*
X0013678Y0195075D03*
X0013626Y0186846D03*
X0013626Y0185193D03*
X0058050Y0201586D03*
X0058050Y0203240D03*
D23*
X0053041Y0100306D03*
X0047922Y0100306D03*
D24*
X0050481Y0108180D03*
D25*
X0054291Y0080510D03*
X0044252Y0080510D03*
X0036378Y0080510D03*
X0026338Y0080510D03*
D26*
X0067626Y0084380D03*
X0067626Y0095246D03*
D27*
X0075303Y0097490D03*
X0075303Y0082136D03*
D28*
X0014890Y0082095D03*
X0014890Y0092331D03*
X0011150Y0092331D03*
X0007410Y0092331D03*
X0007410Y0082095D03*
D29*
X0007250Y0068367D03*
X0007250Y0074863D03*
D30*
X0007019Y0103713D03*
X0015681Y0103713D03*
D31*
X0017350Y0113354D03*
X0017350Y0118472D03*
D32*
X0060904Y0183413D03*
X0067596Y0183413D03*
D33*
X0058050Y0202413D03*
M02*
