G75*
%MOIN*%
%OFA0B0*%
%FSLAX25Y25*%
%IPPOS*%
%LPD*%
%AMOC8*
5,1,8,0,0,1.08239X$1,22.5*
%
%ADD10C,0.04137*%
%ADD11R,0.00987X0.02169*%
%ADD12C,0.00394*%
%ADD13C,0.06499*%
%ADD14R,0.06499X0.06499*%
%ADD15C,0.06499*%
%ADD16C,0.03369*%
%ADD17C,0.00100*%
D10*
X0031259Y0071061D03*
X0049370Y0071061D03*
X0040004Y0121242D03*
X0040004Y0127478D03*
X0040004Y0134112D03*
X0040004Y0140990D03*
X0040504Y0150341D03*
D11*
X0044959Y0175193D03*
X0046612Y0175193D03*
D12*
X0048187Y0175115D02*
X0048069Y0176020D01*
X0047993Y0176252D01*
X0047874Y0176465D01*
X0047715Y0176650D01*
X0047363Y0176924D01*
X0046964Y0177124D01*
X0046533Y0177241D01*
X0045156Y0177241D01*
X0045156Y0177201D01*
X0045077Y0177201D01*
X0044691Y0177158D01*
X0044325Y0177030D01*
X0043997Y0176823D01*
X0043722Y0176549D01*
X0043516Y0176221D01*
X0043388Y0175854D01*
X0043344Y0175469D01*
X0043344Y0175036D01*
X0043367Y0174635D01*
X0043479Y0174249D01*
X0043674Y0173897D01*
X0043942Y0173598D01*
X0044270Y0173366D01*
X0044641Y0173213D01*
X0045037Y0173146D01*
X0046219Y0173146D01*
X0046651Y0173193D01*
X0047064Y0173332D01*
X0047437Y0173556D01*
X0047754Y0173855D01*
X0047950Y0174133D01*
X0048090Y0174444D01*
X0048170Y0174775D01*
X0048187Y0175115D01*
X0048186Y0175093D02*
X0043344Y0175093D01*
X0043364Y0174701D02*
X0048152Y0174701D01*
X0048029Y0174309D02*
X0043462Y0174309D01*
X0043663Y0173917D02*
X0047798Y0173917D01*
X0047385Y0173525D02*
X0044046Y0173525D01*
X0043346Y0175486D02*
X0048139Y0175486D01*
X0048087Y0175878D02*
X0043396Y0175878D01*
X0043547Y0176270D02*
X0047983Y0176270D01*
X0047699Y0176662D02*
X0043836Y0176662D01*
X0044396Y0177055D02*
X0047102Y0177055D01*
D13*
X0070350Y0157467D03*
X0070350Y0147467D03*
X0070350Y0137467D03*
X0070350Y0127467D03*
X0070350Y0117467D03*
X0010350Y0117467D03*
X0010350Y0127467D03*
X0010350Y0137467D03*
X0010350Y0147467D03*
X0010350Y0157467D03*
D14*
X0010350Y0167467D03*
X0070350Y0167467D03*
D15*
X0017283Y0074211D02*
X0017283Y0067911D01*
X0063346Y0067911D02*
X0063346Y0074211D01*
D16*
X0072350Y0082431D03*
X0072350Y0097195D03*
D17*
X0044541Y0090158D02*
X0042241Y0089658D01*
X0041841Y0090158D01*
X0042241Y0090658D01*
X0044541Y0090158D01*
X0044317Y0090207D02*
X0041880Y0090207D01*
X0041881Y0090108D02*
X0044312Y0090108D01*
X0043859Y0090010D02*
X0041960Y0090010D01*
X0042039Y0089911D02*
X0043406Y0089911D01*
X0042953Y0089813D02*
X0042118Y0089813D01*
X0042196Y0089714D02*
X0042500Y0089714D01*
X0041959Y0090305D02*
X0043864Y0090305D01*
X0043411Y0090404D02*
X0042038Y0090404D01*
X0042117Y0090502D02*
X0042958Y0090502D01*
X0042505Y0090601D02*
X0042196Y0090601D01*
X0041709Y0090896D02*
X0038549Y0090896D01*
X0038615Y0090798D02*
X0041647Y0090798D01*
X0041584Y0090699D02*
X0038680Y0090699D01*
X0038746Y0090601D02*
X0041522Y0090601D01*
X0041459Y0090502D02*
X0038812Y0090502D01*
X0038878Y0090404D02*
X0041397Y0090404D01*
X0041335Y0090305D02*
X0038943Y0090305D01*
X0039009Y0090207D02*
X0041272Y0090207D01*
X0041241Y0090158D02*
X0043241Y0086958D01*
X0040141Y0088958D01*
X0037041Y0087058D01*
X0039041Y0090158D01*
X0037041Y0093158D01*
X0040141Y0091258D01*
X0043141Y0093158D01*
X0041241Y0090158D01*
X0041272Y0090108D02*
X0039009Y0090108D01*
X0038946Y0090010D02*
X0041334Y0090010D01*
X0041396Y0089911D02*
X0038882Y0089911D01*
X0038819Y0089813D02*
X0041457Y0089813D01*
X0041519Y0089714D02*
X0038755Y0089714D01*
X0038691Y0089616D02*
X0041580Y0089616D01*
X0041642Y0089517D02*
X0038628Y0089517D01*
X0038564Y0089418D02*
X0041703Y0089418D01*
X0041765Y0089320D02*
X0038501Y0089320D01*
X0038437Y0089221D02*
X0041827Y0089221D01*
X0041888Y0089123D02*
X0038374Y0089123D01*
X0038310Y0089024D02*
X0041950Y0089024D01*
X0042011Y0088926D02*
X0040191Y0088926D01*
X0040089Y0088926D02*
X0038247Y0088926D01*
X0038183Y0088827D02*
X0039929Y0088827D01*
X0039768Y0088729D02*
X0038119Y0088729D01*
X0038056Y0088630D02*
X0039607Y0088630D01*
X0039446Y0088532D02*
X0037992Y0088532D01*
X0037929Y0088433D02*
X0039286Y0088433D01*
X0039125Y0088335D02*
X0037865Y0088335D01*
X0037802Y0088236D02*
X0038964Y0088236D01*
X0038803Y0088138D02*
X0037738Y0088138D01*
X0037675Y0088039D02*
X0038643Y0088039D01*
X0038482Y0087941D02*
X0037611Y0087941D01*
X0037547Y0087842D02*
X0038321Y0087842D01*
X0038160Y0087744D02*
X0037484Y0087744D01*
X0037420Y0087645D02*
X0038000Y0087645D01*
X0037839Y0087547D02*
X0037357Y0087547D01*
X0037293Y0087448D02*
X0037678Y0087448D01*
X0037518Y0087350D02*
X0037230Y0087350D01*
X0037166Y0087251D02*
X0037357Y0087251D01*
X0037196Y0087153D02*
X0037103Y0087153D01*
X0037783Y0089714D02*
X0038075Y0089714D01*
X0038041Y0089658D02*
X0035741Y0090158D01*
X0038041Y0090658D01*
X0038341Y0090158D01*
X0038041Y0089658D01*
X0038134Y0089813D02*
X0037330Y0089813D01*
X0036877Y0089911D02*
X0038193Y0089911D01*
X0038252Y0090010D02*
X0036424Y0090010D01*
X0036419Y0090305D02*
X0038253Y0090305D01*
X0038312Y0090207D02*
X0035965Y0090207D01*
X0035970Y0090108D02*
X0038311Y0090108D01*
X0038194Y0090404D02*
X0036872Y0090404D01*
X0037325Y0090502D02*
X0038135Y0090502D01*
X0038076Y0090601D02*
X0037778Y0090601D01*
X0038418Y0091093D02*
X0041834Y0091093D01*
X0041896Y0091192D02*
X0038352Y0091192D01*
X0038286Y0091290D02*
X0040089Y0091290D01*
X0040192Y0091290D02*
X0041958Y0091290D01*
X0042021Y0091389D02*
X0040348Y0091389D01*
X0040503Y0091487D02*
X0042083Y0091487D01*
X0042146Y0091586D02*
X0040659Y0091586D01*
X0040815Y0091684D02*
X0042208Y0091684D01*
X0042270Y0091783D02*
X0040970Y0091783D01*
X0041126Y0091881D02*
X0042333Y0091881D01*
X0042395Y0091980D02*
X0041281Y0091980D01*
X0041437Y0092078D02*
X0042458Y0092078D01*
X0042520Y0092177D02*
X0041592Y0092177D01*
X0041748Y0092275D02*
X0042582Y0092275D01*
X0042645Y0092374D02*
X0041903Y0092374D01*
X0042059Y0092472D02*
X0042707Y0092472D01*
X0042770Y0092571D02*
X0042214Y0092571D01*
X0042370Y0092669D02*
X0042832Y0092669D01*
X0042894Y0092768D02*
X0042526Y0092768D01*
X0042681Y0092866D02*
X0042957Y0092866D01*
X0043019Y0092965D02*
X0042837Y0092965D01*
X0042992Y0093063D02*
X0043082Y0093063D01*
X0041771Y0090995D02*
X0038483Y0090995D01*
X0038221Y0091389D02*
X0039928Y0091389D01*
X0039767Y0091487D02*
X0038155Y0091487D01*
X0038089Y0091586D02*
X0039606Y0091586D01*
X0039446Y0091684D02*
X0038024Y0091684D01*
X0037958Y0091783D02*
X0039285Y0091783D01*
X0039124Y0091881D02*
X0037892Y0091881D01*
X0037827Y0091980D02*
X0038963Y0091980D01*
X0038803Y0092078D02*
X0037761Y0092078D01*
X0037695Y0092177D02*
X0038642Y0092177D01*
X0038481Y0092275D02*
X0037630Y0092275D01*
X0037564Y0092374D02*
X0038321Y0092374D01*
X0038160Y0092472D02*
X0037498Y0092472D01*
X0037433Y0092571D02*
X0037999Y0092571D01*
X0037838Y0092669D02*
X0037367Y0092669D01*
X0037301Y0092768D02*
X0037678Y0092768D01*
X0037517Y0092866D02*
X0037236Y0092866D01*
X0037170Y0092965D02*
X0037356Y0092965D01*
X0037195Y0093063D02*
X0037104Y0093063D01*
X0039707Y0092472D02*
X0040576Y0092472D01*
X0040596Y0092374D02*
X0039686Y0092374D01*
X0039666Y0092275D02*
X0040617Y0092275D01*
X0040637Y0092177D02*
X0039645Y0092177D01*
X0039641Y0092158D02*
X0040141Y0094558D01*
X0040641Y0092158D01*
X0040141Y0091858D01*
X0039641Y0092158D01*
X0039774Y0092078D02*
X0040509Y0092078D01*
X0040345Y0091980D02*
X0039938Y0091980D01*
X0040102Y0091881D02*
X0040180Y0091881D01*
X0040555Y0092571D02*
X0039727Y0092571D01*
X0039748Y0092669D02*
X0040535Y0092669D01*
X0040514Y0092768D02*
X0039768Y0092768D01*
X0039789Y0092866D02*
X0040494Y0092866D01*
X0040473Y0092965D02*
X0039809Y0092965D01*
X0039830Y0093063D02*
X0040453Y0093063D01*
X0040432Y0093162D02*
X0039851Y0093162D01*
X0039871Y0093260D02*
X0040412Y0093260D01*
X0040391Y0093359D02*
X0039892Y0093359D01*
X0039912Y0093457D02*
X0040371Y0093457D01*
X0040350Y0093556D02*
X0039933Y0093556D01*
X0039953Y0093654D02*
X0040330Y0093654D01*
X0040309Y0093753D02*
X0039974Y0093753D01*
X0039994Y0093852D02*
X0040288Y0093852D01*
X0040268Y0093950D02*
X0040015Y0093950D01*
X0040035Y0094049D02*
X0040247Y0094049D01*
X0040227Y0094147D02*
X0040056Y0094147D01*
X0040076Y0094246D02*
X0040206Y0094246D01*
X0040186Y0094344D02*
X0040097Y0094344D01*
X0040117Y0094443D02*
X0040165Y0094443D01*
X0040145Y0094541D02*
X0040138Y0094541D01*
X0040344Y0088827D02*
X0042073Y0088827D01*
X0042134Y0088729D02*
X0040496Y0088729D01*
X0040649Y0088630D02*
X0042196Y0088630D01*
X0042258Y0088532D02*
X0040802Y0088532D01*
X0040954Y0088433D02*
X0042319Y0088433D01*
X0042381Y0088335D02*
X0041107Y0088335D01*
X0041260Y0088236D02*
X0042442Y0088236D01*
X0042504Y0088138D02*
X0041412Y0088138D01*
X0041565Y0088039D02*
X0042565Y0088039D01*
X0042627Y0087941D02*
X0041718Y0087941D01*
X0041870Y0087842D02*
X0042689Y0087842D01*
X0042750Y0087744D02*
X0042023Y0087744D01*
X0042176Y0087645D02*
X0042812Y0087645D01*
X0042873Y0087547D02*
X0042329Y0087547D01*
X0042481Y0087448D02*
X0042935Y0087448D01*
X0042996Y0087350D02*
X0042634Y0087350D01*
X0042787Y0087251D02*
X0043058Y0087251D01*
X0043120Y0087153D02*
X0042939Y0087153D01*
X0043092Y0087054D02*
X0043181Y0087054D01*
X0040555Y0087645D02*
X0039727Y0087645D01*
X0039748Y0087547D02*
X0040535Y0087547D01*
X0040514Y0087448D02*
X0039768Y0087448D01*
X0039789Y0087350D02*
X0040494Y0087350D01*
X0040473Y0087251D02*
X0039809Y0087251D01*
X0039830Y0087153D02*
X0040453Y0087153D01*
X0040432Y0087054D02*
X0039850Y0087054D01*
X0039871Y0086956D02*
X0040412Y0086956D01*
X0040391Y0086857D02*
X0039891Y0086857D01*
X0039912Y0086759D02*
X0040371Y0086759D01*
X0040350Y0086660D02*
X0039933Y0086660D01*
X0039953Y0086562D02*
X0040330Y0086562D01*
X0040309Y0086463D02*
X0039974Y0086463D01*
X0039994Y0086365D02*
X0040289Y0086365D01*
X0040268Y0086266D02*
X0040015Y0086266D01*
X0040035Y0086168D02*
X0040248Y0086168D01*
X0040227Y0086069D02*
X0040056Y0086069D01*
X0040076Y0085971D02*
X0040206Y0085971D01*
X0040186Y0085872D02*
X0040097Y0085872D01*
X0040117Y0085774D02*
X0040165Y0085774D01*
X0040145Y0085675D02*
X0040138Y0085675D01*
X0040141Y0085658D02*
X0039641Y0088058D01*
X0040141Y0088358D01*
X0040641Y0088058D01*
X0040141Y0085658D01*
X0039707Y0087744D02*
X0040576Y0087744D01*
X0040596Y0087842D02*
X0039686Y0087842D01*
X0039666Y0087941D02*
X0040617Y0087941D01*
X0040637Y0088039D02*
X0039645Y0088039D01*
X0039775Y0088138D02*
X0040508Y0088138D01*
X0040344Y0088236D02*
X0039939Y0088236D01*
X0040103Y0088335D02*
X0040180Y0088335D01*
M02*
